<?xml version="1.0" encoding="utf-8"?>
<!-- Generator: Adobe Illustrator 16.0.0, SVG Export Plug-In . SVG Version: 6.00 Build 0)  -->
<!DOCTYPE svg PUBLIC "-//W3C//DTD SVG 1.1//EN" "http://www.w3.org/Graphics/SVG/1.1/DTD/svg11.dtd">
<svg version="1.1" id="Layer_1" xmlns="http://www.w3.org/2000/svg" xmlns:xlink="http://www.w3.org/1999/xlink" x="0px" y="0px"
	 width="270.744px" height="72.25px" viewBox="0 0 270.744 72.25" enable-background="new 0 0 270.744 72.25" xml:space="preserve">
<g>
	<path fill-rule="evenodd" clip-rule="evenodd" fill="#373735" d="M260.099,63.3c-2.857,0-5.716-0.041-8.571,0.022
		c-0.926,0.021-1.245-0.281-1.091-1.144c0.169-0.944-0.206-1.173-1.142-1.16c-4.211,0.056-8.422,0.043-12.633,0.008
		c-0.813-0.007-1.3,0.109-1.114,1.063c0.198,1.024-0.276,1.24-1.245,1.231c-5.376-0.047-10.753-0.039-16.129-0.004
		c-0.85,0.005-1.188-0.157-1.156-1.102c0.074-2.254,0.028-4.511,0.021-6.767c-0.002-0.524-0.006-1.012,0.736-0.957
		c0.492,0.037,0.396-0.34,0.396-0.617c0.004-4.398-0.005-8.798,0.012-13.196c0.002-0.505-0.175-0.688-0.649-0.613
		c-0.745,0.118-0.962-0.192-0.957-0.936c0.029-4.774,0.017-9.55,0.012-14.324c0-0.518-0.003-1.069,0.72-0.979
		c0.826,0.104,0.88-0.312,0.877-0.968c-0.02-5.564,0.014-11.129-0.034-16.692c-0.009-1.021,0.238-1.354,1.305-1.33
		c3.157,0.073,6.322,0.153,9.473,0.002c8.183-0.393,16.367-0.229,24.548-0.155c4.609,0.042,9.222,0.187,13.834,0.162
		c0.854-0.004,0.968,0.352,0.965,1.078c-0.023,5.564-0.01,11.128-0.018,16.692c-0.001,0.684-0.158,1.357,0.966,1.227
		c0.722-0.084,0.619,0.591,0.62,1.067c0.003,4.211,0.001,8.422,0.001,12.633c0,0.488-0.034,0.98,0.009,1.465
		c0.066,0.759-0.188,1.17-1.004,1.054c-0.551-0.078-0.594,0.233-0.593,0.668c0.01,4.512,0.015,9.023-0.005,13.535
		c-0.003,0.539,0.139,0.757,0.692,0.688c0.688-0.086,0.919,0.257,0.91,0.929c-0.026,2.143-0.041,4.286,0.007,6.429
		c0.019,0.836-0.337,1.008-1.077,1C265.889,63.282,262.994,63.3,260.099,63.3z"/>
	<path fill-rule="evenodd" clip-rule="evenodd" fill="#373735" d="M160.644,32.991c0,8.982-0.012,17.965,0.021,26.947
		c0.003,0.878-0.209,1.127-1.112,1.126c-15.973-0.029-31.945-0.03-47.918,0.001c-0.938,0.002-1.103-0.303-1.102-1.152
		c0.022-17.928,0.024-35.855-0.002-53.782c-0.002-0.984,0.276-1.288,1.273-1.286c15.897,0.027,31.795,0.027,47.693-0.003
		c0.959-0.001,1.171,0.285,1.168,1.202C160.631,15.026,160.644,24.009,160.644,32.991z"/>
	<path fill-rule="evenodd" clip-rule="evenodd" fill="#373735" d="M1.802,32.84c0-8.983,0.015-17.967-0.023-26.949
		C1.775,5.002,2.061,4.848,2.862,4.849C18.836,4.869,34.81,4.87,50.784,4.846c0.897-0.002,1.134,0.253,1.132,1.146
		c-0.026,17.966-0.027,35.933,0.001,53.898c0.002,0.983-0.341,1.171-1.234,1.17c-15.899-0.023-31.798-0.028-47.696,0.01
		c-1.055,0.003-1.209-0.344-1.206-1.281C1.815,50.806,1.802,41.822,1.802,32.84z"/>
	<path fill-rule="evenodd" clip-rule="evenodd" fill="#373735" d="M164.928,32.868c0-8.983,0.013-17.966-0.021-26.948
		c-0.003-0.838,0.195-1.076,1.049-1.075c15.974,0.025,31.947,0.024,47.921,0.004c0.847-0.001,1.162,0.173,1.16,1.115
		c-0.03,17.965-0.029,35.931-0.003,53.896c0.001,0.937-0.262,1.203-1.2,1.202c-15.937-0.027-31.872-0.027-47.808,0.001
		c-0.91,0.002-1.121-0.255-1.118-1.135C164.94,50.909,164.928,41.889,164.928,32.868z"/>
	<path fill-rule="evenodd" clip-rule="evenodd" fill="#373735" d="M56.401,32.945c0-8.944,0.015-17.89-0.022-26.835
		c-0.004-0.968,0.208-1.272,1.232-1.271c15.86,0.034,31.721,0.032,47.581,0.004c1.005-0.002,1.332,0.22,1.33,1.295
		c-0.036,17.891-0.034,35.78-0.004,53.67c0.002,0.988-0.238,1.26-1.245,1.258c-15.898-0.033-31.796-0.031-47.694-0.004
		c-0.917,0.002-1.204-0.209-1.2-1.169C56.416,50.911,56.401,41.929,56.401,32.945z"/>
	<path fill-rule="evenodd" clip-rule="evenodd" fill="#484847" d="M108.066,65.555c0.141-0.218,0.281-0.436,0.423-0.652
		c0.105-0.161,0.24-0.321,0.445-0.273c0.302,0.07,0.198,0.348,0.226,0.553c0.112,0.852-0.224,1.731,0.34,2.58
		c0.157,0.237-0.232,0.928-0.504,1.317c-0.113,0.162-0.715,0.292-0.734-0.245c-0.02-0.559-0.247-0.664-0.748-0.682
		c-1.121-0.04-1.171-0.187-0.53-1.214c0.148-0.078,0.284-0.019,0.421,0.037c0.611,0.139,0.594-0.295,0.62-0.685
		C108.006,66.044,108.056,65.801,108.066,65.555z"/>
	<path fill-rule="evenodd" clip-rule="evenodd" fill="#4B4B49" d="M25.758,69.161c0.431-1.233,0.363-2.468,0.122-3.612
		c-0.17-0.808,0.386-0.7,0.677-0.812c0.609-0.235,0.419,0.32,0.438,0.591c0.081,1.188-0.148,2.39,0.132,3.565
		c0.085,0.358-0.163,0.253-0.286,0.261C26.473,69.176,26.1,69.161,25.758,69.161z"/>
	<path fill-rule="evenodd" clip-rule="evenodd" fill="#484846" d="M188.582,65.062c0.209-0.74,0.807-0.319,1.224-0.385
		c0.438-0.069,0.896-0.016,1.538-0.016c-0.549,1.619-1.064,3.141-1.579,4.662c-0.11-0.035-0.221-0.07-0.331-0.104
		c0.006-0.793,0.393-1.502,0.622-2.24c0.474-1.527,0.493-1.521-1.16-1.372C188.463,65.612,188.483,65.36,188.582,65.062z"/>
	<path fill-rule="evenodd" clip-rule="evenodd" fill="#40403E" d="M81.438,68.479c0.04-0.306,0.034-0.63-0.189-0.847
		c-0.486-0.471-0.684-0.767-0.29-1.573c0.456-0.934-0.678-0.66-1.259-0.812c0.524-0.627,1.123-0.871,1.802-0.495
		c0.614,0.342,0.603,0.893,0.196,1.428c-0.154,0.203-0.054,0.329,0.076,0.473c0.65,0.719,0.525,1.41-0.081,2.081
		C81.475,68.781,81.368,68.718,81.438,68.479z"/>
	<path fill-rule="evenodd" clip-rule="evenodd" fill="#3E3E3C" d="M217.779,66.886c0.991,1.014,0.82,1.785-0.509,2.299
		c-0.066-0.083-0.099-0.178-0.104-0.283c0.152-0.674-0.172-1.157-0.637-1.584c-0.191-0.173-0.202-0.462-0.407-0.626
		c-0.761-0.613-0.765-1.23-0.009-1.852c0.561-0.074,0.427,0.463,0.628,0.706c0.147,0.308,0.397,0.534,0.625,0.779
		C217.539,66.486,217.543,66.771,217.779,66.886z"/>
	<path fill-rule="evenodd" clip-rule="evenodd" fill="#444442" d="M162.943,65.154c-0.732,0.871-0.741,0.91-0.284,1.261
		c0.071,0.09,0.097,0.191,0.082,0.304c-0.396,0.712-0.149,1.473-0.163,2.214c-0.06,0.166-0.133,0.312-0.353,0.229
		c-0.914-0.299-1.136-1.051-1.09-1.865c0.065-1.161,0.597-2.062,1.76-2.477C162.991,64.92,163.006,65.031,162.943,65.154z"/>
	<path fill-rule="evenodd" clip-rule="evenodd" fill="#414140" d="M244.076,68.434c0.783-0.987-0.303-0.797-0.668-1.061
		c0.096-0.2,0.278-0.304,0.452-0.418c0.82-0.582,0.188-1.387,0.317-2.074c0.031-0.103,0.088-0.188,0.169-0.258
		c1.734,0.873,1.745,2.771,0.022,4.109C244.112,68.788,244.038,68.667,244.076,68.434z"/>
	<path fill-rule="evenodd" clip-rule="evenodd" fill="#444442" d="M134.539,65.977c0.454,0.003,0.895,0.094,1.296,0.298
		c1.211,0.616,1.207,1.917,0.002,2.69l0.016,0.02c0.491-1.161,0.177-1.81-1.145-1.985c-0.858-0.114-0.92-0.375-0.473-0.996
		C134.327,65.883,134.427,65.874,134.539,65.977z"/>
	<path fill-rule="evenodd" clip-rule="evenodd" fill="#424240" d="M52.568,65.103c0.571-0.636,1.232-0.741,1.874-0.175
		c0.638,0.562,0.408,1.231,0.016,1.833c-0.201,0.308-0.484,0.562-0.73,0.842c-0.12,0.091-0.23,0.08-0.331-0.033
		c0.16-0.414,0.408-0.818,0.458-1.246c0.083-0.695-0.285-1.05-1.017-0.936C52.623,65.412,52.503,65.345,52.568,65.103z"/>
	<path fill-rule="evenodd" clip-rule="evenodd" fill="#424240" d="M162.673,66.649c-0.005-0.078-0.01-0.156-0.015-0.234
		c0.638-0.294,1.035,0.084,1.239,0.576c0.311,0.747,0.216,1.472-0.5,2.002c-0.217,0.062-0.343-0.052-0.439-0.224
		C162.802,68.071,162.712,67.363,162.673,66.649z"/>
	<path fill-rule="evenodd" clip-rule="evenodd" fill="#50504F" d="M134.539,65.977c-0.102,0.009-0.203,0.018-0.304,0.026
		c0.397-1.522,0.397-1.522,2.403-1.251c0.017,0.638-0.32,0.794-0.916,0.807C135.321,65.567,134.692,65.187,134.539,65.977z"/>
	<path fill-rule="evenodd" clip-rule="evenodd" fill="#40403F" d="M243.907,67.101c-0.1,0.213-0.293,0.255-0.499,0.272
		c-0.914-0.734-0.958-1.39-0.166-2.478c0.166-0.161,0.335-0.149,0.506-0.008C244.067,65.606,244.058,66.349,243.907,67.101z"/>
	<path fill-rule="evenodd" clip-rule="evenodd" fill="#4A4A49" d="M53.432,68.339c0.385-0.031,0.77-0.063,1.155-0.095
		c0.421-0.019,0.353,0.237,0.279,0.497c-0.173,0.745-0.77,0.357-1.178,0.412c-0.457,0.062-0.928,0.015-1.423,0.015
		c0.078-0.46,0.369-0.645,0.561-0.895C53.044,68.143,53.211,68.489,53.432,68.339z"/>
	<path fill-rule="evenodd" clip-rule="evenodd" fill="#50504F" d="M216.123,66.691c0.262,0.067,0.4,0.255,0.484,0.496
		c0.101,0.59,0.08,1.188,0.113,1.782c-0.065,0.169-0.154,0.298-0.366,0.213c-1.055-0.621-1.152-1.038-0.394-1.921
		C216.126,67.069,216.199,66.919,216.123,66.691z"/>
	<path fill-rule="evenodd" clip-rule="evenodd" fill="#515150" d="M217.779,66.886c-0.278-0.034-0.418-0.222-0.513-0.461
		c-0.118-0.502-0.062-1.021-0.138-1.527c0.021-0.105,0.067-0.196,0.145-0.271c1.262,0.501,1.359,0.807,0.566,1.854
		C217.728,66.627,217.771,66.747,217.779,66.886z"/>
	<path fill-rule="evenodd" clip-rule="evenodd" fill="#565654" d="M135.836,68.965c-0.494,0.389-1.042,0.355-1.593,0.179
		c-0.211-0.067-0.429-0.225-0.347-0.49c0.099-0.321,0.356-0.346,0.633-0.217c0.432,0.202,0.79,0.583,1.321,0.547
		C135.852,68.984,135.836,68.965,135.836,68.965z"/>
	<path fill-rule="evenodd" clip-rule="evenodd" fill="#8D8D8C" d="M107.158,67.119c-0.059-0.061-0.116-0.12-0.175-0.181
		c0.308-0.503,0.565-1.045,1.083-1.384c0.277,0.187,0.257,0.448,0.182,0.724C107.868,66.537,107.808,67.212,107.158,67.119z"/>
	<path fill-rule="evenodd" clip-rule="evenodd" fill="#424240" d="M79.844,69.192c-0.314-0.07-0.613-0.217-0.45-0.584
		c0.184-0.412,0.482-0.169,0.725-0.012c0.153,0.1,0.293,0.221,0.438,0.332C80.494,69.488,80.129,69.232,79.844,69.192z"/>
	<path fill-rule="evenodd" clip-rule="evenodd" fill="#888887" d="M217.273,64.626c-0.005,0.09-0.01,0.18-0.014,0.27
		c-0.271,0.269-0.376,0.663-0.687,0.9c-0.414-0.193-0.01-0.779-0.459-0.956C216.467,64.592,216.807,64.271,217.273,64.626z"/>
	<path fill-rule="evenodd" clip-rule="evenodd" fill="#8A8A8A" d="M79.844,69.192c0.231-0.103,0.56,0.054,0.713-0.264
		c0.403,0.065,0.655-0.166,0.881-0.45c0.085,0.085,0.17,0.17,0.255,0.255C81.174,69.28,80.586,69.548,79.844,69.192z"/>
	<path fill-rule="evenodd" clip-rule="evenodd" fill="#878786" d="M162.943,65.154c-0.016-0.112-0.032-0.224-0.048-0.335
		c0.316-0.263,0.673-0.315,1.103-0.116C163.646,64.854,163.294,65.004,162.943,65.154z"/>
	<path fill-rule="evenodd" clip-rule="evenodd" fill="#727270" d="M244.076,68.434c0.098,0.1,0.195,0.199,0.293,0.299
		c-0.298,0.367-0.727,0.417-1.152,0.475c-0.05-0.056-0.064-0.109-0.042-0.159c0.021-0.048,0.042-0.072,0.062-0.072
		C243.515,68.795,243.795,68.614,244.076,68.434z"/>
	<path fill-rule="evenodd" clip-rule="evenodd" fill="#878786" d="M243.738,64.887c-0.165,0.003-0.33,0.006-0.496,0.009
		c0.332-0.238,0.616-0.668,1.104-0.272c-0.008,0.094-0.016,0.188-0.023,0.281C244.124,65.048,243.927,65.069,243.738,64.887z"/>
	<path fill-rule="evenodd" clip-rule="evenodd" fill="#7F7F7E" d="M163.089,68.681c0.103,0.104,0.206,0.208,0.309,0.312
		c-0.357,0.289-0.715,0.579-1.173,0.168c0.074-0.074,0.148-0.149,0.223-0.224C162.618,68.741,162.805,68.591,163.089,68.681z"/>
	<path fill-rule="evenodd" clip-rule="evenodd" fill="#5E5E5C" d="M53.432,68.339c-0.22,0.145-0.41,0.007-0.607-0.065
		c0.19-0.234,0.381-0.469,0.572-0.704c0.11,0.012,0.221,0.022,0.331,0.033C53.725,67.886,53.222,67.97,53.432,68.339z"/>
	<path fill-rule="evenodd" clip-rule="evenodd" fill="#939391" d="M216.354,69.183c0.083-0.085,0.167-0.17,0.25-0.255
		c0.234-0.19,0.46-0.178,0.679,0.025c-0.004,0.077-0.008,0.154-0.013,0.231C216.964,69.556,216.659,69.412,216.354,69.183z"/>
	<path fill-rule="evenodd" clip-rule="evenodd" fill="#7C7C7B" d="M188.582,65.062c0.059,0.208,0.065,0.445,0.313,0.545
		c-0.156,0.129-0.348,0.485-0.459,0.337C188.247,65.695,188.375,65.334,188.582,65.062z"/>
	<path fill-rule="evenodd" clip-rule="evenodd" fill="#A2A2A1" d="M243.235,68.976c-0.006,0.077-0.012,0.154-0.019,0.231
		c-0.106,0.18-0.267,0.212-0.444,0.138c-0.038-0.016-0.076-0.122-0.06-0.164C242.812,68.938,243.015,68.928,243.235,68.976z"/>
	<path fill-rule="evenodd" clip-rule="evenodd" fill="#9D9D9D" d="M54.866,68.741c-0.063-0.183-0.039-0.414-0.279-0.497
		c0.11-0.137,0.271-0.426,0.381-0.303C55.176,68.174,55.062,68.491,54.866,68.741z"/>
	<path fill-rule="evenodd" clip-rule="evenodd" fill="#8D8D8C" d="M52.568,65.103c0.09,0.096,0.18,0.19,0.27,0.285
		c-0.132,0.17-0.365,0.436-0.487,0.312C52.156,65.505,52.326,65.247,52.568,65.103z"/>
	<path fill-rule="evenodd" clip-rule="evenodd" fill="#FEFEFE" d="M259.008,44.806c0,3.233,0.028,6.467-0.02,9.699
		c-0.013,0.866,0.183,1.17,1.111,1.147c2.705-0.066,5.413-0.001,8.118-0.034c0.68-0.009,0.997,0.082,0.967,0.886
		c-0.067,1.803-0.037,3.609-0.011,5.413c0.008,0.519-0.115,0.715-0.68,0.713c-5.564-0.02-11.129-0.022-16.693,0.004
		c-0.672,0.004-0.698-0.303-0.694-0.814c0.02-2.029-0.028-4.06,0.025-6.089c0.021-0.799-0.229-1.025-1.018-1.021
		c-4.736,0.031-9.475,0.029-14.211,0.002c-0.791-0.004-1.061,0.269-1.046,1.049c0.037,1.992-0.013,3.986,0.026,5.978
		c0.013,0.654-0.106,0.904-0.846,0.899c-5.15-0.036-10.302-0.032-15.452-0.003c-0.683,0.004-0.901-0.151-0.882-0.864
		c0.054-1.916,0.056-3.836,0-5.751c-0.021-0.723,0.209-0.868,0.885-0.858c2.594,0.039,5.188-0.018,7.782,0.035
		c0.85,0.018,1.079-0.243,1.075-1.082c-0.033-6.429-0.019-12.858-0.019-19.288c0-0.15-0.007-0.301-0.001-0.45
		c0.01-0.246-0.056-0.517-0.304-0.525c-0.328-0.012-0.374,0.29-0.374,0.565c0,1.316-0.061,2.636,0.02,3.947
		c0.053,0.856-0.21,1.062-1.049,1.042c-2.479-0.061-4.964-0.067-7.443,0.002c-0.882,0.025-1.032-0.256-1.024-1.065
		c0.041-4.248,0.057-8.497-0.009-12.745c-0.015-0.997,0.312-1.131,1.196-1.124c5.376,0.041,10.753,0,16.129,0.039
		c0.929,0.007,1.233-0.25,1.224-1.202c-0.044-4.549,0.002-9.099-0.04-13.647c-0.008-0.807,0.221-0.984,0.998-0.978
		c4.624,0.038,9.249,0.041,13.873-0.003c0.83-0.008,0.965,0.265,0.959,1.016c-0.034,4.585,0.007,9.171-0.038,13.756
		c-0.008,0.832,0.177,1.068,1.038,1.062c5.188-0.042,10.375,0.005,15.562-0.04c0.856-0.008,1.049,0.21,1.04,1.045
		c-0.045,4.285-0.05,8.572,0.003,12.857c0.011,0.879-0.252,1.044-1.064,1.026c-2.442-0.055-4.888-0.053-7.331-0.002
		c-0.832,0.018-1.203-0.133-1.127-1.074c0.095-1.158,0.034-2.329,0.016-3.495c-0.006-0.305,0.167-0.825-0.294-0.833
		c-0.558-0.008-0.369,0.552-0.371,0.885C259.003,38.191,259.008,41.498,259.008,44.806z"/>
	<path fill-rule="evenodd" clip-rule="evenodd" fill="#FEFEFE" d="M218.855,14.661c0-2.704,0.043-5.41-0.024-8.112
		c-0.021-0.882,0.258-1.035,1.067-1.023c3.305,0.047,6.61,0.054,9.914-0.003c0.935-0.016,1.285,0.138,1.25,1.19
		c-0.092,2.738-0.001,5.482-0.049,8.224c-0.015,0.809,0.249,1.015,1.023,1.005c0.995-0.014,2.363-0.464,2.892,0.195
		c0.499,0.625,0.153,1.935,0.161,2.943c0.01,1.314-0.016,2.629,0.011,3.943c0.011,0.522-0.042,0.807-0.702,0.804
		c-4.957-0.028-9.915-0.029-14.873,0c-0.693,0.004-0.678-0.339-0.676-0.828C218.862,20.22,218.855,17.44,218.855,14.661z"/>
	<path fill-rule="evenodd" clip-rule="evenodd" fill="#FEFEFE" d="M267.581,14.685c0,2.741-0.027,5.482,0.019,8.223
		c0.013,0.747-0.208,0.927-0.934,0.921c-4.506-0.033-9.012-0.035-13.518,0.002c-0.752,0.006-0.935-0.216-0.918-0.938
		c0.048-2.026,0.056-4.056-0.003-6.082c-0.022-0.774,0.245-0.957,0.951-0.904c0.746,0.057,1.503-0.026,2.251,0.024
		c0.708,0.048,0.897-0.239,0.891-0.913c-0.029-2.854,0.014-5.708-0.029-8.562c-0.012-0.734,0.186-0.939,0.925-0.93
		c3.154,0.042,6.309,0.043,9.462,0c0.75-0.011,0.932,0.21,0.921,0.935C267.556,9.202,267.581,11.943,267.581,14.685z"/>
	<path fill-rule="evenodd" clip-rule="evenodd" fill="#FEFEFE" d="M259.688,47.51c0.001-2.214,0.021-4.428-0.014-6.642
		c-0.01-0.625,0.154-0.831,0.804-0.819c2.101,0.041,4.203,0.039,6.304,0.001c0.633-0.011,0.817,0.169,0.812,0.809
		c-0.026,4.428-0.025,8.856,0,13.284c0.003,0.624-0.154,0.831-0.803,0.819c-2.101-0.04-4.203-0.038-6.304,0
		c-0.635,0.011-0.824-0.171-0.813-0.811C259.711,51.938,259.688,49.725,259.688,47.51z"/>
	<path fill-rule="evenodd" clip-rule="evenodd" fill="#FEFEFE" d="M226.748,47.357c0,2.064-0.022,4.128,0.014,6.191
		c0.012,0.673-0.079,0.994-0.887,0.969c-2.062-0.064-4.128-0.059-6.19-0.002c-0.742,0.021-0.847-0.248-0.843-0.897
		c0.026-4.24,0.034-8.48-0.005-12.721c-0.007-0.73,0.231-0.86,0.892-0.848c2.063,0.04,4.128,0.052,6.19-0.005
		c0.741-0.021,0.854,0.245,0.844,0.896C226.724,43.08,226.748,45.219,226.748,47.357z"/>
	<path fill-rule="evenodd" clip-rule="evenodd" fill="#FEFEFE" d="M243.691,5.315c3.644,0,7.288,0.033,10.931-0.024
		c0.879-0.014,1.041,0.253,1.025,1.064c-0.053,2.666-0.039,5.334-0.006,8.001c0.008,0.646-0.096,0.903-0.84,0.904
		c-2.555,0.001-2.554,0.037-2.555-2.557c0-1.277-0.021-2.556,0.01-3.832c0.015-0.637-0.234-0.859-0.859-0.857
		c-5.185,0.014-10.368,0.015-15.553-0.003c-0.6-0.002-0.772,0.211-0.764,0.79c0.029,1.878-0.015,3.757,0.025,5.635
		c0.013,0.633-0.169,0.81-0.809,0.818c-2.586,0.036-2.586,0.06-2.586-2.519c0-2.104,0.062-4.211-0.026-6.311
		c-0.042-0.988,0.291-1.146,1.187-1.133C236.477,5.346,240.084,5.315,243.691,5.315z"/>
	<path fill-rule="evenodd" clip-rule="evenodd" fill="#FEFEFE" d="M243.001,60.362c-2.213,0-4.426-0.021-6.639,0.013
		c-0.614,0.01-0.857-0.133-0.827-0.794c0.054-1.161,0.04-2.326,0.004-3.487c-0.017-0.537,0.149-0.701,0.692-0.698
		c4.501,0.02,9.002,0.019,13.503,0.001c0.519-0.002,0.73,0.116,0.711,0.679c-0.04,1.161-0.047,2.326,0.002,3.487
		c0.025,0.634-0.167,0.825-0.808,0.814C247.427,60.339,245.214,60.362,243.001,60.362z"/>
	<path fill-rule="evenodd" clip-rule="evenodd" fill="#FEFEFE" d="M159.964,32.947c0,8.758-0.016,17.516,0.023,26.273
		c0.004,0.931-0.21,1.167-1.156,1.165c-15.485-0.033-30.972-0.032-46.457-0.001c-0.927,0.002-1.169-0.203-1.168-1.152
		c0.033-17.516,0.032-35.031,0.002-52.547c-0.002-0.931,0.209-1.167,1.154-1.165c15.486,0.033,30.973,0.033,46.458,0.001
		c0.927-0.002,1.173,0.202,1.168,1.152C159.948,15.432,159.964,24.189,159.964,32.947z"/>
	<path fill-rule="evenodd" clip-rule="evenodd" fill="#FEFEFE" d="M51.215,32.959c0,8.758-0.017,17.517,0.024,26.273
		c0.004,0.952-0.244,1.154-1.169,1.152c-15.486-0.031-30.972-0.031-46.458,0.002c-0.947,0.002-1.155-0.237-1.153-1.166
		C2.49,41.705,2.491,24.189,2.458,6.674C2.457,5.725,2.698,5.52,3.625,5.521c15.486,0.032,30.972,0.032,46.458-0.001
		c0.945-0.002,1.16,0.234,1.156,1.165C51.2,15.443,51.216,24.201,51.215,32.959z"/>
	<path fill-rule="evenodd" clip-rule="evenodd" fill="#FEFEFE" d="M165.609,32.959c0-8.757,0.016-17.515-0.023-26.271
		c-0.004-0.926,0.202-1.169,1.152-1.167c15.484,0.033,30.97,0.033,46.455,0.001c0.927-0.002,1.167,0.203,1.166,1.152
		c-0.033,17.515-0.032,35.029-0.002,52.544c0.002,0.924-0.198,1.171-1.15,1.169c-15.485-0.034-30.971-0.033-46.455-0.002
		c-0.928,0.002-1.172-0.204-1.167-1.153C165.625,50.475,165.609,41.717,165.609,32.959z"/>
	<path fill-rule="evenodd" clip-rule="evenodd" fill="#FEFEFE" d="M105.816,32.968c0,8.757-0.018,17.515,0.024,26.272
		c0.005,0.965-0.265,1.146-1.177,1.144c-15.485-0.03-30.971-0.031-46.457,0.003c-0.96,0.002-1.148-0.258-1.146-1.174
		c0.029-17.516,0.031-35.031-0.002-52.546c-0.002-0.966,0.265-1.146,1.177-1.145c15.486,0.03,30.971,0.032,46.458-0.003
		c0.961-0.002,1.15,0.259,1.146,1.175C105.8,15.451,105.816,24.21,105.816,32.968z"/>
	<path fill-rule="evenodd" clip-rule="evenodd" fill="#FBFBFB" d="M107.158,67.119c0.449-0.169,0.411-0.97,1.09-0.841
		c-0.098,0.373,0.213,0.882-0.225,1.108C107.778,67.514,107.285,67.714,107.158,67.119z"/>
	<path fill-rule="evenodd" clip-rule="evenodd" fill="#F5F5F5" d="M217.283,68.953c-0.226-0.008-0.452-0.017-0.679-0.025
		c-0.416-0.581-0.323-1.161,0.003-1.74C217.32,67.59,217.829,68.069,217.283,68.953z"/>
	<path fill-rule="evenodd" clip-rule="evenodd" fill="#EBEBEB" d="M216.573,65.796c-0.058-0.518-0.087-1.015,0.687-0.9
		c0.374,0.508,0.412,1.018,0.007,1.529C217.035,66.216,216.803,66.006,216.573,65.796z"/>
	<path fill-rule="evenodd" clip-rule="evenodd" fill="#F4F4F4" d="M163.089,68.681c-0.174,0.187-0.378,0.296-0.642,0.257
		c-0.312-0.545-0.312-1.145-0.306-1.745c0.005-0.354,0.139-0.572,0.531-0.543C163.26,67.234,163.102,67.973,163.089,68.681z"/>
	<path fill-rule="evenodd" clip-rule="evenodd" fill="#EFEFEF" d="M243.738,64.887c0.195,0.006,0.39,0.012,0.585,0.018
		c0.216,0.553,0.32,1.118,0.299,1.718c-0.019,0.534-0.279,0.614-0.715,0.479C243.555,66.385,243.575,65.642,243.738,64.887z"/>
	<path fill-rule="evenodd" clip-rule="evenodd" fill="#383836" d="M243.228,20.883c-1.464,0-2.927,0.003-4.391-0.003
		c-0.247-0.001-0.611,0.091-0.64-0.269c-0.034-0.42,0.34-0.408,0.64-0.408c2.964-0.002,5.929-0.003,8.894,0.002
		c0.294,0,0.678-0.014,0.642,0.412c-0.031,0.361-0.4,0.26-0.642,0.261C246.23,20.888,244.729,20.883,243.228,20.883z"/>
	<path fill-rule="evenodd" clip-rule="evenodd" fill="#3A3A38" d="M246.84,12.563c0.368,0,0.737-0.001,1.105-0.002
		c0.199,0.199,0.511,0.207,0.706,0.412c0.562,0.738,0.627,2.175,0.117,2.624c-0.45,0.397-2.209,0.464-2.666,0.101
		c-0.559-0.444-0.549-1.957,0.019-2.733C246.33,12.774,246.635,12.759,246.84,12.563z"/>
	<path fill-rule="evenodd" clip-rule="evenodd" fill="#393937" d="M241.169,12.998c0.504,0.851,0.474,1.805-0.072,2.501
		c-0.547,0.698-1.548,0.516-2.339,0.354c-0.882-0.181-1.03-1.886-0.308-2.888c0.208-0.19,0.514-0.206,0.719-0.4
		c0.368-0.003,0.736-0.005,1.104-0.007C240.506,12.838,240.957,12.676,241.169,12.998z"/>
	<path fill-rule="evenodd" clip-rule="evenodd" fill="#434341" d="M245,16.671c-0.035,1.107-0.579,1.699-1.497,1.63
		c-0.887-0.067-1.438-0.832-1.349-1.849c0.019-0.206,0.084-0.379,0.275-0.439c0.234-0.074,0.317,0.119,0.385,0.295
		c0.041,0.104,0.086,0.21,0.103,0.319c0.067,0.446,0.075,0.926,0.735,0.894c0.663-0.033,0.586-0.557,0.664-0.976
		c0.049-0.26,0.092-0.577,0.426-0.52C245.072,16.082,245.025,16.407,245,16.671z"/>
	<path fill-rule="evenodd" clip-rule="evenodd" fill="#393937" d="M247.443,12.12c-0.546-0.206-1.596,0.258-1.572-0.324
		c0.033-0.778,1.044-0.35,1.609-0.362c0.585-0.013,1.706-0.316,1.672,0.288C249.108,12.494,248.03,11.883,247.443,12.12z"/>
	<path fill-rule="evenodd" clip-rule="evenodd" fill="#3A3A38" d="M239.531,12.117c-0.499-0.179-1.43,0.264-1.438-0.337
		c-0.008-0.698,0.911-0.355,1.401-0.349c0.526,0.008,1.479-0.391,1.497,0.364C241.006,12.379,240.035,11.929,239.531,12.117z"/>
	<path fill-rule="evenodd" clip-rule="evenodd" fill="#7A7A79" d="M241.169,12.998c-0.355-0.032-0.78,0.08-0.896-0.44
		C240.671,12.504,241.081,12.425,241.169,12.998z"/>
	<path fill-rule="evenodd" clip-rule="evenodd" fill="#757573" d="M239.169,12.564c-0.062,0.45-0.386,0.434-0.719,0.4
		C238.488,12.467,238.823,12.506,239.169,12.564z"/>
	<path fill-rule="evenodd" clip-rule="evenodd" fill="#757573" d="M246.84,12.563c-0.062,0.45-0.386,0.435-0.719,0.401
		C246.158,12.467,246.494,12.506,246.84,12.563z"/>
	<path fill-rule="evenodd" clip-rule="evenodd" fill="#70706F" d="M248.652,12.974c-0.334,0.031-0.64,0.015-0.706-0.412
		C248.294,12.505,248.628,12.473,248.652,12.974z"/>
	<path fill-rule="evenodd" clip-rule="evenodd" fill="#373735" d="M135.256,13.434c2.405,0,4.811,0.023,7.216-0.014
		c0.789-0.012,1.054,0.265,1.039,1.05c-0.04,2.142-0.058,4.285,0.007,6.426c0.027,0.896-0.231,1.281-1.133,1.117
		c-1.107-0.201-1.541,0.188-1.395,1.355c0.125,0.996-0.32,2.357,0.189,2.933c0.594,0.67,1.975,0.192,3.012,0.208
		c2.18,0.034,4.359,0.03,6.539-0.001c0.688-0.01,0.909,0.223,0.902,0.913c-0.03,3.194-0.03,6.39,0,9.584
		c0.007,0.659-0.223,0.837-0.846,0.814c-1.164-0.04-2.33,0.009-3.495-0.021c-0.482-0.012-0.649,0.127-0.646,0.631
		c0.021,2.818,0.021,5.638-0.001,8.456c-0.004,0.507,0.172,0.642,0.65,0.629c1.089-0.028,2.181,0.022,3.27-0.02
		c0.755-0.029,1.1,0.196,1.067,1.017c-0.052,1.352-0.046,2.707,0,4.059c0.022,0.662-0.224,0.818-0.845,0.813
		c-3.194-0.026-6.39-0.031-9.584,0.003c-0.705,0.008-0.912-0.225-0.886-0.905c0.046-1.201-0.013-2.406,0.023-3.607
		c0.017-0.539-0.15-0.704-0.693-0.698c-2.706,0.024-5.413,0.025-8.118-0.002c-0.566-0.006-0.69,0.2-0.678,0.717
		c0.03,1.239-0.017,2.481,0.021,3.72c0.018,0.592-0.178,0.777-0.771,0.772c-3.307-0.023-6.614-0.024-9.922,0.001
		c-0.634,0.005-0.858-0.188-0.841-0.832c0.04-1.428,0.052-2.857-0.002-4.284c-0.031-0.831,0.327-1.035,1.074-1.002
		c1.013,0.044,2.029-0.012,3.044,0.021c0.491,0.016,0.644-0.143,0.64-0.638c-0.021-2.743-0.021-5.487,0.001-8.23
		c0.005-0.518-0.191-0.629-0.658-0.618c-1.127,0.025-2.256-0.021-3.382,0.018c-0.683,0.024-0.943-0.236-0.94-0.913
		c0.016-3.232,0.026-6.465-0.006-9.696c-0.008-0.8,0.368-0.925,1.04-0.92c2.894,0.022,5.789-0.019,8.682,0.028
		c0.76,0.013,0.995-0.223,0.907-0.941c-0.049-0.407-0.009-0.826-0.009-1.239c0-1.737,0.002-1.759-1.724-1.887
		c-0.525-0.039-0.759-0.244-0.759-0.746c-0.003-2.48,0.012-4.961-0.012-7.441c-0.007-0.735,0.476-0.626,0.915-0.627
		C130.52,13.432,132.888,13.434,135.256,13.434z"/>
	<path fill-rule="evenodd" clip-rule="evenodd" fill="#373735" d="M27.776,23.813c0.864-0.001,1.729,0.02,2.593-0.008
		c0.586-0.018,0.807,0.218,0.778,0.801c-0.035,0.713-0.015,1.428-0.005,2.143c0.008,0.583,0.067,1.145-0.808,1.151
		c-0.553,0.004-0.265,0.507-0.319,0.79c-0.068,0.356,0.07,0.552,0.482,0.542c0.864-0.021,1.73,0.026,2.592-0.016
		c0.716-0.035,1.031,0.197,0.992,0.959c-0.051,0.974-0.056,1.956,0.002,2.93c0.042,0.709-0.219,0.983-0.894,0.859
		c-0.863-0.157-1.019,0.285-0.933,1.01c0.044,0.371,0.041,0.755,0.001,1.126c-0.091,0.863,0.017,1.483,1.142,1.263
		c0.447-0.088,0.639,0.161,0.683,0.648c0.184,2.054,0.203,2.053-1.851,2.053c-0.414,0-0.832-0.042-1.239,0.008
		c-1.158,0.141-1.943-0.081-1.674-1.513c0.038-0.203,0.057-0.502-0.266-0.51c-0.864-0.021-1.736-0.076-2.59,0.017
		c-0.542,0.059-0.295,0.625-0.267,0.933c0.078,0.844-0.222,1.145-1.076,1.081c-0.935-0.069-1.879-0.04-2.817-0.008
		c-0.621,0.021-0.915-0.198-0.873-0.841c0.026-0.411,0.045-0.832-0.004-1.238c-0.088-0.722,0.229-0.971,0.898-0.863
		c0.725,0.115,1.036-0.153,0.923-0.904c-0.044-0.294-0.044-0.606-0.001-0.9c0.147-0.99-0.072-1.592-1.258-1.364
		c-0.581,0.111-0.804-0.196-0.789-0.775c0.026-1.052,0.021-2.104,0.002-3.156c-0.011-0.573,0.224-0.822,0.803-0.808
		c0.826,0.021,1.654,0.026,2.479-0.006c0.277-0.011,0.745,0.223,0.771-0.339c0.015-0.328,0.192-0.773-0.452-0.805
		c-0.354-0.017-0.434-0.367-0.435-0.688c-0.003-0.978,0.006-1.954-0.004-2.932c-0.005-0.496,0.257-0.648,0.708-0.643
		C25.972,23.821,26.874,23.813,27.776,23.813z"/>
	<path fill-rule="evenodd" clip-rule="evenodd" fill="#373735" d="M190.117,7.793c3.12,0,6.239,0.021,9.359-0.015
		c0.807-0.01,1.132,0.192,1.118,1.067c-0.048,3.006-0.044,6.014-0.001,9.021c0.011,0.822-0.298,1.008-1.056,1.005
		c-2.12-0.006-2.12,0.023-2.12,2.168c0,0.939,0.046,1.882-0.016,2.817c-0.046,0.697,0.169,0.882,0.869,0.875
		c3.796-0.036,7.593,0.013,11.389-0.038c0.976-0.014,1.348,0.167,1.325,1.262c-0.078,3.795-0.067,7.593-0.007,11.388
		c0.018,1.047-0.21,1.475-1.34,1.392c-1.383-0.101-2.78,0.001-4.17-0.036c-0.594-0.016-0.854,0.093-0.848,0.778
		c0.034,3.834,0.029,7.668,0.004,11.502c-0.005,0.619,0.142,0.846,0.8,0.825c1.539-0.047,3.082,0.011,4.622-0.026
		c0.644-0.016,0.947,0.103,0.926,0.85c-0.054,1.841-0.047,3.685-0.004,5.524c0.018,0.725-0.275,0.88-0.931,0.876
		c-4.134-0.022-8.269-0.024-12.403,0.001c-0.693,0.005-0.924-0.224-0.909-0.909c0.036-1.69-0.017-3.383,0.026-5.073
		c0.017-0.64-0.176-0.817-0.812-0.812c-3.608,0.029-7.217,0.031-10.825-0.001c-0.661-0.006-0.809,0.214-0.796,0.83
		c0.038,1.729-0.007,3.458,0.024,5.187c0.011,0.583-0.165,0.781-0.765,0.778c-4.359-0.021-8.72-0.021-13.08-0.001
		c-0.646,0.003-0.852-0.231-0.844-0.856c0.024-2.029,0.03-4.06-0.003-6.089c-0.013-0.749,0.289-0.991,1.004-0.976
		c1.428,0.033,2.857-0.017,4.284,0.023c0.608,0.017,0.841-0.12,0.834-0.789c-0.033-3.608-0.029-7.217-0.002-10.825
		c0.005-0.628-0.158-0.839-0.807-0.819c-1.502,0.046-3.008-0.022-4.51,0.029c-0.764,0.027-1.041-0.168-1.033-0.989
		c0.041-4.059,0.039-8.118,0.002-12.178c-0.008-0.857,0.292-1.088,1.113-1.08c3.796,0.034,7.593-0.007,11.389,0.032
		c0.786,0.009,1.142-0.102,1.075-1.012c-0.093-1.271-0.054-2.556-0.01-3.832c0.021-0.621-0.146-0.82-0.8-0.828
		c-2.372-0.027-2.372-0.055-2.372-2.446c0-2.556,0.03-5.112-0.019-7.667c-0.015-0.764,0.229-0.954,0.958-0.946
		C183.877,7.812,186.998,7.793,190.117,7.793z"/>
	<path fill-rule="evenodd" clip-rule="evenodd" fill="#373735" d="M81.185,17.043c1.766,0,3.533,0.039,5.299-0.017
		c0.858-0.026,1.104,0.286,1.076,1.111c-0.055,1.576-0.048,3.157-0.002,4.734c0.021,0.713-0.157,1.085-0.926,0.946
		s-0.916,0.222-0.91,0.928c0.017,2.225-0.012,2.225,2.206,2.225c1.654,0,3.309,0.023,4.961-0.011
		c0.731-0.015,0.994,0.251,0.984,0.987c-0.032,2.404-0.04,4.811,0.005,7.216c0.014,0.74-0.28,0.873-0.926,0.853
		c-0.932-0.029-2.217-0.334-2.712,0.143c-0.642,0.616-0.177,1.908-0.21,2.908c-0.037,1.126,0.062,2.26-0.031,3.38
		c-0.074,0.902,0.275,1.092,1.072,1.011c0.633-0.063,1.279,0.022,1.915-0.021c0.707-0.049,0.916,0.252,0.887,0.925
		c-0.045,1.013-0.036,2.03-0.003,3.043c0.019,0.563-0.131,0.803-0.749,0.795c-2.405-0.03-4.811-0.026-7.216-0.003
		c-0.653,0.007-0.879-0.284-0.849-0.883c0.01-0.188,0.013-0.377-0.001-0.563c-0.069-0.925,0.418-2.188-0.191-2.684
		c-0.573-0.466-1.787-0.156-2.719-0.167c-1.165-0.012-2.332,0.029-3.495-0.016c-0.619-0.023-0.867,0.135-0.826,0.797
		c0.057,0.898-0.007,1.804,0.022,2.705c0.018,0.538-0.086,0.822-0.728,0.813c-2.479-0.03-4.96-0.026-7.441-0.003
		c-0.639,0.006-0.878-0.253-0.869-0.865c0.017-1.127,0.018-2.255,0-3.382c-0.009-0.527,0.202-0.751,0.731-0.737
		c0.751,0.02,1.504-0.022,2.254,0.014c0.496,0.023,0.645-0.147,0.639-0.639c-0.024-1.991-0.025-3.984,0-5.976
		c0.007-0.519-0.197-0.633-0.661-0.615c-0.788,0.029-1.579-0.013-2.367,0.015c-0.581,0.02-0.823-0.233-0.822-0.796
		c0.005-2.48,0.013-4.962-0.004-7.442c-0.006-0.782,0.48-0.806,1.049-0.804c2.03,0.008,4.06-0.032,6.088,0.021
		c0.758,0.02,1.129-0.136,0.999-0.963c-0.052-0.331-0.045-0.681-0.002-1.013c0.108-0.844-0.045-1.394-1.087-1.2
		c-0.634,0.118-0.739-0.27-0.732-0.806c0.021-1.691,0.038-3.383-0.007-5.073c-0.018-0.687,0.183-0.921,0.885-0.904
		C77.576,17.072,79.38,17.044,81.185,17.043z"/>
	<path fill-rule="evenodd" clip-rule="evenodd" fill="#F8F8F8" d="M247.383,15.23c-0.726,0.1-0.99-0.201-1.028-0.943
		c-0.044-0.889,0.471-0.831,1.064-0.858c0.69-0.032,1.011,0.146,1.016,0.933C248.44,15.199,248.029,15.305,247.383,15.23z"/>
	<path fill-rule="evenodd" clip-rule="evenodd" fill="#F5F5F5" d="M240.732,14.377c0.107,1.055-0.64,0.81-1.198,0.868
		c-0.885,0.093-0.819-0.5-0.834-1.085c-0.026-1.073,0.779-0.638,1.281-0.716C240.786,13.318,240.807,13.845,240.732,14.377z"/>
	<path fill-rule="evenodd" clip-rule="evenodd" fill="#FEFEFE" d="M145.976,40.499c0,2.218,0.026,4.436-0.015,6.652
		c-0.014,0.769,0.199,1.094,1.015,1.049c1.087-0.059,2.181,0.012,3.27-0.024c0.532-0.018,0.779,0.139,0.694,0.688
		c-0.006,0.037,0,0.075-0.001,0.113c-0.022,1.195,0.405,2.77-0.193,3.483c-0.622,0.742-2.253,0.197-3.44,0.222
		c-1.729,0.035-3.46-0.033-5.187,0.026c-0.834,0.028-1.21-0.133-1.128-1.075c0.094-1.082-0.002-2.18,0.03-3.269
		c0.02-0.629-0.214-0.871-0.849-0.867c-3.044,0.018-6.089,0.024-9.134-0.005c-0.73-0.007-0.885,0.312-0.866,0.955
		c0.034,1.202-0.009,2.406,0.02,3.608c0.011,0.484-0.133,0.648-0.634,0.645c-2.97-0.021-5.939-0.021-8.908,0
		c-0.51,0.004-0.637-0.177-0.625-0.651c0.027-1.127,0.046-2.257-0.006-3.382c-0.03-0.644,0.244-0.739,0.789-0.721
		c1.014,0.034,2.031-0.02,3.044,0.021c0.672,0.025,0.932-0.192,0.928-0.896c-0.023-4.623-0.009-9.247-0.021-13.87
		c0-0.295,0.174-0.81-0.339-0.787c-0.456,0.021-0.325,0.514-0.329,0.829c-0.012,1.052-0.041,2.106,0.01,3.156
		c0.029,0.62-0.2,0.78-0.772,0.735c-1.148-0.092-2.642,0.468-3.347-0.234c-0.554-0.552-0.168-2.059-0.175-3.142
		c-0.011-1.955,0.03-3.91-0.021-5.863c-0.018-0.729,0.175-0.948,0.924-0.936c2.855,0.045,5.713-0.013,8.569,0.037
		c0.869,0.016,1.177-0.189,1.155-1.12c-0.063-2.78-0.002-5.562-0.038-8.344c-0.009-0.698,0.125-0.969,0.904-0.954
		c2.743,0.053,5.488,0.04,8.231,0.007c0.636-0.008,0.82,0.172,0.813,0.811c-0.033,2.932,0.009,5.864-0.03,8.796
		c-0.01,0.786,0.228,1.037,1.025,1.024c2.894-0.043,5.789,0.008,8.683-0.034c0.728-0.01,0.946,0.174,0.934,0.922
		c-0.046,2.743-0.038,5.487-0.003,8.231c0.008,0.646-0.187,0.841-0.818,0.803c-1.118-0.066-2.55,0.345-3.271-0.204
		c-0.688-0.524-0.126-2.038-0.213-3.111c-0.028-0.343,0.171-0.925-0.341-0.915c-0.479,0.009-0.328,0.587-0.33,0.938
		C145.97,36.063,145.976,38.281,145.976,40.499z"/>
	<path fill-rule="evenodd" clip-rule="evenodd" fill="#FEFEFE" d="M135.408,15.919c-1.577,0-3.156,0.032-4.731-0.014
		c-0.75-0.022-0.984,0.246-0.958,0.976c0.046,1.312-0.045,2.632,0.033,3.941c0.053,0.892-0.492,0.696-0.994,0.742
		c-0.598,0.055-0.864-0.083-0.848-0.772c0.048-1.951,0.038-3.905,0.004-5.857c-0.011-0.604,0.113-0.841,0.786-0.836
		c4.431,0.03,8.862,0.025,13.294,0.004c0.599-0.004,0.856,0.102,0.84,0.781c-0.047,1.914-0.055,3.831,0.002,5.745
		c0.023,0.779-0.396,0.727-0.904,0.708c-0.47-0.017-0.978,0.146-0.936-0.677c0.063-1.236-0.025-2.479,0.032-3.716
		c0.035-0.774-0.189-1.071-1.002-1.041C138.489,15.959,136.947,15.919,135.408,15.919z"/>
	<path fill-rule="evenodd" clip-rule="evenodd" fill="#FEFEFE" d="M25.967,26.246c0.097-0.802,0.718-0.363,1.051-0.372
		c2.307-0.06,2.308-0.037,2.309,2.299c0,1.734,0,1.734,1.649,1.734c2.535,0.001,2.507,0,2.432,2.676
		c-0.018,0.64-0.248,0.766-0.788,0.705c-0.569-0.063-0.3-0.496-0.351-0.778c-0.05-0.28,0.083-0.726-0.312-0.731
		c-0.483-0.008-0.367,0.472-0.369,0.782c-0.011,1.539,0.03,3.08-0.021,4.618c-0.023,0.73,0.272,0.921,0.925,0.856
		c0.49-0.049,0.927-0.104,0.923,0.689c-0.004,0.835-0.508,0.645-0.961,0.657c-0.3,0.008-0.604-0.031-0.9,0.007
		c-1.075,0.14-1.841-0.016-1.557-1.401c0.102-0.501-0.233-0.645-0.68-0.641c-0.976,0.009-1.954,0.038-2.928-0.01
		c-0.672-0.032-1.028,0.169-0.891,0.877c0.202,1.04-0.273,1.313-1.217,1.18c-0.405-0.059-0.826-0.026-1.237-0.007
		c-0.562,0.027-0.972,0.047-0.966-0.777c0.006-0.777,0.328-0.882,0.935-0.801c0.646,0.086,0.947-0.104,0.921-0.843
		c-0.054-1.537-0.01-3.078-0.022-4.617c-0.002-0.309,0.132-0.814-0.344-0.797c-0.439,0.016-0.361,0.521-0.32,0.831
		c0.098,0.746-0.188,1.004-0.923,0.916c-0.343-0.04-0.462-0.166-0.441-0.482c0.002-0.037,0.002-0.075-0.001-0.112
		c-0.252-2.796-0.252-2.796,2.513-2.797c1.549,0,1.546,0,1.55-1.602c0.001-0.562,0.021-1.126,0.032-1.688
		c0.221-0.311,0.512,0.162,0.75-0.065C26.539,26.278,26.178,26.447,25.967,26.246z"/>
	<path fill-rule="evenodd" clip-rule="evenodd" fill="#FDFDFD" d="M30.253,27.252c-0.114-0.104-0.158-0.124-0.163-0.151
		c-0.328-1.935-0.328-1.935-2.424-1.935c-2.233,0.001-2.233,0.001-2.497,2.117c-0.04-0.046-0.103-0.083-0.105-0.124
		c-0.14-2.667-0.139-2.667,2.512-2.667c0.301,0,0.602,0,0.902,0C30.68,24.491,30.927,24.86,30.253,27.252z"/>
	<path fill-rule="evenodd" clip-rule="evenodd" fill="#424240" d="M25.967,26.246c0.301-0.168,0.623-0.242,0.958-0.154
		c0.178,0.046,0.374,0.163,0.328,0.375c-0.053,0.246-0.135,0.521-0.297,0.698c-0.122,0.133-0.318-0.003-0.458-0.16
		c-0.141-0.158-0.343-0.261-0.518-0.388C25.976,26.493,25.971,26.369,25.967,26.246z"/>
	<path fill-rule="evenodd" clip-rule="evenodd" fill="#FEFEFE" d="M176.439,41.987c0-2.857,0.016-5.714-0.019-8.57
		c-0.005-0.415,0.341-1.21-0.341-1.189c-0.596,0.018-0.291,0.812-0.307,1.253c-0.043,1.239-0.043,2.481-0.003,3.721
		c0.019,0.596-0.091,0.872-0.779,0.845c-1.389-0.055-2.781-0.037-4.171-0.006c-0.525,0.012-0.713-0.127-0.71-0.685
		c0.022-3.834,0.033-7.668-0.006-11.502c-0.008-0.812,0.456-0.681,0.934-0.681c3.796,0.001,7.594-0.035,11.389,0.023
		c1.011,0.017,1.269-0.29,1.255-1.273c-0.055-3.833,0.009-7.669-0.046-11.502c-0.013-0.871,0.242-1.041,1.061-1.03
		c3.646,0.046,7.293,0.044,10.938,0.001c0.838-0.01,1.142,0.147,1.128,1.077c-0.06,3.982-0.003,7.967-0.044,11.949
		c-0.009,0.787,0.191,1.006,0.988,0.996c3.871-0.043,7.743,0.007,11.614-0.04c0.815-0.01,0.981,0.236,0.972,1.005
		c-0.042,3.532-0.042,7.066,0,10.6c0.01,0.793-0.114,1.139-1.017,1.074c-1.271-0.091-2.556-0.055-3.832-0.01
		c-0.627,0.022-0.847-0.149-0.821-0.803c0.05-1.275,0.017-2.555,0.011-3.833c-0.001-0.255,0.03-0.585-0.361-0.552
		c-0.273,0.023-0.308,0.286-0.312,0.521c-0.002,0.112-0.002,0.225-0.002,0.338c0,5.977,0.008,11.954-0.012,17.931
		c-0.002,0.638,0.196,0.852,0.837,0.837c1.577-0.037,3.157,0.011,4.735-0.024c0.571-0.013,0.788,0.123,0.771,0.74
		c-0.045,1.503-0.033,3.008-0.004,4.511c0.009,0.497-0.153,0.639-0.642,0.637c-3.872-0.017-7.744-0.023-11.615,0.004
		c-0.646,0.005-0.617-0.33-0.614-0.771c0.01-1.654-0.026-3.309,0.017-4.962c0.021-0.79-0.279-1.062-1.051-1.058
		c-3.946,0.021-7.894,0.021-11.841-0.002c-0.696-0.004-0.914,0.247-0.899,0.925c0.035,1.653-0.033,3.31,0.03,4.961
		c0.03,0.773-0.243,0.915-0.948,0.909c-3.834-0.032-7.668-0.03-11.502-0.001c-0.656,0.005-0.924-0.105-0.896-0.846
		c0.062-1.651,0.042-3.308,0.007-4.961c-0.012-0.581,0.148-0.778,0.75-0.76c1.39,0.043,2.787-0.065,4.17,0.038
		c1.054,0.079,1.23-0.315,1.21-1.265C176.399,47.701,176.439,44.844,176.439,41.987z"/>
	<path fill-rule="evenodd" clip-rule="evenodd" fill="#FEFEFE" d="M190.25,8.474c2.931,0,5.862,0.023,8.793-0.018
		c0.7-0.01,0.881,0.181,0.869,0.875c-0.042,2.667-0.045,5.336,0.002,8.003c0.013,0.724-0.217,0.868-0.888,0.858
		c-1.608-0.023-1.608,0.013-1.608-1.579c0-1.654-0.021-3.308,0.01-4.96c0.013-0.681-0.235-0.936-0.918-0.933
		c-4.209,0.018-8.418,0.02-12.627-0.001c-0.689-0.004-0.926,0.249-0.915,0.927c0.029,1.879-0.012,3.758,0.022,5.637
		c0.012,0.627-0.062,0.931-0.826,0.915c-1.663-0.033-1.664,0.019-1.664-1.646c0-2.404,0.025-4.81-0.017-7.214
		c-0.012-0.68,0.146-0.895,0.86-0.884C184.312,8.499,187.281,8.474,190.25,8.474z"/>
	<path fill-rule="evenodd" clip-rule="evenodd" fill="#FEFEFE" d="M73.104,37.606c0-1.766,0.001-3.532-0.002-5.298
		c0-0.253,0.072-0.609-0.284-0.636c-0.438-0.032-0.389,0.356-0.392,0.646c-0.006,0.789-0.027,1.58,0.006,2.367
		c0.021,0.483-0.131,0.622-0.628,0.651c-2.54,0.147-2.539,0.165-2.539-2.341c0-1.504,0.044-3.009-0.019-4.509
		c-0.03-0.732,0.225-0.865,0.891-0.852c2.066,0.041,4.134-0.024,6.2,0.033c0.868,0.023,1.088-0.287,1.067-1.107
		c-0.05-2.027,0.027-4.059-0.037-6.085c-0.026-0.821,0.241-0.989,1.006-0.967c1.877,0.057,3.761,0.08,5.636-0.008
		c0.948-0.044,1.089,0.312,1.067,1.135c-0.053,2.028,0.016,4.06-0.034,6.088c-0.018,0.758,0.236,0.956,0.966,0.941
		c2.141-0.044,4.284,0.003,6.426-0.028c0.576-0.008,0.772,0.143,0.762,0.746c-0.036,2.066-0.035,4.134,0,6.2
		c0.01,0.597-0.177,0.74-0.758,0.753c-2.374,0.05-2.369,0.071-2.419-2.352c-0.008-0.35,0.152-0.93-0.329-0.933
		c-0.467-0.003-0.343,0.573-0.344,0.93c-0.006,3.382,0.02,6.765-0.02,10.146c-0.009,0.819,0.297,1.093,1.057,0.997
		c0.111-0.014,0.226-0.002,0.338-0.002c2.753,0.004,2.777,0.052,2.477,2.858c-0.052,0.485-0.251,0.528-0.635,0.526
		c-2.067-0.01-4.135-0.019-6.201,0.006c-0.502,0.006-0.648-0.162-0.631-0.646c0.031-0.9-0.018-1.805,0.018-2.705
		c0.026-0.665-0.208-0.963-0.901-0.957c-2.292,0.021-4.584,0.016-6.877,0.004c-0.576-0.003-0.82,0.251-0.813,0.814
		c0.012,0.901-0.024,1.805,0.012,2.705c0.022,0.546-0.078,0.803-0.719,0.79c-2.104-0.04-4.209-0.027-6.313-0.007
		c-0.475,0.005-0.718-0.117-0.642-0.626c0.006-0.037,0-0.075,0.001-0.112c0.007-0.902-0.317-2.036,0.11-2.643
		c0.469-0.667,1.674-0.203,2.553-0.215c0.76-0.01,0.97-0.305,0.957-1.013C73.083,41.14,73.104,39.373,73.104,37.606z"/>
	<path fill-rule="evenodd" clip-rule="evenodd" fill="#FEFEFE" d="M81.286,17.724c1.579,0,3.159,0.042,4.735-0.019
		c0.724-0.027,0.888,0.208,0.858,0.886c-0.055,1.238-0.007,2.48-0.021,3.721c-0.004,0.365,0.188,0.833-0.529,0.847
		c-0.678,0.012-0.593-0.383-0.591-0.797c0.004-0.902-0.019-1.806,0.008-2.707c0.016-0.575-0.208-0.814-0.791-0.812
		c-2.48,0.015-4.962,0.011-7.443,0.004c-0.568-0.001-0.819,0.247-0.808,0.819c0.018,0.902-0.003,1.805,0.006,2.707
		c0.005,0.429,0.06,0.803-0.604,0.785c-0.615-0.017-0.522-0.38-0.522-0.745c-0.002-1.316,0.029-2.633-0.015-3.947
		c-0.02-0.595,0.158-0.77,0.754-0.756C77.976,17.75,79.631,17.724,81.286,17.724z"/>
	<path fill-rule="evenodd" clip-rule="evenodd" fill="#545452" d="M247.431,14.65c-0.199-0.029-0.343-0.122-0.358-0.341
		c-0.017-0.218,0.104-0.373,0.301-0.396c0.207-0.025,0.33,0.13,0.355,0.336C247.756,14.471,247.625,14.586,247.431,14.65z"/>
	<path fill-rule="evenodd" clip-rule="evenodd" fill="#4A4A48" d="M239.84,14.607c-0.229-0.005-0.361-0.126-0.38-0.321
		c-0.02-0.195,0.091-0.352,0.29-0.39c0.235-0.045,0.314,0.118,0.333,0.314S240.043,14.563,239.84,14.607z"/>
	<path fill-rule="evenodd" clip-rule="evenodd" fill="#3A3A38" d="M132.217,20.968c-0.117-0.694,0.048-1.09,0.872-1.02
		c0.789,0.067,1.465,0.025,1.421,1.194c-0.037,0.979-0.506,1.076-1.275,1.11C132.23,22.297,132.111,21.738,132.217,20.968z"/>
	<path fill-rule="evenodd" clip-rule="evenodd" fill="#3A3A38" d="M136.958,21.008c-0.166-0.763,0.067-1.117,0.983-1.056
		c0.852,0.056,1.322,0.252,1.282,1.222c-0.042,1.036-0.695,1.064-1.455,1.07C136.878,22.251,136.818,21.726,136.958,21.008z"/>
	<path fill-rule="evenodd" clip-rule="evenodd" fill="#373735" d="M135.419,25.623c-0.863,0.001-1.727,0.007-2.589-0.003
		c-0.247-0.003-0.595,0.055-0.58-0.334c0.01-0.254,0.266-0.337,0.508-0.337c1.801-0.001,3.603,0,5.403-0.001
		c0.245-0.001,0.509,0.083,0.525,0.32c0.023,0.365-0.308,0.352-0.566,0.353C137.22,25.626,136.32,25.623,135.419,25.623z"/>
	<path fill-rule="evenodd" clip-rule="evenodd" fill="#444443" d="M135.8,23.832c-0.523-0.016-0.999,0-1.209-0.52
		c-0.126-0.31-0.281-0.706,0.066-0.92c0.433-0.266,0.418,0.197,0.546,0.438c0.234,0.442,0.565,0.419,0.894,0.104
		c0.191-0.182,0.073-0.678,0.521-0.583c0.232,0.05,0.317,0.303,0.262,0.551c-0.082,0.364-0.137,0.755-0.598,0.853
		C136.101,23.793,135.916,23.814,135.8,23.832z"/>
	<path fill-rule="evenodd" clip-rule="evenodd" fill="#3D3D3C" d="M138.042,19.31c-0.256,0-0.443,0.001-0.631,0
		c-0.228,0-0.505,0.01-0.528-0.278c-0.028-0.343,0.253-0.402,0.532-0.406c0.188-0.003,0.383-0.036,0.561,0.005
		c0.418,0.096,1.186-0.308,1.16,0.411C139.118,19.547,138.375,19.202,138.042,19.31z"/>
	<path fill-rule="evenodd" clip-rule="evenodd" fill="#3E3E3C" d="M133.252,18.615c0.354,0.06,0.965-0.129,0.939,0.338
		c-0.036,0.668-0.706,0.297-1.087,0.335c-0.306,0.03-0.916,0.233-0.873-0.32C132.276,18.407,132.896,18.703,133.252,18.615z"/>
	<path fill-rule="evenodd" clip-rule="evenodd" fill="#3E3E3C" d="M27.495,29.261c-0.397-0.154-1.127,0.261-1.14-0.346
		c-0.013-0.593,0.713-0.348,1.116-0.35c0.407-0.002,1.132-0.232,1.13,0.341C28.6,29.515,27.87,29.104,27.495,29.261z"/>
	<path fill-rule="evenodd" clip-rule="evenodd" fill="#454543" d="M28.497,27.129c-0.294-0.138-0.504-0.361-0.523-0.657
		c-0.027-0.428,0.327-0.409,0.619-0.406c0.263,0.003,0.569,0.041,0.533,0.387S28.772,26.96,28.497,27.129z"/>
	<path fill-rule="evenodd" clip-rule="evenodd" fill="#595958" d="M27.898,27.988c-0.086,0.233-0.263,0.348-0.501,0.308
		c-0.186-0.031-0.342-0.156-0.316-0.366c0.033-0.272,0.245-0.334,0.478-0.296C27.748,27.664,27.871,27.787,27.898,27.988z"/>
	<path fill-rule="evenodd" clip-rule="evenodd" fill="#383836" d="M190.296,23.368c-1.126-0.001-2.253,0.001-3.379-0.002
		c-0.254-0.001-0.602,0.063-0.623-0.296c-0.02-0.328,0.283-0.383,0.563-0.383c2.29,0.001,4.579,0.002,6.869-0.002
		c0.279,0,0.623,0.044,0.629,0.332c0.009,0.42-0.396,0.348-0.682,0.349C192.548,23.372,191.422,23.369,190.296,23.368z"/>
	<path fill-rule="evenodd" clip-rule="evenodd" fill="#3B3B39" d="M192.234,17.486c-0.237-1.103,0.422-1.339,1.406-1.361
		c1.15-0.025,1.377,0.586,1.312,1.567c-0.069,1.05-0.485,1.391-1.689,1.397C192.09,19.097,192.177,18.33,192.234,17.486z"/>
	<path fill-rule="evenodd" clip-rule="evenodd" fill="#3A3A38" d="M187.452,16.141c1.268,0.001,1.62,0.375,1.628,1.541
		c0.005,0.817-0.282,1.229-1.188,1.199c-1.581-0.052-1.704-0.154-1.772-1.44C186.06,16.33,186.652,16.09,187.452,16.141z"/>
	<path fill-rule="evenodd" clip-rule="evenodd" fill="#424240" d="M190.755,21.079c-1.001,0.017-1.515-0.399-1.654-1.269
		c-0.031-0.194-0.029-0.387,0.17-0.479c0.263-0.121,0.371,0.051,0.502,0.265c0.682,1.111,0.806,1.104,1.609-0.047
		c0.112-0.16,0.229-0.313,0.443-0.223c0.2,0.085,0.206,0.277,0.192,0.47C191.955,20.659,191.437,21.027,190.755,21.079z"/>
	<path fill-rule="evenodd" clip-rule="evenodd" fill="#3A3A38" d="M193.634,14.522c0.436,0.21,1.271-0.294,1.262,0.45
		c-0.007,0.532-0.815,0.265-1.247,0.25c-0.472-0.016-1.346,0.306-1.353-0.24C192.286,14.188,193.181,14.754,193.634,14.522z"/>
	<path fill-rule="evenodd" clip-rule="evenodd" fill="#3A3A39" d="M187.278,15.248c-0.325-0.121-1.043,0.26-1.064-0.306
		c-0.024-0.609,0.693-0.3,1.091-0.375c0.144-0.026,0.299-0.017,0.445-0.001c0.341,0.035,0.886-0.146,0.869,0.393
		c-0.014,0.454-0.528,0.239-0.83,0.285C187.643,15.267,187.491,15.248,187.278,15.248z"/>
	<path fill-rule="evenodd" clip-rule="evenodd" fill="#383836" d="M81.311,26.525c-0.676-0.001-1.352,0.001-2.027-0.001
		c-0.24-0.001-0.479-0.072-0.454-0.354c0.017-0.182,0.203-0.314,0.413-0.315c1.389-0.003,2.777-0.005,4.166,0.002
		c0.241,0.001,0.479,0.117,0.457,0.376c-0.023,0.275-0.296,0.292-0.527,0.293C82.663,26.527,81.987,26.526,81.311,26.525z"/>
	<path fill-rule="evenodd" clip-rule="evenodd" fill="#434341" d="M79.684,23.552c-0.628,0.085-0.978-0.077-0.97-0.819
		c0.008-0.729,0.446-0.759,0.951-0.762c0.541-0.003,1.046,0.005,1.03,0.799C80.681,23.517,80.28,23.635,79.684,23.552z"/>
	<path fill-rule="evenodd" clip-rule="evenodd" fill="#454543" d="M83.21,23.555c-0.56,0.07-0.899-0.048-0.931-0.749
		c-0.036-0.849,0.512-0.787,1.029-0.797c0.51-0.01,1.007,0.044,0.983,0.759C84.27,23.495,83.815,23.621,83.21,23.555z"/>
	<path fill-rule="evenodd" clip-rule="evenodd" fill="#4A4A48" d="M81.436,25.18c-0.344-0.045-0.842-0.024-0.926-0.62
		c-0.048-0.336-0.172-0.884,0.484-0.519c0.27,0.149,0.386,0.803,0.792,0.239c0.497-0.69,0.696-0.484,0.688,0.195
		C82.469,25.02,82.037,25.198,81.436,25.18z"/>
	<path fill-rule="evenodd" clip-rule="evenodd" fill="#3D3D3B" d="M83.337,21.82c-0.364-0.119-0.938,0.181-0.936-0.358
		c0.002-0.482,0.554-0.354,0.898-0.354c0.348-0.001,0.919-0.131,0.932,0.312C84.25,22.048,83.608,21.647,83.337,21.82z"/>
	<path fill-rule="evenodd" clip-rule="evenodd" fill="#3F3F3D" d="M79.533,21.576c-0.29-0.083-0.806,0.175-0.789-0.349
		c0.016-0.456,0.499-0.343,0.818-0.345c0.325-0.002,0.835-0.09,0.843,0.321C80.417,21.771,79.848,21.485,79.533,21.576z"/>
	<path fill-rule="evenodd" clip-rule="evenodd" fill="#D5D5D5" d="M133.348,21.307c0.146,0.248,0.317-0.574,0.415-0.001
		c0.059,0.339-0.279,0.241-0.475,0.259c-0.236,0.022-0.508-0.028-0.388-0.329C133.079,20.788,133.155,21.516,133.348,21.307z"/>
	<path fill-rule="evenodd" clip-rule="evenodd" fill="#E2E2E1" d="M137.676,21.421c0.442-0.079,0.831-0.16,0.585-0.823
		C138.555,21.495,138.555,21.495,137.676,21.421z"/>
	<path fill-rule="evenodd" clip-rule="evenodd" fill="#F2F2F2" d="M192.856,17.268c-0.054-0.281,0.2-0.479,0.782-0.46
		c0.582,0.019,0.613,0.339,0.637,0.796c0.036,0.662-0.278,0.805-0.865,0.811C192.69,18.421,192.95,17.925,192.856,17.268z"/>
	<path fill-rule="evenodd" clip-rule="evenodd" fill="#F2F2F2" d="M187.684,18.164c-0.541,0.062-0.911,0.032-0.891-0.646
		c0.017-0.521,0.162-0.729,0.697-0.709c0.54,0.019,0.931,0.074,0.921,0.776C188.404,18.192,188.107,18.264,187.684,18.164z"/>
	<path fill-rule="evenodd" clip-rule="evenodd" fill="#515150" d="M193.836,17.438c-0.017,0.268-0.04,0.465-0.278,0.479
		c-0.225,0.013-0.339-0.173-0.34-0.352c-0.001-0.107,0.134-0.263,0.245-0.313C193.692,17.148,193.764,17.348,193.836,17.438z"/>
	<path fill-rule="evenodd" clip-rule="evenodd" fill="#545453" d="M187.885,17.564c-0.108,0.205-0.21,0.324-0.373,0.284
		c-0.213-0.052-0.286-0.22-0.235-0.425c0.041-0.166,0.172-0.23,0.335-0.195C187.833,17.275,187.886,17.431,187.885,17.564z"/>
</g>
</svg>
