<?xml version="1.0" encoding="utf-8"?>
<!-- Generator: Adobe Illustrator 16.0.0, SVG Export Plug-In . SVG Version: 6.00 Build 0)  -->
<!DOCTYPE svg PUBLIC "-//W3C//DTD SVG 1.1//EN" "http://www.w3.org/Graphics/SVG/1.1/DTD/svg11.dtd">
<svg version="1.1" id="Layer_1" xmlns="http://www.w3.org/2000/svg" xmlns:xlink="http://www.w3.org/1999/xlink" x="0px" y="0px"
	 width="270.744px" height="66.344px" viewBox="0 0 270.744 66.344" enable-background="new 0 0 270.744 66.344"
	 xml:space="preserve">
<g>
	<path fill-rule="evenodd" clip-rule="evenodd" fill="#4A4A48" d="M215.027,29.991c0,8.912-0.021,17.824,0.026,26.735
		c0.006,1.078-0.323,1.292-1.33,1.29c-15.831-0.03-31.662-0.03-47.493,0c-1.006,0.002-1.34-0.215-1.338-1.293
		c0.035-17.861,0.032-35.723,0.005-53.584c-0.001-0.88,0.194-1.143,1.109-1.141c15.981,0.029,31.963,0.03,47.943-0.002
		c0.936-0.002,1.097,0.299,1.094,1.146C215.015,12.092,215.027,21.042,215.027,29.991z"/>
	<path fill-rule="evenodd" clip-rule="evenodd" fill="#373735" d="M1.579,30.002c0-8.949,0.013-17.898-0.02-26.847
		C1.557,2.29,1.733,2.007,2.661,2.009c15.98,0.03,31.96,0.028,47.94,0.004c0.808-0.001,1.088,0.15,1.086,1.035
		c-0.028,17.936-0.027,35.871-0.003,53.807c0.001,0.89-0.236,1.15-1.14,1.149c-15.98-0.027-31.96-0.026-47.94-0.001
		c-0.829,0.001-1.052-0.179-1.048-1.041C1.594,47.976,1.579,38.989,1.579,30.002z"/>
	<path fill-rule="evenodd" clip-rule="evenodd" fill="#373735" d="M160.644,30.033c0,8.945-0.011,17.891,0.019,26.836
		c0.003,0.856-0.174,1.14-1.099,1.138c-15.937-0.031-31.872-0.033-47.808,0.002c-1.039,0.002-1.228-0.336-1.227-1.287
		c0.026-17.777,0.029-35.555-0.004-53.332c-0.002-1.113,0.349-1.382,1.412-1.38c15.898,0.03,31.797,0.029,47.694-0.001
		c0.882-0.002,1.033,0.265,1.03,1.077C160.633,12.068,160.644,21.051,160.644,30.033z"/>
	<path fill-rule="evenodd" clip-rule="evenodd" fill="#373735" d="M268.942,30.044c0,8.874-0.014,17.748,0.02,26.622
		c0.004,0.979-0.164,1.349-1.272,1.346c-15.867-0.04-31.734-0.037-47.603-0.005c-0.992,0.002-1.264-0.251-1.262-1.253
		c0.03-17.823,0.03-35.646,0.002-53.468c-0.001-0.987,0.269-1.278,1.268-1.276c15.942,0.029,31.886,0.029,47.828-0.001
		c0.881-0.002,1.04,0.266,1.037,1.076C268.931,12.071,268.942,21.058,268.942,30.044z"/>
	<path fill-rule="evenodd" clip-rule="evenodd" fill="#373735" d="M55.95,29.993c0-8.908,0.017-17.815-0.022-26.723
		c-0.004-0.994,0.256-1.263,1.256-1.261c15.937,0.032,31.873,0.029,47.81,0.002c0.83-0.001,1.072,0.181,1.071,1.042
		c-0.026,17.928-0.027,35.857,0.002,53.786c0.002,0.978-0.32,1.166-1.22,1.164c-15.898-0.024-31.798-0.028-47.696,0.007
		c-1.048,0.002-1.224-0.35-1.22-1.292C55.963,47.809,55.95,38.901,55.95,29.993z"/>
	<path fill-rule="evenodd" clip-rule="evenodd" fill="#484846" d="M108.065,60.015c0.073-0.129,0.129-0.273,0.226-0.383
		c0.188-0.214,0.288-0.624,0.644-0.532c0.396,0.103,0.174,0.504,0.224,0.772c0.136,0.739-0.212,1.504,0.304,2.262
		c0.177,0.26-0.235,0.974-0.476,1.43c-0.069,0.132-0.678,0.141-0.671-0.065c0.035-1.123-0.789-0.711-1.347-0.906
		c-0.862-0.302-0.184-0.789,0.013-1.194c0.148-0.079,0.284-0.021,0.421,0.035c0.613,0.144,0.595-0.292,0.622-0.682
		C108.006,60.504,108.056,60.26,108.065,60.015z"/>
	<path fill-rule="evenodd" clip-rule="evenodd" fill="#4B4B4A" d="M27.003,63.591c-0.366,0-0.842,0-1.272,0
		c0.505-1.168,0.396-2.406,0.161-3.523c-0.183-0.868,0.401-0.821,0.708-0.882c0.676-0.134,0.379,0.481,0.388,0.763
		C27.024,61.128,27.003,62.309,27.003,63.591z"/>
	<path fill-rule="evenodd" clip-rule="evenodd" fill="#484846" d="M188.582,59.521c0.206-0.742,0.805-0.324,1.223-0.389
		c0.438-0.067,0.895-0.015,1.538-0.015c-0.547,1.621-1.062,3.143-1.576,4.665c-0.11-0.035-0.222-0.07-0.333-0.105
		c0.01-0.791,0.393-1.501,0.621-2.238c0.472-1.521,0.49-1.515-1.159-1.372C188.464,60.072,188.483,59.82,188.582,59.521z"/>
	<path fill-rule="evenodd" clip-rule="evenodd" fill="#40403E" d="M81.438,62.938c0.039-0.307,0.033-0.632-0.189-0.848
		c-0.487-0.472-0.676-0.771-0.289-1.575c0.45-0.938-0.678-0.662-1.266-0.807c0.528-0.621,1.125-0.875,1.804-0.499
		c0.611,0.34,0.61,0.89,0.202,1.428c-0.204,0.27,0.024,0.379,0.154,0.548c0.548,0.713,0.419,1.38-0.162,2.007
		C81.474,63.241,81.368,63.178,81.438,62.938z"/>
	<path fill-rule="evenodd" clip-rule="evenodd" fill="#424240" d="M243.411,63.398c0.043-0.059,0.072-0.146,0.13-0.172
		c0.44-0.191,0.827-0.506,0.783-0.983c-0.045-0.494-0.695-0.058-0.913-0.411c0.095-0.2,0.278-0.304,0.451-0.418
		c0.817-0.583,0.186-1.387,0.315-2.074c0.032-0.102,0.088-0.188,0.169-0.258c1.008,0.324,1.354,1.065,1.27,2.055
		c-0.101,1.188-0.771,1.976-1.924,2.299C243.588,63.497,243.495,63.484,243.411,63.398z"/>
	<path fill-rule="evenodd" clip-rule="evenodd" fill="#3E3E3C" d="M217.78,61.345c0.988,1.017,0.817,1.788-0.51,2.299
		c-0.066-0.082-0.099-0.178-0.104-0.283c0.152-0.673-0.172-1.157-0.637-1.584c-0.191-0.172-0.202-0.462-0.407-0.626
		c-0.761-0.613-0.764-1.23-0.01-1.852c0.561-0.074,0.429,0.463,0.629,0.707c0.147,0.307,0.397,0.534,0.625,0.779
		C217.539,60.946,217.542,61.23,217.78,61.345z"/>
	<path fill-rule="evenodd" clip-rule="evenodd" fill="#444442" d="M162.225,63.62c-0.913-0.298-1.137-1.05-1.09-1.864
		c0.066-1.161,0.597-2.062,1.76-2.478c0.096,0.101,0.111,0.212,0.048,0.335c-0.732,0.871-0.74,0.907-0.284,1.262
		c0.069,0.09,0.099,0.19,0.082,0.303c-0.395,0.713-0.149,1.473-0.163,2.214C162.518,63.558,162.445,63.703,162.225,63.62z"/>
	<path fill-rule="evenodd" clip-rule="evenodd" fill="#444442" d="M134.538,60.438c0.531,0.011,1.038,0.117,1.486,0.413
		c1.04,0.687,0.954,1.845-0.188,2.573l0.016,0.02c0.49-1.161,0.176-1.81-1.146-1.985c-0.857-0.114-0.92-0.375-0.473-0.995
		C134.326,60.343,134.427,60.334,134.538,60.438z"/>
	<path fill-rule="evenodd" clip-rule="evenodd" fill="#424240" d="M52.568,59.562c0.572-0.638,1.233-0.742,1.875-0.175
		c0.64,0.564,0.405,1.234,0.013,1.834c-0.201,0.308-0.489,0.558-0.737,0.833c-0.11,0.1-0.211,0.091-0.303-0.025
		c0.141-0.343,0.339-0.674,0.41-1.029c0.151-0.764-0.086-1.262-0.988-1.153C52.622,59.872,52.503,59.805,52.568,59.562z"/>
	<path fill-rule="evenodd" clip-rule="evenodd" fill="#4C4C4A" d="M53.417,62.029c0.101,0.009,0.202,0.017,0.303,0.025
		c-0.1,0.188-0.317,0.515-0.281,0.545c0.342,0.293,0.756,0.098,1.146,0.1c0.419-0.016,0.357,0.239,0.283,0.502
		c-0.179,0.749-0.78,0.354-1.193,0.413c-0.435,0.062-0.886,0.014-1.427,0.014C52.501,62.933,52.989,62.502,53.417,62.029z"/>
	<path fill-rule="evenodd" clip-rule="evenodd" fill="#424240" d="M162.673,61.108c-0.005-0.078-0.01-0.156-0.015-0.233
		c0.638-0.294,1.034,0.082,1.239,0.576c0.311,0.748,0.216,1.472-0.5,2.001c-0.217,0.062-0.343-0.052-0.439-0.224
		C162.802,62.53,162.712,61.822,162.673,61.108z"/>
	<path fill-rule="evenodd" clip-rule="evenodd" fill="#40403F" d="M243.907,61.56c-0.099,0.213-0.29,0.255-0.496,0.272
		c-0.964-0.778-0.971-1.577-0.023-2.561c0.13-0.055,0.247-0.035,0.353,0.059C244.072,60.053,244.058,60.801,243.907,61.56z"/>
	<path fill-rule="evenodd" clip-rule="evenodd" fill="#50504F" d="M134.538,60.438c-0.101,0.008-0.202,0.017-0.304,0.025
		c0.403-1.533,0.403-1.533,2.406-1.252c0.014,0.634-0.319,0.797-0.917,0.812C135.322,60.031,134.695,59.648,134.538,60.438z"/>
	<path fill-rule="evenodd" clip-rule="evenodd" fill="#50504F" d="M216.123,61.15c0.262,0.067,0.4,0.255,0.484,0.495
		c0.101,0.591,0.08,1.188,0.113,1.783c-0.065,0.169-0.153,0.298-0.366,0.214c-1.056-0.622-1.153-1.039-0.392-1.921
		C216.128,61.528,216.2,61.379,216.123,61.15z"/>
	<path fill-rule="evenodd" clip-rule="evenodd" fill="#515150" d="M217.78,61.345c-0.279-0.034-0.42-0.222-0.515-0.462
		c-0.115-0.502-0.061-1.02-0.137-1.526c0.02-0.105,0.068-0.195,0.145-0.271c1.26,0.501,1.359,0.81,0.566,1.855
		C217.729,61.087,217.771,61.207,217.78,61.345z"/>
	<path fill-rule="evenodd" clip-rule="evenodd" fill="#565655" d="M135.836,63.424c-0.492,0.394-1.042,0.354-1.592,0.181
		c-0.212-0.067-0.429-0.227-0.349-0.491c0.098-0.321,0.355-0.346,0.633-0.219c0.434,0.2,0.79,0.585,1.322,0.548
		C135.852,63.443,135.836,63.424,135.836,63.424z"/>
	<path fill-rule="evenodd" clip-rule="evenodd" fill="#8D8D8C" d="M107.157,61.578c-0.059-0.061-0.117-0.12-0.176-0.181
		c0.312-0.499,0.563-1.047,1.084-1.383c0.279,0.186,0.257,0.447,0.184,0.723C107.868,60.996,107.808,61.672,107.157,61.578z"/>
	<path fill-rule="evenodd" clip-rule="evenodd" fill="#424240" d="M79.844,63.652c-0.312-0.072-0.615-0.213-0.45-0.583
		c0.184-0.411,0.481-0.172,0.725-0.014c0.153,0.1,0.293,0.222,0.438,0.333C80.494,63.947,80.128,63.691,79.844,63.652z"/>
	<path fill-rule="evenodd" clip-rule="evenodd" fill="#898988" d="M217.273,59.085c-0.005,0.09-0.009,0.179-0.013,0.269
		c-0.273,0.268-0.375,0.666-0.688,0.903c-0.413-0.195-0.008-0.781-0.459-0.958C216.466,59.05,216.809,58.739,217.273,59.085z"/>
	<path fill-rule="evenodd" clip-rule="evenodd" fill="#8B8B8A" d="M79.844,63.652c0.231-0.104,0.559,0.051,0.712-0.264
		c0.406,0.07,0.654-0.17,0.882-0.45c0.085,0.085,0.169,0.169,0.254,0.254C81.176,63.748,80.584,63.999,79.844,63.652z"/>
	<path fill-rule="evenodd" clip-rule="evenodd" fill="#888886" d="M162.943,59.613c-0.016-0.111-0.032-0.224-0.048-0.335
		c0.32-0.246,0.665-0.363,1.323-0.214C163.646,59.311,163.294,59.462,162.943,59.613z"/>
	<path fill-rule="evenodd" clip-rule="evenodd" fill="#7F7F7E" d="M163.09,63.141c0.103,0.104,0.205,0.208,0.308,0.312
		c-0.356,0.297-0.716,0.571-1.173,0.168c0.074-0.073,0.147-0.147,0.222-0.222C162.617,63.201,162.804,63.05,163.09,63.141z"/>
	<path fill-rule="evenodd" clip-rule="evenodd" fill="#A2A2A1" d="M243.411,63.398c0.094,0.012,0.188,0.024,0.281,0.037
		c-0.24,0.307-0.548,0.436-0.954,0.361C242.744,63.264,243.136,63.431,243.411,63.398z"/>
	<path fill-rule="evenodd" clip-rule="evenodd" fill="#939392" d="M216.354,63.643c0.083-0.085,0.166-0.169,0.249-0.253
		c0.233-0.189,0.461-0.182,0.68,0.023c-0.004,0.077-0.008,0.154-0.013,0.23C216.964,64.006,216.659,63.866,216.354,63.643z"/>
	<path fill-rule="evenodd" clip-rule="evenodd" fill="#878786" d="M243.739,59.347c-0.117-0.025-0.234-0.05-0.352-0.075
		c0.284-0.242,0.557-0.548,0.959-0.189c-0.008,0.094-0.016,0.188-0.023,0.282C244.124,59.507,243.928,59.529,243.739,59.347z"/>
	<path fill-rule="evenodd" clip-rule="evenodd" fill="#7D7D7C" d="M188.582,59.521c0.058,0.209,0.065,0.446,0.313,0.546
		c-0.157,0.127-0.35,0.482-0.46,0.336C188.248,60.154,188.376,59.794,188.582,59.521z"/>
	<path fill-rule="evenodd" clip-rule="evenodd" fill="#8D8D8C" d="M52.568,59.562c0.09,0.095,0.18,0.189,0.27,0.284
		c-0.127,0.175-0.363,0.433-0.485,0.312C52.157,59.962,52.327,59.706,52.568,59.562z"/>
	<path fill-rule="evenodd" clip-rule="evenodd" fill="#9E9E9D" d="M54.867,63.201c-0.061-0.187-0.041-0.418-0.283-0.502
		c0.113-0.135,0.275-0.422,0.385-0.298C55.176,62.635,55.065,62.952,54.867,63.201z"/>
	<path fill-rule="evenodd" clip-rule="evenodd" fill="#FEFEFE" d="M214.324,30.126c0,8.683-0.019,17.365,0.025,26.048
		c0.005,0.974-0.277,1.142-1.183,1.14c-15.486-0.029-30.973-0.028-46.458-0.001c-0.867,0.001-1.111-0.196-1.11-1.094
		c0.029-17.479,0.03-34.957-0.001-52.435c-0.002-0.923,0.281-1.081,1.123-1.079c15.486,0.024,30.973,0.027,46.459-0.004
		c0.925-0.002,1.173,0.2,1.169,1.152C214.306,12.61,214.324,21.368,214.324,30.126z"/>
	<path fill-rule="evenodd" clip-rule="evenodd" fill="#FEFEFE" d="M2.26,30.015c0-8.72,0.015-17.439-0.023-26.159
		c-0.004-0.922,0.196-1.17,1.15-1.168c15.485,0.034,30.97,0.033,46.455,0.001c0.924-0.002,1.169,0.201,1.167,1.151
		c-0.032,17.44-0.032,34.879-0.001,52.319c0.001,0.923-0.196,1.171-1.149,1.169c-15.485-0.034-30.97-0.033-46.456-0.002
		c-0.926,0.002-1.172-0.201-1.167-1.151C2.277,47.455,2.26,38.735,2.26,30.015z"/>
	<path fill-rule="evenodd" clip-rule="evenodd" fill="#FEFEFE" d="M111.231,30.014c0-8.72,0.016-17.44-0.023-26.161
		c-0.004-0.93,0.208-1.167,1.155-1.166c15.485,0.033,30.972,0.033,46.457,0.001c0.926-0.002,1.17,0.2,1.168,1.151
		c-0.032,17.44-0.031,34.88-0.001,52.321c0.001,0.929-0.206,1.168-1.154,1.166c-15.485-0.033-30.972-0.032-46.457-0.001
		c-0.927,0.002-1.174-0.201-1.169-1.152C111.248,47.454,111.231,38.734,111.231,30.014z"/>
	<path fill-rule="evenodd" clip-rule="evenodd" fill="#FEFEFE" d="M219.528,30.012c0-8.72,0.016-17.44-0.023-26.161
		c-0.004-0.932,0.212-1.166,1.157-1.164c15.485,0.033,30.972,0.032,46.457,0.001c0.928-0.002,1.169,0.204,1.167,1.153
		c-0.032,17.44-0.032,34.881-0.001,52.321c0.001,0.931-0.211,1.166-1.156,1.164c-15.485-0.033-30.972-0.033-46.457-0.001
		c-0.929,0.002-1.172-0.205-1.167-1.153C219.545,47.453,219.529,38.732,219.528,30.012z"/>
	<path fill-rule="evenodd" clip-rule="evenodd" fill="#FEFEFE" d="M56.63,30.004c0-8.72,0.017-17.44-0.024-26.161
		c-0.004-0.945,0.234-1.158,1.165-1.156c15.486,0.032,30.972,0.032,46.458,0c0.941-0.002,1.16,0.227,1.158,1.162
		c-0.031,17.441-0.031,34.881,0.001,52.322c0.001,0.946-0.236,1.156-1.166,1.154c-15.485-0.031-30.972-0.032-46.458,0.001
		c-0.941,0.002-1.161-0.228-1.157-1.162C56.647,47.445,56.63,38.725,56.63,30.004z"/>
	<path fill-rule="evenodd" clip-rule="evenodd" fill="#F9F9F9" d="M107.157,61.578c0.451-0.167,0.408-0.976,1.092-0.841
		c-0.097,0.374,0.214,0.883-0.225,1.11C107.777,61.976,107.284,62.174,107.157,61.578z"/>
	<path fill-rule="evenodd" clip-rule="evenodd" fill="#F0F0EF" d="M243.739,59.347c0.194,0.006,0.39,0.012,0.584,0.018
		c0.214,0.553,0.32,1.118,0.299,1.717c-0.021,0.533-0.276,0.618-0.715,0.479C243.554,60.844,243.576,60.101,243.739,59.347z"/>
	<path fill-rule="evenodd" clip-rule="evenodd" fill="#F6F6F6" d="M217.283,63.413c-0.227-0.008-0.453-0.016-0.68-0.023
		c-0.412-0.583-0.323-1.163,0.004-1.744C217.315,62.051,217.832,62.528,217.283,63.413z"/>
	<path fill-rule="evenodd" clip-rule="evenodd" fill="#EBEBEB" d="M216.572,60.257c-0.055-0.518-0.088-1.02,0.688-0.903
		c0.37,0.509,0.412,1.018,0.005,1.529C217.035,60.674,216.803,60.465,216.572,60.257z"/>
	<path fill-rule="evenodd" clip-rule="evenodd" fill="#F4F4F4" d="M163.09,63.141c-0.173,0.189-0.378,0.3-0.644,0.258
		c-0.311-0.546-0.311-1.146-0.305-1.747c0.003-0.354,0.139-0.573,0.531-0.543C163.26,61.693,163.101,62.432,163.09,63.141z"/>
	<path fill-rule="evenodd" clip-rule="evenodd" fill="#373735" d="M190.124,11.055c2.368,0,4.737,0.028,7.104-0.015
		c0.817-0.015,1.137,0.208,1.109,1.075c-0.058,1.878-0.061,3.76,0,5.638c0.03,0.927-0.252,1.374-1.203,1.198
		c-1.113-0.206-1.437,0.253-1.309,1.324c0.141,1.179-0.487,2.773,0.247,3.447c0.64,0.588,2.208,0.18,3.366,0.187
		c1.992,0.012,3.985,0.031,5.977-0.011c0.778-0.017,1.054,0.224,1.042,1.027c-0.04,2.856-0.037,5.714-0.001,8.571
		c0.01,0.757-0.164,1.095-0.997,1.041c-1.048-0.069-2.105,0.014-3.156-0.029c-0.601-0.024-0.851,0.103-0.841,0.782
		c0.039,2.781,0.033,5.563,0.003,8.345c-0.007,0.617,0.134,0.86,0.796,0.827c1.088-0.055,2.181,0.012,3.27-0.024
		c0.659-0.021,0.951,0.166,0.926,0.888c-0.05,1.389-0.041,2.782-0.003,4.172c0.018,0.658-0.243,0.831-0.862,0.826
		c-3.194-0.021-6.391-0.021-9.586-0.001c-0.642,0.005-0.865-0.243-0.852-0.864c0.026-1.24-0.019-2.481,0.019-3.721
		c0.018-0.584-0.065-0.867-0.768-0.856c-2.669,0.043-5.338,0.038-8.007,0.003c-0.635-0.009-0.739,0.232-0.724,0.784
		c0.035,1.201-0.023,2.406,0.023,3.607c0.029,0.741-0.137,1.069-0.981,1.057c-3.194-0.048-6.391-0.03-9.586-0.01
		c-0.639,0.004-0.982-0.139-0.966-0.868c0.035-1.54,0.031-3.082,0.001-4.623c-0.014-0.642,0.23-0.866,0.859-0.845
		c0.976,0.035,1.956-0.027,2.931,0.023c0.614,0.031,0.75-0.19,0.744-0.768c-0.028-2.669-0.032-5.338,0.003-8.007
		c0.009-0.633-0.23-0.745-0.784-0.726c-1.052,0.037-2.105-0.008-3.157,0.018c-0.572,0.014-0.816-0.199-0.813-0.786
		c0.013-3.007,0.019-6.015-0.004-9.022c-0.006-0.785,0.454-0.813,1.031-0.812c2.856,0.009,5.715-0.036,8.57,0.028
		c0.879,0.02,1.081-0.25,1.024-1.066c-0.071-1.047-0.044-2.105-0.006-3.156c0.02-0.563-0.12-0.766-0.735-0.775
		c-1.983-0.032-1.983-0.062-1.983-2.066c0-1.579,0.042-3.16-0.017-4.736c-0.031-0.834,0.224-1.116,1.077-1.098
		C185.311,11.088,187.717,11.055,190.124,11.055z"/>
	<path fill-rule="evenodd" clip-rule="evenodd" fill="#373735" d="M27.254,10.604c2.331,0,4.662,0.042,6.991-0.02
		c0.971-0.026,1.219,0.327,1.194,1.24c-0.056,2.104-0.059,4.211,0.002,6.314c0.026,0.875-0.286,1.185-1.098,1.035
		c-1.206-0.223-1.55,0.302-1.415,1.443c0.144,1.217-0.51,2.861,0.25,3.555c0.665,0.606,2.281,0.182,3.477,0.188
		c1.992,0.011,3.985,0.024,5.977-0.009c0.639-0.01,0.94,0.097,0.929,0.847c-0.043,2.894-0.038,5.789-0.003,8.683
		c0.009,0.72-0.265,0.906-0.928,0.879c-1.051-0.042-2.108,0.043-3.156-0.029c-0.777-0.054-0.919,0.243-0.909,0.948
		c0.038,2.706,0.036,5.413,0,8.119c-0.009,0.666,0.122,0.936,0.854,0.889c1.086-0.068,2.18-0.002,3.269-0.023
		c0.625-0.013,0.875,0.244,0.864,0.873c-0.025,1.428-0.022,2.856-0.001,4.284c0.008,0.532-0.196,0.73-0.728,0.729
		c-3.271-0.014-6.541-0.019-9.811,0.005c-0.612,0.004-0.772-0.234-0.758-0.801c0.03-1.239-0.016-2.48,0.021-3.72
		c0.016-0.545-0.159-0.699-0.697-0.694c-2.707,0.024-5.413,0.025-8.12-0.002c-0.561-0.006-0.694,0.189-0.681,0.712
		c0.033,1.239-0.012,2.481,0.02,3.721c0.015,0.594-0.211,0.785-0.792,0.781c-3.308-0.018-6.616-0.023-9.924,0.004
		c-0.666,0.006-0.83-0.248-0.815-0.861c0.033-1.465,0.031-2.932,0.001-4.397c-0.013-0.627,0.202-0.88,0.845-0.858
		c1.089,0.035,2.18-0.011,3.27,0.019c0.481,0.013,0.651-0.123,0.647-0.629c-0.022-2.819-0.022-5.638,0-8.457
		c0.004-0.505-0.168-0.642-0.648-0.63c-1.165,0.029-2.332-0.02-3.496,0.021c-0.635,0.022-0.848-0.188-0.842-0.833
		c0.028-2.895,0.038-5.79-0.004-8.683c-0.012-0.799,0.305-0.907,1.002-0.897c2.894,0.038,5.789-0.005,8.683,0.031
		c0.699,0.009,1.003-0.124,0.951-0.905c-0.073-1.085-0.054-2.181-0.004-3.269c0.03-0.641-0.175-0.827-0.813-0.811
		c-2.036,0.05-1.906,0.299-1.908-1.943c-0.001-1.917,0.033-3.835-0.016-5.751c-0.021-0.838,0.268-1.123,1.104-1.109
		C22.442,10.63,24.849,10.604,27.254,10.604z"/>
	<path fill-rule="evenodd" clip-rule="evenodd" fill="#373735" d="M136.149,10.604c2.405,0,4.812,0.022,7.217-0.013
		c0.778-0.012,1.064,0.242,1.049,1.039c-0.042,2.142-0.058,4.286,0.006,6.427c0.027,0.927-0.308,1.233-1.177,1.127
		c-0.296-0.036-0.603,0.016-0.9-0.011c-0.463-0.041-0.675,0.092-0.661,0.612c0.033,1.277,0.045,2.558-0.002,3.833
		c-0.027,0.745,0.445,0.636,0.882,0.636c2.819,0.001,5.639-0.006,8.458-0.004c1.502,0.001,1.502,0.006,1.502,1.448
		c0.001,2.556-0.047,5.114,0.023,7.668c0.028,1.048-0.21,1.475-1.35,1.413c-1.18-0.064-2.772-0.532-3.447,0.2
		c-0.588,0.639-0.179,2.208-0.186,3.366c-0.012,1.842,0.022,3.684-0.018,5.525c-0.015,0.639,0.172,0.844,0.812,0.812
		c1.05-0.051,2.105,0.013,3.157-0.022c0.696-0.023,1.043,0.178,1.019,0.95c-0.042,1.352-0.041,2.707,0.001,4.059
		c0.022,0.722-0.292,0.888-0.943,0.884c-3.233-0.022-6.466-0.028-9.698,0.004c-0.694,0.007-0.923-0.205-0.895-0.897
		c0.049-1.201-0.008-2.406,0.024-3.608c0.014-0.519-0.114-0.72-0.679-0.713c-2.631,0.027-5.263,0.025-7.894,0.001
		c-0.541-0.005-0.714,0.155-0.696,0.697c0.036,1.164-0.018,2.331,0.021,3.495c0.023,0.698-0.164,1.03-0.938,1.023
		c-3.346-0.029-6.691-0.022-10.036-0.002c-0.583,0.003-0.799-0.18-0.785-0.775c0.032-1.466,0.03-2.933,0.001-4.398
		c-0.013-0.674,0.239-0.959,0.922-0.939c1.015,0.029,2.032-0.033,3.044,0.021c0.661,0.036,0.806-0.206,0.798-0.825
		c-0.031-2.668-0.048-5.338,0.008-8.006c0.017-0.796-0.279-0.925-0.965-0.893c-1.05,0.049-2.105-0.012-3.156,0.022
		c-0.596,0.02-0.885-0.11-0.877-0.797c0.032-2.932,0.028-5.864,0.002-8.796c-0.006-0.648,0.214-0.824,0.85-0.817
		c2.969,0.032,5.939-0.009,8.908,0.032c0.699,0.01,0.909-0.174,0.87-0.874c-0.062-1.086-0.068-2.183,0.001-3.268
		c0.048-0.741-0.238-0.856-0.895-0.848c-1.6,0.022-1.601-0.011-1.601-1.569c0-2.067,0.031-4.135-0.016-6.202
		c-0.018-0.785,0.221-1.047,1.021-1.032C131.336,10.633,133.743,10.604,136.149,10.604z"/>
	<path fill-rule="evenodd" clip-rule="evenodd" fill="#383836" d="M244.167,11.055c2.331,0,4.662,0.03,6.991-0.016
		c0.809-0.016,1.138,0.174,1.108,1.057c-0.063,1.953-0.056,3.91-0.003,5.863c0.021,0.778-0.185,1.044-0.994,1.018
		c-1.507-0.048-1.536,0.001-1.499,1.531c0.026,1.112-0.485,2.596,0.217,3.229c0.61,0.548,2.068,0.167,3.152,0.172
		c2.143,0.01,4.285,0.029,6.428-0.012c0.78-0.015,1.051,0.23,1.039,1.03c-0.041,2.856-0.039,5.713-0.001,8.57
		c0.012,0.795-0.256,1.071-1.041,1.036c-1.087-0.05-2.183,0.041-3.268-0.031c-0.779-0.051-0.917,0.249-0.907,0.95
		c0.037,2.706,0.035,5.413,0,8.119c-0.008,0.66,0.112,0.938,0.851,0.894c1.123-0.069,2.255,0.014,3.381-0.029
		c0.709-0.027,1.019,0.17,0.985,0.943c-0.057,1.313-0.046,2.632-0.004,3.946c0.023,0.721-0.207,1.007-0.959,1
		c-3.194-0.028-6.39-0.028-9.585,0.001c-0.723,0.007-1.019-0.209-0.991-0.96c0.045-1.239-0.018-2.481,0.025-3.721
		c0.02-0.59-0.15-0.768-0.751-0.761c-2.594,0.032-5.188,0.034-7.78-0.001c-0.615-0.008-0.759,0.196-0.74,0.77
		c0.04,1.202-0.022,2.407,0.025,3.607c0.029,0.76-0.19,1.077-1.009,1.067c-3.271-0.036-6.541-0.027-9.811-0.004
		c-0.667,0.005-0.954-0.193-0.938-0.896c0.036-1.503,0.032-3.008,0.002-4.511c-0.015-0.685,0.255-0.948,0.93-0.929
		c1.015,0.029,2.031-0.02,3.044,0.018c0.554,0.021,0.793-0.093,0.785-0.726c-0.036-2.668-0.031-5.338-0.003-8.006
		c0.006-0.576-0.13-0.794-0.743-0.768c-1.126,0.049-2.256-0.01-3.383,0.023c-0.637,0.018-0.862-0.236-0.858-0.86
		c0.018-2.969,0.025-5.939-0.003-8.909c-0.008-0.862,0.516-0.852,1.114-0.851c2.856,0.005,5.713-0.019,8.569,0.017
		c0.697,0.009,1.008-0.12,0.953-0.904c-0.073-1.047-0.065-2.106-0.002-3.155c0.046-0.742-0.189-0.952-0.929-0.928
		c-1.673,0.053-1.571,0.239-1.573-1.556c-0.001-1.767,0.051-3.535-0.021-5.299c-0.035-0.884,0.278-1.063,1.092-1.046
		C239.431,11.088,241.799,11.055,244.167,11.055z"/>
	<path fill-rule="evenodd" clip-rule="evenodd" fill="#373735" d="M81.361,10.604c2.367,0,4.735,0.026,7.103-0.014
		c0.809-0.014,1.145,0.208,1.125,1.077c-0.052,2.179-0.055,4.36,0.002,6.539c0.021,0.812-0.243,1.014-1.017,0.99
		c-1.479-0.045-1.48,0-1.48,1.45c0,0.902,0.059,1.809-0.018,2.705c-0.067,0.79,0.263,0.921,0.955,0.914
		c2.894-0.032,5.788,0.012,8.682-0.032c0.896-0.013,1.257,0.205,1.233,1.188c-0.066,2.742-0.049,5.487-0.007,8.23
		c0.013,0.826-0.229,1.155-1.084,1.113c-1.162-0.058-2.33,0.007-3.494-0.024c-0.492-0.013-0.644,0.144-0.641,0.637
		c0.02,2.894,0.021,5.788-0.001,8.682c-0.004,0.515,0.189,0.63,0.658,0.619c1.164-0.026,2.331,0.022,3.494-0.02
		c0.76-0.027,1.098,0.207,1.065,1.022c-0.052,1.313-0.04,2.631-0.004,3.945c0.019,0.686-0.239,0.931-0.92,0.926
		c-3.27-0.021-6.54-0.025-9.809,0.004c-0.681,0.006-0.82-0.271-0.803-0.872c0.035-1.164-0.016-2.331,0.021-3.494
		c0.019-0.583-0.063-0.868-0.767-0.856c-2.668,0.042-5.337,0.037-8.005,0.002c-0.631-0.009-0.742,0.226-0.727,0.781
		c0.035,1.239-0.009,2.48,0.021,3.72c0.012,0.536-0.172,0.719-0.711,0.716c-3.345-0.019-6.689-0.02-10.034,0.001
		c-0.583,0.003-0.798-0.18-0.785-0.775c0.032-1.465,0.041-2.933-0.002-4.396c-0.023-0.772,0.315-0.972,1.017-0.944
		c1.013,0.04,2.03-0.016,3.043,0.021c0.529,0.02,0.711-0.13,0.707-0.685c-0.026-2.781-0.026-5.562,0-8.343
		c0.004-0.548-0.169-0.707-0.704-0.691c-1.164,0.035-2.331-0.012-3.495,0.02c-0.579,0.017-0.792-0.17-0.788-0.771
		c0.024-2.931,0.033-5.863-0.004-8.794c-0.009-0.742,0.293-0.851,0.938-0.844c2.894,0.03,5.788-0.012,8.681,0.03
		c0.747,0.011,1.08-0.115,1.016-0.956c-0.08-1.046-0.062-2.105-0.004-3.155c0.038-0.686-0.146-0.917-0.862-0.878
		c-1.75,0.094-1.632,0.068-1.631-1.65c0-2.104,0.023-4.209-0.014-6.313c-0.011-0.647,0.196-0.843,0.832-0.835
		C76.549,10.622,78.955,10.604,81.361,10.604z"/>
	<path fill-rule="evenodd" clip-rule="evenodd" fill="#FEFEFE" d="M200.797,37.417c0,2.256,0.024,4.512-0.014,6.768
		c-0.013,0.747,0.246,0.991,0.979,0.956c1.088-0.051,2.182,0.022,3.27-0.027c0.617-0.028,0.765,0.197,0.74,0.771
		c-0.052,1.198,0.41,2.759-0.18,3.5c-0.617,0.773-2.247,0.211-3.432,0.237c-1.841,0.042-3.685-0.016-5.525,0.026
		c-0.646,0.015-0.835-0.185-0.809-0.818c0.048-1.163-0.027-2.332,0.027-3.495c0.039-0.818-0.221-1.142-1.078-1.131
		c-2.932,0.038-5.864,0.031-8.797,0.003c-0.729-0.007-1.012,0.234-0.986,0.977c0.042,1.239-0.022,2.482,0.025,3.721
		c0.023,0.616-0.197,0.746-0.771,0.741c-2.856-0.026-5.714-0.027-8.571,0c-0.605,0.006-0.869-0.114-0.837-0.789
		c0.055-1.163,0.041-2.331,0.004-3.495c-0.018-0.545,0.161-0.715,0.7-0.694c1.014,0.038,2.03-0.013,3.045,0.02
		c0.586,0.018,0.789-0.198,0.787-0.786c-0.017-4.474-0.008-8.947-0.013-13.42c0-0.282,0.097-0.726-0.307-0.724
		c-0.479,0.002-0.36,0.479-0.365,0.795c-0.013,0.864-0.032,1.73,0.005,2.593c0.023,0.528-0.128,0.736-0.686,0.706
		c-1.082-0.057-2.461,0.338-3.166-0.189c-0.673-0.503-0.18-1.963-0.202-3c-0.035-1.654,0.034-3.31-0.027-4.962
		c-0.031-0.839,0.144-1.154,1.076-1.13c2.743,0.071,5.49-0.016,8.232,0.047c0.996,0.023,1.372-0.188,1.338-1.282
		c-0.086-2.78-0.002-5.564-0.046-8.346c-0.012-0.751,0.129-1.033,0.96-1.016c2.706,0.058,5.414,0.045,8.12,0.005
		c0.682-0.01,0.894,0.148,0.883,0.863c-0.044,2.856,0.018,5.715-0.039,8.571c-0.018,0.911,0.193,1.23,1.165,1.207
		c2.817-0.067,5.639,0.001,8.458-0.042c0.745-0.011,1.041,0.118,1.021,0.956c-0.061,2.479-0.047,4.962-0.006,7.443
		c0.011,0.679-0.143,0.936-0.862,0.881c-0.897-0.067-1.806-0.055-2.705-0.004c-0.614,0.036-0.773-0.189-0.743-0.767
		c0.044-0.862,0.019-1.729,0.007-2.593c-0.004-0.281,0.106-0.723-0.295-0.733c-0.487-0.012-0.376,0.465-0.377,0.778
		C200.793,32.831,200.797,35.124,200.797,37.417z"/>
	<path fill-rule="evenodd" clip-rule="evenodd" fill="#FEFEFE" d="M190.108,11.736c2.215,0,4.429,0.021,6.644-0.013
		c0.634-0.009,0.938,0.073,0.908,0.832c-0.065,1.649-0.073,3.305,0.002,4.953c0.038,0.845-0.412,0.765-0.961,0.778
		c-0.547,0.013-0.922-0.001-0.876-0.745c0.066-1.084-0.005-2.177,0.024-3.264c0.018-0.638-0.156-0.979-0.876-0.974
		c-3.227,0.021-6.455,0.021-9.683-0.001c-0.615-0.004-0.763,0.243-0.747,0.805c0.032,1.163-0.038,2.329,0.024,3.489
		c0.051,0.936-0.582,0.66-1.042,0.671c-0.479,0.012-1.054,0.218-1.019-0.696c0.066-1.686,0.052-3.377,0.003-5.065
		c-0.02-0.68,0.244-0.79,0.843-0.782C185.604,11.753,187.856,11.735,190.108,11.736z"/>
	<path fill-rule="evenodd" clip-rule="evenodd" fill="#FEFEFE" d="M37.901,37.688c0,2.256,0.02,4.512-0.012,6.767
		c-0.01,0.687,0.215,0.936,0.91,0.907c1.126-0.047,2.256,0.014,3.383-0.024c0.546-0.018,0.712,0.164,0.693,0.702
		c-0.038,1.051-0.042,2.105,0.001,3.156c0.023,0.573-0.207,0.679-0.719,0.675c-2.819-0.02-5.639-0.024-8.458,0.003
		c-0.574,0.005-0.794-0.128-0.768-0.743c0.048-1.163-0.019-2.331,0.025-3.495c0.029-0.754-0.29-0.981-1-0.976
		c-3.007,0.021-6.015,0.023-9.022-0.003c-0.638-0.006-0.86,0.197-0.839,0.838c0.04,1.202-0.016,2.406,0.023,3.608
		c0.019,0.571-0.121,0.779-0.738,0.772c-2.894-0.032-5.789-0.031-8.684,0c-0.598,0.006-0.776-0.166-0.751-0.758
		c0.046-1.088,0.05-2.182-0.001-3.27c-0.03-0.628,0.217-0.753,0.779-0.731c1.014,0.039,2.031-0.017,3.044,0.021
		c0.67,0.024,0.945-0.209,0.942-0.904c-0.018-4.474-0.008-8.947-0.012-13.421c0-0.287,0.085-0.728-0.3-0.739
		c-0.487-0.014-0.367,0.468-0.373,0.779c-0.015,0.864-0.032,1.73,0.005,2.593c0.021,0.503-0.158,0.647-0.644,0.632
		c-1.014-0.031-2.03-0.035-3.044,0.001c-0.525,0.019-0.616-0.205-0.613-0.664c0.017-2.556,0.03-5.113-0.008-7.668
		c-0.01-0.652,0.264-0.715,0.797-0.711c2.895,0.02,5.79-0.024,8.684,0.029c0.905,0.017,1.17-0.267,1.154-1.158
		c-0.05-2.818,0.023-5.639-0.043-8.457c-0.021-0.883,0.259-1.041,1.068-1.025c2.593,0.052,5.188,0.052,7.781,0.001
		c0.839-0.017,1.152,0.146,1.128,1.078c-0.071,2.78,0.027,5.564-0.053,8.344c-0.03,1.041,0.31,1.241,1.271,1.22
		c2.818-0.064,5.638-0.009,8.458-0.034c0.619-0.006,0.938,0.049,0.92,0.822c-0.056,2.479-0.035,4.962-0.01,7.442
		c0.005,0.551-0.087,0.822-0.726,0.785c-0.937-0.054-1.88-0.044-2.818-0.002c-0.577,0.026-0.808-0.135-0.762-0.744
		c0.051-0.672,0.056-1.356-0.004-2.028c-0.038-0.427,0.327-1.19-0.349-1.202c-0.53-0.009-0.3,0.743-0.305,1.155
		C37.888,33.403,37.9,35.546,37.901,37.688z"/>
	<path fill-rule="evenodd" clip-rule="evenodd" fill="#FEFEFE" d="M27.207,11.285c2.216,0,4.433,0.021,6.648-0.014
		c0.638-0.009,0.931,0.08,0.907,0.835c-0.062,1.876-0.071,3.757,0.002,5.632c0.034,0.861-0.438,0.743-0.97,0.768
		c-0.564,0.027-0.913-0.025-0.866-0.755c0.066-1.048-0.014-2.104,0.028-3.154c0.025-0.65-0.233-0.847-0.853-0.843
		c-3.23,0.019-6.46,0.02-9.691-0.002c-0.597-0.004-0.785,0.203-0.767,0.787c0.037,1.163-0.04,2.331,0.027,3.492
		c0.053,0.922-0.557,0.688-1.029,0.687c-0.469-0.001-1.06,0.242-1.032-0.683c0.059-1.989,0.046-3.982,0.002-5.972
		c-0.015-0.666,0.221-0.801,0.833-0.792C22.699,11.305,24.953,11.285,27.207,11.285z"/>
	<path fill-rule="evenodd" clip-rule="evenodd" fill="#FEFEFE" d="M146.878,37.721c0,2.255,0.029,4.511-0.018,6.765
		c-0.015,0.698,0.17,0.916,0.871,0.88c1.125-0.058,2.257,0.021,3.382-0.029c0.616-0.027,0.765,0.193,0.74,0.768
		c-0.043,1.014-0.033,2.03-0.003,3.044c0.015,0.502-0.08,0.733-0.664,0.728c-2.931-0.028-5.863-0.033-8.794,0.002
		c-0.654,0.008-0.724-0.268-0.71-0.8c0.03-1.164-0.021-2.331,0.021-3.494c0.025-0.672-0.176-0.935-0.885-0.927
		c-2.969,0.03-5.938,0.027-8.907,0.001c-0.637-0.006-0.861,0.191-0.84,0.835c0.042,1.201-0.014,2.406,0.023,3.607
		c0.018,0.562-0.106,0.784-0.731,0.777c-2.969-0.033-5.938-0.028-8.907-0.004c-0.572,0.005-0.792-0.132-0.765-0.742
		c0.049-1.088,0.048-2.181,0.001-3.269c-0.026-0.606,0.186-0.771,0.764-0.746c1.013,0.042,2.03-0.014,3.044,0.021
		c0.654,0.021,0.959-0.178,0.956-0.889c-0.02-4.472-0.008-8.945-0.014-13.417c0-0.282,0.108-0.723-0.283-0.75
		c-0.505-0.035-0.381,0.45-0.387,0.755c-0.017,0.864-0.029,1.729,0.002,2.593c0.018,0.478-0.116,0.667-0.626,0.649
		c-1.014-0.036-2.029-0.035-3.043,0c-0.506,0.018-0.635-0.167-0.631-0.647c0.02-2.556,0.04-5.112-0.01-7.667
		c-0.015-0.764,0.371-0.729,0.896-0.726c2.856,0.012,5.714-0.025,8.569,0.024c0.878,0.015,1.189-0.223,1.173-1.139
		c-0.053-2.854,0.006-5.712-0.037-8.567c-0.012-0.736,0.189-0.942,0.929-0.93c2.705,0.045,5.412,0.048,8.118-0.001
		c0.763-0.014,0.924,0.231,0.913,0.945c-0.039,2.743,0.042,5.489-0.043,8.23c-0.035,1.138,0.366,1.382,1.413,1.359
		c2.855-0.063,5.713-0.002,8.569-0.037c0.668-0.008,0.906,0.141,0.893,0.861c-0.047,2.518-0.037,5.037-0.004,7.554
		c0.008,0.606-0.188,0.769-0.765,0.743c-0.938-0.042-1.881-0.051-2.817,0.002c-0.638,0.037-0.749-0.232-0.725-0.785
		c0.038-0.863,0.012-1.729,0.009-2.593c-0.001-0.26,0.033-0.619-0.298-0.636c-0.426-0.022-0.378,0.378-0.379,0.666
		C146.876,33.063,146.878,35.392,146.878,37.721z"/>
	<path fill-rule="evenodd" clip-rule="evenodd" fill="#FEFEFE" d="M136.028,13.763c-1.466,0-2.933,0.042-4.396-0.015
		c-0.905-0.036-1.317,0.215-1.245,1.198c0.076,1.046-0.023,2.105,0.029,3.154c0.044,0.874-0.559,0.59-0.981,0.622
		c-0.456,0.034-0.867,0.096-0.847-0.65c0.056-2.027,0.034-4.058,0.009-6.086c-0.007-0.521,0.12-0.714,0.681-0.711
		c4.584,0.021,9.169,0.02,13.753,0c0.537-0.002,0.708,0.149,0.7,0.693c-0.029,1.954-0.048,3.909,0.005,5.861
		c0.025,0.946-0.605,0.637-1.056,0.66c-0.494,0.026-1.073,0.188-1.004-0.712c0.074-0.971-0.033-1.956,0.031-2.929
		c0.056-0.825-0.189-1.14-1.059-1.103C139.111,13.809,137.569,13.763,136.028,13.763z"/>
	<path fill-rule="evenodd" clip-rule="evenodd" fill="#FEFEFE" d="M254.724,37.426c0,2.144,0.065,4.29-0.026,6.429
		c-0.048,1.103,0.357,1.361,1.355,1.29c1.047-0.076,2.105,0.007,3.157-0.028c0.522-0.017,0.788,0.124,0.7,0.684
		c-0.006,0.036,0,0.074-0.001,0.112c-0.021,1.197,0.407,2.77-0.189,3.487c-0.621,0.745-2.253,0.2-3.44,0.223
		c-1.843,0.035-3.687-0.028-5.527,0.027c-0.759,0.022-1.065-0.134-1.011-0.965c0.077-1.16-0.017-2.331,0.033-3.495
		c0.031-0.72-0.174-0.998-0.938-0.988c-2.896,0.037-5.791,0.039-8.686,0c-0.822-0.011-1.037,0.314-1.011,1.07
		c0.044,1.239-0.007,2.481,0.021,3.722c0.01,0.48-0.125,0.651-0.63,0.648c-3.046-0.021-6.092-0.021-9.137,0
		c-0.515,0.004-0.632-0.185-0.621-0.655c0.025-1.203,0.046-2.408-0.007-3.609c-0.029-0.655,0.265-0.726,0.798-0.71
		c1.052,0.031,2.105-0.012,3.158,0.018c0.569,0.015,0.805-0.168,0.802-0.771c-0.018-4.512-0.009-9.024-0.011-13.537
		c0-0.256,0.046-0.617-0.299-0.626c-0.42-0.011-0.367,0.381-0.379,0.673c-0.005,0.113,0.005,0.226-0.003,0.338
		c-0.067,1,0.422,2.578-0.184,2.876c-1.002,0.494-2.404,0.167-3.638,0.203c-0.443,0.013-0.463-0.249-0.462-0.577
		c0.004-2.707,0.019-5.415-0.008-8.122c-0.007-0.707,0.449-0.546,0.829-0.547c2.895-0.006,5.791-0.042,8.686,0.02
		c0.927,0.02,1.138-0.28,1.122-1.153c-0.052-2.857,0.01-5.716-0.038-8.573c-0.014-0.764,0.232-0.923,0.944-0.913
		c2.669,0.04,5.34,0.045,8.009-0.002c0.765-0.014,1.021,0.149,1.006,0.969c-0.055,2.856,0.007,5.715-0.037,8.572
		c-0.013,0.837,0.241,1.107,1.088,1.095c2.97-0.044,5.94,0.007,8.91-0.036c0.713-0.01,0.876,0.199,0.864,0.882
		c-0.041,2.519-0.033,5.039-0.004,7.558c0.007,0.602-0.105,0.875-0.785,0.84c-1.163-0.059-2.616,0.397-3.418-0.146
		c-0.874-0.591-0.172-2.14-0.312-3.262c-0.035-0.283,0.088-0.707-0.328-0.713c-0.398-0.006-0.354,0.401-0.354,0.699
		C254.724,32.764,254.724,35.095,254.724,37.426z"/>
	<path fill-rule="evenodd" clip-rule="evenodd" fill="#FEFEFE" d="M244.131,11.736c2.18,0,4.359,0.036,6.538-0.02
		c0.766-0.02,0.934,0.234,0.912,0.946c-0.05,1.614-0.051,3.232,0.001,4.846c0.021,0.688-0.244,0.831-0.845,0.774
		c-0.498-0.047-1.06,0.158-0.995-0.737c0.078-1.084-0.003-2.179,0.027-3.268c0.018-0.638-0.151-0.98-0.874-0.976
		c-3.193,0.021-6.388,0.019-9.582,0c-0.646-0.003-0.856,0.271-0.842,0.883c0.027,1.127-0.042,2.257,0.024,3.381
		c0.047,0.78-0.392,0.73-0.902,0.711c-0.47-0.017-0.964,0.145-0.937-0.678c0.059-1.688,0.047-3.382,0.003-5.072
		c-0.017-0.647,0.19-0.816,0.819-0.806C239.697,11.758,241.915,11.736,244.131,11.736z"/>
	<path fill-rule="evenodd" clip-rule="evenodd" fill="#FEFEFE" d="M92.049,37.647c0,2.142,0.063,4.288-0.026,6.426
		c-0.046,1.094,0.343,1.371,1.351,1.294c1.009-0.079,2.029,0.014,3.043-0.029c0.6-0.025,0.879,0.098,0.84,0.781
		c-0.067,1.196,0.406,2.76-0.186,3.497c-0.617,0.769-2.247,0.209-3.432,0.234c-1.916,0.041-3.835-0.015-5.751,0.025
		c-0.644,0.014-0.835-0.184-0.809-0.817c0.049-1.125-0.029-2.257,0.028-3.382c0.042-0.812-0.281-1.029-1.049-1.021
		c-2.97,0.033-5.939,0.031-8.908,0c-0.676-0.007-0.941,0.174-0.91,0.885c0.053,1.163-0.015,2.331,0.026,3.495
		c0.021,0.601-0.104,0.852-0.783,0.843c-2.894-0.038-5.788-0.028-8.683-0.006c-0.526,0.005-0.726-0.127-0.707-0.685
		c0.041-1.126,0.04-2.256,0-3.382c-0.019-0.555,0.176-0.707,0.707-0.688c1.014,0.036,2.031-0.021,3.044,0.021
		c0.709,0.03,1.019-0.187,1.014-0.948c-0.023-4.436-0.009-8.871-0.015-13.307c0-0.316,0.116-0.821-0.336-0.817
		c-0.434,0.003-0.317,0.504-0.341,0.827c-0.002,0.037,0.002,0.075,0,0.113c-0.075,0.998,0.425,2.569-0.191,2.872
		c-1.003,0.492-2.406,0.16-3.64,0.192c-0.449,0.012-0.454-0.261-0.453-0.584c0.004-2.631,0.018-5.263-0.008-7.894
		c-0.007-0.707,0.453-0.545,0.831-0.546c2.857-0.006,5.714-0.036,8.57,0.015c0.92,0.017,1.249-0.232,1.229-1.196
		c-0.058-2.855,0.004-5.713-0.037-8.569c-0.011-0.698,0.174-0.882,0.872-0.872c2.743,0.043,5.488,0.046,8.231-0.001
		c0.726-0.013,0.864,0.22,0.855,0.889c-0.036,2.819,0.025,5.639-0.037,8.457c-0.021,0.97,0.308,1.201,1.221,1.185
		c2.855-0.052,5.714,0.007,8.569-0.036c0.785-0.012,1.114,0.11,1.087,1.016c-0.073,2.441-0.045,4.886-0.012,7.329
		c0.009,0.627-0.156,0.913-0.804,0.805c-0.036-0.006-0.075-0.001-0.112-0.001c-1.128-0.005-2.536,0.4-3.307-0.127
		c-0.832-0.569-0.175-2.071-0.3-3.158c-0.033-0.289,0.062-0.714-0.33-0.722c-0.385-0.007-0.352,0.411-0.352,0.707
		C92.048,33.061,92.049,35.354,92.049,37.647z"/>
	<path fill-rule="evenodd" clip-rule="evenodd" fill="#FEFEFE" d="M81.495,11.285c2.18,0,4.36,0.03,6.54-0.017
		c0.695-0.015,0.893,0.169,0.873,0.871c-0.052,1.84-0.057,3.684,0.002,5.524c0.022,0.732-0.232,0.851-0.892,0.859
		c-0.713,0.008-0.995-0.153-0.942-0.921c0.07-1.01-0.006-2.029,0.026-3.043c0.019-0.582-0.193-0.804-0.779-0.801
		c-3.232,0.015-6.465,0.016-9.697-0.001c-0.659-0.003-0.841,0.299-0.828,0.899c0.025,1.127-0.041,2.258,0.023,3.382
		c0.047,0.804-0.434,0.688-0.922,0.695c-0.504,0.007-0.933,0.08-0.911-0.708c0.056-1.99,0.049-3.984,0.002-5.976
		c-0.017-0.694,0.262-0.782,0.851-0.774C77.059,11.302,79.277,11.285,81.495,11.285z"/>
	<path fill-rule="evenodd" clip-rule="evenodd" fill="#3B3B39" d="M187.966,18.942c-0.934,0.191-1.229-0.241-1.226-1.164
		c0.004-0.854,0.479-0.871,1.092-0.863c0.741,0.009,1.315,0.086,1.267,1.094C189.059,18.82,188.752,19.1,187.966,18.942z"/>
	<path fill-rule="evenodd" clip-rule="evenodd" fill="#424240" d="M190.185,22.46c-0.884,0.045-1.643-0.172-2.408-0.343
		c-0.281-0.062-0.531-0.168-0.481-0.495c0.047-0.311,0.358-0.258,0.544-0.217c1.481,0.329,2.954,0.441,4.436,0.001
		c0.163-0.049,0.393-0.009,0.411,0.25c0.016,0.204-0.076,0.362-0.279,0.431C191.659,22.341,190.9,22.536,190.185,22.46z"/>
	<path fill-rule="evenodd" clip-rule="evenodd" fill="#3A3A39" d="M192.383,18.935c-0.945,0.167-1.094-0.326-1.118-1.093
		c-0.029-0.895,0.462-0.956,1.131-0.927c0.668,0.03,1.238,0.032,1.217,1.003C193.592,18.877,193.141,19.078,192.383,18.935z"/>
	<path fill-rule="evenodd" clip-rule="evenodd" fill="#4E4E4D" d="M189.745,20.479c-0.063-0.024-0.282-0.079-0.471-0.187
		c-0.281-0.163-0.388-0.449-0.336-0.754c0.019-0.112,0.189-0.199,0.292-0.297c0.472,0.966,1.341-0.269,1.822,0.321
		c0.188,0.229-0.046,0.578-0.309,0.746C190.496,20.468,190.206,20.553,189.745,20.479z"/>
	<path fill-rule="evenodd" clip-rule="evenodd" fill="#3B3B39" d="M192.747,16.25c-0.188,0-0.375,0-0.562,0
		c-0.229-0.001-0.513,0-0.538-0.276c-0.031-0.339,0.259-0.397,0.535-0.405c0.188-0.005,0.378-0.022,0.562,0
		c0.418,0.05,0.962-0.212,1.184,0.359C194.024,16.177,193.782,16.252,192.747,16.25z"/>
	<path fill-rule="evenodd" clip-rule="evenodd" fill="#3C3C3A" d="M187.427,16.038c-0.333-0.14-0.995,0.242-1.003-0.337
		c-0.007-0.543,0.642-0.346,1.02-0.354c0.386-0.008,1.039-0.161,1.033,0.349C188.471,16.241,187.812,15.934,187.427,16.038z"/>
	<path fill-rule="evenodd" clip-rule="evenodd" fill="#3E3E3C" d="M29.75,24.726c-0.043,0.366-0.284,0.418-0.482,0.289
		c-0.208-0.136-0.339-0.386-0.509-0.583c-1.138-1.318-2.056-1.35-3.318-0.156c-0.258,0.244-0.511,0.904-0.939,0.436
		c-0.345-0.376,0.21-0.711,0.484-0.972c1.597-1.52,3.347-1.307,4.509,0.532C29.593,24.428,29.676,24.594,29.75,24.726z"/>
	<path fill-rule="evenodd" clip-rule="evenodd" fill="#3B3B39" d="M29.596,19.166c-0.98,0.16-1.144-0.42-1.185-1.199
		c-0.046-0.888,0.409-1.069,1.179-1.061c0.865,0.009,1.357,0.29,1.326,1.236C30.887,19.053,30.392,19.306,29.596,19.166z"/>
	<path fill-rule="evenodd" clip-rule="evenodd" fill="#3A3A38" d="M25.308,19.16c-0.992,0.151-1.423-0.226-1.414-1.226
		c0.009-0.932,0.576-0.983,1.264-1.021c0.954-0.052,1.278,0.453,1.237,1.306C26.361,18.924,26.109,19.404,25.308,19.16z"/>
	<path fill-rule="evenodd" clip-rule="evenodd" fill="#41413F" d="M27.289,20.8c-0.462-0.03-0.927-0.104-1.086-0.616
		c-0.082-0.262-0.211-0.642,0.136-0.807c0.328-0.156,0.396,0.158,0.519,0.402c0.245,0.485,0.604,0.454,0.919,0.063
		c0.168-0.208,0.193-0.712,0.587-0.4c0.332,0.263,0.171,0.731-0.046,1.013C28.087,20.754,27.685,20.835,27.289,20.8z"/>
	<path fill-rule="evenodd" clip-rule="evenodd" fill="#444442" d="M30.357,16.562c-0.246,0.013-1.518-1.271-1.509-1.547
		c0.009-0.274,0.201-0.463,0.422-0.271c0.473,0.408,0.906,0.869,1.318,1.341C30.807,16.335,30.579,16.472,30.357,16.562z"/>
	<path fill-rule="evenodd" clip-rule="evenodd" fill="#434341" d="M24.246,16.635c-0.309-0.114-0.415-0.287-0.249-0.528
		c0.125-0.181,0.275-0.364,0.457-0.482c0.389-0.253,0.571-0.835,1.151-0.768c0.15,0.017,0.215,0.228,0.125,0.36
		C25.332,15.803,24.784,16.231,24.246,16.635z"/>
	<path fill-rule="evenodd" clip-rule="evenodd" fill="#3A3A38" d="M138.302,19.17c-0.968,0.151-1.101-0.455-1.14-1.222
		c-0.046-0.892,0.416-1.058,1.185-1.044c0.866,0.016,1.343,0.3,1.322,1.244C139.648,19.103,139.078,19.251,138.302,19.17z"/>
	<path fill-rule="evenodd" clip-rule="evenodd" fill="#3B3B39" d="M133.747,19.167c-0.96,0.156-1.11-0.392-1.145-1.192
		c-0.032-0.773,0.189-1.11,0.998-1.066c0.76,0.042,1.386,0.037,1.357,1.126C134.933,18.945,134.587,19.259,133.747,19.167z"/>
	<path fill-rule="evenodd" clip-rule="evenodd" fill="#383836" d="M135.889,22.335c-0.675,0.001-1.349,0.005-2.022-0.002
		c-0.215-0.002-0.492,0.036-0.524-0.269c-0.028-0.272,0.184-0.399,0.428-0.4c1.498-0.006,2.996-0.006,4.494,0.007
		c0.23,0.002,0.454,0.124,0.42,0.399c-0.027,0.218-0.241,0.262-0.436,0.263C137.461,22.336,136.675,22.334,135.889,22.335z"/>
	<path fill-rule="evenodd" clip-rule="evenodd" fill="#444442" d="M136.219,20.795c-0.59,0.017-1.012-0.07-1.218-0.468
		c-0.145-0.278-0.281-0.706,0.044-0.919c0.384-0.25,0.446,0.136,0.567,0.416c0.193,0.447,0.485,0.382,0.747,0.047
		c0.17-0.217,0.169-0.835,0.626-0.378c0.321,0.321,0.111,0.78-0.208,1.062C136.598,20.713,136.316,20.756,136.219,20.795z"/>
	<path fill-rule="evenodd" clip-rule="evenodd" fill="#3D3D3B" d="M138.303,16.468c-0.304,0-0.527,0.004-0.751-0.001
		c-0.2-0.004-0.387-0.07-0.388-0.299c0-0.206,0.146-0.339,0.354-0.358c0.222-0.021,0.454-0.056,0.668-0.014
		c0.426,0.082,1.187-0.295,1.179,0.394C139.359,16.718,138.619,16.357,138.303,16.468z"/>
	<path fill-rule="evenodd" clip-rule="evenodd" fill="#3F3F3D" d="M133.414,16.49c-0.362-0.121-1.021,0.231-1.03-0.341
		c-0.007-0.54,0.643-0.353,1.021-0.351s1.028-0.19,1.023,0.351C134.422,16.732,133.761,16.356,133.414,16.49z"/>
	<path fill-rule="evenodd" clip-rule="evenodd" fill="#41413F" d="M243.926,22.925c-1.013-0.036-1.783-0.624-2.336-1.549
		c-0.108-0.182-0.29-0.406-0.023-0.581c0.222-0.146,0.379-0.004,0.556,0.184c1.612,1.712,2.402,1.703,4.06-0.029
		c0.174-0.181,0.354-0.313,0.562-0.129c0.197,0.175,0.108,0.42,0.004,0.622C246.177,22.543,245.181,22.873,243.926,22.925z"/>
	<path fill-rule="evenodd" clip-rule="evenodd" fill="#3C3C3A" d="M246.35,16.909c0.458,0.147,1.215-0.236,1.221,0.812
		s-0.646,0.98-1.339,1.015c-0.833,0.041-0.984-0.429-1.005-1.127C245.201,16.705,245.839,16.972,246.35,16.909z"/>
	<path fill-rule="evenodd" clip-rule="evenodd" fill="#3A3A38" d="M241.936,18.718c-0.67,0.054-1.208,0.041-1.223-0.877
		c-0.013-0.801,0.357-1.004,1.029-0.916c0.561,0.074,1.349-0.259,1.314,0.863C243.031,18.649,242.625,18.816,241.936,18.718z"/>
	<path fill-rule="evenodd" clip-rule="evenodd" fill="#535352" d="M246.792,15.478c-0.321-0.157-1.159,0.505-1.166-0.205
		c-0.006-0.669,0.921-0.487,1.486-0.528c0.146-0.011,0.299-0.002,0.441,0.029c0.321,0.07,0.743,0.118,0.646,0.573
		c-0.091,0.429-0.473,0.193-0.74,0.183C247.276,15.522,247.092,15.501,246.792,15.478z"/>
	<path fill-rule="evenodd" clip-rule="evenodd" fill="#41413F" d="M244.33,20.582c-0.494-0.024-0.916-0.04-1.081-0.528
		c-0.073-0.216-0.116-0.471,0.084-0.62c0.16-0.119,0.371-0.033,0.483,0.136c0.242,0.366,0.563,0.373,0.848,0.128
		c0.234-0.202,0.438-0.528,0.667-0.095c0.207,0.394-0.053,0.714-0.422,0.877C244.712,20.568,244.474,20.56,244.33,20.582z"/>
	<path fill-rule="evenodd" clip-rule="evenodd" fill="#4A4A49" d="M242.76,15.586c-0.88-0.048-1.612-0.199-2.344-0.018
		c-0.138,0.034-0.31,0.037-0.366-0.129c-0.03-0.088-0.006-0.226,0.047-0.306C240.466,14.567,242.355,14.836,242.76,15.586z"/>
	<path fill-rule="evenodd" clip-rule="evenodd" fill="#5B5B59" d="M248.41,20.218c-0.009,0.213-0.141,0.345-0.332,0.342
		c-0.188-0.002-0.343-0.14-0.337-0.343c0.005-0.193,0.145-0.353,0.335-0.354C248.269,19.863,248.381,20.021,248.41,20.218z"/>
	<path fill-rule="evenodd" clip-rule="evenodd" fill="#60605E" d="M240.423,20.613c-0.209-0.055-0.342-0.21-0.293-0.406
		c0.043-0.167,0.178-0.346,0.413-0.276c0.159,0.047,0.231,0.178,0.229,0.342C240.769,20.499,240.651,20.613,240.423,20.613z"/>
	<path fill-rule="evenodd" clip-rule="evenodd" fill="#3B3B39" d="M79.273,16.919c0.96-0.011,1.26,0.478,1.281,1.272
		c0.029,1.062-0.676,1.199-1.475,1.215c-0.981,0.02-0.975-0.699-1.024-1.388C77.985,17.028,78.686,16.991,79.273,16.919z"/>
	<path fill-rule="evenodd" clip-rule="evenodd" fill="#3A3A38" d="M83.81,16.925c0.854-0.112,1.276,0.328,1.245,1.221
		c-0.021,0.593-0.106,1.105-0.94,1.062c-0.838-0.042-1.579-0.008-1.563-1.202C82.562,17.123,83.004,16.904,83.81,16.925z"/>
	<path fill-rule="evenodd" clip-rule="evenodd" fill="#41413F" d="M81.632,21.914c0.809-0.055,1.561,0.271,2.28,0.686
		c0.229,0.133,0.443,0.354,0.286,0.645c-0.194,0.359-0.446,0.118-0.653-0.015c-1.25-0.8-2.524-0.833-3.827-0.145
		c-0.229,0.121-0.526,0.347-0.693,0.061c-0.203-0.348,0.166-0.518,0.418-0.657C80.106,22.121,80.81,21.889,81.632,21.914z"/>
	<path fill-rule="evenodd" clip-rule="evenodd" fill="#424240" d="M81.867,20.932c-0.562,0.049-0.925-0.024-1.149-0.257
		c-0.295-0.306-0.426-0.833-0.127-1.114c0.439-0.412,0.46,0.188,0.613,0.414c0.283,0.418,0.593,0.41,0.876,0.03
		c0.159-0.213,0.107-0.639,0.545-0.525c0.092,0.024,0.188,0.231,0.19,0.356c0.01,0.37,0.021,0.773-0.405,0.95
		C82.174,20.884,81.913,20.92,81.867,20.932z"/>
	<path fill-rule="evenodd" clip-rule="evenodd" fill="#4B4B49" d="M80.327,15.48c-0.034,0.435-1.427,1.222-1.732,1.071
		c-0.124-0.061-0.311-0.185-0.175-0.329c0.453-0.484,1.004-0.835,1.669-0.946C80.236,15.252,80.333,15.414,80.327,15.48z"/>
	<path fill-rule="evenodd" clip-rule="evenodd" fill="#464644" d="M83.423,15.266c0.411,0.203,0.95,0.453,1.47,0.739
		c0.09,0.05,0.119,0.25,0.128,0.383c0.002,0.034-0.187,0.124-0.279,0.113c-0.646-0.071-1.184-0.408-1.717-0.744
		c-0.066-0.042-0.104-0.201-0.085-0.292C82.972,15.303,83.113,15.241,83.423,15.266z"/>
	<path fill-rule="evenodd" clip-rule="evenodd" fill="#8D8D8C" d="M191.986,18.179c-0.038-0.062-0.123-0.141-0.131-0.227
		c-0.015-0.155,0.061-0.301,0.242-0.266c0.052,0.01,0.085,0.18,0.105,0.281C192.227,18.093,192.165,18.171,191.986,18.179z"/>
	<path fill-rule="evenodd" clip-rule="evenodd" fill="#E7E7E6" d="M30.224,18.084c-0.023,0.157-0.219,0.434-0.26,0.256
		c-0.131-0.571-0.867,0.188-0.857-0.451c0.007-0.442,0.362-0.273,0.584-0.292C30.012,17.571,30.321,17.607,30.224,18.084z"/>
	<path fill-rule="evenodd" clip-rule="evenodd" fill="#E9E9E9" d="M25.339,18.165c-0.145-0.664-0.662,0.905-0.753-0.115
		c-0.049-0.555,0.365-0.441,0.684-0.455c0.336-0.014,0.468,0.161,0.453,0.483C25.702,18.543,25.521,18.335,25.339,18.165z"/>
	<path fill-rule="evenodd" clip-rule="evenodd" fill="#EFEFEF" d="M139.106,18.45c-0.532,0-0.931,0.268-1.226-0.162
		c-0.226-0.327,0.271-0.833,0.349-0.59C138.362,18.109,138.752,18.095,139.106,18.45z"/>
	<path fill-rule="evenodd" clip-rule="evenodd" fill="#E5E5E5" d="M134.102,18.428c-0.794,0.049-0.794,0.049-0.645-1.029
		C133.721,17.821,133.904,18.112,134.102,18.428z"/>
	<path fill-rule="evenodd" clip-rule="evenodd" fill="#E9E9E9" d="M78.815,18.614c-0.133-0.457,1.105-0.176,0.37-0.887
		c-0.068-0.066,0.268-0.129,0.371-0.092c0.348,0.125,0.4,0.473,0.289,0.733C79.611,18.919,79.195,18.774,78.815,18.614z"/>
	<path fill-rule="evenodd" clip-rule="evenodd" fill="#E6E6E6" d="M83.655,18.348c0.289,0.034-0.165-0.917,0.491-0.718
		c0.28,0.085,0.28,0.35,0.223,0.553C84.183,18.84,83.691,18.326,83.655,18.348z"/>
</g>
</svg>
