<?xml version="1.0" encoding="utf-8"?>
<!-- Generator: Adobe Illustrator 16.0.0, SVG Export Plug-In . SVG Version: 6.00 Build 0)  -->
<!DOCTYPE svg PUBLIC "-//W3C//DTD SVG 1.1//EN" "http://www.w3.org/Graphics/SVG/1.1/DTD/svg11.dtd">
<svg version="1.1" id="Layer_1" xmlns="http://www.w3.org/2000/svg" xmlns:xlink="http://www.w3.org/1999/xlink" x="0px" y="0px"
	 width="270.744px" height="68px" viewBox="0 0 270.744 68" enable-background="new 0 0 270.744 68" xml:space="preserve">
<g>
	<path fill-rule="evenodd" clip-rule="evenodd" fill="#373735" d="M215.246,31.124c0,8.909-0.016,17.818,0.021,26.728
		c0.004,0.994-0.282,1.274-1.272,1.273c-15.938-0.028-31.877-0.029-47.815,0c-1.006,0.002-1.271-0.303-1.269-1.28
		c0.025-17.894,0.026-35.787-0.003-53.681c-0.002-1.008,0.304-1.264,1.281-1.262c15.938,0.027,31.878,0.028,47.816-0.002
		c0.999-0.002,1.267,0.28,1.263,1.271C215.23,13.155,215.246,22.14,215.246,31.124z"/>
	<path fill-rule="evenodd" clip-rule="evenodd" fill="#373735" d="M55.951,30.67c0-8.949,0.012-17.898-0.019-26.848
		c-0.003-0.859,0.166-1.154,1.1-1.152c15.905,0.031,31.811,0.031,47.716,0.002c1.061-0.002,1.32,0.342,1.319,1.367
		c-0.03,17.823-0.031,35.646,0.001,53.469c0.003,1.086-0.291,1.393-1.383,1.391c-15.792-0.034-31.585-0.034-47.377,0
		c-1.087,0.003-1.386-0.301-1.381-1.382C55.968,48.568,55.95,39.619,55.951,30.67z"/>
	<path fill-rule="evenodd" clip-rule="evenodd" fill="#373735" d="M111.001,30.691c0-8.945,0.015-17.891-0.021-26.837
		c-0.004-0.94,0.247-1.185,1.184-1.183c15.861,0.028,31.723,0.031,47.584-0.003c1.118-0.002,1.372,0.36,1.37,1.419
		c-0.029,17.815-0.031,35.632,0.003,53.448c0.003,1.104-0.329,1.363-1.391,1.361c-15.786-0.032-31.573-0.032-47.359,0.001
		c-1.073,0.002-1.399-0.266-1.394-1.37C111.021,48.583,111.001,39.638,111.001,30.691z"/>
	<path fill-rule="evenodd" clip-rule="evenodd" fill="#373735" d="M51.667,30.777c0,8.946-0.014,17.893,0.021,26.839
		c0.004,0.965-0.213,1.284-1.238,1.282C34.587,58.865,18.724,58.863,2.862,58.9c-1.081,0.003-1.304-0.337-1.303-1.344
		C1.586,39.589,1.584,21.622,1.561,3.654C1.56,2.921,1.717,2.678,2.478,2.679c16.05,0.018,32.101,0.021,48.151-0.005
		c1.014-0.002,1.049,0.501,1.047,1.266C51.662,12.886,51.667,21.832,51.667,30.777z"/>
	<path fill-rule="evenodd" clip-rule="evenodd" fill="#373735" d="M219.077,30.803c0-8.908,0.026-17.817-0.03-26.725
		c-0.008-1.19,0.349-1.413,1.457-1.41c15.748,0.035,31.498,0.036,47.246-0.002c1.144-0.003,1.443,0.292,1.441,1.44
		c-0.038,17.816-0.037,35.633-0.001,53.448c0.002,1.113-0.334,1.346-1.388,1.344c-15.786-0.033-31.573-0.034-47.359,0
		c-1.077,0.002-1.396-0.272-1.391-1.372C219.096,48.619,219.077,39.711,219.077,30.803z"/>
	<path fill-rule="evenodd" clip-rule="evenodd" fill="#4B4B49" d="M25.74,64.286c0.464-1.233,0.376-2.469,0.14-3.614
		c-0.167-0.807,0.388-0.701,0.68-0.812c0.611-0.231,0.416,0.326,0.435,0.596c0.084,1.187-0.146,2.389,0.134,3.564
		c0.085,0.356-0.166,0.25-0.289,0.258C26.47,64.301,26.098,64.286,25.74,64.286z"/>
	<path fill-rule="evenodd" clip-rule="evenodd" fill="#484846" d="M108.066,60.68c0.095-0.158,0.174-0.327,0.289-0.47
		c0.155-0.192,0.263-0.528,0.569-0.449c0.411,0.107,0.182,0.495,0.232,0.758c0.142,0.73-0.194,1.479,0.293,2.237
		c0.257,0.398-0.166,1.239-0.517,1.449c-0.643,0.388-0.745-0.217-0.692-0.75c-0.322-0.4-0.759-0.096-1.135-0.178
		c-0.186-0.041-0.389-0.036-0.451-0.248c-0.06-0.206,0.054-0.429,0.237-0.444C108.163,62.478,107.981,61.501,108.066,60.68z"/>
	<path fill-rule="evenodd" clip-rule="evenodd" fill="#484846" d="M188.582,60.186c0.209-0.739,0.807-0.319,1.224-0.385
		c0.438-0.067,0.896-0.015,1.538-0.015c-0.549,1.619-1.064,3.141-1.58,4.662c-0.109-0.035-0.22-0.07-0.33-0.105
		c0.007-0.792,0.393-1.501,0.622-2.239c0.473-1.527,0.492-1.521-1.16-1.371C188.463,60.737,188.483,60.484,188.582,60.186z"/>
	<path fill-rule="evenodd" clip-rule="evenodd" fill="#40403E" d="M81.438,63.604c0.041-0.307,0.032-0.632-0.19-0.848
		c-0.485-0.471-0.685-0.766-0.289-1.573c0.445-0.909-0.646-0.705-1.294-0.768c0.56-0.669,1.158-0.915,1.836-0.538
		c0.613,0.342,0.604,0.893,0.197,1.428c-0.154,0.203-0.056,0.33,0.075,0.474c0.653,0.718,0.526,1.408-0.081,2.079
		C81.474,63.906,81.368,63.843,81.438,63.604z"/>
	<path fill-rule="evenodd" clip-rule="evenodd" fill="#3E3E3C" d="M216.123,61.816c-0.76-0.613-0.768-1.23-0.009-1.851
		c0.561-0.075,0.427,0.462,0.628,0.705c0.147,0.308,0.397,0.534,0.625,0.779c0.172,0.161,0.177,0.445,0.412,0.561
		c0.99,1.014,0.819,1.786-0.509,2.299c-0.065-0.083-0.1-0.178-0.104-0.283c0.152-0.674-0.172-1.157-0.637-1.584
		C216.338,62.27,216.328,61.979,216.123,61.816z"/>
	<path fill-rule="evenodd" clip-rule="evenodd" fill="#444442" d="M162.225,64.285c-0.912-0.299-1.138-1.048-1.091-1.864
		c0.068-1.16,0.597-2.062,1.761-2.478c0.096,0.101,0.111,0.212,0.048,0.335c-0.732,0.874-0.739,0.908-0.285,1.262
		c0.071,0.09,0.099,0.19,0.083,0.304c-0.395,0.712-0.149,1.472-0.163,2.213C162.518,64.223,162.446,64.368,162.225,64.285z"/>
	<path fill-rule="evenodd" clip-rule="evenodd" fill="#414140" d="M244.075,63.558c0.787-0.988-0.303-0.796-0.667-1.06
		c0.096-0.2,0.279-0.305,0.452-0.418c0.82-0.582,0.188-1.387,0.316-2.075c0.032-0.103,0.089-0.188,0.17-0.258
		c1.735,0.874,1.745,2.776,0.022,4.109C244.112,63.913,244.037,63.791,244.075,63.558z"/>
	<path fill-rule="evenodd" clip-rule="evenodd" fill="#444442" d="M134.539,61.102c0.434,0.098,0.902,0.12,1.292,0.308
		c1.224,0.588,1.212,1.906,0.006,2.681l0.016,0.02c0.49-1.163,0.177-1.809-1.145-1.985c-0.858-0.114-0.918-0.377-0.474-0.996
		C134.327,61.008,134.428,60.999,134.539,61.102z"/>
	<path fill-rule="evenodd" clip-rule="evenodd" fill="#424240" d="M52.569,60.229c0.571-0.64,1.232-0.741,1.874-0.175
		c0.64,0.563,0.405,1.233,0.014,1.834c-0.201,0.307-0.489,0.557-0.737,0.832c-0.11,0.1-0.211,0.092-0.303-0.025
		c0.142-0.343,0.342-0.673,0.412-1.029c0.149-0.762-0.085-1.264-0.99-1.153C52.622,60.537,52.503,60.471,52.569,60.229z"/>
	<path fill-rule="evenodd" clip-rule="evenodd" fill="#4B4B49" d="M53.417,62.694c0.101,0.009,0.202,0.017,0.303,0.025
		c-0.101,0.189-0.32,0.516-0.284,0.547c0.343,0.298,0.76,0.099,1.151,0.103c0.421-0.019,0.353,0.237,0.28,0.497
		c-0.179,0.751-0.78,0.354-1.192,0.413c-0.435,0.062-0.887,0.014-1.428,0.014C52.5,63.598,52.996,63.172,53.417,62.694z"/>
	<path fill-rule="evenodd" clip-rule="evenodd" fill="#424240" d="M162.673,61.773c-0.005-0.077-0.01-0.155-0.016-0.233
		c0.638-0.293,1.036,0.081,1.24,0.575c0.311,0.748,0.216,1.473-0.5,2.003c-0.217,0.062-0.343-0.053-0.439-0.225
		C162.802,63.195,162.712,62.488,162.673,61.773z"/>
	<path fill-rule="evenodd" clip-rule="evenodd" fill="#8D8D8C" d="M108.066,60.68c0.601,1.504,0.419,1.819-1.296,2.185
		c0.32,0.663,1.196-0.089,1.471,0.591c-0.036-0.01-0.072-0.023-0.109-0.027c-2.031-0.209-2.036-0.213-0.787-1.923
		C107.558,61.211,107.672,60.819,108.066,60.68z"/>
	<path fill-rule="evenodd" clip-rule="evenodd" fill="#40403F" d="M243.907,62.225c-0.1,0.214-0.293,0.256-0.499,0.273
		c-0.913-0.733-0.957-1.389-0.166-2.479c0.166-0.16,0.335-0.148,0.506-0.007C244.067,60.73,244.058,61.473,243.907,62.225z"/>
	<path fill-rule="evenodd" clip-rule="evenodd" fill="#50504F" d="M134.539,61.102c-0.102,0.009-0.203,0.018-0.305,0.026
		c0.399-1.525,0.399-1.525,2.407-1.251c0.012,0.636-0.323,0.794-0.92,0.807C135.321,60.691,134.692,60.311,134.539,61.102z"/>
	<path fill-rule="evenodd" clip-rule="evenodd" fill="#51514F" d="M216.123,61.816c0.263,0.066,0.4,0.256,0.484,0.496
		c0.1,0.59,0.08,1.188,0.113,1.782c-0.065,0.168-0.153,0.298-0.366,0.213c-1.056-0.618-1.153-1.035-0.395-1.92
		C216.125,62.195,216.198,62.045,216.123,61.816z"/>
	<path fill-rule="evenodd" clip-rule="evenodd" fill="#515150" d="M217.779,62.011c-0.278-0.034-0.419-0.223-0.513-0.462
		c-0.117-0.503-0.062-1.021-0.138-1.526c0.02-0.106,0.068-0.196,0.145-0.272c1.261,0.503,1.359,0.81,0.566,1.856
		C217.728,61.752,217.771,61.872,217.779,62.011z"/>
	<path fill-rule="evenodd" clip-rule="evenodd" fill="#565654" d="M135.836,64.09c-0.494,0.39-1.043,0.354-1.594,0.18
		c-0.212-0.067-0.428-0.226-0.346-0.491c0.099-0.321,0.355-0.348,0.632-0.218c0.433,0.203,0.791,0.583,1.322,0.548
		C135.852,64.109,135.836,64.09,135.836,64.09z"/>
	<path fill-rule="evenodd" clip-rule="evenodd" fill="#424240" d="M79.844,64.316c-0.312-0.071-0.615-0.213-0.45-0.582
		c0.183-0.406,0.481-0.173,0.726-0.013c0.152,0.101,0.292,0.221,0.437,0.332C80.494,64.613,80.129,64.357,79.844,64.316z"/>
	<path fill-rule="evenodd" clip-rule="evenodd" fill="#888887" d="M217.273,59.75c-0.005,0.091-0.01,0.181-0.015,0.271
		c-0.271,0.269-0.375,0.664-0.687,0.901c-0.412-0.194-0.009-0.779-0.458-0.956C216.467,59.718,216.807,59.397,217.273,59.75z"/>
	<path fill-rule="evenodd" clip-rule="evenodd" fill="#8A8A89" d="M79.844,64.316c0.232-0.102,0.559,0.052,0.712-0.263
		c0.404,0.065,0.656-0.166,0.882-0.45c0.085,0.085,0.169,0.17,0.254,0.254C81.174,64.406,80.586,64.672,79.844,64.316z"/>
	<path fill-rule="evenodd" clip-rule="evenodd" fill="#878786" d="M162.943,60.278c-0.016-0.111-0.032-0.224-0.048-0.335
		c0.321-0.24,0.664-0.366,1.329-0.212C163.646,59.978,163.294,60.128,162.943,60.278z"/>
	<path fill-rule="evenodd" clip-rule="evenodd" fill="#7F7F7E" d="M163.089,63.805c0.103,0.104,0.205,0.209,0.309,0.313
		c-0.357,0.29-0.715,0.578-1.173,0.167c0.074-0.074,0.148-0.148,0.223-0.224C162.618,63.866,162.805,63.715,163.089,63.805z"/>
	<path fill-rule="evenodd" clip-rule="evenodd" fill="#727270" d="M244.075,63.558c0.099,0.1,0.196,0.199,0.294,0.299
		c-0.298,0.368-0.728,0.418-1.152,0.476c-0.05-0.056-0.064-0.109-0.042-0.159c0.022-0.048,0.042-0.072,0.062-0.072
		C243.515,63.92,243.795,63.739,244.075,63.558z"/>
	<path fill-rule="evenodd" clip-rule="evenodd" fill="#888886" d="M243.738,60.012c-0.165,0.003-0.331,0.006-0.496,0.008
		c0.332-0.238,0.617-0.664,1.104-0.272c-0.008,0.095-0.016,0.188-0.023,0.282C244.124,60.172,243.927,60.194,243.738,60.012z"/>
	<path fill-rule="evenodd" clip-rule="evenodd" fill="#939391" d="M216.354,64.308c0.084-0.085,0.167-0.171,0.251-0.256
		c0.233-0.19,0.459-0.177,0.678,0.026c-0.004,0.077-0.009,0.154-0.013,0.231C216.963,64.682,216.659,64.535,216.354,64.308z"/>
	<path fill-rule="evenodd" clip-rule="evenodd" fill="#7D7D7C" d="M188.582,60.186c0.058,0.209,0.065,0.447,0.313,0.547
		c-0.156,0.129-0.348,0.484-0.46,0.336C188.248,60.82,188.375,60.459,188.582,60.186z"/>
	<path fill-rule="evenodd" clip-rule="evenodd" fill="#8C8C8B" d="M52.569,60.229c0.09,0.095,0.18,0.188,0.27,0.283
		c-0.131,0.17-0.364,0.436-0.486,0.313C52.156,60.63,52.326,60.372,52.569,60.229z"/>
	<path fill-rule="evenodd" clip-rule="evenodd" fill="#9D9D9D" d="M54.867,63.866c-0.063-0.183-0.04-0.414-0.28-0.497
		c0.11-0.138,0.271-0.426,0.381-0.303C55.176,63.299,55.062,63.616,54.867,63.866z"/>
	<path fill-rule="evenodd" clip-rule="evenodd" fill="#A2A2A1" d="M243.236,64.101c-0.007,0.077-0.013,0.154-0.02,0.231
		c-0.106,0.18-0.267,0.211-0.444,0.137c-0.038-0.016-0.075-0.122-0.059-0.165C242.813,64.062,243.016,64.052,243.236,64.101z"/>
	<path fill-rule="evenodd" clip-rule="evenodd" fill="#FEFEFE" d="M165.609,31.01c0-8.759,0.017-17.517-0.023-26.274
		c-0.005-0.943,0.23-1.158,1.163-1.156c15.562,0.032,31.123,0.032,46.684-0.001c0.948-0.002,1.156,0.237,1.154,1.166
		c-0.03,17.516-0.03,35.031,0.001,52.548c0.002,0.943-0.229,1.156-1.162,1.155c-15.561-0.032-31.122-0.033-46.684,0
		c-0.944,0.002-1.16-0.232-1.156-1.164C165.625,48.525,165.609,39.768,165.609,31.01z"/>
	<path fill-rule="evenodd" clip-rule="evenodd" fill="#FEFEFE" d="M105.364,30.784c0.001,8.759-0.016,17.517,0.024,26.275
		c0.005,0.942-0.229,1.16-1.163,1.157c-15.487-0.031-30.974-0.031-46.46,0.001c-0.943,0.002-1.158-0.229-1.157-1.163
		c0.031-17.517,0.031-35.033-0.001-52.55c-0.001-0.943,0.23-1.157,1.163-1.155c15.487,0.032,30.974,0.032,46.46,0
		c0.94-0.002,1.162,0.224,1.158,1.16C105.348,13.268,105.364,22.026,105.364,30.784z"/>
	<path fill-rule="evenodd" clip-rule="evenodd" fill="#FEFEFE" d="M111.682,30.667c-0.001-8.721,0.017-17.442-0.024-26.163
		c-0.005-0.944,0.232-1.156,1.163-1.154c15.487,0.032,30.974,0.032,46.461,0c0.94-0.002,1.158,0.226,1.156,1.16
		c-0.03,17.517-0.03,35.033,0.001,52.55c0.002,0.942-0.229,1.16-1.163,1.157c-15.487-0.031-30.974-0.032-46.461,0.001
		c-0.944,0.002-1.16-0.231-1.156-1.163C111.698,48.259,111.682,39.463,111.682,30.667z"/>
	<path fill-rule="evenodd" clip-rule="evenodd" fill="#FEFEFE" d="M50.986,30.775c0,8.795-0.012,17.59,0.02,26.385
		c0.003,0.824-0.171,1.058-1.033,1.056c-15.561-0.029-31.121-0.028-46.682-0.002c-0.831,0.002-1.053-0.18-1.051-1.035
		C2.267,39.588,2.266,21.998,2.241,4.408C2.24,3.585,2.41,3.35,3.273,3.352C18.834,3.381,34.395,3.38,49.955,3.354
		c0.83-0.002,1.056,0.18,1.053,1.036C50.972,13.185,50.986,21.98,50.986,30.775z"/>
	<path fill-rule="evenodd" clip-rule="evenodd" fill="#FEFEFE" d="M268.484,30.789c0,8.758-0.018,17.516,0.023,26.273
		c0.005,0.944-0.232,1.156-1.164,1.154c-15.485-0.031-30.971-0.032-46.456,0.002c-0.949,0.002-1.153-0.24-1.152-1.167
		c0.031-17.515,0.031-35.03,0-52.545c-0.002-0.943,0.23-1.159,1.163-1.157c15.485,0.032,30.971,0.033,46.456-0.001
		c0.95-0.002,1.156,0.242,1.152,1.168C268.468,13.274,268.484,22.032,268.484,30.789z"/>
	<path fill-rule="evenodd" clip-rule="evenodd" fill="#F5F5F5" d="M217.283,64.078c-0.226-0.009-0.452-0.018-0.678-0.026
		c-0.416-0.58-0.323-1.16,0.002-1.739C217.321,62.715,217.829,63.194,217.283,64.078z"/>
	<path fill-rule="evenodd" clip-rule="evenodd" fill="#EBEBEB" d="M216.572,60.922c-0.056-0.518-0.088-1.017,0.687-0.901
		c0.376,0.508,0.413,1.017,0.008,1.528C217.035,61.34,216.803,61.131,216.572,60.922z"/>
	<path fill-rule="evenodd" clip-rule="evenodd" fill="#F4F4F4" d="M163.089,63.805c-0.174,0.187-0.377,0.297-0.642,0.257
		c-0.313-0.544-0.312-1.144-0.307-1.745c0.004-0.354,0.142-0.571,0.532-0.543C163.261,62.358,163.102,63.097,163.089,63.805z"/>
	<path fill-rule="evenodd" clip-rule="evenodd" fill="#EFEFEF" d="M243.738,60.012c0.195,0.006,0.39,0.012,0.585,0.018
		c0.215,0.552,0.32,1.116,0.299,1.717c-0.021,0.533-0.279,0.614-0.715,0.479C243.555,61.51,243.575,60.767,243.738,60.012z"/>
	<path fill-rule="evenodd" clip-rule="evenodd" fill="#FBFBFA" d="M107.222,62.458c0.185-0.467,0.361-0.809,0.747-1.01
		C108.186,62.392,108.186,62.392,107.222,62.458z"/>
	<path fill-rule="evenodd" clip-rule="evenodd" fill="#373735" d="M190.04,11.044c2.331,0,4.664,0.056,6.991-0.024
		c1.083-0.038,1.347,0.342,1.311,1.358c-0.072,2.028-0.062,4.061-0.003,6.089c0.025,0.886-0.23,1.2-1.144,1.171
		c-1.581-0.051-1.591,0.001-1.58,1.568c0.007,0.934-0.314,2.183,0.158,2.717c0.556,0.626,1.833,0.185,2.796,0.197
		c2.293,0.03,4.587,0.039,6.879-0.007c0.801-0.016,1.021,0.253,1.011,1.034c-0.04,3.083-0.039,6.166-0.001,9.248
		c0.01,0.789-0.231,1.072-1.028,1.029c-1.087-0.058-2.181,0.014-3.27-0.025c-0.547-0.02-0.697,0.162-0.692,0.699
		c0.024,2.781,0.026,5.563-0.001,8.346c-0.006,0.569,0.206,0.688,0.72,0.674c1.127-0.031,2.256,0.006,3.383-0.016
		c0.612-0.012,0.892,0.215,0.881,0.855c-0.025,1.429-0.019,2.857-0.003,4.286c0.006,0.522-0.202,0.744-0.732,0.742
		c-3.383-0.01-6.767-0.013-10.149,0.003c-0.615,0.003-0.642-0.346-0.637-0.801c0.011-1.203-0.015-2.406,0.013-3.608
		c0.012-0.524-0.042-0.815-0.703-0.807c-2.631,0.038-5.264,0.032-7.895,0.003c-0.578-0.007-0.68,0.218-0.668,0.724
		c0.03,1.202-0.011,2.406,0.019,3.608c0.015,0.622-0.211,0.883-0.848,0.881c-3.384-0.016-6.767-0.02-10.15,0.004
		c-0.619,0.004-0.762-0.247-0.752-0.806c0.026-1.466,0.031-2.933-0.001-4.398c-0.015-0.703,0.296-0.926,0.951-0.909
		c1.052,0.026,2.105-0.014,3.157,0.016c0.481,0.014,0.65-0.127,0.646-0.631c-0.021-2.744-0.022-5.488,0-8.232
		c0.004-0.505-0.168-0.643-0.648-0.63c-1.127,0.027-2.256-0.02-3.383,0.019c-0.672,0.022-0.954-0.214-0.95-0.901
		c0.017-3.233,0.023-6.467-0.005-9.699c-0.007-0.796,0.384-0.932,1.052-0.927c2.744,0.018,5.491-0.069,8.231,0.042
		c1.204,0.049,1.515-0.356,1.342-1.426c-0.035-0.22-0.003-0.45-0.006-0.676c-0.006-0.602,0.192-1.326-0.074-1.771
		c-0.313-0.524-1.102-0.169-1.678-0.202c-0.542-0.032-0.731-0.29-0.731-0.777c0-2.443,0.012-4.888-0.008-7.331
		c-0.007-0.757,0.476-0.711,0.982-0.71C185.228,11.046,187.633,11.044,190.04,11.044z"/>
	<path fill-rule="evenodd" clip-rule="evenodd" fill="#3F3F3D" d="M171.899,49.65c-0.035,1.455,0.818,2.234,1.906,2.863
		c0.288,0.167,0.874,0.222,0.638,0.7c-0.24,0.487-0.673,0.078-0.965-0.073c-1.381-0.717-2.355-1.732-2.266-3.421
		c0.02-0.368-0.119-1,0.458-0.951C172.181,48.812,171.839,49.383,171.899,49.65z"/>
	<path fill-rule="evenodd" clip-rule="evenodd" fill="#414140" d="M208.686,24.763c0.033,0.486-0.001,0.762-0.303,0.856
		c-0.319,0.1-0.366-0.151-0.377-0.384c-0.067-1.449-1.09-2.227-2.104-3.017c-0.231-0.18-0.759-0.301-0.442-0.704
		c0.267-0.34,0.615,0.009,0.876,0.199C207.471,22.546,208.501,23.46,208.686,24.763z"/>
	<path fill-rule="evenodd" clip-rule="evenodd" fill="#424241" d="M199.472,21.666c-0.279-0.041-0.631,0.072-0.66-0.283
		c-0.035-0.412,0.324-0.407,0.618-0.415c0.298-0.009,0.677-0.007,0.681,0.364C200.116,21.761,199.691,21.607,199.472,21.666z"/>
	<path fill-rule="evenodd" clip-rule="evenodd" fill="#373735" d="M81.224,11.266c2.368,0,4.736,0.023,7.103-0.014
		c0.761-0.012,1.062,0.183,1.041,1.008c-0.056,2.179-0.056,4.36-0.001,6.539c0.022,0.873-0.305,1.176-1.113,1.045
		c-1.067-0.172-1.6,0.132-1.405,1.339c0.151,0.948-0.406,2.237,0.226,2.791c0.539,0.472,1.785,0.149,2.719,0.153
		c2.218,0.009,4.436,0.029,6.652-0.012c0.778-0.014,1.053,0.225,1.042,1.027c-0.039,3.082-0.036,6.164-0.001,9.246
		c0.008,0.759-0.17,1.093-0.999,1.039c-1.048-0.069-2.105,0.015-3.156-0.029c-0.606-0.024-0.848,0.113-0.839,0.787
		c0.039,2.781,0.034,5.562,0.003,8.344c-0.007,0.624,0.148,0.854,0.803,0.823c1.088-0.053,2.181,0.013,3.269-0.024
		c0.667-0.023,0.945,0.179,0.919,0.894c-0.049,1.352-0.039,2.706-0.003,4.059c0.017,0.648-0.137,0.945-0.868,0.938
		c-3.194-0.033-6.39-0.024-9.584-0.005c-0.639,0.004-0.868-0.24-0.854-0.863c0.026-1.24-0.041-2.483,0.025-3.72
		c0.039-0.73-0.221-0.865-0.889-0.855c-2.555,0.037-5.111,0.038-7.667,0c-0.702-0.011-0.995,0.129-0.949,0.907
		c0.07,1.198-0.01,2.405,0.029,3.606c0.021,0.659-0.154,0.938-0.877,0.93c-3.231-0.032-6.464-0.025-9.696-0.004
		c-0.645,0.004-0.976-0.15-0.958-0.874c0.036-1.54,0.033-3.082,0-4.623c-0.013-0.646,0.237-0.861,0.862-0.839
		c0.976,0.034,1.956-0.029,2.93,0.022c0.615,0.032,0.749-0.189,0.743-0.766c-0.028-2.668-0.033-5.337,0.002-8.005
		c0.008-0.627-0.217-0.752-0.778-0.73c-1.014,0.039-2.031-0.028-3.043,0.024c-0.776,0.04-0.952-0.305-0.946-1.005
		c0.025-3.119,0.032-6.239-0.004-9.358c-0.008-0.767,0.283-0.951,0.994-0.943c2.856,0.03,5.714-0.031,8.568,0.038
		c0.925,0.022,1.187-0.281,1.067-1.125c-0.042-0.295-0.002-0.601-0.008-0.9c-0.013-0.711,0.213-1.576-0.113-2.089
		c-0.326-0.512-1.248-0.164-1.905-0.182c-0.564-0.016-0.694-0.284-0.692-0.778c0.011-2.33,0.018-4.66-0.002-6.99
		c-0.007-0.764,0.437-0.832,1.027-0.83C76.338,11.272,78.781,11.266,81.224,11.266z"/>
	<path fill-rule="evenodd" clip-rule="evenodd" fill="#373735" d="M136.23,11.266c2.406,0,4.812,0.021,7.217-0.013
		c0.728-0.011,0.983,0.211,0.969,0.962c-0.043,2.217-0.052,4.437,0.003,6.652c0.021,0.832-0.291,1.011-1.046,0.995
		c-1.457-0.031-1.467,0.007-1.454,1.476c0.008,0.894-0.281,2.061,0.168,2.605c0.478,0.58,1.688,0.167,2.578,0.178
		c2.292,0.027,4.585,0.028,6.878-0.003c0.715-0.01,1.001,0.2,0.993,0.959c-0.032,3.157-0.032,6.314,0.001,9.472
		c0.008,0.725-0.277,0.898-0.933,0.872c-1.014-0.04-2.032,0.036-3.044-0.025c-0.744-0.045-1.041,0.109-1.022,0.951
		c0.059,2.704,0.043,5.412,0.007,8.117c-0.009,0.665,0.118,0.939,0.853,0.892c1.048-0.068,2.104,0.015,3.155-0.028
		c0.71-0.029,1.018,0.171,0.985,0.944c-0.056,1.351-0.049,2.707-0.002,4.059c0.025,0.713-0.251,0.892-0.92,0.886
		c-3.157-0.026-6.314-0.026-9.472,0c-0.688,0.006-0.939-0.233-0.92-0.917c0.035-1.239-0.009-2.48,0.019-3.721
		c0.012-0.525-0.045-0.813-0.704-0.805c-2.706,0.037-5.413,0.032-8.118,0.003c-0.585-0.006-0.675,0.229-0.664,0.729
		c0.027,1.24-0.023,2.481,0.021,3.721c0.025,0.703-0.148,1.003-0.929,0.994c-3.232-0.039-6.465-0.025-9.697-0.008
		c-0.594,0.003-0.916-0.142-0.904-0.812c0.026-1.578,0.025-3.157,0-4.736c-0.01-0.59,0.22-0.801,0.798-0.785
		c1.052,0.027,2.105-0.014,3.157,0.016c0.527,0.015,0.811-0.049,0.802-0.706c-0.037-2.706-0.031-5.413-0.002-8.119
		c0.006-0.578-0.22-0.683-0.726-0.669c-1.089,0.03-2.181-0.024-3.269,0.021c-0.724,0.03-1.002-0.206-0.994-0.957
		c0.029-3.157,0.029-6.314-0.001-9.472c-0.007-0.727,0.299-0.88,0.946-0.875c2.894,0.023,5.788-0.016,8.682,0.028
		c0.751,0.011,1.088-0.123,1.01-0.959c-0.079-0.857-0.049-1.729-0.006-2.592c0.028-0.576-0.143-0.758-0.745-0.768
		c-1.974-0.03-1.974-0.06-1.974-2.056c0-1.804,0.033-3.608-0.015-5.411c-0.023-0.837,0.265-1.125,1.103-1.11
		C131.418,11.293,133.825,11.267,136.23,11.266z"/>
	<path fill-rule="evenodd" clip-rule="evenodd" fill="#373735" d="M27.526,11.266c2.369,0,4.738,0.024,7.106-0.014
		c0.764-0.013,1.059,0.187,1.039,1.01c-0.055,2.217-0.048,4.438-0.002,6.654c0.016,0.743-0.207,1.043-0.949,0.936
		c-0.221-0.031-0.454,0.021-0.675-0.01c-0.657-0.092-0.957,0.096-0.895,0.838c0.071,0.858,0.064,1.731,0.001,2.592
		c-0.05,0.695,0.161,0.887,0.866,0.876c2.857-0.043,5.716,0.018,8.572-0.037c0.944-0.019,1.222,0.276,1.206,1.214
		c-0.054,3.044-0.04,6.091-0.005,9.136c0.008,0.712-0.15,1.014-0.926,0.967c-1.086-0.064-2.182,0.023-3.27-0.03
		c-0.663-0.033-0.804,0.212-0.797,0.828c0.03,2.745,0.047,5.49-0.008,8.234c-0.016,0.799,0.283,0.925,0.966,0.892
		c1.013-0.049,2.031,0.019,3.045-0.023c0.704-0.029,1.022,0.161,0.991,0.94c-0.056,1.389-0.04,2.782-0.005,4.172
		c0.015,0.588-0.171,0.781-0.768,0.776c-3.233-0.024-6.467-0.023-9.701-0.002c-0.656,0.004-0.85-0.273-0.838-0.882
		c0.025-1.24-0.022-2.482,0.02-3.722c0.021-0.607-0.117-0.847-0.789-0.837c-2.632,0.039-5.264,0.036-7.896,0.002
		c-0.641-0.009-0.833,0.18-0.81,0.815c0.046,1.277-0.008,2.558,0.023,3.835c0.014,0.567-0.138,0.795-0.752,0.79
		c-3.309-0.025-6.618-0.023-9.927-0.002c-0.645,0.004-0.858-0.25-0.849-0.868c0.024-1.542,0.025-3.084,0-4.625
		c-0.01-0.647,0.271-0.857,0.884-0.842c1.052,0.028,2.106-0.017,3.158,0.018c0.521,0.017,0.719-0.119,0.713-0.681
		c-0.027-2.707-0.026-5.415-0.001-8.122c0.005-0.545-0.162-0.712-0.7-0.693c-1.089,0.036-2.183-0.034-3.27,0.025
		c-0.817,0.044-1.026-0.285-1.019-1.051c0.033-3.045,0.048-6.092-0.007-9.137c-0.017-0.938,0.334-1.138,1.189-1.125
		c2.857,0.043,5.715-0.005,8.573,0.032c0.673,0.009,0.942-0.131,0.883-0.857c-0.069-0.859-0.066-1.732,0-2.592
		c0.055-0.713-0.189-0.886-0.877-0.866c-1.722,0.048-1.623,0.271-1.625-1.62c-0.001-1.88,0.072-3.764-0.027-5.639
		c-0.06-1.128,0.33-1.37,1.386-1.331C23.012,11.323,25.27,11.266,27.526,11.266z"/>
	<path fill-rule="evenodd" clip-rule="evenodd" fill="#373735" d="M239.585,50.746c-0.273,0.251-0.608,0.239-0.949,0.239
		c-3.196-0.005-6.393-0.023-9.588,0.012c-0.731,0.009-0.994-0.19-0.963-0.946c0.057-1.351,0.072-2.71-0.003-4.059
		c-0.053-0.947,0.338-1.164,1.189-1.12c1.125,0.059,2.257-0.007,3.384,0.024c0.49,0.013,0.665-0.141,0.641-0.638
		c-0.037-0.74-0.01-1.482-0.01-2.363c-1.305,0.581-2.488,1.122-3.686,1.632c-0.239,0.102-0.553,0.404-0.785,0.008
		c-0.168-0.289,0.113-0.482,0.275-0.675c1.188-1.406,2.32-2.866,3.593-4.192c0.952-0.99,0.65-2.143,0.522-3.182
		c-0.08-0.643-1.02-0.213-1.565-0.281c-0.497-0.063-0.37,0.349-0.347,0.624c0.025,0.298,0.089,0.593,0.138,0.889
		c0.043,0.266,0.104,0.59-0.252,0.633c-0.336,0.04-0.379-0.286-0.424-0.547c-0.019-0.111-0.067-0.225-0.057-0.333
		c0.116-1.189-0.533-1.443-1.542-1.283c-0.861,0.137-1.083-0.271-1.072-1.09c0.04-3.083,0.039-6.167,0.001-9.25
		c-0.011-0.858,0.218-1.245,1.142-1.185c1.047,0.067,2.102,0.016,3.254,0.016c-0.32-1.183-0.955-2.153-1.36-3.215
		c-0.102-0.267-0.543-0.585-0.104-0.868c0.332-0.214,0.523,0.18,0.729,0.367c1.079,0.991,2.228,1.924,3.195,3.016
		c0.973,1.097,2.153,0.584,3.258,0.673c0.4,0.032,0.271-0.378,0.274-0.609c0.015-0.901-0.034-1.807,0.02-2.706
		c0.038-0.63-0.22-0.725-0.776-0.732c-1.945-0.029-1.945-0.052-1.944-1.992c0-1.881,0.033-3.762-0.017-5.641
		c-0.021-0.758,0.235-0.946,0.964-0.941c4.813,0.028,9.627,0.03,14.439-0.001c0.823-0.005,1.127,0.224,1.104,1.082
		c-0.054,2.104-0.056,4.212,0.002,6.316c0.022,0.82-0.261,1.008-1.025,0.986c-1.479-0.042-1.479,0-1.479,1.453
		c0,0.413,0,0.827,0,1.24c0,1.886,0.737,2.351,2.577,1.57c1.449-0.613,2.871-1.291,4.317-1.912c0.27-0.116,0.623-0.513,0.878-0.098
		c0.231,0.376-0.229,0.579-0.447,0.801c-0.41,0.415-0.861,0.791-1.296,1.183c0.048,0.084,0.095,0.167,0.143,0.25
		c1.186,0,2.372,0.029,3.556-0.012c0.699-0.023,0.899,0.244,0.894,0.923c-0.029,3.159-0.029,6.317-0.001,9.477
		c0.006,0.677-0.187,0.944-0.894,0.914c-1.126-0.049-2.257,0.011-3.384-0.023c-0.524-0.016-0.787,0.126-0.699,0.684
		c0.006,0.037,0.007,0.076,0,0.112c-0.358,2.067,0.232,3.581,2.307,4.449c0.953,0.398,1.779,1.112,2.635,1.723
		c0.336,0.241,1.059,0.383,0.844,0.872c-0.268,0.612-0.872,0.068-1.288-0.017c-1.248-0.254-2.487-0.571-3.702-0.952
		c-0.721-0.226-0.798,0.026-0.808,0.655c-0.035,2.403-0.054,2.402,2.365,2.403c2.611,0.001,2.611,0.001,2.611,2.634
		c0,0.79-0.04,1.582,0.012,2.368c0.048,0.72-0.259,0.889-0.923,0.884c-3.121-0.026-6.242-0.036-9.362,0.004
		c-0.82,0.01-1.047-0.311-1.024-1.064c0.037-1.239-0.007-2.481,0.019-3.722c0.01-0.472-0.106-0.702-0.623-0.651
		c-0.372,0.037-0.752,0.007-1.127,0.007c-1.317,0.002-1.719,0.646-1.246,1.979c0.045,0.125,0.064,0.365,0.002,0.404
		c-1.179,0.74-1.005,2.104-1.474,3.166c-0.128,0.289-0.082,0.786-0.541,0.709c-0.396-0.066-0.333-0.524-0.376-0.848
		c-0.024-0.186-0.05-0.376-0.037-0.562c0.069-0.973-0.18-1.628-1.339-1.66c-0.42-0.012-0.846-0.283-1.244-0.485
		c-0.509-0.257-0.344-0.486,0.077-0.661c0.445,0.16,0.94,0.091,1.188,0.245c-0.152-0.046-0.514-0.104-0.731-0.432
		c-0.517-0.245-1.032-0.49-1.549-0.735c-0.23-0.126-0.336-0.314-0.182-0.546c0.196-0.295,0.499-0.291,0.802-0.2
		c0.537,0.161,1.014,0.473,1.548,0.641c0.197,0.062,0.466,0.24,0.596-0.016c0.141-0.276-0.056-0.527-0.332-0.594
		c-0.765-0.184-1.554-0.131-2.328-0.118c-0.419,0.006-0.398,0.465-0.422,0.798c-0.071,1.005-0.003,2.012-0.039,3.016
		C239.698,50.028,239.841,50.413,239.585,50.746z"/>
	<path fill-rule="evenodd" clip-rule="evenodd" fill="#F9F9F9" d="M239.585,50.746c0.008-1.464,0.048-2.929,0.009-4.391
		c-0.018-0.646,0.188-0.847,0.819-0.804c0.747,0.052,1.501,0.021,2.251,0.009c0.341-0.006,0.509,0.056,0.575,0.468
		c0.188,1.168,0.103,1.277-1.037,0.875c-0.562-0.197-1.09-0.488-1.64-0.721c-0.564-0.238-0.698-0.025-0.494,0.505
		c-0.49,0.864-0.11,1.805-0.237,2.7C239.767,49.844,240.03,50.359,239.585,50.746z"/>
	<path fill-rule="evenodd" clip-rule="evenodd" fill="#383836" d="M226.049,25.938c0.398-0.376,0.684-0.34,0.691,0.253
		c0.02,1.606,0.014,3.214,0.002,4.82c-0.004,0.48-0.251,0.582-0.652,0.333C225.8,29.544,225.458,27.744,226.049,25.938z"/>
	<path fill-rule="evenodd" clip-rule="evenodd" fill="#383836" d="M261.942,28.558c-0.001,0.675-0.002,1.351,0,2.026
		c0,0.209-0.085,0.407-0.282,0.428c-0.264,0.028-0.386-0.183-0.387-0.426c-0.006-1.313-0.008-2.627,0.002-3.94
		c0.002-0.232,0.1-0.464,0.386-0.43c0.216,0.024,0.278,0.229,0.28,0.427C261.945,27.281,261.942,27.919,261.942,28.558z"/>
	<path fill-rule="evenodd" clip-rule="evenodd" fill="#40403E" d="M259.791,52.684c-0.221-0.018-0.507,0.013-0.557-0.263
		c-0.067-0.37,0.263-0.404,0.514-0.44c1.015-0.149,1.543-0.689,1.484-1.75c-0.013-0.221,0.022-0.515,0.307-0.514
		c0.326,0.001,0.366,0.304,0.401,0.572C262.097,51.481,260.985,52.723,259.791,52.684z"/>
	<path fill-rule="evenodd" clip-rule="evenodd" fill="#393937" d="M225.632,29.998c-0.371,0.322-0.653,0.229-0.671-0.242
		c-0.039-1.043-0.039-2.089,0-3.131c0.018-0.473,0.302-0.563,0.671-0.241C225.969,27.589,225.969,28.794,225.632,29.998z"/>
	<path fill-rule="evenodd" clip-rule="evenodd" fill="#424241" d="M263.044,51.519c-0.022,0.992-0.771,1.859-1.669,2.006
		c-0.277,0.046-0.573,0.073-0.654-0.228c-0.067-0.252,0.211-0.371,0.424-0.43c0.74-0.201,1.11-0.694,1.176-1.438
		c0.023-0.273-0.128-0.698,0.325-0.664C263.08,50.797,263,51.247,263.044,51.519z"/>
	<path fill-rule="evenodd" clip-rule="evenodd" fill="#373735" d="M263.295,28.811c-0.241,0.441,0.451,1.457-0.376,1.497
		c-0.571,0.028-0.219-1.015-0.29-1.573c-0.056-0.441-0.01-0.897-0.006-1.347c0.002-0.242,0.079-0.497,0.333-0.507
		c0.266-0.01,0.337,0.246,0.339,0.487C263.297,27.817,263.295,28.267,263.295,28.811z"/>
	<path fill-rule="evenodd" clip-rule="evenodd" fill="#40403E" d="M254.529,12.165c-0.008,0.239,0.06,0.512-0.211,0.594
		c-0.267,0.082-0.422-0.127-0.462-0.358c-0.123-0.702-0.533-1.217-1.024-1.692c-0.169-0.163-0.285-0.364-0.077-0.578
		c0.165-0.169,0.372-0.091,0.51,0.02C253.923,10.677,254.4,11.326,254.529,12.165z"/>
	<path fill-rule="evenodd" clip-rule="evenodd" fill="#454543" d="M256.049,10.758c0.002,0.424,0.021,0.859-0.41,0.873
		c-0.456,0.015-0.257-0.433-0.295-0.696c-0.077-0.529-0.223-1.025-0.654-1.388c-0.182-0.153-0.338-0.353-0.164-0.573
		c0.251-0.318,0.473-0.033,0.657,0.111C255.749,9.526,256.003,10.135,256.049,10.758z"/>
	<path fill-rule="evenodd" clip-rule="evenodd" fill="#3D3D3B" d="M234.644,9.245c0.188-0.004,0.376-0.021,0.562-0.009
		c0.354,0.021,0.893-0.13,0.919,0.358c0.022,0.411-0.489,0.372-0.817,0.357c-0.499-0.022-0.65,0.253-0.688,0.686
		c-0.026,0.307,0.081,0.789-0.427,0.719c-0.374-0.052-0.245-0.481-0.258-0.767c-0.007-0.148,0.013-0.299,0.021-0.449
		C233.987,9.689,234.186,9.368,234.644,9.245z"/>
	<path fill-rule="evenodd" clip-rule="evenodd" fill="#F7F7F7" d="M225.632,29.998c0-1.204,0-2.409,0-3.614
		c0.139-0.148,0.277-0.298,0.417-0.446c0.014,1.803,0.027,3.604,0.041,5.406C225.583,31.017,226.094,30.342,225.632,29.998z"/>
	<path fill-rule="evenodd" clip-rule="evenodd" fill="#3E3E3C" d="M233.774,10.156c-0.117,0.261-0.336,0.298-0.542,0.169
		c-0.22-0.139-0.19-0.383-0.101-0.598c0.268-0.638,0.68-1.158,1.363-1.356c0.277-0.081,0.732-0.287,0.847,0.161
		c0.12,0.471-0.396,0.415-0.67,0.545C234.274,9.355,234.119,9.834,233.774,10.156z"/>
	<path fill-rule="evenodd" clip-rule="evenodd" fill="#474745" d="M232.392,36.756c0.022,0.214,0.045,0.583,0.106,0.945
		c0.044,0.257,0.178,0.554-0.204,0.613c-0.36,0.056-0.359-0.293-0.436-0.526c-0.178-0.538-0.155-1.094-0.126-1.648
		c0.016-0.291,0.003-0.689,0.386-0.68c0.428,0.011,0.287,0.424,0.299,0.697C232.423,36.305,232.406,36.452,232.392,36.756z"/>
	<path fill-rule="evenodd" clip-rule="evenodd" fill="#DCDCDB" d="M241.618,47.423c0.61,0.164,1.221,0.329,1.831,0.493
		c-0.891,0.552-1.569,0.017-2.287-0.307C241.314,47.547,241.465,47.485,241.618,47.423z"/>
	<path fill-rule="evenodd" clip-rule="evenodd" fill="#C1C1C0" d="M233.774,10.156c0.107-0.52,0.347-0.929,0.897-1.079
		c0.03,0.062,0.021,0.118-0.027,0.168c-0.229,0.299-0.458,0.598-0.688,0.896C233.896,10.146,233.834,10.15,233.774,10.156z"/>
	<path fill-rule="evenodd" clip-rule="evenodd" fill="#FEFEFE" d="M200.797,38.163c0,2.255,0.03,4.511-0.018,6.766
		c-0.015,0.704,0.185,0.912,0.879,0.876c1.088-0.058,2.181,0.014,3.27-0.027c0.592-0.021,0.889,0.082,0.849,0.776
		c-0.069,1.196,0.406,2.757-0.185,3.498c-0.617,0.775-2.246,0.212-3.431,0.238c-1.916,0.043-3.835-0.014-5.751,0.026
		c-0.637,0.013-0.839-0.17-0.812-0.812c0.049-1.201-0.009-2.405,0.023-3.607c0.017-0.586-0.191-0.8-0.779-0.796
		c-3.007,0.018-6.014,0.02-9.021-0.001c-0.655-0.005-0.842,0.271-0.825,0.883c0.032,1.164-0.021,2.331,0.021,3.495
		c0.021,0.605-0.113,0.848-0.787,0.839c-2.932-0.037-5.864-0.033-8.796-0.002c-0.634,0.007-0.846-0.167-0.814-0.812
		c0.052-1.05,0.055-2.106-0.001-3.155c-0.035-0.668,0.217-0.821,0.831-0.794c1.013,0.046,2.03-0.01,3.044,0.021
		c0.606,0.019,0.886-0.163,0.884-0.825c-0.019-4.511-0.01-9.021-0.012-13.532c0-0.292,0.062-0.717-0.329-0.719
		c-0.379-0.002-0.347,0.416-0.348,0.715c-0.003,0.939-0.027,1.88,0.009,2.818c0.021,0.526-0.126,0.734-0.685,0.708
		c-1.158-0.057-2.636,0.369-3.386-0.195c-0.712-0.537-0.192-2.104-0.214-3.216c-0.036-1.879,0.056-3.762-0.036-5.637
		c-0.049-0.99,0.292-1.152,1.188-1.134c2.78,0.061,5.563-0.019,8.344,0.045c0.927,0.021,1.138-0.28,1.121-1.152
		c-0.052-2.781,0.009-5.562-0.037-8.344c-0.013-0.749,0.207-0.934,0.935-0.922c2.706,0.043,5.413,0.05,8.118-0.004
		c0.787-0.015,0.909,0.269,0.9,0.959c-0.035,2.744,0.039,5.489-0.04,8.231c-0.032,1.112,0.226,1.506,1.414,1.468
		c2.854-0.092,5.713-0.01,8.569-0.045c0.665-0.008,0.903,0.125,0.891,0.854c-0.048,2.743-0.046,5.488-0.002,8.231
		c0.012,0.707-0.185,0.914-0.877,0.865c-0.86-0.062-1.733-0.069-2.592,0.002c-0.745,0.062-0.882-0.243-0.845-0.897
		c0.051-0.899,0.015-1.804,0.012-2.706c-0.001-0.258,0.041-0.618-0.296-0.635c-0.426-0.021-0.379,0.38-0.38,0.667
		C200.795,33.505,200.798,35.834,200.797,38.163z"/>
	<path fill-rule="evenodd" clip-rule="evenodd" fill="#FEFEFE" d="M190.066,11.725c2.256,0,4.512,0.021,6.766-0.014
		c0.625-0.01,0.838,0.149,0.823,0.803c-0.043,1.878-0.077,3.762,0.01,5.637c0.045,0.972-0.521,0.766-1.06,0.79
		c-0.599,0.027-1.083,0.066-1.015-0.833c0.091-1.196-0.014-2.405,0.035-3.606c0.029-0.716-0.171-1.002-0.937-0.993
		c-3.119,0.034-6.239,0.033-9.359,0.002c-0.819-0.009-1.034,0.336-1.01,1.085c0.041,1.277-0.048,2.56,0.031,3.833
		c0.056,0.886-0.479,0.706-0.986,0.747c-0.586,0.048-0.874-0.06-0.855-0.764c0.05-1.953,0.057-3.91-0.003-5.862
		c-0.022-0.753,0.266-0.849,0.907-0.838C185.63,11.745,187.849,11.724,190.066,11.725z"/>
	<path fill-rule="evenodd" clip-rule="evenodd" fill="#FEFEFE" d="M91.828,38.256c0,2.255,0.03,4.511-0.017,6.765
		c-0.017,0.803,0.252,1.055,1.036,1.013c1.087-0.059,2.18,0.014,3.269-0.026c0.558-0.021,0.704,0.181,0.686,0.708
		c-0.036,1.014-0.038,2.03,0,3.043c0.021,0.559-0.101,0.788-0.729,0.78c-2.818-0.034-5.638-0.029-8.456-0.002
		c-0.576,0.005-0.791-0.132-0.767-0.744c0.047-1.201-0.019-2.406,0.025-3.607c0.027-0.746-0.178-1.099-1.001-1.089
		c-2.969,0.033-5.938,0.031-8.906,0c-0.771-0.008-0.967,0.315-0.945,1.017c0.038,1.239-0.013,2.48,0.021,3.72
		c0.015,0.534-0.143,0.707-0.691,0.703c-2.931-0.024-5.863-0.025-8.794,0c-0.556,0.005-0.7-0.181-0.685-0.708
		c0.034-1.164,0.052-2.332-0.005-3.494c-0.034-0.69,0.253-0.804,0.848-0.776c0.938,0.042,1.88-0.016,2.818,0.02
		c0.607,0.023,0.877-0.146,0.874-0.815c-0.022-4.472-0.01-8.943-0.014-13.415c0-0.283,0.101-0.705-0.316-0.719
		c-0.405-0.012-0.356,0.395-0.36,0.69c-0.002,0.149,0.008,0.301-0.002,0.45c-0.067,0.963,0.42,2.45-0.185,2.77
		c-0.915,0.483-2.252,0.158-3.41,0.196c-0.438,0.014-0.468-0.238-0.467-0.571c0.005-2.932,0.018-5.863-0.008-8.794
		c-0.006-0.697,0.436-0.555,0.823-0.556c2.818-0.004,5.639-0.058,8.455,0.024c1.136,0.033,1.387-0.366,1.362-1.416
		c-0.064-2.779-0.002-5.562-0.037-8.342c-0.008-0.66,0.114-0.909,0.849-0.896c2.743,0.048,5.487,0.044,8.23,0.002
		c0.696-0.011,0.883,0.172,0.872,0.872c-0.042,2.855,0.019,5.713-0.038,8.567c-0.018,0.91,0.194,1.232,1.166,1.209
		c2.817-0.066,5.639,0.018,8.455-0.048c0.879-0.021,1.044,0.252,1.027,1.064c-0.052,2.668-0.04,5.337-0.005,8.005
		c0.009,0.659-0.111,0.948-0.85,0.893c-0.935-0.071-1.879-0.042-2.817-0.009c-0.491,0.018-0.658-0.141-0.64-0.637
		c0.034-0.9,0.022-1.804,0.003-2.705c-0.007-0.297,0.163-0.787-0.367-0.758c-0.396,0.022-0.304,0.452-0.305,0.738
		C91.825,33.671,91.828,35.963,91.828,38.256z"/>
	<path fill-rule="evenodd" clip-rule="evenodd" fill="#FEFEFE" d="M81.191,11.946c2.179,0,4.357,0.023,6.536-0.014
		c0.681-0.012,0.991,0.093,0.963,0.892c-0.066,1.838-0.062,3.682-0.001,5.521c0.024,0.753-0.263,0.863-0.905,0.838
		c-0.573-0.022-0.989,0.016-0.94-0.801c0.077-1.311-0.006-2.629,0.031-3.942c0.02-0.68-0.216-0.933-0.907-0.928
		c-3.193,0.023-6.387,0.025-9.579-0.002c-0.651-0.005-0.838,0.221-0.818,0.851c0.041,1.352-0.047,2.708,0.032,4.056
		c0.059,0.991-0.579,0.727-1.088,0.748c-0.522,0.021-1.013,0.126-0.98-0.748c0.072-1.912,0.048-3.831,0.007-5.746
		c-0.013-0.622,0.211-0.742,0.775-0.734C76.608,11.963,78.899,11.946,81.191,11.946z"/>
	<path fill-rule="evenodd" clip-rule="evenodd" fill="#FEFEFE" d="M146.878,38.346c0,2.256,0.019,4.512-0.012,6.767
		c-0.009,0.673,0.189,0.95,0.897,0.92c1.126-0.049,2.257,0.012,3.383-0.024c0.531-0.016,0.78,0.138,0.695,0.688
		c-0.005,0.037,0,0.075,0,0.113c-0.023,1.196,0.404,2.771-0.194,3.484c-0.623,0.742-2.254,0.196-3.442,0.221
		c-1.766,0.035-3.534-0.029-5.3,0.026c-0.76,0.024-1.065-0.135-1.011-0.965c0.077-1.16-0.003-2.33,0.028-3.494
		c0.018-0.644-0.164-0.984-0.876-0.98c-3.046,0.017-6.091,0.018-9.136,0c-0.654-0.004-0.846,0.287-0.834,0.893
		c0.025,1.277-0.015,2.557,0.018,3.834c0.014,0.529-0.134,0.712-0.688,0.707c-2.932-0.025-5.865-0.025-8.797,0
		c-0.556,0.005-0.701-0.18-0.686-0.708c0.034-1.164,0.053-2.333-0.006-3.495c-0.034-0.693,0.257-0.8,0.85-0.776
		c1.013,0.041,2.03-0.014,3.044,0.021c0.613,0.021,0.872-0.158,0.868-0.821c-0.021-4.475-0.01-8.948-0.015-13.422
		c0-0.281,0.09-0.711-0.34-0.693c-0.386,0.016-0.334,0.429-0.336,0.724c-0.004,0.865-0.029,1.73,0.009,2.594
		c0.023,0.551-0.084,0.821-0.724,0.786c-0.975-0.055-1.955-0.036-2.932-0.005c-0.483,0.016-0.651-0.127-0.647-0.631
		c0.021-2.895,0.032-5.79-0.005-8.685c-0.01-0.768,0.46-0.611,0.885-0.611c2.744-0.004,5.489-0.002,8.233-0.002
		c1.505,0,1.505,0,1.505-1.563c0-2.706,0.024-5.414-0.017-8.12c-0.011-0.716,0.155-0.957,0.916-0.943
		c2.706,0.049,5.414,0.049,8.12,0c0.76-0.014,0.925,0.227,0.916,0.942c-0.039,2.895,0.01,5.79-0.034,8.685
		c-0.011,0.787,0.213,1.03,1.01,1.018c2.895-0.045,5.79,0.004,8.685-0.033c0.704-0.009,0.966,0.135,0.951,0.908
		c-0.051,2.743-0.04,5.489-0.005,8.233c0.008,0.645-0.187,0.843-0.819,0.805c-1.118-0.066-2.551,0.345-3.271-0.204
		c-0.686-0.524-0.129-2.038-0.211-3.113c-0.023-0.306,0.146-0.809-0.347-0.789c-0.457,0.019-0.325,0.515-0.326,0.83
		C146.875,33.759,146.878,36.052,146.878,38.346z"/>
	<path fill-rule="evenodd" clip-rule="evenodd" fill="#FEFEFE" d="M136.144,11.946c2.254,0,4.508,0.02,6.762-0.014
		c0.612-0.009,0.845,0.128,0.83,0.793c-0.045,1.915-0.057,3.833,0.003,5.747c0.025,0.804-0.428,0.698-0.917,0.696
		c-0.484-0.002-0.962,0.119-0.924-0.688c0.062-1.35-0.012-2.705,0.028-4.056c0.021-0.697-0.247-0.917-0.922-0.913
		c-3.192,0.023-6.386,0.025-9.579-0.002c-0.669-0.006-0.821,0.251-0.804,0.864c0.039,1.352-0.045,2.708,0.031,4.057
		c0.057,1.005-0.605,0.697-1.102,0.733c-0.543,0.039-0.998,0.089-0.966-0.762c0.071-1.876,0.062-3.757,0.002-5.634
		c-0.024-0.755,0.269-0.845,0.907-0.835C131.71,11.967,133.927,11.946,136.144,11.946z"/>
	<path fill-rule="evenodd" clip-rule="evenodd" fill="#FEFEFE" d="M38.13,38.272c0,2.257,0.021,4.513-0.013,6.769
		c-0.011,0.72,0.2,1.023,0.958,0.99c1.126-0.049,2.256,0.008,3.383-0.022c0.486-0.013,0.66,0.134,0.645,0.635
		c-0.033,1.089-0.034,2.181,0,3.271c0.017,0.519-0.195,0.621-0.66,0.618c-2.857-0.017-5.715-0.029-8.572,0.006
		c-0.648,0.009-0.728-0.256-0.714-0.794c0.03-1.24-0.019-2.481,0.021-3.722c0.021-0.684-0.223-0.93-0.912-0.925
		c-3.008,0.024-6.016,0.024-9.023,0c-0.691-0.005-0.934,0.253-0.916,0.931c0.034,1.24-0.013,2.481,0.02,3.722
		c0.014,0.548-0.084,0.796-0.723,0.788c-2.932-0.034-5.865-0.024-8.798-0.006c-0.478,0.003-0.663-0.12-0.649-0.628
		c0.033-1.24,0.033-2.482,0-3.722c-0.014-0.514,0.183-0.636,0.655-0.624c1.052,0.027,2.107-0.033,3.157,0.022
		c0.763,0.041,0.951-0.256,0.946-0.977c-0.027-4.399-0.011-8.798-0.02-13.197c0-0.298,0.163-0.787-0.357-0.771
		c-0.396,0.013-0.312,0.444-0.314,0.732c-0.007,0.865-0.032,1.731,0.008,2.595c0.026,0.558-0.096,0.815-0.728,0.78
		c-0.975-0.053-1.956-0.036-2.932-0.004c-0.489,0.017-0.647-0.138-0.643-0.635c0.02-2.896,0.031-5.791-0.004-8.686
		c-0.009-0.771,0.47-0.605,0.89-0.606c2.82-0.005,5.641-0.039,8.46,0.019c0.969,0.02,1.317-0.232,1.294-1.254
		c-0.065-2.818,0.002-5.64-0.04-8.459c-0.011-0.731,0.18-0.946,0.925-0.934c2.706,0.046,5.415,0.05,8.121-0.002
		c0.776-0.015,0.916,0.251,0.907,0.952c-0.036,2.857,0.023,5.716-0.037,8.572c-0.02,0.93,0.294,1.138,1.164,1.122
		c2.819-0.05,5.64,0.006,8.459-0.035c0.735-0.011,1.046,0.1,1.027,0.948c-0.06,2.705-0.044,5.414-0.006,8.12
		c0.009,0.675-0.135,0.938-0.86,0.885c-0.935-0.068-1.879-0.043-2.818-0.007c-0.508,0.02-0.645-0.168-0.629-0.648
		c0.03-0.939,0.012-1.88,0.006-2.819c-0.001-0.252,0.075-0.608-0.282-0.637c-0.441-0.035-0.393,0.354-0.394,0.644
		C38.128,33.61,38.13,35.941,38.13,38.272z"/>
	<path fill-rule="evenodd" clip-rule="evenodd" fill="#FEFEFE" d="M27.525,11.946c2.215,0,4.431,0.022,6.646-0.014
		c0.632-0.011,0.829,0.164,0.815,0.807c-0.042,1.877-0.06,3.756,0.006,5.631c0.028,0.794-0.334,0.805-0.93,0.813
		c-0.619,0.008-0.96-0.052-0.916-0.826c0.073-1.272-0.008-2.553,0.031-3.828c0.021-0.692-0.147-1.028-0.929-1.021
		c-3.154,0.032-6.308,0.028-9.462,0.001c-0.682-0.006-0.935,0.211-0.913,0.906c0.042,1.35-0.036,2.705,0.03,4.054
		c0.039,0.799-0.419,0.706-0.914,0.699c-0.479-0.006-0.951,0.126-0.927-0.685c0.056-1.913,0.044-3.83,0.003-5.744
		c-0.014-0.642,0.181-0.818,0.814-0.808C23.094,11.969,25.31,11.946,27.525,11.946z"/>
	<path fill-rule="evenodd" clip-rule="evenodd" fill="#FEFEFE" d="M244.16,48.694c-0.269-2.954-0.53-5.908-0.816-8.86
		c-0.033-0.344,0.088-0.854-0.339-0.977c-0.41-0.117-0.62,0.357-0.865,0.615c-0.538,0.564-1.033,1.17-1.678,1.647
		c-0.063-0.976,0.53-1.626,0.808-2.397c0.116-0.322,0.577-0.64,0.213-0.989c-0.295-0.283-0.635,0.068-0.923,0.197
		c-2.976,1.33-5.943,2.679-8.915,4.019c-0.233,0.105-0.476,0.191-0.794,0.317c-0.098-0.461,0.243-0.641,0.431-0.86
		c1.899-2.23,3.811-4.45,5.715-6.677c0.21-0.245,0.58-0.45,0.425-0.845c-0.164-0.417-0.574-0.265-0.893-0.274
		c-0.594-0.017-1.188-0.005-1.98-0.005c0.438-0.592,0.719-1.122,1.136-1.506c0.877-0.808,0.791-1.587,0.3-2.589
		c-1.249-2.548-2.387-5.149-3.427-7.894c0.335,0.296,0.677,0.584,1.002,0.89c1.837,1.72,3.686,3.428,5.497,5.175
		c0.58,0.559,0.962,0.62,1.52-0.062c0.896-1.095,1.9-2.1,3.13-3.095c0,0.766-0.025,1.532,0.006,2.296
		c0.056,1.328,0.177,1.395,1.36,0.857c3.137-1.425,6.274-2.851,9.412-4.275c0.262-0.118,0.524-0.232,0.921-0.195
		c-0.835,0.87-1.666,1.745-2.506,2.609c-0.917,0.943-1.826,1.895-2.773,2.807c-0.451,0.435-0.485,0.757-0.011,1.199
		c0.797,0.743,1.493,1.601,2.333,2.287c0.913,0.746,0.667,1.157-0.213,1.63c-0.659,0.354-1.266,0.806-1.89,1.223
		c-1.04,0.695-1.044,0.707-0.025,1.377c2.384,1.566,4.777,3.117,7.155,4.691c0.364,0.241,0.815,0.395,1.087,0.918
		c-3.412-0.862-6.754-1.675-10.074-2.567c-0.909-0.244-1.334-0.147-1.586,0.859c-0.728,2.907-1.563,5.787-2.356,8.679
		C244.285,49.068,244.241,48.85,244.16,48.694z"/>
	<path fill-rule="evenodd" clip-rule="evenodd" fill="#FEFEFE" d="M249.948,24.778c-1.8,0.816-3.601,1.632-5.408,2.452
		c-0.271-0.409-0.111-0.793-0.18-1.145c-0.131-0.674,0.082-1.083,0.854-1.062c0.294,0.008,0.694-0.02,0.694-0.399
		c-0.001-0.488-0.445-0.309-0.689-0.267c-0.6,0.102-1.007,0.075-1.005-0.71c0.001-0.478-0.383-0.629-0.649-0.234
		c-0.44,0.65-0.986,0.655-1.642,0.534c-0.29-0.054-0.607-0.046-0.898,0.008c-0.42,0.077-1.105,0.077-1.022,0.615
		c0.084,0.549,0.676,0.097,1.039,0.129c0.328,0.028,0.66,0.006,1.133,0.006c-0.592,1.007-1.394,1.667-2.06,2.438
		c-0.283,0.327-0.504,0.175-0.748-0.06c-0.887-0.85-1.781-1.689-2.678-2.537c0.105-0.092,0.153-0.171,0.204-0.172
		c2.269-0.072,2.269-0.072,2.269-2.391c-0.001-2.292-0.006-4.584,0.008-6.876c0.001-0.25-0.177-0.704,0.328-0.652
		c0.31,0.031,0.775-0.371,0.952,0.335c0.102,0.408,2.357,0.466,2.677,0.125c0.65-0.693,1.15-0.685,1.867,0.032
		c0.241,0.241,2.616,0.25,2.664-0.024c0.15-0.867,0.798-0.5,1.166-0.444c0.517,0.078,0.242,0.619,0.245,0.941
		c0.023,2.743,0.036,5.487-0.002,8.229C249.055,24.356,249.241,24.71,249.948,24.778z"/>
	<path fill-rule="evenodd" clip-rule="evenodd" fill="#FEFEFE" d="M240.472,38.844c-0.704,1.438-1.349,2.734-1.972,4.041
		c-0.119,0.25-0.446,0.559-0.161,0.805c0.348,0.303,0.6-0.081,0.828-0.307c1.117-1.104,2.229-2.217,3.493-3.477
		c0.146,1.628,0.275,3.093,0.41,4.558c0.045,0.493-0.311,0.417-0.595,0.42c-0.864,0.008-1.73,0.038-2.592-0.008
		c-0.753-0.04-0.989,0.272-0.964,0.993c0.041,1.201-0.018,2.405,0.022,3.606c0.021,0.599-0.098,0.852-0.779,0.843
		c-2.894-0.039-5.787-0.027-8.68-0.007c-0.519,0.004-0.791-0.117-0.702-0.68c0.006-0.037,0-0.075,0.001-0.112
		c0.02-1.272-0.441-2.941,0.19-3.708c0.658-0.797,2.396-0.263,3.651-0.214c1.104,0.042,1.529-0.33,1.341-1.393
		c-0.348-1.953,0.252-3.194,2.333-3.728c1.286-0.33,2.466-1.076,3.695-1.631C240.053,38.82,240.134,38.844,240.472,38.844z"/>
	<path fill-rule="evenodd" clip-rule="evenodd" fill="#FEFEFE" d="M254.725,38.429c-1.482-0.965-2.789-1.816-4.227-2.753
		c1.085-0.727,2.051-1.419,3.062-2.036c0.646-0.394,0.619-0.708,0.107-1.193c-0.953-0.904-1.854-1.863-2.803-2.774
		c-0.337-0.323-0.389-0.532-0.012-0.877c0.609-0.556,1.155-1.181,1.738-1.766c2.667-2.673,2.668-2.655,6.433-2.465
		c0.562,0.028,0.677,0.208,0.673,0.721c-0.021,2.855-0.017,5.71-0.002,8.565c0.002,0.451-0.074,0.688-0.605,0.668
		c-1.013-0.037-2.03-0.045-3.042,0.002c-0.603,0.028-0.668-0.253-0.651-0.739c0.028-0.863,0.016-1.729,0.003-2.592
		c-0.004-0.318,0.124-0.841-0.303-0.844c-0.521-0.003-0.365,0.55-0.366,0.891C254.719,33.563,254.725,35.891,254.725,38.429z"/>
	<path fill-rule="evenodd" clip-rule="evenodd" fill="#FEFEFE" d="M251.256,41.933c0.072-0.327,0.146-0.653,0.223-1.004
		c0.021-0.004,0.091-0.045,0.146-0.029c1.005,0.279,2.35,0.275,2.91,0.936c0.509,0.598,0.226,1.926,0.171,2.926
		c-0.05,0.889,0.313,1.091,1.116,1.043c1.009-0.06,2.027,0.039,3.035-0.032c0.737-0.052,0.882,0.231,0.845,0.892
		c-0.053,0.934-0.068,1.878,0.004,2.81c0.058,0.742-0.241,0.852-0.893,0.843c-2.737-0.033-5.475-0.042-8.211,0.005
		c-0.718,0.012-0.89-0.205-0.856-0.882c0.056-1.122-0.047-2.254,0.034-3.373c0.071-0.984-0.339-1.271-1.238-1.188
		c-0.521,0.048-1.051-0.016-1.573,0.015c-0.68,0.039-0.525-0.302-0.342-0.676c0.195-0.122,0.411-0.087,0.623-0.082
		c1.079-0.004,2.2,0.214,3.203-0.315c0.604-0.317,1.45-0.62,0.973-1.636C251.356,42.108,251.3,42.024,251.256,41.933z"/>
	<path fill-rule="evenodd" clip-rule="evenodd" fill="#FEFEFE" d="M244.059,11.725c2.218,0,4.437,0.03,6.654-0.019
		c0.705-0.015,0.89,0.185,0.869,0.877c-0.05,1.766-0.057,3.535,0.003,5.3c0.024,0.737-0.239,0.851-0.895,0.856
		c-0.702,0.006-1-0.136-0.948-0.914c0.072-1.086-0.001-2.18,0.026-3.27c0.013-0.534-0.077-0.822-0.723-0.817
		c-3.271,0.028-6.542,0.024-9.813,0.003c-0.597-0.004-0.782,0.201-0.765,0.787c0.037,1.239-0.037,2.483,0.027,3.721
		c0.049,0.931-0.571,0.672-1.037,0.681c-0.48,0.009-1.053,0.218-1.024-0.695c0.062-1.916,0.052-3.836,0.002-5.752
		c-0.019-0.701,0.271-0.776,0.855-0.77C239.547,11.741,241.803,11.725,244.059,11.725z"/>
	<path fill-rule="evenodd" clip-rule="evenodd" fill="#FEFEFD" d="M233.966,32.888c0-0.78,0.002-1.45,0-2.12
		c-0.001-0.265,0.01-0.605-0.344-0.586c-0.319,0.017-0.335,0.347-0.335,0.619c0.001,0.938-0.056,1.882,0.017,2.815
		c0.061,0.778-0.244,0.947-0.949,0.906c-0.936-0.056-1.878-0.045-2.815-0.003c-0.571,0.025-0.778-0.121-0.771-0.738
		c0.032-2.892,0.029-5.784,0.002-8.677c-0.006-0.585,0.145-0.79,0.749-0.759c0.975,0.05,1.953,0.016,2.93,0.014
		c0.236-0.001,0.475,0.024,0.537,0.286c0.054,0.222-0.169,0.294-0.315,0.407c-2.184,1.681-1.969,4.123-2.033,6.471
		c-0.007,0.228,0.104,0.475,0.386,0.446c0.304-0.031,0.271-0.319,0.268-0.529c-0.02-1.281,0.036-2.552,0.408-3.79
		c0.22-0.732,0.55-1.398,1.178-1.87c0.164-0.122,0.378-0.368,0.562-0.107c0.128,0.181,0.314,0.46,0.041,0.704
		c-1.883,1.687-1.465,3.955-1.532,6.097c-0.011,0.313-0.029,0.814,0.413,0.77c0.474-0.047,0.241-0.541,0.251-0.846
		c0.037-1.198-0.114-2.408,0.219-3.586c0.111-0.393,0.249-0.781,0.411-1.157c0.119-0.277,0.312-0.596,0.617-0.602
		c0.359-0.008,0.371,0.421,0.51,0.667c0.184,0.325,0.258,0.719,0.471,1.018C235.989,30.354,235.58,31.675,233.966,32.888z"/>
	<path fill-rule="evenodd" clip-rule="evenodd" fill="#FBFBFB" d="M247.023,42.746c0.048-0.285,0.056-0.397,0.086-0.505
		c0.719-2.57,0.711-2.548,3.311-1.664c0.514,0.174,0.421,0.358,0.282,0.714c-0.28,0.72-0.906,0.957-1.553,1.171
		C248.475,42.685,247.784,42.777,247.023,42.746z"/>
	<path fill-rule="evenodd" clip-rule="evenodd" fill="#FAFAFA" d="M236.387,34.33c-0.688,0.802-1.265,1.475-1.843,2.145
		c-0.136,0.156-0.281,0.303-0.547,0.588c-0.018-0.331-0.028-0.465-0.031-0.6C233.915,34.215,233.915,34.215,236.387,34.33z"/>
	<path fill-rule="evenodd" clip-rule="evenodd" fill="#EEEEEE" d="M251.256,41.933c0.106,0.009,0.213,0.017,0.319,0.025
		c-0.109,1.269-0.963,1.95-2.542,2.096c-0.645,0.061-1.359-0.206-1.917,0.349c-0.163-0.062-0.327-0.124-0.49-0.186
		c0.006-0.593,0.134-0.886,0.896-0.857C248.927,43.414,250.258,43.052,251.256,41.933z"/>
	<path fill-rule="evenodd" clip-rule="evenodd" fill="#949492" d="M244.16,48.694c0.128,0.075,0.256,0.15,0.385,0.226
		c0.044,0.239-0.052,0.565-0.245,0.505C243.971,49.323,244.129,48.96,244.16,48.694z"/>
	<path fill-rule="evenodd" clip-rule="evenodd" fill="#383836" d="M193.497,30.102c0.933-0.503,1.855-1.024,2.803-1.496
		c0.273-0.136,0.627-0.686,0.91-0.121c0.203,0.405-0.317,0.51-0.585,0.664c-1.071,0.619-2.153,1.22-3.271,1.851
		c0.562,0.785,1.407,1.127,2.17,1.569c0.717,0.415,1.413,0.845,2.001,1.442c0.436,0.442,0.436,0.948,0.259,1.46
		c-0.188,0.544-0.602,0.845-1.201,0.843c-0.112-0.001-0.226-0.001-0.338,0c-2.185,0.033-2.377,0.214-2.43,2.439
		c-0.023,1.014,0.036,2.033-0.226,3.025c-0.248,0.938-0.574,1.818-1.772,1.875c-1.065,0.05-1.928-0.489-2.227-1.677
		c-0.347-1.375-0.507-2.796-0.788-4.428c-0.452,0.77-0.792,1.375-1.158,1.965c-0.445,0.716-0.984,1.364-1.861,1.518
		c-0.806,0.14-1.604,0.01-2.169-0.65c-0.598-0.698-0.605-1.541-0.253-2.334c0.303-0.68,0.729-1.308,1.134-1.938
		c0.279-0.435,0.284-0.719-0.272-0.892c-0.833-0.259-1.533-0.682-1.577-1.672c-0.043-0.949,0.618-1.395,1.368-1.729
		c0.547-0.243,0.595-0.557,0.31-1.061c-0.37-0.652-0.692-1.341-0.757-2.104c-0.046-0.53-0.035-1.073,0.515-1.387
		c0.519-0.297,1.011-0.201,1.468,0.152c0.591,0.458,1.21,0.875,1.685,1.478c0.688,0.872,1.058,0.844,1.721-0.086
		c0.349-0.489,0.657-1.005,1-1.498c0.676-0.973,1.538-1.586,2.793-1.623c1.031-0.029,1.462,0.473,1.467,1.407
		C194.217,28.105,194.029,29.082,193.497,30.102z"/>
	<path fill-rule="evenodd" clip-rule="evenodd" fill="#3B3B39" d="M192.368,17.143c0.952-0.155,1.267,0.288,1.245,1.274
		c-0.022,1.075-0.711,0.952-1.385,0.981c-1.106,0.05-0.86-0.747-0.923-1.399C191.226,17.178,191.626,17.005,192.368,17.143z"/>
	<path fill-rule="evenodd" clip-rule="evenodd" fill="#383836" d="M190.143,22.554c-0.897-0.001-1.796-0.005-2.694,0.001
		c-0.248,0.002-0.497-0.058-0.489-0.324c0.007-0.233,0.229-0.354,0.488-0.354c1.796,0.002,3.592-0.002,5.389,0.001
		c0.272,0.001,0.562,0.062,0.532,0.408c-0.026,0.291-0.312,0.266-0.531,0.267C191.939,22.557,191.042,22.554,190.143,22.554z"/>
	<path fill-rule="evenodd" clip-rule="evenodd" fill="#3D3D3B" d="M199.264,34.681c0.004,2.031-0.623,3.116-1.865,3.455
		c-0.325,0.089-0.748,0.244-0.879-0.167c-0.128-0.404,0.344-0.404,0.601-0.492c0.941-0.323,1.341-1.039,1.42-1.965
		c0.042-0.484-0.007-0.975,0.001-1.462c0.004-0.239-0.146-0.596,0.225-0.651c0.427-0.063,0.434,0.314,0.461,0.609
		C199.254,34.307,199.26,34.607,199.264,34.681z"/>
	<path fill-rule="evenodd" clip-rule="evenodd" fill="#3D3D3B" d="M187.553,19.357c-0.979,0.14-0.937-0.51-1.001-1.254
		c-0.081-0.942,0.422-1.071,1.125-1.083c0.812-0.015,1.214,0.31,1.19,1.204C188.844,19.132,188.412,19.416,187.553,19.357z"/>
	<path fill-rule="evenodd" clip-rule="evenodd" fill="#3C3C3A" d="M192.554,23.865c1.032-0.087,1.657,0.52,2.195,1.281
		c0.158,0.225,0.328,0.518,0.095,0.696c-0.353,0.27-0.502-0.129-0.664-0.351c-0.503-0.689-1.148-1.011-2.021-0.923
		c-0.263,0.026-0.77,0.332-0.793-0.217c-0.022-0.492,0.486-0.458,0.853-0.486C192.331,23.857,192.443,23.864,192.554,23.865z"/>
	<path fill-rule="evenodd" clip-rule="evenodd" fill="#41413F" d="M183.882,31.089c-0.025,0.049-0.057,0.203-0.121,0.219
		c-0.13,0.031-0.334,0.043-0.41-0.033c-0.872-0.872-1.731-1.758-2.576-2.656c-0.067-0.072-0.031-0.277,0.013-0.401
		c0.017-0.049,0.192-0.068,0.289-0.055C181.299,28.192,183.852,30.828,183.882,31.089z"/>
	<path fill-rule="evenodd" clip-rule="evenodd" fill="#3E3E3C" d="M181.565,38.126c0.02-0.351,0.011-0.504,0.039-0.649
		c0.097-0.497,0.08-1.338,0.638-1.252c0.678,0.104,0.09,0.785,0.083,1.212c-0.009,0.525-0.053,1.045,0.14,1.556
		c0.088,0.231,0.21,0.56-0.133,0.67c-0.41,0.132-0.498-0.238-0.569-0.522C181.663,38.743,181.605,38.337,181.565,38.126z"/>
	<path fill-rule="evenodd" clip-rule="evenodd" fill="#494947" d="M185.549,42.446c-0.532,0.043-1.003-0.041-1.435-0.304
		c-0.174-0.106-0.292-0.258-0.205-0.461c0.091-0.211,0.305-0.224,0.475-0.142c0.796,0.387,1.583,0.362,2.382,0.013
		c0.175-0.077,0.394-0.079,0.479,0.135c0.109,0.275-0.088,0.384-0.314,0.481C186.476,42.363,186.013,42.488,185.549,42.446z"/>
	<path fill-rule="evenodd" clip-rule="evenodd" fill="#444442" d="M189.886,20.79c-0.344,0.029-0.75-0.061-0.949-0.384
		c-0.17-0.276-0.474-0.707-0.078-0.998c0.398-0.291,0.455,0.192,0.605,0.412c0.281,0.412,0.623,0.399,0.898,0.048
		c0.187-0.237,0.225-0.798,0.637-0.412c0.32,0.299,0.114,0.77-0.222,1.075C190.542,20.745,190.245,20.788,189.886,20.79z"/>
	<path fill-rule="evenodd" clip-rule="evenodd" fill="#525250" d="M184.772,26.142c-0.053,0.089-0.082,0.195-0.126,0.202
		c-0.76,0.115-1.338,0.408-1.521,1.258c-0.039,0.18-0.344,0.04-0.412-0.143c-0.213-0.562,0.01-1.04,0.422-1.396
		c0.428-0.369,0.955-0.368,1.468-0.158C184.681,25.938,184.72,26.065,184.772,26.142z"/>
	<path fill-rule="evenodd" clip-rule="evenodd" fill="#464644" d="M200.284,37.184c-0.264,0.732-0.687,1.373-1.52,1.629
		c-0.172,0.052-0.404,0.065-0.46-0.17c-0.029-0.12,0.028-0.352,0.117-0.396c0.603-0.307,0.96-0.814,1.267-1.386
		c0.066-0.123,0.243-0.171,0.4-0.083C200.231,36.857,200.31,36.972,200.284,37.184z"/>
	<path fill-rule="evenodd" clip-rule="evenodd" fill="#3A3A38" d="M192.417,16.051c-0.421-0.226-1.274,0.284-1.259-0.393
		c0.016-0.613,0.867-0.309,1.336-0.309c0.454,0,1.306-0.309,1.273,0.368C193.74,16.332,192.881,15.838,192.417,16.051z"/>
	<path fill-rule="evenodd" clip-rule="evenodd" fill="#3C3C3A" d="M187.406,16.291c-0.469-0.203-1.294,0.241-1.289-0.35
		c0.004-0.692,0.838-0.358,1.298-0.363c0.466-0.005,1.335-0.293,1.31,0.354C188.699,16.579,187.818,16.026,187.406,16.291z"/>
	<path fill-rule="evenodd" clip-rule="evenodd" fill="#474745" d="M183.053,40.429c0.21,0.109,0.383,0.259,0.215,0.515
		c-0.324,0.495-0.65,0.991-1.019,1.453c-0.153,0.193-0.417,0.165-0.56-0.064C181.55,42.108,182.777,40.404,183.053,40.429z"/>
	<path fill-rule="evenodd" clip-rule="evenodd" fill="#4A4A48" d="M183.005,24.831c0.286-0.046,0.465,0.099,0.407,0.284
		c-0.184,0.591-0.758,0.754-1.244,0.985c-0.208,0.1-0.423-0.138-0.37-0.276C182.01,25.256,182.619,25.135,183.005,24.831z"/>
	<path fill-rule="evenodd" clip-rule="evenodd" fill="#3A3A38" d="M80.937,31.13c0.475-0.033,0.822,0.027,1,0.356
		c0.253,0.466,0.643,0.691,1.122,0.854c0.188,0.063,0.48,0.387,0.462,0.416c-0.716,1.07,0.966,1.787,0.415,2.776
		c-0.289,0.52-0.878,0.53-1.265,0.187c-0.599-0.533-1.271-0.581-1.983-0.562c-0.545,0.016-0.864-0.152-0.827-0.761
		c0.024-0.407-0.004-0.771-0.32-1.132c-0.289-0.328-0.285-0.82,0.247-0.994C80.403,32.072,80.023,30.819,80.937,31.13z"/>
	<path fill-rule="evenodd" clip-rule="evenodd" fill="#383836" d="M81.327,22.776c-0.899,0-1.799,0.005-2.698-0.004
		c-0.245-0.002-0.59,0.065-0.566-0.337c0.016-0.264,0.264-0.337,0.504-0.337c1.799-0.001,3.598,0.001,5.396,0
		c0.251,0,0.511,0.103,0.521,0.328c0.016,0.348-0.305,0.349-0.57,0.349C83.05,22.776,82.189,22.775,81.327,22.776z"/>
	<path fill-rule="evenodd" clip-rule="evenodd" fill="#3D3D3B" d="M76.815,32.448c0.016-1.062,1.828-2.928,2.786-2.941
		c0.336-0.005,0.757-0.046,0.771,0.424c0.015,0.492-0.413,0.28-0.674,0.308c-0.742,0.078-1.999,1.366-2.116,2.157
		c-0.042,0.287,0.214,0.774-0.355,0.759C76.73,33.142,76.923,32.65,76.815,32.448z"/>
	<path fill-rule="evenodd" clip-rule="evenodd" fill="#3E3E3C" d="M78.65,19.62c-0.642,0.113-0.882-0.412-1.155-0.831
		c-0.183-0.278-0.282-0.69,0.062-0.896c0.312-0.187,0.354,0.263,0.534,0.388c0.445,0.308,0.96,0.54,1.341-0.121
		c0.096-0.165,0.167-0.353,0.392-0.294c0.274,0.071,0.26,0.319,0.276,0.543C80.161,19.233,79.648,19.671,78.65,19.62z"/>
	<path fill-rule="evenodd" clip-rule="evenodd" fill="#40403E" d="M83.444,19.615c-0.99,0.097-1.088-0.535-1.127-1.205
		c-0.011-0.188,0.021-0.388,0.228-0.47c0.229-0.092,0.309,0.099,0.427,0.241c0.456,0.548,0.903,0.556,1.301-0.066
		c0.106-0.167,0.223-0.35,0.429-0.241c0.222,0.117,0.269,0.375,0.171,0.588C84.58,19.105,84.339,19.843,83.444,19.615z"/>
	<path fill-rule="evenodd" clip-rule="evenodd" fill="#40403E" d="M85.851,35.776c-0.007,1.002-0.727,1.829-1.685,1.976
		c-0.3,0.046-0.676,0.126-0.757-0.244c-0.07-0.32,0.284-0.38,0.545-0.423c0.796-0.13,1.145-0.599,1.146-1.399
		c0-0.321-0.247-0.907,0.317-0.888C85.969,34.816,85.699,35.465,85.851,35.776z"/>
	<path fill-rule="evenodd" clip-rule="evenodd" fill="#444443" d="M81.26,21.028c-0.662-0.032-1.181-0.104-1.337-0.746
		c-0.069-0.286-0.165-0.643,0.198-0.776c0.352-0.13,0.365,0.211,0.47,0.443c0.228,0.506,0.582,0.499,0.933,0.129
		c0.175-0.186,0.044-0.663,0.508-0.562c0.105,0.022,0.251,0.22,0.245,0.33c-0.019,0.359,0.003,0.769-0.397,0.966
		C81.652,20.925,81.398,20.981,81.26,21.028z"/>
	<path fill-rule="evenodd" clip-rule="evenodd" fill="#3B3B39" d="M78.604,16.202c0.499,0.145,1.37-0.244,1.374,0.371
		c0.004,0.64-0.858,0.314-1.317,0.311c-0.501-0.005-1.43,0.32-1.435-0.277C77.22,15.894,78.144,16.394,78.604,16.202z"/>
	<path fill-rule="evenodd" clip-rule="evenodd" fill="#3C3C3A" d="M83.616,17.175c-0.452-0.181-1.271,0.261-1.279-0.316
		c-0.01-0.713,0.821-0.373,1.272-0.377c0.477-0.004,1.367-0.289,1.357,0.291C84.955,17.514,84.058,16.948,83.616,17.175z"/>
	<path fill-rule="evenodd" clip-rule="evenodd" fill="#393937" d="M140.501,34.562c-0.607-0.17-0.955-0.06-0.824,0.748
		c0.104,0.645,0.053,1.342-0.691,1.618c-0.679,0.253-1.341,0.173-1.8-0.49c-0.356-0.516-0.676-0.431-1.072-0.018
		c-0.44,0.459-0.92,0.889-1.425,1.276c-0.438,0.336-0.988,0.479-1.482,0.184c-0.535-0.32-0.56-0.929-0.336-1.412
		c0.54-1.169,0.232-1.729-0.998-2.173c-1.035-0.372-0.965-2.021,0.032-2.589c0.449-0.256,0.967-0.406,1.467-0.558
		c0.558-0.169,0.833-0.443,0.915-1.087c0.154-1.228,1.151-1.605,2.084-0.771c0.753,0.673,1.158,0.506,1.612-0.273
		c0.349-0.596,0.654-1.34,1.575-1.191c1.201,0.193,1.752,1.53,0.912,2.506c-0.8,0.93-0.316,1.029,0.498,1.193
		c1.21,0.244,1.668,0.836,1.505,1.824C142.32,34.282,141.714,34.665,140.501,34.562z"/>
	<path fill-rule="evenodd" clip-rule="evenodd" fill="#3F3F3D" d="M136.184,28.426c-1.1-0.553-1.896-0.059-2.437,1.122
		c-0.114,0.248-0.404,0.452-0.66,0.59c-0.337,0.182-0.803,0.555-1.069,0.031c-0.248-0.487,0.371-0.428,0.606-0.583
		c0.386-0.255,0.763-0.523,0.91-0.959c0.37-1.094,1.161-1.268,2.148-1.053c0.437,0.096,0.866,0.279,1.312,0.065
		c0.216-0.104,0.462-0.202,0.588,0.045c0.162,0.321-0.146,0.445-0.359,0.59C136.955,28.455,136.651,28.422,136.184,28.426z"/>
	<path fill-rule="evenodd" clip-rule="evenodd" fill="#3A3A38" d="M133.836,17.137c1.086-0.029,1.313,0.497,1.323,1.299
		c0.011,1.006-0.608,1.17-1.399,1.186c-0.647,0.013-0.959-0.24-0.916-0.941C132.894,17.876,132.771,17.004,133.836,17.137z"/>
	<path fill-rule="evenodd" clip-rule="evenodd" fill="#3A3A38" d="M138.518,17.373c0.857-0.105,1.204,0.193,1.171,1.116
		c-0.035,1.008-0.555,1.149-1.367,1.139c-1.059-0.014-0.872-0.762-0.931-1.416C137.307,17.275,137.877,17.273,138.518,17.373z"/>
	<path fill-rule="evenodd" clip-rule="evenodd" fill="#383836" d="M136.297,22.774c-0.9,0-1.802,0.004-2.702-0.003
		c-0.182-0.002-0.404-0.005-0.435-0.249c-0.035-0.285,0.179-0.411,0.411-0.412c1.839-0.011,3.678-0.009,5.517-0.003
		c0.241,0.001,0.471,0.131,0.443,0.383c-0.029,0.269-0.295,0.287-0.532,0.286C138.099,22.773,137.199,22.775,136.297,22.774z"/>
	<path fill-rule="evenodd" clip-rule="evenodd" fill="#424240" d="M139.371,38.523c-0.443,0.015-0.888,0.043-1.331,0.039
		c-0.271-0.002-0.569-0.112-0.566-0.41c0.006-0.386,0.364-0.297,0.599-0.271c0.817,0.092,1.448-0.151,1.863-0.898
		c0.114-0.205,0.261-0.516,0.592-0.327c0.319,0.183,0.144,0.441,0.041,0.678c-0.086,0.199-0.165,0.402-0.248,0.604
		c0.051,0.057,0.068,0.114,0.055,0.173c-0.014,0.06-0.028,0.089-0.043,0.09C140.075,38.496,139.71,38.473,139.371,38.523z"/>
	<path fill-rule="evenodd" clip-rule="evenodd" fill="#434341" d="M136.155,21.021c-0.525-0.032-0.974-0.147-1.131-0.724
		c-0.079-0.286-0.231-0.616,0.129-0.781c0.352-0.162,0.381,0.184,0.494,0.406c0.281,0.548,0.643,0.586,0.997,0.074
		c0.148-0.216,0.136-0.671,0.547-0.442c0.394,0.218,0.159,0.595,0.047,0.895C137.047,20.961,136.585,20.982,136.155,21.021z"/>
	<path fill-rule="evenodd" clip-rule="evenodd" fill="#3A3A38" d="M133.66,16.994c-0.482-0.288-1.355,0.277-1.352-0.423
		c0.003-0.619,0.872-0.316,1.349-0.321c0.481-0.004,1.383-0.264,1.361,0.304C134.991,17.29,134.076,16.665,133.66,16.994z"/>
	<path fill-rule="evenodd" clip-rule="evenodd" fill="#40403E" d="M138.654,17.169c-0.459-0.139-1.268,0.281-1.273-0.314
		c-0.007-0.706,0.828-0.385,1.277-0.374c0.5,0.013,1.425-0.333,1.412,0.35C140.059,17.465,139.125,16.981,138.654,17.169z"/>
	<path fill-rule="evenodd" clip-rule="evenodd" fill="#464644" d="M140.304,38.172c0.005-0.078,0.011-0.156,0.016-0.234
		c0.574-0.02,0.743,0.218,0.516,0.76c-0.18,0.427-0.536,0.643-0.931,0.736c-0.403,0.097-1.052,0.33-1.174-0.17
		c-0.145-0.593,0.591-0.339,0.906-0.52C139.823,38.511,140.025,38.296,140.304,38.172z"/>
	<path fill-rule="evenodd" clip-rule="evenodd" fill="#D8D8D7" d="M140.304,38.172c-0.181,0.239-0.301,0.55-0.667,0.572
		c-0.089-0.074-0.178-0.147-0.267-0.221C139.643,38.303,139.89,38.016,140.304,38.172z"/>
	<path fill-rule="evenodd" clip-rule="evenodd" fill="#373735" d="M27.619,22.554c-0.864,0-1.727,0.002-2.59-0.001
		c-0.262-0.001-0.589,0.013-0.57-0.35c0.012-0.232,0.266-0.327,0.518-0.327c1.764,0.003,3.528,0,5.292,0.001
		c0.274,0,0.594,0.059,0.572,0.378c-0.023,0.337-0.373,0.298-0.631,0.299C29.346,22.557,28.482,22.555,27.619,22.554z"/>
	<path fill-rule="evenodd" clip-rule="evenodd" fill="#434341" d="M27.263,32.721c0.664,0.039,0.941,0.385,0.969,0.935
		c0.033,0.658-0.382,0.957-0.966,0.957c-0.555,0-0.89-0.351-0.905-0.92C26.344,33.042,26.756,32.792,27.263,32.721z"/>
	<path fill-rule="evenodd" clip-rule="evenodd" fill="#3D3D3B" d="M25.172,19.161c-0.411-0.07-1.059,0.255-1.349-0.49
		c-0.098-0.251-0.224-0.515,0.017-0.722c0.327-0.279,0.389,0.055,0.557,0.251c0.391,0.455,0.893,0.412,1.327,0.084
		c0.178-0.134,0.194-0.571,0.533-0.388c0.299,0.161,0.165,0.535,0.175,0.822c0.012,0.33-0.18,0.473-0.485,0.478
		C25.722,19.199,25.499,19.177,25.172,19.161z"/>
	<path fill-rule="evenodd" clip-rule="evenodd" fill="#424240" d="M29.833,19.216c-0.357-0.047-0.787,0.13-1.044-0.233
		c-0.229-0.324-0.278-0.771,0.026-1.025c0.368-0.306,0.383,0.152,0.563,0.352c0.327,0.359,0.787,0.33,1.148-0.02
		c0.185-0.179,0.192-0.697,0.599-0.396c0.395,0.293,0.126,0.693-0.063,1.001C30.768,19.372,30.259,19.162,29.833,19.216z"/>
	<path fill-rule="evenodd" clip-rule="evenodd" fill="#444442" d="M27.392,21.016c-0.417-0.044-0.903-0.089-1.045-0.709
		c-0.066-0.29-0.253-0.614,0.117-0.792c0.39-0.187,0.394,0.22,0.498,0.424c0.26,0.504,0.608,0.536,0.951,0.138
		c0.186-0.216,0.19-0.817,0.598-0.478c0.381,0.316,0.159,0.831-0.196,1.17C28.086,20.988,27.776,21.014,27.392,21.016z"/>
	<path fill-rule="evenodd" clip-rule="evenodd" fill="#3B3B39" d="M24.997,16.978c-0.514-0.254-1.408,0.3-1.423-0.43
		c-0.012-0.579,0.882-0.312,1.355-0.294c0.488,0.019,1.383-0.357,1.379,0.382C26.305,17.226,25.405,16.699,24.997,16.978z"/>
	<path fill-rule="evenodd" clip-rule="evenodd" fill="#3B3B39" d="M29.991,17.184c-0.426-0.234-1.289,0.298-1.281-0.386
		c0.007-0.626,0.867-0.311,1.338-0.317c0.479-0.008,1.377-0.268,1.356,0.302C31.378,17.492,30.481,16.967,29.991,17.184z"/>
	<path fill-rule="evenodd" clip-rule="evenodd" fill="#393937" d="M241.786,28.625c0.131,0.117,0.281,0.222,0.394,0.357
		c0.286,0.346,0.533,0.726,0.836,1.055c0.822,0.895,1.354,0.904,2.243,0.068c0.16-0.15,0.292-0.409,0.543-0.282
		c0.242,0.122,0.145,0.377,0.101,0.597c-0.246,1.228-0.009,1.493,1.334,1.574c0.337,0.021,0.888-0.198,0.927,0.323
		c0.034,0.453-0.496,0.311-0.803,0.372c-0.937,0.188-1.086,0.94-1.182,1.695c-0.135,1.057,0.142,2.087,0.28,3.124
		c0.039,0.294,0.192,0.677-0.217,0.743c-0.395,0.063-0.427-0.371-0.465-0.642c-0.105-0.744-0.225-1.48-0.564-2.159
		c-0.633-1.264-1.481-1.541-2.752-0.894c-0.297,0.151-0.654,0.473-0.902,0.155c-0.339-0.432,0.26-0.51,0.455-0.707
		c1.064-1.079,0.763-2.259,0.283-3.443c-0.181-0.447-0.445-0.863-0.694-1.279C241.439,29.012,241.429,28.81,241.786,28.625z"/>
	<path fill-rule="evenodd" clip-rule="evenodd" fill="#383836" d="M244.069,22.554c-0.825,0-1.651,0.006-2.478-0.003
		c-0.249-0.002-0.607,0.051-0.593-0.322c0.012-0.317,0.333-0.354,0.607-0.354c1.689,0.001,3.378-0.001,5.067,0.006
		c0.267,0.001,0.569,0.056,0.529,0.404c-0.032,0.278-0.319,0.267-0.544,0.268C245.795,22.556,244.932,22.554,244.069,22.554z"/>
	<path fill-rule="evenodd" clip-rule="evenodd" fill="#3A3A38" d="M246.288,16.91c0.585,0.069,1.329-0.124,1.249,0.935
		c-0.059,0.766-0.055,1.361-1.129,1.355c-0.995-0.006-1.173-0.429-1.185-1.288C245.211,17.102,245.509,16.807,246.288,16.91z"/>
	<path fill-rule="evenodd" clip-rule="evenodd" fill="#393937" d="M241.697,16.92c0.69-0.082,1.16,0.02,1.101,0.928
		c-0.053,0.794-0.081,1.353-1.145,1.352c-1.028-0.001-1.139-0.48-1.171-1.317C240.444,16.903,240.983,16.848,241.697,16.92z"/>
	<path fill-rule="evenodd" clip-rule="evenodd" fill="#434342" d="M243.992,20.657c-0.476-0.068-0.967-0.084-1.171-0.573
		c-0.108-0.262-0.232-0.646,0.04-0.842c0.382-0.274,0.459,0.104,0.595,0.379c0.229,0.457,0.566,0.418,0.886,0.088
		c0.181-0.188,0.112-0.672,0.574-0.505c0.186,0.067,0.207,0.275,0.186,0.479c-0.038,0.348-0.092,0.679-0.483,0.805
		C244.405,20.557,244.185,20.605,243.992,20.657z"/>
	<path fill-rule="evenodd" clip-rule="evenodd" fill="#454543" d="M246.005,23.221c0.901-0.03,1.549,0.212,2.1,0.714
		c0.204,0.185,0.391,0.398,0.177,0.668c-0.241,0.305-0.441,0.104-0.636-0.102c-0.409-0.433-0.925-0.594-1.515-0.603
		c-0.317-0.006-0.816,0.038-0.797-0.389C245.355,23.045,245.848,23.235,246.005,23.221z"/>
	<path fill-rule="evenodd" clip-rule="evenodd" fill="#434341" d="M235.338,41.32c0.354,0.368,0.774,0.736,1.103,1.174
		c0.271,0.361,1.219,0.505,0.742,1.059c-0.339,0.395-0.895-0.285-1.269-0.604c-0.362-0.311-0.67-0.697-0.945-1.09
		C234.769,41.573,234.931,41.38,235.338,41.32z"/>
	<path fill-rule="evenodd" clip-rule="evenodd" fill="#494948" d="M234.724,42.428c0.331,0.705,1.108,0.983,1.638,1.528
		c0.218,0.224-0.151,0.513-0.414,0.405c-0.696-0.284-1.329-0.687-1.586-1.463C234.283,42.659,234.327,42.458,234.724,42.428z"/>
	<path fill-rule="evenodd" clip-rule="evenodd" fill="#555554" d="M237.399,41.629c0.015,0.277-0.106,0.441-0.304,0.422
		c-0.364-0.036-0.736-0.151-0.827-0.569c-0.047-0.216,0.171-0.327,0.354-0.298C236.943,41.236,237.256,41.341,237.399,41.629z"/>
	<path fill-rule="evenodd" clip-rule="evenodd" fill="#51514F" d="M253.509,30.265c-0.015,0.214-0.021,0.523-0.358,0.55
		c-0.286,0.023-0.331-0.268-0.357-0.48c-0.075-0.6-0.177-1.184-0.508-1.71c-0.099-0.157-0.12-0.379,0.103-0.477
		c0.191-0.084,0.381,0.005,0.495,0.163C253.291,28.876,253.427,29.537,253.509,30.265z"/>
	<path fill-rule="evenodd" clip-rule="evenodd" fill="#444442" d="M254.231,28.78c0.013,0.321-0.064,0.682-0.368,0.564
		c-0.654-0.251-0.428-1.014-0.7-1.509c-0.118-0.212,0.048-0.48,0.333-0.392C254.166,27.655,254.047,28.328,254.231,28.78z"/>
	<path fill-rule="evenodd" clip-rule="evenodd" fill="#454543" d="M253.6,35.386c-0.135,0.429-0.163,1.002-0.772,1.163
		c-0.166,0.045-0.419-0.188-0.276-0.346c0.424-0.473,0.071-1.351,0.753-1.582C253.592,34.522,253.606,35.033,253.6,35.386z"/>
	<path fill-rule="evenodd" clip-rule="evenodd" fill="#3B3B3A" d="M247.117,44.402c-0.126-0.373-0.121-0.658,0.397-0.643
		c0.405,0.013,0.812-0.014,1.218,0.005c1.376,0.065,2.334-0.515,2.844-1.807c0.762,0.154,0.453,0.641,0.277,1.019
		c-0.486,1.049-1.447,1.366-2.49,1.445C248.619,44.479,247.866,44.413,247.117,44.402z"/>
	<path fill-rule="evenodd" clip-rule="evenodd" fill="#FEFEFE" d="M190.999,31.67c0.252,0.132,0.327,0.207,0.38,0.193
		c2.494-0.647,3.693,1.617,5.518,2.468c0.315,0.147,0.361,0.558,0.242,0.911c-0.14,0.414-0.494,0.396-0.837,0.39
		c-0.038,0-0.075-0.001-0.112,0.001c-2.535,0.074-2.982,0.514-3.055,3.097c-0.028,1.013,0.049,2.035-0.252,3.02
		c-0.189,0.623-0.445,1.216-1.266,1.213c-0.772-0.003-1.16-0.5-1.369-1.132c-0.391-1.183-0.402-2.438-0.605-3.657
		c-0.08-0.475-0.087-1.071-0.632-1.223c-0.594-0.165-0.801,0.44-1.071,0.816c-0.436,0.607-0.774,1.292-1.254,1.86
		c-0.604,0.714-1.398,1.094-2.277,0.479c-0.861-0.604-0.647-1.442-0.261-2.219c0.266-0.535,0.579-1.062,0.957-1.521
		c0.626-0.763,0.288-1.199-0.423-1.564c-0.199-0.102-0.415-0.176-0.608-0.287c-1.012-0.58-1.004-1.458,0.013-2.056
		c1.362-0.8,1.332-0.787,0.697-2.251c-0.311-0.718-1.063-1.687-0.262-2.23c0.805-0.545,1.419,0.559,1.952,1.085
		c1.595,1.575,2.013,1.567,3.324-0.32c0.598-0.86,1.146-1.771,2.186-2.2c0.436-0.181,0.927-0.302,1.298-0.06
		c0.422,0.276,0.325,0.826,0.199,1.25C193.032,29.234,192.636,30.781,190.999,31.67z"/>
	<path fill-rule="evenodd" clip-rule="evenodd" fill="#E3E3E3" d="M191.695,18.423c0.673,0.004,1.263,0.22,1.032-0.621
		C192.878,18.785,192.878,18.785,191.695,18.423z"/>
	<path fill-rule="evenodd" clip-rule="evenodd" fill="#444443" d="M188.12,17.744c0.012,0.256,0.024,0.511,0.036,0.767
		c-0.359,0.172-0.659,0.11-0.885-0.23c-0.001-0.085-0.002-0.168-0.003-0.253C187.469,17.686,187.775,17.657,188.12,17.744z"/>
	<path fill-rule="evenodd" clip-rule="evenodd" fill="#CCCCCB" d="M188.12,17.744c-0.321-0.018-0.586,0.133-0.852,0.283
		C187.39,17.446,187.77,17.641,188.12,17.744z"/>
	<path fill-rule="evenodd" clip-rule="evenodd" fill="#BDBDBD" d="M187.271,18.28c0.268,0.183,0.568,0.234,0.885,0.23
		C187.785,18.725,187.385,19.051,187.271,18.28z"/>
	<path fill-rule="evenodd" clip-rule="evenodd" fill="#F9F9F9" d="M82.514,34.775c-0.357-0.089-0.714-0.182-1.072-0.267
		c-0.379-0.09-0.76,0.095-0.952-0.598c-0.244-0.886,0.2-1.422,0.532-2.048c0.082-0.153,0.334,0.007,0.44,0.179
		c0.395,0.637,1.56,0.844,1.091,1.978c-0.042,0.102,0.17,0.308,0.264,0.466C82.862,34.733,82.769,34.84,82.514,34.775z"/>
	<path fill-rule="evenodd" clip-rule="evenodd" fill="#D9D9D8" d="M82.514,34.775c0.101-0.097,0.202-0.193,0.303-0.29
		c0.277,0.113,0.509,0.267,0.519,0.621C82.943,35.28,82.735,35.012,82.514,34.775z"/>
	<path fill-rule="evenodd" clip-rule="evenodd" fill="#FDFDFD" d="M138.983,35.11c-0.014,0.36,0.231,0.931-0.376,1.183
		c-0.544,0.227-0.81-0.224-1.081-0.584c-0.485-0.645-0.991-0.547-1.518-0.053c-0.465,0.438-0.932,0.874-1.406,1.3
		c-0.265,0.237-0.603,0.405-0.93,0.24c-0.416-0.21-0.224-0.658-0.094-0.896c0.712-1.298,0.164-1.977-1.059-2.406
		c-0.376-0.132-0.633-0.423-0.621-0.852c0.014-0.481,0.339-0.729,0.751-0.882c0.42-0.156,0.853-0.283,1.266-0.457
		c0.58-0.244,1.018-0.579,1.021-1.32c0.006-0.967,0.526-0.925,1.175-0.504c1.45,0.941,1.454,0.937,2.473-0.582
		c0.294-0.438,0.52-1.194,1.24-0.617c0.604,0.484,0.324,1.041-0.088,1.571c-0.817,1.054-0.633,1.509,0.696,1.849
		c0.255,0.065,0.52,0.102,0.766,0.189c0.453,0.163,0.653,0.529,0.563,0.979c-0.095,0.475-0.453,0.663-0.934,0.594
		c-0.149-0.021-0.295-0.058-0.444-0.08C139.08,33.588,138.945,33.707,138.983,35.11z"/>
	<path fill-rule="evenodd" clip-rule="evenodd" fill="#C6C6C6" d="M134.39,18.688c-0.256,0.356-0.557,0.311-0.994,0.164
		C133.757,18.514,134.082,18.629,134.39,18.688z"/>
	<path fill-rule="evenodd" clip-rule="evenodd" fill="#E3E3E2" d="M138.165,18.078c0.242,0.263,0.049,1.024,0.836,0.558
		C138.101,19.032,138.101,19.032,138.165,18.078z"/>
	<path fill-rule="evenodd" clip-rule="evenodd" fill="#F5F5F5" d="M243.268,31.266c0.858,0.26,1.629,0.081,2.306,0.862
		c0.814,0.942-0.393,1.443,0.081,2.479c-0.804-0.641-1.289-1.16-2.062-1.048c-0.419,0.061-0.35-0.262-0.271-0.526
		C243.486,32.479,243.382,31.929,243.268,31.266z"/>
	<path fill-rule="evenodd" clip-rule="evenodd" fill="#E3E3E3" d="M246.779,18.331c-0.286,0.065-0.635,0.356-0.822-0.044
		c-0.076-0.163-0.296-0.711,0.337-0.655C246.419,17.89,246.658,18.069,246.779,18.331z"/>
	<path fill-rule="evenodd" clip-rule="evenodd" fill="#696968" d="M246.779,18.331c-0.564,0.047-0.834-0.111-0.485-0.699
		C246.724,17.678,246.861,17.929,246.779,18.331z"/>
	<path fill-rule="evenodd" clip-rule="evenodd" fill="#E3E3E3" d="M242.042,18.329c-0.286,0.069-0.635,0.358-0.823-0.04
		c-0.076-0.16-0.3-0.713,0.336-0.656C241.681,17.89,241.918,18.069,242.042,18.329z"/>
	<path fill-rule="evenodd" clip-rule="evenodd" fill="#696968" d="M242.042,18.329c-0.565,0.05-0.835-0.107-0.487-0.696
		C241.987,17.677,242.124,17.927,242.042,18.329z"/>
	<path fill-rule="evenodd" clip-rule="evenodd" fill="#393937" d="M190.674,34.591c0.543,0.304,1.032,0.559,1.499,0.85
		c0.185,0.114,0.361,0.32,0.168,0.555c-0.137,0.166-0.324,0.11-0.506,0.009c-0.292-0.164-0.603-0.294-0.897-0.452
		c-0.439-0.234-0.797-0.242-0.92,0.338c-0.091,0.424-0.364,0.603-0.731,0.453c-0.704-0.287-1.339-0.325-2.02,0.098
		c-0.32,0.199-0.645-0.048-0.503-0.427c0.221-0.591,0.058-0.986-0.396-1.355c-0.139-0.112-0.253-0.387-0.036-0.478
		c1.194-0.501,0.354-1.179,0.18-1.797c-0.03-0.106-0.11-0.199-0.139-0.307c-0.102-0.379-0.489-0.809-0.126-1.141
		c0.387-0.353,0.769,0.097,1.094,0.287c0.857,0.502,1.599,0.56,2.252-0.323c0.22-0.296,0.508-0.614,0.944-0.427
		c0.442,0.189,0.266,0.574,0.165,0.876c-0.182,0.541,0.104,0.734,0.546,0.879c0.624,0.204,1.71,0.217,1.755,0.693
		c0.071,0.764-1.084,0.649-1.581,1.12C191.208,34.242,190.949,34.392,190.674,34.591z"/>
	<path fill-rule="evenodd" clip-rule="evenodd" fill="#41413F" d="M192.932,37.574c-0.003,0.383-0.271,0.408-0.521,0.251
		c-0.631-0.396-1.251-0.814-1.838-1.271c-0.261-0.203-0.223-0.474,0.151-0.56C191.104,35.907,192.909,37.19,192.932,37.574z"/>
	<path fill-rule="evenodd" clip-rule="evenodd" fill="#3E3E3C" d="M135.34,33.1c0.11-0.692,0.21-1.372,0.985-1.607
		c0.279-0.085,1.916,1.296,1.92,1.562c0.007,0.403-1.496,1.685-2.004,1.613C135.302,34.535,135.595,33.649,135.34,33.1z"/>
	<path fill-rule="evenodd" clip-rule="evenodd" fill="#4E4E4C" d="M244.836,32.419c-0.019,0.184,0.012,0.462-0.294,0.472
		c-0.269,0.008-0.364-0.226-0.372-0.461c-0.008-0.25,0.112-0.446,0.381-0.443C244.785,31.988,244.832,32.187,244.836,32.419z"/>
	<path fill-rule="evenodd" clip-rule="evenodd" fill="#F6F6F6" d="M187.038,31.913c1.127,0.445,2.065,0.661,2.848-0.419
		c-0.241,1.444,0.914,1.176,1.542,1.549c-0.106,0.435-0.614,0.456-0.879,0.752c-0.336,0.375-0.637,0.448-0.9-0.108
		c-0.13-0.272-0.476-0.539-0.728-0.412C187.587,33.943,187.478,32.848,187.038,31.913z"/>
	<path fill-rule="evenodd" clip-rule="evenodd" fill="#F4F4F4" d="M187.399,34.244c0.702,0.187,1.52-0.85,2.044,0.344
		c0.146,0.334,0.156,0.872-0.125,0.895C188.478,35.549,187.546,35.563,187.399,34.244z"/>
	<path fill-rule="evenodd" clip-rule="evenodd" fill="#F0F0F0" d="M136.047,33.066c0.013-0.305,0.004-0.729,0.359-0.693
		c0.382,0.038,0.912,0.3,0.923,0.687c0.011,0.368-0.456,0.731-0.857,0.758C136.007,33.848,136.162,33.334,136.047,33.066z"/>
</g>
</svg>
