<?xml version="1.0" encoding="utf-8"?>
<!-- Generator: Adobe Illustrator 16.0.0, SVG Export Plug-In . SVG Version: 6.00 Build 0)  -->
<!DOCTYPE svg PUBLIC "-//W3C//DTD SVG 1.1//EN" "http://www.w3.org/Graphics/SVG/1.1/DTD/svg11.dtd">
<svg version="1.1" id="Layer_1" xmlns="http://www.w3.org/2000/svg" xmlns:xlink="http://www.w3.org/1999/xlink" x="0px" y="0px"
	 width="351.182px" height="230.692px" viewBox="0 0 351.182 230.692" enable-background="new 0 0 351.182 230.692"
	 xml:space="preserve">
<g>
	<rect x="87.223" y="30.805" fill="#FFFFFF" width="20" height="20"/>
	<rect x="87.223" y="30.805" fill="none" stroke="#1D1D1B" stroke-miterlimit="10" width="20" height="20"/>
	<rect x="107.223" y="30.805" fill="#FFFFFF" width="20" height="20"/>
	<rect x="107.223" y="30.805" fill="none" stroke="#1D1D1B" stroke-miterlimit="10" width="20" height="20"/>
	<rect x="127.223" y="30.805" fill="#FFFFFF" width="20" height="20"/>
	<rect x="127.223" y="30.805" fill="none" stroke="#1D1D1B" stroke-miterlimit="10" width="20" height="20"/>
	<rect x="147.223" y="30.805" fill="#FFFFFF" width="20" height="20"/>
	<rect x="147.223" y="30.805" fill="none" stroke="#1D1D1B" stroke-miterlimit="10" width="20" height="20"/>
	<rect x="167.223" y="30.805" fill="#FFFFFF" width="20" height="20"/>
	<rect x="167.223" y="30.805" fill="none" stroke="#1D1D1B" stroke-miterlimit="10" width="20" height="20"/>
	<rect x="187.223" y="30.805" fill="#FFFFFF" width="20" height="20"/>
	<rect x="187.223" y="30.805" fill="none" stroke="#1D1D1B" stroke-miterlimit="10" width="20" height="20"/>
	<rect x="207.223" y="30.805" fill="#FFFFFF" width="20" height="20"/>
	<rect x="207.223" y="30.805" fill="none" stroke="#1D1D1B" stroke-miterlimit="10" width="20" height="20"/>
	<rect x="227.223" y="30.805" fill="#FFFFFF" width="20" height="20"/>
	<rect x="227.223" y="30.805" fill="none" stroke="#1D1D1B" stroke-miterlimit="10" width="20" height="20"/>
	<rect x="247.223" y="30.805" fill="#FFFFFF" width="20" height="20"/>
	<rect x="247.223" y="30.805" fill="none" stroke="#1D1D1B" stroke-miterlimit="10" width="20" height="20"/>
	<rect x="87.223" y="50.805" fill="#FFFFFF" width="20" height="20"/>
	<rect x="87.223" y="50.805" fill="none" stroke="#1D1D1B" stroke-miterlimit="10" width="20" height="20"/>
	<rect x="107.223" y="50.805" fill="#FFFFFF" width="20" height="20"/>
	<rect x="107.223" y="50.805" fill="none" stroke="#1D1D1B" stroke-miterlimit="10" width="20" height="20"/>
	<rect x="127.223" y="50.805" fill="#FFFFFF" width="20" height="20"/>
	<rect x="127.223" y="50.805" fill="none" stroke="#1D1D1B" stroke-miterlimit="10" width="20" height="20"/>
	<rect x="147.223" y="50.805" fill="#FFFFFF" width="20" height="20"/>
	<rect x="147.223" y="50.805" fill="none" stroke="#1D1D1B" stroke-miterlimit="10" width="20" height="20"/>
	<rect x="167.223" y="50.805" fill="#FFFFFF" width="20" height="20"/>
	<rect x="167.223" y="50.805" fill="none" stroke="#1D1D1B" stroke-miterlimit="10" width="20" height="20"/>
	<rect x="187.223" y="50.805" fill="#FFFFFF" width="20" height="20"/>
	<rect x="187.223" y="50.805" fill="none" stroke="#1D1D1B" stroke-miterlimit="10" width="20" height="20"/>
	<rect x="207.223" y="50.805" fill="#FFFFFF" width="20" height="20"/>
	<rect x="207.223" y="50.805" fill="none" stroke="#1D1D1B" stroke-miterlimit="10" width="20" height="20"/>
	<rect x="227.223" y="50.805" fill="#FFFFFF" width="20" height="20"/>
	<rect x="227.223" y="50.805" fill="none" stroke="#1D1D1B" stroke-miterlimit="10" width="20" height="20"/>
	<rect x="247.223" y="50.805" fill="#FFFFFF" width="20" height="20"/>
	<rect x="247.223" y="50.805" fill="none" stroke="#1D1D1B" stroke-miterlimit="10" width="20" height="20"/>
	<rect x="87.223" y="70.805" fill="#FFFFFF" width="20" height="20"/>
	<rect x="87.223" y="70.805" fill="none" stroke="#1D1D1B" stroke-miterlimit="10" width="20" height="20"/>
	<rect x="107.223" y="70.805" fill="#FFFFFF" width="20" height="20"/>
	<rect x="107.223" y="70.805" fill="none" stroke="#1D1D1B" stroke-miterlimit="10" width="20" height="20"/>
	<rect x="127.223" y="70.805" fill="#FFFFFF" width="20" height="20"/>
	<rect x="127.223" y="70.805" fill="none" stroke="#1D1D1B" stroke-miterlimit="10" width="20" height="20"/>
	<rect x="147.223" y="70.805" fill="#FFFFFF" width="20" height="20"/>
	<rect x="147.223" y="70.805" fill="none" stroke="#1D1D1B" stroke-miterlimit="10" width="20" height="20"/>
	<rect x="167.223" y="70.805" fill="#FFFFFF" width="20" height="20"/>
	<rect x="167.223" y="70.805" fill="none" stroke="#1D1D1B" stroke-miterlimit="10" width="20" height="20"/>
	<rect x="187.223" y="70.805" fill="#FFFFFF" width="20" height="20"/>
	<rect x="187.223" y="70.805" fill="none" stroke="#1D1D1B" stroke-miterlimit="10" width="20" height="20"/>
	<rect x="207.223" y="70.805" fill="#FFFFFF" width="20" height="20"/>
	<rect x="207.223" y="70.805" fill="none" stroke="#1D1D1B" stroke-miterlimit="10" width="20" height="20"/>
	<rect x="227.223" y="70.805" fill="#FFFFFF" width="20" height="20"/>
	<rect x="227.223" y="70.805" fill="none" stroke="#1D1D1B" stroke-miterlimit="10" width="20" height="20"/>
	<rect x="247.223" y="70.805" fill="#FFFFFF" width="20" height="20"/>
	<rect x="247.223" y="70.805" fill="none" stroke="#1D1D1B" stroke-miterlimit="10" width="20" height="20"/>
	<rect x="87.223" y="90.805" fill="#FFFFFF" width="20" height="20"/>
	<rect x="87.223" y="90.805" fill="none" stroke="#1D1D1B" stroke-miterlimit="10" width="20" height="20"/>
	<rect x="107.223" y="90.805" fill="#FFFFFF" width="20" height="20"/>
	<rect x="107.223" y="90.805" fill="none" stroke="#1D1D1B" stroke-miterlimit="10" width="20" height="20"/>
	<rect x="127.223" y="90.805" fill="#FFFFFF" width="20" height="20"/>
	<rect x="127.223" y="90.805" fill="none" stroke="#1D1D1B" stroke-miterlimit="10" width="20" height="20"/>
	<rect x="147.223" y="90.805" fill="#FFFFFF" width="20" height="20"/>
	<rect x="147.223" y="90.805" fill="none" stroke="#1D1D1B" stroke-miterlimit="10" width="20" height="20"/>
	<rect x="167.223" y="90.805" fill="#FFFFFF" width="20" height="20"/>
	<rect x="167.223" y="90.805" fill="none" stroke="#1D1D1B" stroke-miterlimit="10" width="20" height="20"/>
	<rect x="187.223" y="90.805" fill="#FFFFFF" width="20" height="20"/>
	<rect x="187.223" y="90.805" fill="none" stroke="#1D1D1B" stroke-miterlimit="10" width="20" height="20"/>
	<rect x="207.223" y="90.805" fill="#FFFFFF" width="20" height="20"/>
	<rect x="207.223" y="90.805" fill="none" stroke="#1D1D1B" stroke-miterlimit="10" width="20" height="20"/>
	<rect x="227.223" y="90.805" fill="#FFFFFF" width="20" height="20"/>
	<rect x="227.223" y="90.805" fill="none" stroke="#1D1D1B" stroke-miterlimit="10" width="20" height="20"/>
	<rect x="247.223" y="90.805" fill="#FFFFFF" width="20" height="20"/>
	<rect x="247.223" y="90.805" fill="none" stroke="#1D1D1B" stroke-miterlimit="10" width="20" height="20"/>
	<rect x="87.223" y="110.805" fill="#FFFFFF" width="20" height="20"/>
	<rect x="87.223" y="110.805" fill="none" stroke="#1D1D1B" stroke-miterlimit="10" width="20" height="20"/>
	<rect x="107.223" y="110.805" fill="#FFFFFF" width="20" height="20"/>
	<rect x="107.223" y="110.805" fill="none" stroke="#1D1D1B" stroke-miterlimit="10" width="20" height="20"/>
	<rect x="127.223" y="110.805" fill="#FFFFFF" width="20" height="20"/>
	<rect x="127.223" y="110.805" fill="none" stroke="#1D1D1B" stroke-miterlimit="10" width="20" height="20"/>
	<rect x="147.223" y="110.805" fill="#FFFFFF" width="20" height="20"/>
	<rect x="147.223" y="110.805" fill="none" stroke="#1D1D1B" stroke-miterlimit="10" width="20" height="20"/>
	<rect x="167.223" y="110.805" fill="#FFFFFF" width="20" height="20"/>
	<rect x="167.223" y="110.805" fill="none" stroke="#1D1D1B" stroke-miterlimit="10" width="20" height="20"/>
	<rect x="187.223" y="110.805" fill="#FFFFFF" width="20" height="20"/>
	<rect x="187.223" y="110.805" fill="none" stroke="#1D1D1B" stroke-miterlimit="10" width="20" height="20"/>
	<rect x="207.223" y="110.805" fill="#FFFFFF" width="20" height="20"/>
	<rect x="207.223" y="110.805" fill="none" stroke="#1D1D1B" stroke-miterlimit="10" width="20" height="20"/>
	<rect x="227.223" y="110.805" fill="#FFFFFF" width="20" height="20"/>
	<rect x="227.223" y="110.805" fill="none" stroke="#1D1D1B" stroke-miterlimit="10" width="20" height="20"/>
	<rect x="247.223" y="110.805" fill="#FFFFFF" width="20" height="20"/>
	<rect x="247.223" y="110.805" fill="none" stroke="#1D1D1B" stroke-miterlimit="10" width="20" height="20"/>
	<rect x="87.223" y="130.805" fill="#FFFFFF" width="20" height="20"/>
	<rect x="87.223" y="130.805" fill="none" stroke="#1D1D1B" stroke-miterlimit="10" width="20" height="20"/>
	<rect x="107.223" y="130.805" fill="#FFFFFF" width="20" height="20"/>
	<rect x="107.223" y="130.805" fill="none" stroke="#1D1D1B" stroke-miterlimit="10" width="20" height="20"/>
	<rect x="127.223" y="130.805" fill="#FFFFFF" width="20" height="20"/>
	<rect x="127.223" y="130.805" fill="none" stroke="#1D1D1B" stroke-miterlimit="10" width="20" height="20"/>
	<rect x="147.223" y="130.805" fill="#FFFFFF" width="20" height="20"/>
	<rect x="147.223" y="130.805" fill="none" stroke="#1D1D1B" stroke-miterlimit="10" width="20" height="20"/>
	<rect x="167.223" y="130.805" fill="#FFFFFF" width="20" height="20"/>
	<rect x="167.223" y="130.805" fill="none" stroke="#1D1D1B" stroke-miterlimit="10" width="20" height="20"/>
	<rect x="187.223" y="130.805" fill="#FFFFFF" width="20" height="20"/>
	<rect x="187.223" y="130.805" fill="none" stroke="#1D1D1B" stroke-miterlimit="10" width="20" height="20"/>
	<rect x="207.223" y="130.805" fill="#FFFFFF" width="20" height="20"/>
	<rect x="207.223" y="130.805" fill="none" stroke="#1D1D1B" stroke-miterlimit="10" width="20" height="20"/>
	<rect x="227.223" y="130.805" fill="#FFFFFF" width="20" height="20"/>
	<rect x="227.223" y="130.805" fill="none" stroke="#1D1D1B" stroke-miterlimit="10" width="20" height="20"/>
	<rect x="247.223" y="130.805" fill="#FFFFFF" width="20" height="20"/>
	<rect x="247.223" y="130.805" fill="none" stroke="#1D1D1B" stroke-miterlimit="10" width="20" height="20"/>
	<rect x="87.223" y="150.805" fill="#FFFFFF" width="20" height="20"/>
	<rect x="87.223" y="150.805" fill="none" stroke="#1D1D1B" stroke-miterlimit="10" width="20" height="20"/>
	<rect x="107.223" y="150.805" fill="#FFFFFF" width="20" height="20"/>
	<rect x="107.223" y="150.805" fill="none" stroke="#1D1D1B" stroke-miterlimit="10" width="20" height="20"/>
	<rect x="127.223" y="150.805" fill="#FFFFFF" width="20" height="20"/>
	<rect x="127.223" y="150.805" fill="none" stroke="#1D1D1B" stroke-miterlimit="10" width="20" height="20"/>
	<rect x="147.223" y="150.805" fill="#FFFFFF" width="20" height="20"/>
	<rect x="147.223" y="150.805" fill="none" stroke="#1D1D1B" stroke-miterlimit="10" width="20" height="20"/>
	<rect x="167.223" y="150.805" fill="#FFFFFF" width="20" height="20"/>
	<rect x="167.223" y="150.805" fill="none" stroke="#1D1D1B" stroke-miterlimit="10" width="20" height="20"/>
	<rect x="187.223" y="150.805" fill="#FFFFFF" width="20" height="20"/>
	<rect x="187.223" y="150.805" fill="none" stroke="#1D1D1B" stroke-miterlimit="10" width="20" height="20"/>
	<rect x="207.223" y="150.805" fill="#FFFFFF" width="20" height="20"/>
	<rect x="207.223" y="150.805" fill="none" stroke="#1D1D1B" stroke-miterlimit="10" width="20" height="20"/>
	<rect x="227.223" y="150.805" fill="#FFFFFF" width="20" height="20"/>
	<rect x="227.223" y="150.805" fill="none" stroke="#1D1D1B" stroke-miterlimit="10" width="20" height="20"/>
	<rect x="247.223" y="150.805" fill="#FFFFFF" width="20" height="20"/>
	<rect x="247.223" y="150.805" fill="none" stroke="#1D1D1B" stroke-miterlimit="10" width="20" height="20"/>
	<rect x="87.223" y="170.805" fill="#FFFFFF" width="20" height="20"/>
	<rect x="87.223" y="170.805" fill="none" stroke="#1D1D1B" stroke-miterlimit="10" width="20" height="20"/>
	<rect x="107.223" y="170.805" fill="#FFFFFF" width="20" height="20"/>
	<rect x="107.223" y="170.805" fill="none" stroke="#1D1D1B" stroke-miterlimit="10" width="20" height="20"/>
	<rect x="127.223" y="170.805" fill="#FFFFFF" width="20" height="20"/>
	<rect x="127.223" y="170.805" fill="none" stroke="#1D1D1B" stroke-miterlimit="10" width="20" height="20"/>
	<rect x="147.223" y="170.805" fill="#FFFFFF" width="20" height="20"/>
	<rect x="147.223" y="170.805" fill="none" stroke="#1D1D1B" stroke-miterlimit="10" width="20" height="20"/>
	<rect x="167.223" y="170.805" fill="#FFFFFF" width="20" height="20"/>
	<rect x="167.223" y="170.805" fill="none" stroke="#1D1D1B" stroke-miterlimit="10" width="20" height="20"/>
	<rect x="187.223" y="170.805" fill="#FFFFFF" width="20" height="20"/>
	<rect x="187.223" y="170.805" fill="none" stroke="#1D1D1B" stroke-miterlimit="10" width="20" height="20"/>
	<rect x="207.223" y="170.805" fill="#FFFFFF" width="20" height="20"/>
	<rect x="207.223" y="170.805" fill="none" stroke="#1D1D1B" stroke-miterlimit="10" width="20" height="20"/>
	<rect x="227.223" y="170.805" fill="#FFFFFF" width="20" height="20"/>
	<rect x="227.223" y="170.805" fill="none" stroke="#1D1D1B" stroke-miterlimit="10" width="20" height="20"/>
	<rect x="247.223" y="170.805" fill="#FFFFFF" width="20" height="20"/>
	<rect x="247.223" y="170.805" fill="none" stroke="#1D1D1B" stroke-miterlimit="10" width="20" height="20"/>
	<rect x="87.223" y="190.805" fill="#FFFFFF" width="20" height="20"/>
	<rect x="87.223" y="190.805" fill="none" stroke="#1D1D1B" stroke-miterlimit="10" width="20" height="20"/>
	<rect x="107.223" y="190.805" fill="#FFFFFF" width="20" height="20"/>
	<rect x="107.223" y="190.805" fill="none" stroke="#1D1D1B" stroke-miterlimit="10" width="20" height="20"/>
	<rect x="127.223" y="190.805" fill="#FFFFFF" width="20" height="20"/>
	<rect x="127.223" y="190.805" fill="none" stroke="#1D1D1B" stroke-miterlimit="10" width="20" height="20"/>
	<rect x="147.223" y="190.805" fill="#FFFFFF" width="20" height="20"/>
	<rect x="147.223" y="190.805" fill="none" stroke="#1D1D1B" stroke-miterlimit="10" width="20" height="20"/>
	<rect x="167.223" y="190.805" fill="#FFFFFF" width="20" height="20"/>
	<rect x="167.223" y="190.805" fill="none" stroke="#1D1D1B" stroke-miterlimit="10" width="20" height="20"/>
	<rect x="187.223" y="190.805" fill="#FFFFFF" width="20" height="20"/>
	<rect x="187.223" y="190.805" fill="none" stroke="#1D1D1B" stroke-miterlimit="10" width="20" height="20"/>
	<rect x="207.223" y="190.805" fill="#FFFFFF" width="20" height="20"/>
	<rect x="207.223" y="190.805" fill="none" stroke="#1D1D1B" stroke-miterlimit="10" width="20" height="20"/>
	<rect x="227.223" y="190.805" fill="#FFFFFF" width="20" height="20"/>
	<rect x="227.223" y="190.805" fill="none" stroke="#1D1D1B" stroke-miterlimit="10" width="20" height="20"/>
	<rect x="247.223" y="190.805" fill="#FFFFFF" width="20" height="20"/>
	<rect x="247.223" y="190.805" fill="none" stroke="#1D1D1B" stroke-miterlimit="10" width="20" height="20"/>
	<text transform="matrix(1 0 0 1 33.5078 24.2627)" fill="#1D1D1B" font-family="'f-0-0'" font-size="12">ESTRESSE</text>
	<text transform="matrix(1 0 0 1 0 124.333)" fill="#1D1D1B" font-family="'f-0-0'" font-size="12">DESA</text>
	<text transform="matrix(1 0 0 1 26.9844 124.333)" fill="#1D1D1B" font-family="'f-0-0'" font-size="12">GRAD</text>
	<text transform="matrix(1 0 0 1 56.4219 124.333)" fill="#1D1D1B" font-family="'f-0-0'" font-size="12">Á</text>
	<text transform="matrix(1 0 0 1 63.1328 124.333)" fill="#1D1D1B" font-family="'f-0-0'" font-size="12">VEL</text>
	<text transform="matrix(1 0 0 1 21.4844 227.6924)" fill="#1D1D1B" font-family="'f-0-0'" font-size="12">DEPRESSÃ</text>
	<text transform="matrix(1 0 0 1 73.125 227.6924)" fill="#1D1D1B" font-family="'f-0-0'" font-size="12">O</text>
	<text transform="matrix(1 0 0 1 143.7344 227.6924)" fill="#1D1D1B" font-family="'f-0-0'" font-size="12">SONOLÊNCIA</text>
	<text transform="matrix(1 0 0 1 165.0469 10.0439)" fill="#1D1D1B" font-family="'f-0-0'" font-size="12">AL</text>
	<text transform="matrix(1 0 0 1 176.9922 10.0439)" fill="#1D1D1B" font-family="'f-0-0'" font-size="12">TA</text>
	<text transform="matrix(1 0 0 1 148.7734 24.4502)" fill="#1D1D1B" font-family="'f-0-0'" font-size="12">EX</text>
	<text transform="matrix(1 0 0 1 161.1719 24.4502)" fill="#1D1D1B" font-family="'f-0-0'" font-size="12">CIT</text>
	<text transform="matrix(1 0 0 1 176.0781 24.4502)" fill="#1D1D1B" font-family="'f-0-0'" font-size="12">AÇ</text>
	<text transform="matrix(1 0 0 1 190.25 24.4502)" fill="#1D1D1B" font-family="'f-0-0'" font-size="12">ÃO</text>
	<text transform="matrix(1 0 0 1 274.5703 24.2627)" fill="#1D1D1B" font-family="'f-0-0'" font-size="12">EX</text>
	<text transform="matrix(1 0 0 1 286.9766 24.2627)" fill="#1D1D1B" font-family="'f-0-0'" font-size="12">CIT</text>
	<text transform="matrix(1 0 0 1 301.8672 24.2627)" fill="#1D1D1B" font-family="'f-0-0'" font-size="12">AÇ</text>
	<text transform="matrix(1 0 0 1 316.0391 24.2627)" fill="#1D1D1B" font-family="'f-0-0'" font-size="12">ÃO</text>
	<text transform="matrix(1 0 0 1 274.5703 117.1299)" fill="#1D1D1B" font-family="'f-0-0'" font-size="12">SENTIMENT</text>
	<text transform="matrix(1 0 0 1 332.2109 117.1299)" fill="#1D1D1B" font-family="'f-0-0'" font-size="12">O</text>
	<text transform="matrix(1 0 0 1 276.7422 131.5283)" fill="#1D1D1B" font-family="'f-0-0'" font-size="12">AG</text>
	<text transform="matrix(1 0 0 1 291.6562 131.5283)" fill="#1D1D1B" font-family="'f-0-0'" font-size="12">RA</text>
	<text transform="matrix(1 0 0 1 305.5078 131.5283)" fill="#1D1D1B" font-family="'f-0-0'" font-size="12">DÁ</text>
	<text transform="matrix(1 0 0 1 320.0469 131.5283)" fill="#1D1D1B" font-family="'f-0-0'" font-size="12">VEL</text>
	<text transform="matrix(1 0 0 1 274.5703 227.6924)" fill="#1D1D1B" font-family="'f-0-0'" font-size="12">RELA</text>
	<text transform="matrix(1 0 0 1 299.7656 227.6924)" fill="#1D1D1B" font-family="'f-0-0'" font-size="12">XAMENT</text>
	<text transform="matrix(1 0 0 1 342.9141 227.6924)" fill="#1D1D1B" font-family="'f-0-0'" font-size="12">O</text>
</g>
<g>
  <rect x="87.223" y="30.805" fill="#036B77" fill-opacity="0" width="20" height="20" ng-click="setResponse($event)"/>
  <rect x="107.223" y="30.805" fill="#036B77" fill-opacity="0" width="20" height="20" ng-click="setResponse($event)"/>
  <rect x="127.223" y="30.805" fill="#036B77" fill-opacity="0" width="20" height="20" ng-click="setResponse($event)"/>
  <rect x="147.223" y="30.805" fill="#036B77" fill-opacity="0" width="20" height="20" ng-click="setResponse($event)"/>
  <rect x="167.223" y="30.805" fill="#036B77" fill-opacity="0" width="20" height="20" ng-click="setResponse($event)"/>
  <rect x="187.223" y="30.805" fill="#036B77" fill-opacity="0" width="20" height="20" ng-click="setResponse($event)"/>
  <rect x="207.223" y="30.805" fill="#036B77" fill-opacity="0" width="20" height="20" ng-click="setResponse($event)"/>
  <rect x="227.223" y="30.805" fill="#036B77" fill-opacity="0" width="20" height="20" ng-click="setResponse($event)"/>
  <rect x="247.223" y="30.805" fill="#036B77" fill-opacity="0" width="20" height="20" ng-click="setResponse($event)"/>
  <rect x="87.223" y="50.805" fill="#036B77" fill-opacity="0" width="20" height="20" ng-click="setResponse($event)"/>
  <rect x="107.223" y="50.805" fill="#036B77" fill-opacity="0" width="20" height="20" ng-click="setResponse($event)"/>
  <rect x="127.223" y="50.805" fill="#036B77" fill-opacity="0" width="20" height="20" ng-click="setResponse($event)"/>
  <rect x="147.223" y="50.805" fill="#036B77" fill-opacity="0" width="20" height="20" ng-click="setResponse($event)"/>
  <rect x="167.223" y="50.805" fill="#036B77" fill-opacity="0" width="20" height="20" ng-click="setResponse($event)"/>
  <rect x="187.223" y="50.805" fill="#036B77" fill-opacity="0" width="20" height="20" ng-click="setResponse($event)"/>
  <rect x="207.223" y="50.805" fill="#036B77" fill-opacity="0" width="20" height="20" ng-click="setResponse($event)"/>
  <rect x="227.223" y="50.805" fill="#036B77" fill-opacity="0" width="20" height="20" ng-click="setResponse($event)"/>
  <rect x="247.223" y="50.805" fill="#036B77" fill-opacity="0" width="20" height="20" ng-click="setResponse($event)"/>
  <rect x="87.223" y="70.805" fill="#036B77" fill-opacity="0" width="20" height="20" ng-click="setResponse($event)"/>
  <rect x="107.223" y="70.805" fill="#036B77" fill-opacity="0" width="20" height="20" ng-click="setResponse($event)"/>
  <rect x="127.223" y="70.805" fill="#036B77" fill-opacity="0" width="20" height="20" ng-click="setResponse($event)"/>
  <rect x="147.223" y="70.805" fill="#036B77" fill-opacity="0" width="20" height="20" ng-click="setResponse($event)"/>
  <rect x="167.223" y="70.805" fill="#036B77" fill-opacity="0" width="20" height="20" ng-click="setResponse($event)"/>
  <rect x="187.223" y="70.805" fill="#036B77" fill-opacity="0" width="20" height="20" ng-click="setResponse($event)"/>
  <rect x="207.223" y="70.805" fill="#036B77" fill-opacity="0" width="20" height="20" ng-click="setResponse($event)"/>
  <rect x="227.223" y="70.805" fill="#036B77" fill-opacity="0" width="20" height="20" ng-click="setResponse($event)"/>
  <rect x="247.223" y="70.805" fill="#036B77" fill-opacity="0" width="20" height="20" ng-click="setResponse($event)"/>
  <rect x="87.223" y="90.805" fill="#036B77" fill-opacity="0" width="20" height="20" ng-click="setResponse($event)"/>
  <rect x="107.223" y="90.805" fill="#036B77" fill-opacity="0" width="20" height="20" ng-click="setResponse($event)"/>
  <rect x="127.223" y="90.805" fill="#036B77" fill-opacity="0" width="20" height="20" ng-click="setResponse($event)"/>
  <rect x="147.223" y="90.805" fill="#036B77" fill-opacity="0" width="20" height="20" ng-click="setResponse($event)"/>
  <rect x="167.223" y="90.805" fill="#036B77" fill-opacity="0" width="20" height="20" ng-click="setResponse($event)"/>
  <rect x="187.223" y="90.805" fill="#036B77" fill-opacity="0" width="20" height="20" ng-click="setResponse($event)"/>
  <rect x="207.223" y="90.805" fill="#036B77" fill-opacity="0" width="20" height="20" ng-click="setResponse($event)"/>
  <rect x="227.223" y="90.805" fill="#036B77" fill-opacity="0" width="20" height="20" ng-click="setResponse($event)"/>
  <rect x="247.223" y="90.805" fill="#036B77" fill-opacity="0" width="20" height="20" ng-click="setResponse($event)"/>
  <rect x="87.223" y="110.805" fill="#036B77" fill-opacity="0" width="20" height="20" ng-click="setResponse($event)"/>
  <rect x="107.223" y="110.805" fill="#036B77" fill-opacity="0" width="20" height="20" ng-click="setResponse($event)"/>
  <rect x="127.223" y="110.805" fill="#036B77" fill-opacity="0" width="20" height="20" ng-click="setResponse($event)"/>
  <rect x="147.223" y="110.805" fill="#036B77" fill-opacity="0" width="20" height="20" ng-click="setResponse($event)"/>
  <rect x="167.223" y="110.805" fill="#036B77" fill-opacity="0" width="20" height="20" ng-click="setResponse($event)"/>
  <rect x="187.223" y="110.805" fill="#036B77" fill-opacity="0" width="20" height="20" ng-click="setResponse($event)"/>
  <rect x="207.223" y="110.805" fill="#036B77" fill-opacity="0" width="20" height="20" ng-click="setResponse($event)"/>
  <rect x="227.223" y="110.805" fill="#036B77" fill-opacity="0" width="20" height="20" ng-click="setResponse($event)"/>
  <rect x="247.223" y="110.805" fill="#036B77" fill-opacity="0" width="20" height="20" ng-click="setResponse($event)"/>
  <rect x="87.223" y="130.805" fill="#036B77" fill-opacity="0" width="20" height="20" ng-click="setResponse($event)"/>
  <rect x="107.223" y="130.805" fill="#036B77" fill-opacity="0" width="20" height="20" ng-click="setResponse($event)"/>
  <rect x="127.223" y="130.805" fill="#036B77" fill-opacity="0" width="20" height="20" ng-click="setResponse($event)"/>
  <rect x="147.223" y="130.805" fill="#036B77" fill-opacity="0" width="20" height="20" ng-click="setResponse($event)"/>
  <rect x="167.223" y="130.805" fill="#036B77" fill-opacity="0" width="20" height="20" ng-click="setResponse($event)"/>
  <rect x="187.223" y="130.805" fill="#036B77" fill-opacity="0" width="20" height="20" ng-click="setResponse($event)"/>
  <rect x="207.223" y="130.805" fill="#036B77" fill-opacity="0" width="20" height="20" ng-click="setResponse($event)"/>
  <rect x="227.223" y="130.805" fill="#036B77" fill-opacity="0" width="20" height="20" ng-click="setResponse($event)"/>
  <rect x="247.223" y="130.805" fill="#036B77" fill-opacity="0" width="20" height="20" ng-click="setResponse($event)"/>
  <rect x="87.223" y="150.805" fill="#036B77" fill-opacity="0" width="20" height="20" ng-click="setResponse($event)"/>
  <rect x="107.223" y="150.805" fill="#036B77" fill-opacity="0" width="20" height="20" ng-click="setResponse($event)"/>
  <rect x="127.223" y="150.805" fill="#036B77" fill-opacity="0" width="20" height="20" ng-click="setResponse($event)"/>
  <rect x="147.223" y="150.805" fill="#036B77" fill-opacity="0" width="20" height="20" ng-click="setResponse($event)"/>
  <rect x="167.223" y="150.805" fill="#036B77" fill-opacity="0" width="20" height="20" ng-click="setResponse($event)"/>
  <rect x="187.223" y="150.805" fill="#036B77" fill-opacity="0" width="20" height="20" ng-click="setResponse($event)"/>
  <rect x="207.223" y="150.805" fill="#036B77" fill-opacity="0" width="20" height="20" ng-click="setResponse($event)"/>
  <rect x="227.223" y="150.805" fill="#036B77" fill-opacity="0" width="20" height="20" ng-click="setResponse($event)"/>
  <rect x="247.223" y="150.805" fill="#036B77" fill-opacity="0" width="20" height="20" ng-click="setResponse($event)"/>
  <rect x="87.223" y="170.805" fill="#036B77" fill-opacity="0" width="20" height="20" ng-click="setResponse($event)"/>
  <rect x="107.223" y="170.805" fill="#036B77" fill-opacity="0" width="20" height="20" ng-click="setResponse($event)"/>
  <rect x="127.223" y="170.805" fill="#036B77" fill-opacity="0" width="20" height="20" ng-click="setResponse($event)"/>
  <rect x="147.223" y="170.805" fill="#036B77" fill-opacity="0" width="20" height="20" ng-click="setResponse($event)"/>
  <rect x="167.223" y="170.805" fill="#036B77" fill-opacity="0" width="20" height="20" ng-click="setResponse($event)"/>
  <rect x="187.223" y="170.805" fill="#036B77" fill-opacity="0" width="20" height="20" ng-click="setResponse($event)"/>
  <rect x="207.223" y="170.805" fill="#036B77" fill-opacity="0" width="20" height="20" ng-click="setResponse($event)"/>
  <rect x="227.223" y="170.805" fill="#036B77" fill-opacity="0" width="20" height="20" ng-click="setResponse($event)"/>
  <rect x="247.223" y="170.805" fill="#036B77" fill-opacity="0" width="20" height="20" ng-click="setResponse($event)"/>
  <rect x="87.223" y="190.805" fill="#036B77" fill-opacity="0" width="20" height="20" ng-click="setResponse($event)"/>
  <rect x="107.223" y="190.805" fill="#036B77" fill-opacity="0" width="20" height="20" ng-click="setResponse($event)"/>
  <rect x="127.223" y="190.805" fill="#036B77" fill-opacity="0" width="20" height="20" ng-click="setResponse($event)"/>
  <rect x="147.223" y="190.805" fill="#036B77" fill-opacity="0" width="20" height="20" ng-click="setResponse($event)"/>
  <rect x="167.223" y="190.805" fill="#036B77" fill-opacity="0" width="20" height="20" ng-click="setResponse($event)"/>
  <rect x="187.223" y="190.805" fill="#036B77" fill-opacity="0" width="20" height="20" ng-click="setResponse($event)"/>
  <rect x="207.223" y="190.805" fill="#036B77" fill-opacity="0" width="20" height="20" ng-click="setResponse($event)"/>
  <rect x="227.223" y="190.805" fill="#036B77" fill-opacity="0" width="20" height="20" ng-click="setResponse($event)"/>
  <rect x="247.223" y="190.805" fill="#036B77" fill-opacity="0" width="20" height="20" ng-click="setResponse($event)"/>
</g>
</svg>
