<?xml version="1.0" encoding="utf-8"?>
<!-- Generator: Adobe Illustrator 16.0.0, SVG Export Plug-In . SVG Version: 6.00 Build 0)  -->
<!DOCTYPE svg PUBLIC "-//W3C//DTD SVG 1.1//EN" "http://www.w3.org/Graphics/SVG/1.1/DTD/svg11.dtd">
<svg version="1.1" id="Layer_1" xmlns="http://www.w3.org/2000/svg" xmlns:xlink="http://www.w3.org/1999/xlink" x="0px" y="0px"
	 width="229.894px" height="40.724px" viewBox="0 0 229.894 40.724" enable-background="new 0 0 229.894 40.724"
	 xml:space="preserve">
<g>
	<path fill-rule="evenodd" clip-rule="evenodd" fill="#FBAC27" d="M229.869,20.375c0.586,10.619-9.141,20.236-20.075,19.924
		c-11.228-0.32-19.864-8.743-19.834-19.996c0.03-11.086,8.907-19.908,20.028-19.885C221.156,0.441,230.276,9.644,229.869,20.375z"/>
	<g>
		<path fill-rule="evenodd" clip-rule="evenodd" fill="#FEC62A" d="M221.083,6.716c1.71,0.224,2.507,1.612,3.39,2.792
			c7.387,9.872,2.891,25.234-10.799,28.131c-11.946,2.528-21.514-6.347-21.812-16.989c-0.143-5.068,1.377-9.382,5.005-12.938
			c0.514-0.504,0.989-1.07,1.818-0.997c0.186,0.734-0.367,1.153-0.704,1.665c-0.544,0.743-1.053,1.51-1.477,2.331
			c-0.347,0.644-0.664,1.299-0.898,1.993c-0.551,3.494-0.306,3.737,3.45,3.411c2.358,1.079,4.459,2.644,6.968,3.786
			c-0.619-1.332-1.796-1.711-2.767-2.357c-0.661-0.441-1.75-0.687-1.214-1.92c0.714-0.774,1.661-0.914,2.63-0.958
			c3.356-0.153,6.703-0.021,10.025,0.506c0.836,0.134,1.867,0.135,1.716,1.462c-0.264,1.084-1.248,1.534-1.978,2.208
			c-0.708,0.653-1.404,1.302-0.688,2.367c0.218,0.79-0.175,1.576-0.021,2.362c0.175,0.896,0.506,1.804,1.53,1.871
			c1.179,0.078,1.298-0.951,1.421-1.82c0.078-0.55,0.047-1.109-0.235-1.616c-0.405-0.863-1.432-0.754-2.042-1.296
			c-0.112-0.199-0.14-0.409-0.097-0.633c0.536-0.94,1.591-1.188,2.379-1.792c1.299-0.803,2.918-0.997,4.048-2.127
			c1.042,0.058,2.193,0.989,3.098-0.112c1.133-1.378,0.327-2.847-0.078-4.264c-0.213-0.691-0.444-1.375-0.931-1.937
			c-0.371-0.501-0.732-1.01-1.215-1.417C221.144,7.945,220.624,7.478,221.083,6.716z"/>
		<path fill-rule="evenodd" clip-rule="evenodd" fill="#FEE9B6" d="M199.551,6.192c6.037-4.767,13.974-4.719,20.588,0.123
			c-0.347,1.131-1.282,0.684-1.983,0.676c-5.494-0.059-10.986-0.06-16.479-0.001C200.923,6.998,199.844,7.543,199.551,6.192z"/>
		<path fill-rule="evenodd" clip-rule="evenodd" fill="#FEE3A0" d="M199.551,6.192c4.295,0.007,8.59,0.003,12.885,0.024
			c2.568,0.013,5.136,0.064,7.703,0.099c0.314,0.134,0.63,0.268,0.944,0.401c0.067,0.667,0.426,1.144,0.978,1.494
			c-0.108,0.988-0.906,0.739-1.46,0.731C213.5,8.837,206.4,8.838,199.298,8.945c-0.642,0.009-1.5,0.273-1.646-0.808
			c0.344-0.474,0.688-0.947,1.032-1.422C198.973,6.542,199.262,6.367,199.551,6.192z"/>
		<path fill-rule="evenodd" clip-rule="evenodd" fill="#FECD54" d="M199.153,16.341c-1.472,0.264-3.229,2.003-4.215-0.495
			c-0.396-1.004-0.577-2.337,0.318-3.389c1.275-0.88,2.741-0.721,4.167-0.745c8.213-0.136,16.431,0.27,24.64-0.238
			c0.619,0.591,0.771,1.419,0.868,2.174c0.148,1.162,0.388,2.483-0.882,3.252c-1.262,0.764-2.426,0.362-3.476-0.531
			c-1.357,0.758-2.917,0.617-4.362,0.988c-0.101-0.06-0.201-0.121-0.302-0.183c-0.086-0.509,0.592-1.283-0.62-1.377
			c-3.732-0.288-7.46-0.628-11.21-0.461c-0.83,0.037-1.561,0.293-2.113,0.946C201.043,17.038,200.102,16.874,199.153,16.341z"/>
		<path fill-rule="evenodd" clip-rule="evenodd" fill="#FEDD8A" d="M197.652,8.137c5.808-0.001,11.616-0.01,17.424,0
			c2.329,0.003,4.658,0.047,6.986,0.073c0.654,0.193,0.754,0.84,1.068,1.311c0.44,1.523-0.769,1.541-1.647,1.676
			c-1.574,0.242-3.175,0.112-4.764,0.114c-5.725,0.007-11.449,0.021-17.174-0.01c-1.171-0.007-2.414,0.166-3.387-0.771
			C196.331,9.53,196.999,8.838,197.652,8.137z"/>
		<path fill-rule="evenodd" clip-rule="evenodd" fill="#FED671" d="M196.159,10.531c8.218,0,16.436,0.011,24.652-0.017
			c0.866-0.003,2.023,0.443,2.318-0.992c0.77,0.432,0.957,1.142,0.934,1.952c-0.301,1.455-1.476,0.955-2.326,0.959
			c-7.181,0.035-14.36,0.02-21.541,0.021c-1.646,0-3.293,0.003-4.939,0.004C195.321,11.706,195.579,11.042,196.159,10.531z"/>
		<path fill-rule="evenodd" clip-rule="evenodd" fill="#A05C27" d="M214.484,20.179c-0.015,0.165-0.028,0.329-0.043,0.493
			c0.694,0.646,1.687,0.437,2.459,0.858c0.896,1.556,0.699,3.028-0.44,4.35c-0.614,0.712-1.442,0.68-2.125,0.101
			c-1.388-1.177-1.534-2.668-0.927-4.308c0.107-0.292,0.117-0.619,0.173-0.93C213.697,20.258,213.893,19.905,214.484,20.179z"/>
		<path fill-rule="evenodd" clip-rule="evenodd" fill="#975124" d="M205.909,21.511c1.273,1.655,0.732,3.136-0.535,4.445
			c-0.649,0.67-1.551,0.581-2.135-0.093c-1.259-1.452-1.64-3.044-0.287-4.696C203.958,21.11,204.933,21.312,205.909,21.511z"/>
		<path fill-rule="evenodd" clip-rule="evenodd" fill="#834F20" d="M213.041,32.516c-2.103-0.642-4.202-0.466-6.299,0.032
			c-1.405-0.292-1.181-1.088-0.472-1.839c1.677-1.775,3.7-1.933,5.884-1.074c0.224,0.099,0.43,0.229,0.621,0.381
			C213.232,30.808,215.266,31.437,213.041,32.516z"/>
		<path fill-rule="evenodd" clip-rule="evenodd" fill="#5F3216" d="M199.153,16.341c0.938-0.02,1.876-0.038,2.813-0.059
			c2.239,0.987,4.43,2.028,5.526,5.187c-2.484-1.376-4.637-2.314-6.439-3.706C200.45,17.297,198.79,18.013,199.153,16.341z"/>
		<path fill-rule="evenodd" clip-rule="evenodd" fill="#E9DF2A" d="M204.546,33.497c-0.467-0.117-1.098-0.266-0.771-0.879
			c1.165-2.19,2.838-3.873,5.382-4.292c2.372-0.392,4.071,0.949,5.556,2.581c0.176,0.193,0.114,0.603,0.163,0.912
			c-1.062-0.149-1.482-1.201-2.331-1.651l0.018,0.019c-3.153-1.609-5.504-0.916-7.221,2.154
			C205.11,32.755,204.81,33.11,204.546,33.497z"/>
		<path fill-rule="evenodd" clip-rule="evenodd" fill="#553117" d="M204.546,33.497c0.077-2.338,1.804-3.386,3.579-4.138
			c1.513-0.642,3.215-0.807,4.437,0.827c-2.017-0.49-4.013-0.976-5.777,0.729c-0.617,0.596-0.866,1.064-0.043,1.634
			C206.01,32.864,205.278,33.18,204.546,33.497z"/>
		<path fill-rule="evenodd" clip-rule="evenodd" fill="#633617" d="M214.484,20.179c-0.302,0.189-0.604,0.379-0.904,0.565
			c-0.267,0.104-0.623,0.371-0.786,0.282c-0.582-0.314-0.281-0.824-0.029-1.167c0.836-1.133,1.824-2.11,3.146-2.686l-0.02,0.153
			c0.858,0.086,1.248,0.507,0.993,1.388C216.083,19.204,215.284,19.692,214.484,20.179z"/>
		<path fill-rule="evenodd" clip-rule="evenodd" fill="#421C0F" d="M216.883,18.715c-0.331-0.462-0.662-0.925-0.993-1.388
			c1.399-1.111,3.021-1.136,4.683-0.959c0.496,0.942-0.266,1.026-0.845,1.246C218.778,17.976,217.832,18.348,216.883,18.715z"/>
		<path fill-rule="evenodd" clip-rule="evenodd" fill="#5B3B18" d="M212.544,30.167c1.15,0.022,1.515,1.155,2.331,1.65
			c-0.011,0.533,0.808,1.154,0.225,1.501c-0.812,0.482-1.339-0.579-2.06-0.803C214.487,31.393,212.49,30.997,212.544,30.167z"/>
		<path fill-rule="evenodd" clip-rule="evenodd" fill="#4D1711" d="M216.9,21.531c-0.909-0.028-2.145,0.874-2.459-0.858
			C215.46,20.386,216.375,20.402,216.9,21.531z"/>
		<path fill-rule="evenodd" clip-rule="evenodd" fill="#330B0B" d="M205.909,21.511c-1.001,0.012-2.088,0.769-2.957-0.344
			C204.096,19.917,204.995,20.779,205.909,21.511z"/>
	</g>
</g>
<g>
	<path fill-rule="evenodd" clip-rule="evenodd" fill="#FAAB27" d="M87.868,20.339c0.013,11.429-8.933,20.382-20.365,20.384
		c-11.268,0.002-20.487-9.189-20.456-20.393C47.078,9.282,56.304,0.062,67.391,0C78.734-0.063,87.855,8.998,87.868,20.339z"/>
	<path fill-rule="evenodd" clip-rule="evenodd" fill="#FEC62A" d="M79.223,7.147c4.115,2.168,5.975,5.975,6.595,10.222
		c0.928,6.354-0.974,11.918-5.696,16.497c-6.022,5.841-16.613,6.494-23.373,1.554c-4.737-3.461-7.198-8.207-7.653-13.735
		c-0.428-5.203,1.211-10.069,5.182-13.847c0.424-0.403,0.873-0.694,1.482-0.644c0.099,0.179,0.117,0.367,0.057,0.562
		c-0.121,0.27-0.289,0.512-0.458,0.753c-0.269,0.409-0.521,0.829-0.793,1.237c-0.211,0.337-0.412,0.681-0.618,1.022
		c-0.402,0.598-0.667,1.253-0.832,1.953c-0.155,0.537-0.197,1.086-0.199,1.639c-0.008,2.28,0.442,2.586,2.694,1.896
		c1.118-0.343,2.214-0.865,3.441-0.562c0.524,0.479,0.541,1.188,0.814,1.78c0.812,1.589,1.688,1.814,2.659,0.133
		c0.392-1.088-0.117-2.41,0.866-3.341c2.528,1.388,5.288,0.672,7.946,0.876c0.847,0.505,0.681,1.465,0.997,2.208
		c1.091,1.955,1.203,1.971,2.638,0.374c0.432-0.909,0.044-2.027,0.729-2.87c1.32,0.368,2.194,1.526,3.614,1.838
		c2.334,0.512,3.289-0.215,2.961-2.638c-0.096-0.703-0.27-1.396-0.528-2.06c-0.238-0.557-0.539-1.085-0.817-1.622
		c-0.173-0.334-0.327-0.68-0.538-0.995c-0.172-0.217-0.354-0.427-0.544-0.629c-0.323-0.348-0.681-0.671-0.854-1.132
		C78.964,7.408,79.042,7.252,79.223,7.147z"/>
	<path fill-rule="evenodd" clip-rule="evenodd" fill="#FEE6AE" d="M74.407,4.252c1.279,0.362,2.499,0.832,3.389,1.893
		c-0.122,1.28-1.17,1.148-1.97,1.17c-6.094,0.159-12.191-0.099-18.287,0.143c-0.48,0.02-0.96-0.134-0.928-0.797
		c0.564-0.954,1.505-1.392,2.469-1.798C64.14,3.459,69.285,4.128,74.407,4.252z"/>
	<path fill-rule="evenodd" clip-rule="evenodd" fill="#FEECC1" d="M74.407,4.252c-0.34,0.168-0.677,0.478-1.02,0.482
		c-4.769,0.067-9.539,0.093-14.309,0.128C64.093,2.264,69.192,1.824,74.407,4.252z"/>
	<path fill-rule="evenodd" clip-rule="evenodd" fill="#FEE29E" d="M56.611,6.662c5.524,0.008,11.05,0.068,16.573-0.01
		c1.532-0.021,3.179,0.568,4.611-0.506c0.476,0.334,0.952,0.668,1.428,1.002c0.004,0.139,0.013,0.277,0.025,0.415
		c-0.078,1.016-0.891,0.74-1.439,0.742c-6.95,0.021-13.901,0.015-20.853,0.005c-0.483,0-1.195,0.25-1.272-0.643
		c0.016-0.159,0.04-0.316,0.075-0.473C56.043,7.017,56.328,6.839,56.611,6.662z"/>
	<path fill-rule="evenodd" clip-rule="evenodd" fill="#FED670" d="M52.759,12.434c-0.005-0.803,0.17-1.521,0.931-1.962
		c7.012-0.404,14.03-0.085,21.045-0.172c2.147-0.026,4.295,0.033,6.426-0.31c0.304,0.497,0.607,0.994,0.911,1.491
		c0.644,1.429-0.19,1.928-1.385,2.037c-1.585,0.145-3.174,0.263-4.757,0.402c-1.395-0.403-2.796-0.7-4.231-0.154
		c-2.901-0.389-5.82-0.013-8.726-0.203c-1.345-0.695-2.611,0.11-3.917,0.215c-1.431-0.137-2.87-0.098-4.297-0.217
		C53.981,13.496,52.894,13.738,52.759,12.434z"/>
	<path fill-rule="evenodd" clip-rule="evenodd" fill="#FEDB84" d="M81.161,9.99c-0.66,0.82-1.557,1.018-2.554,1.017
		C70.882,11,63.158,11.003,55.434,11.002c-0.633,0-1.292,0.074-1.744-0.53c0.171-0.316,0.342-0.631,0.513-0.947
		c0.852-0.17,1.618-0.626,2.532-0.618c7.963,0.079,15.928-0.233,23.889,0.188C80.802,9.394,80.982,9.691,81.161,9.99z"/>
	<path fill-rule="evenodd" clip-rule="evenodd" fill="#FECB4F" d="M75.277,13.423c1.711-0.334,3.425-0.648,5.182-0.497
		c1.06,0.091,1.706-0.258,1.613-1.445c0.691,0.919,0.834,2.035,0.92,3.104c0.212,2.635-1.23,3.693-3.653,2.704
		c-1.316-0.538-3.245-0.293-3.434-2.443C75.184,14.598,74.903,14.155,75.277,13.423z"/>
	<path fill-rule="evenodd" clip-rule="evenodd" fill="#FECC53" d="M52.759,12.434c1.173,0.96,2.549,0.356,3.826,0.469
		c1.005,0.088,2.03-0.046,2.953,0.499c0.538,0.98,0.198,1.741-0.596,2.39c-1.35,0.457-2.748,0.806-4.037,1.395
		c-1.726,0.789-2.455,0.01-2.552-1.538C52.288,14.589,51.911,13.409,52.759,12.434z"/>
	<path fill-rule="evenodd" clip-rule="evenodd" fill="#FEDC88" d="M80.624,9.095c-0.066,0.683-0.464,0.56-1.002,0.555
		c-7.578-0.058-15.158-0.029-22.736-0.132c-0.894-0.012-1.802,0.901-2.683,0.007c0.332-0.458,0.665-0.915,0.997-1.373
		c6.989-0.039,13.979-0.015,20.968-0.031c1.358-0.003,2.701,0.065,4.015,0.438C80.33,8.738,80.476,8.917,80.624,9.095z"/>
	<path fill-rule="evenodd" clip-rule="evenodd" fill="#67401C" d="M59.169,26.944c5.509,3.677,10.955,3.517,16.523-0.175
		c-0.611,2.165-2.516,3.584-5.235,3.938C66.144,31.268,62.019,31.089,59.169,26.944z"/>
	<path fill-rule="evenodd" clip-rule="evenodd" fill="#FEE19A" d="M80.182,8.56C72.875,8.575,65.565,8.66,58.259,8.521
		c-0.96-0.018-2.276,1.375-3.06-0.369c0.161-0.162,0.322-0.324,0.484-0.486c7.854-0.034,15.709-0.069,23.563-0.104
		C79.56,7.895,79.872,8.228,80.182,8.56z"/>
	<path fill-rule="evenodd" clip-rule="evenodd" fill="#FECD52" d="M62.791,12.944c2.179-0.006,4.357,0.001,6.536-0.027
		c0.952-0.012,1.882,0.021,2.736,0.503c0.437,0.859,0.101,1.453-0.653,1.903c-2.14,0.968-4.396,0.274-6.59,0.458
		c-1.012,0.085-0.869-1.001-1.398-1.409C62.706,14.121,62.426,13.675,62.791,12.944z"/>
	<path fill-rule="evenodd" clip-rule="evenodd" fill="#966125" d="M62.791,12.944c0.21,0.476,0.42,0.952,0.631,1.429
		c-0.162,1.295,0.437,2.69-0.508,3.882c-1.334,1.175-2.394,0.404-3.438-0.483c-0.601-0.547-0.37-1.316-0.531-1.981
		c0.197-0.796,0.396-1.593,0.595-2.39C60.506,12.422,61.546,11.958,62.791,12.944z"/>
	<path fill-rule="evenodd" clip-rule="evenodd" fill="#966225" d="M71.41,15.324c0.218-0.634,0.436-1.269,0.653-1.902
		c1.072-1.056,2.144-1.194,3.215,0.001c0.208,0.475,0.418,0.949,0.627,1.424c-0.173,1.141,0.365,2.387-0.506,3.424
		c-1.315,0.947-2.506,0.888-3.541-0.438C71.215,17.085,71.619,16.149,71.41,15.324z"/>
	<path fill-rule="evenodd" clip-rule="evenodd" fill="#744A1E" d="M59.475,17.772c0.13-0.202,0.261-0.843,0.396-0.525
		c0.677,1.579,1.921,1.029,3.042,1.008C61.305,20.073,60.807,20.003,59.475,17.772z"/>
	<path fill-rule="evenodd" clip-rule="evenodd" fill="#6A401D" d="M71.858,17.833c1.095,0.839,2.361,0.285,3.541,0.438
		C73.733,20.271,73.177,20.202,71.858,17.833z"/>
</g>
<g>
	<path fill-rule="evenodd" clip-rule="evenodd" fill="#FBAC27" d="M39.909,20.375c0.586,10.619-9.141,20.236-20.075,19.924
		C8.607,39.978-0.031,31.555,0,20.302C0.031,9.216,8.907,0.394,20.028,0.417C31.196,0.441,40.316,9.644,39.909,20.375z"/>
	<g>
		<path fill-rule="evenodd" clip-rule="evenodd" fill="#FEC72A" d="M31.623,6.791c4.223,2.193,6.028,6.08,6.605,10.43
			c0.872,6.56-1.066,12.328-6.208,16.725c-6.762,5.782-17.214,6.276-24.164-0.144c-3.781-3.492-6.177-7.661-6.338-12.659
			C1.336,15.498,3.12,10.337,7.725,6.567c0.213-0.175,0.604-0.133,0.913-0.191C8.74,7.458,7.767,7.992,7.393,8.831
			c-0.483,0.667-0.964,1.334-1.359,2.059c-0.252,0.463-0.388,0.968-0.521,1.474c-0.173,0.541-0.201,1.101-0.198,1.659
			c0.013,2.289,0.542,2.621,2.78,1.94c1.529-0.465,3.138-1.553,4.583,0.218c0.27,0.38,0.464,0.814,0.806,1.141
			c1.203,1.146,1.975,0.999,2.562-0.538c0.246-0.645,0.26-1.398,1.02-1.736c2.229-0.164,4.581-1.125,6.458,0.985
			c0.759,0.842,1.032,2.444,2.762,1.762c0.136-0.149,0.272-0.295,0.398-0.451c0.613-0.561,0.346-1.68,1.285-2.031
			c0.989,0.259,1.991,0.474,2.977,0.739c3.553,0.957,4.068,0.543,3.684-3.08c-0.124-0.403-0.279-0.794-0.461-1.173
			c-0.101-0.184-0.187-0.374-0.271-0.564c-0.336-0.753-0.674-1.505-1.163-2.177c-0.415-0.599-1.031-1.043-1.33-1.73
			C31.362,7.1,31.435,6.922,31.623,6.791z"/>
		<path fill-rule="evenodd" clip-rule="evenodd" fill="#FEE097" d="M7.036,8.673C7.13,7.601,8.227,7.228,8.637,6.375
			c0.125-0.019,0.25-0.039,0.375-0.061c6.691-0.533,13.39-0.206,20.086-0.184c1.017,0.003,1.741,0.743,2.606,1.13
			c0.597,0.347,1.044,0.829,1.319,1.466c-0.24,1.343-1.38,1.192-2.25,1.204c-7.168,0.094-14.337,0.104-21.505-0.005
			C8.387,9.913,7.259,10.009,7.036,8.673z"/>
		<path fill-rule="evenodd" clip-rule="evenodd" fill="#FEE6AD" d="M31.705,7.26c-5.526-0.97-11.101-0.166-16.643-0.476
			c-2.016-0.112-4.106,0.59-6.049-0.471c0.99-1.269,2.321-1.988,3.851-2.386c4.785-0.413,9.568-0.335,14.348,0.085
			c1.801,0.4,3.002,1.754,4.41,2.777C31.626,6.952,31.653,7.108,31.705,7.26z"/>
		<path fill-rule="evenodd" clip-rule="evenodd" fill="#FEEDC4" d="M27.212,4.013c-4.787,0.589-9.571,0.77-14.349-0.085
			c4.462-1.916,8.929-2.445,13.422-0.083C26.551,3.985,26.901,3.961,27.212,4.013z"/>
		<path fill-rule="evenodd" clip-rule="evenodd" fill="#BB782A" d="M31.096,28.401c0.17,1.148-0.382,2.029-1.134,2.773
			c-7.934,7.862-18.304,4.728-22.773-3.72c-0.136-0.258-0.073-0.622-0.103-0.937c0.634-0.402,1.157-0.019,1.701,0.233
			c0.326,0.19,0.63,0.411,0.918,0.656c2.065,1.4,4.482,1.608,6.825,1.729c4.189,0.215,8.405,0.28,12.478-1.069
			c0.459-0.152,0.931-0.181,1.409-0.081C30.678,28.068,30.904,28.207,31.096,28.401z"/>
		<path fill-rule="evenodd" clip-rule="evenodd" fill="#FED97D" d="M7.036,8.673c0.452,0.602,1.111,0.533,1.745,0.533
			c7.573,0.001,15.146,0.001,22.72,0c0.557,0,1.129,0.04,1.522-0.48c0.77,0.622,0.993,1.566,1.417,2.394
			c-0.624,0.605-1.416,0.667-2.218,0.673c-8.097,0.067-16.194,0.073-24.291-0.011c-0.888-0.009-1.991,0.217-2.257-1.126
			C6.023,9.923,6.285,9.13,7.036,8.673z"/>
		<path fill-rule="evenodd" clip-rule="evenodd" fill="#431E0D" d="M8.553,27.068c-0.489-0.183-0.978-0.367-1.467-0.55
			c-0.161-0.534-0.361-1.061-0.475-1.604c-0.327-1.557,0.092-2.274,1.865-1.829c7.492,1.883,14.999,1.915,22.509,0.057
			c0.667-0.165,1.594-0.518,1.999,0.2c0.599,1.06,0.052,2.147-0.47,3.148c-0.516,0.416-0.946,0.135-1.375-0.164
			c-2.824-1.004-5.604,0.027-8.402,0.188c-1.349,0.232-2.695,0.231-4.041-0.005c-1.906-0.626-3.902-0.111-5.827-0.443
			C11.289,25.783,9.554,24.833,8.553,27.068z"/>
		<path fill-rule="evenodd" clip-rule="evenodd" fill="#FDD264" d="M5.674,10.656c0.626,0.73,1.478,0.461,2.241,0.463
			c8.842,0.014,17.684,0.004,26.526,0.001c0.037,0.146,0.057,0.294,0.06,0.444c-0.192,1.4-1.337,1.108-2.196,1.153
			c-1.898,0.1-3.809-0.093-5.635,0.717c-0.825,0.366-1.717,0.045-2.572-0.187c-2.661-0.722-5.325-0.819-7.978,0.056
			c-0.38,0.126-0.796,0.346-1.156,0.236c-3.158-0.961-6.405-0.66-9.626-0.734c-0.28-0.19-0.333-0.431-0.16-0.722
			C5.196,11.557,5.109,10.994,5.674,10.656z"/>
		<path fill-rule="evenodd" clip-rule="evenodd" fill="#FDCB4F" d="M34.942,12.567c0.729,1.429,0.937,2.929-0.187,4.17
			c-1.154,1.277-2.488,0.493-3.705-0.104c-1.013-0.497-2.495,0.281-3.151-1.166c-0.9-0.232-1.038-0.839-0.805-1.63
			c0.574-1.039,1.52-1.277,2.618-1.267C31.456,12.587,33.199,12.569,34.942,12.567z"/>
		<path fill-rule="evenodd" clip-rule="evenodd" fill="#FDD263" d="M34.942,12.567c-1.378,0.968-2.935,0.397-4.401,0.442
			c-1.244,0.038-2.361,0.199-3.325,1.019c-1.163,0.271-2.341,0.203-3.52,0.169c-2.438-0.771-4.867-0.775-7.284,0.1
			c-1.331-0.177-2.628,0.042-3.921,0.335c-1.496-0.937-3.164-0.894-4.842-0.953c-0.905-0.031-2.16,0.395-2.455-1.109
			c3.07-0.438,6.054-0.726,9.172,0.289c1.679,0.546,3.546-1.185,5.537-0.793c0.77,0.15,1.702-0.221,2.372,0.074
			c3.767,1.659,7.465-0.772,11.2-0.093c0.302,0.056,0.681-0.312,1.024-0.482C34.647,11.898,34.794,12.233,34.942,12.567z"/>
		<path fill-rule="evenodd" clip-rule="evenodd" fill="#FECB4E" d="M5.194,12.569c1.455,0.966,3.081,0.406,4.616,0.437
			c1.306,0.024,2.326,0.267,2.956,1.478c0.491,0.787,0.186,1.393-0.438,1.926c-1.112-1.188-2.311-0.409-3.477-0.14
			c-1.157,0.269-2.359,1.688-3.458,0.462c-1.19-1.328-0.99-3.054-0.216-4.647C5.183,12.246,5.188,12.407,5.194,12.569z"/>
		<path fill-rule="evenodd" clip-rule="evenodd" fill="#FDCD53" d="M16.184,14.027c1.917-1.486,6.26-1.399,7.797,0.156
			c0.398,1.024,0.141,1.913-0.562,2.709c-0.535-1.064-1.269-1.632-2.586-1.481c-1.329,0.152-2.688,0.039-4.033,0.041
			C16.194,15.15,15.968,14.684,16.184,14.027z"/>
		<path fill-rule="evenodd" clip-rule="evenodd" fill="#6F3D1A" d="M16.184,14.027c0.205,0.476,0.411,0.95,0.616,1.425
			c-0.03,0.396-0.053,0.791-0.093,1.185c-0.119,1.147-0.691,2.022-1.858,2.137c-1.628,0.16-2.081-1.143-2.52-2.364
			c0.146-0.642,0.292-1.284,0.438-1.926C13.757,13.222,14.901,13.108,16.184,14.027z"/>
		<path fill-rule="evenodd" clip-rule="evenodd" fill="#6C3B19" d="M23.418,16.892c-0.045-0.951,0.171-1.849,0.562-2.71
			c1.035-0.959,2.115-0.984,3.235-0.154c0.228,0.479,0.456,0.958,0.683,1.438c-0.155,0.905,0.002,1.949-1.087,2.437
			c-0.738-0.559-0.44-1.651-1.129-2.287c-0.332,1.146-0.332,1.146,1.153,2.265C25.371,19.314,25.026,19.214,23.418,16.892z"/>
		<path fill-rule="evenodd" clip-rule="evenodd" fill="#613E27" d="M31.582,26.007c0.204,0.367,0.547,0.465,0.932,0.482
			c0.15,1.1-0.878,1.324-1.418,1.911c-0.165-0.023-0.33-0.046-0.494-0.069c-0.321-0.305-0.65-0.604-0.647-1.101
			C30.219,26.455,30.531,25.739,31.582,26.007z"/>
		<path fill-rule="evenodd" clip-rule="evenodd" fill="#412518" d="M30.093,27.385c0.401,0.191,0.51,0.539,0.509,0.946
			c-5.728,1.832-11.565,2.013-17.447,1.021c-1.515-0.256-3.204-0.351-4.206-1.866c0.673-0.688,1.439-0.409,2.198-0.217
			c0.872,0.259,1.75,0.492,2.644,0.67c4.182,0.385,8.358,0.479,12.528-0.095C27.6,27.894,28.745,26.79,30.093,27.385z"/>
		<path fill-rule="evenodd" clip-rule="evenodd" fill="#C5C6C5" d="M10.97,27.842c-0.673-0.119-1.346-0.237-2.021-0.356
			c-0.132-0.14-0.264-0.279-0.396-0.418c-0.834-1.639-0.567-2.481,1.48-2.071c0.829,0.167,1.666,0.294,2.499,0.439
			c0.078,0.493-2.011-0.047-0.531,1.274C12.61,27.253,11.518,27.611,10.97,27.842z"/>
		<path fill-rule="evenodd" clip-rule="evenodd" fill="#F3F3F3" d="M26.76,28.362c-4.469,0.877-8.939,0.977-13.414,0.038
			c-0.264-0.766,1.199-0.99,0.538-2.027c-0.357-0.561,0.506-0.592,0.915-0.581c1.323,0.034,2.657-0.188,3.968,0.145
			c1.352,0,2.703,0.001,4.055,0.001c0.605-0.253,1.247-0.184,1.868-0.149c0.811,0.044,2.19-0.42,1.28,1.37
			C25.746,27.598,26.985,27.614,26.76,28.362z"/>
		<path fill-rule="evenodd" clip-rule="evenodd" fill="#D1D3D2" d="M26.76,28.362c-0.48-0.711-1.306-0.305-1.921-0.55
			c-0.3-0.928,0.916-0.929,0.952-1.651c-1.003-0.075-1.986-0.149-2.969-0.224c2.495-0.308,4.991-0.613,7.485-0.923
			c0.762-0.095,1.49-0.159,1.274,0.993c-0.497,0.459-0.993,0.919-1.49,1.378C28.972,27.676,28,28.477,26.76,28.362z"/>
		<path fill-rule="evenodd" clip-rule="evenodd" fill="#D9DADA" d="M18.768,25.936c-1.415,0-2.83,0-4.47,0
			c0.278,0.811,1.659,0.837,1.14,1.683c-0.417,0.678-1.589-0.051-2.091,0.781c-0.868,0.138-1.614-0.248-2.377-0.558
			c0.947-0.735,1.185-1.462-0.584-2.136c1.084-0.137,1.616-0.203,2.147-0.271C14.611,25.603,16.689,25.769,18.768,25.936z"/>
		<path fill-rule="evenodd" clip-rule="evenodd" fill="#955723" d="M15.747,16.123c-0.023,0.913-0.233,1.704-1.301,1.635
			c-0.899-0.059-1.1-0.788-1.091-1.563c0.009-0.87,0.228-1.662,1.295-1.596C15.557,14.655,15.723,15.398,15.747,16.123z"/>
		<path fill-rule="evenodd" clip-rule="evenodd" fill="#8F5422" d="M26.835,17.879c-1.09-0.063-2.367,0.164-2.439-1.521
			c-0.036-0.848,0.082-1.69,1.128-1.771c0.9-0.068,1.216,0.604,1.252,1.405c0.029,0.635,0.024,1.271,0.035,1.908L26.835,17.879z"/>
	</g>
</g>
<g>
	<path fill-rule="evenodd" clip-rule="evenodd" fill="#FBAB27" d="M135.363,20.476c-0.021,11.309-9.121,20.284-20.531,20.248
		c-11.148-0.035-20.285-9.167-20.302-20.294C94.514,9.275,103.816-0.012,114.995,0C126.261,0.012,135.384,9.184,135.363,20.476z"/>
	<path fill-rule="evenodd" clip-rule="evenodd" fill="#FEC62A" d="M126.719,7.154c2.617,1.07,4.165,3.245,5.136,5.672
		c4.722,11.808-1.731,23.468-14.225,25.924c-8.891,1.747-18.96-5.449-20.668-14.715c-1.094-5.934,0.182-11.181,4.308-15.654
		c0.532-0.576,1.039-1.25,1.966-1.209c0.26,0.708-0.307,1.088-0.617,1.571c-0.23,0.312-0.43,0.643-0.612,0.984
		c-0.28,0.519-0.582,1.023-0.897,1.521c-0.208,0.353-0.376,0.723-0.508,1.112c-0.17,0.524-0.31,1.057-0.399,1.595
		c-0.388,2.332,0.46,3.058,2.709,2.4c1.24-0.362,2.443-1.122,3.82-0.506c0.357,0.486,0.394,1.057,0.433,1.627
		c0.023,1.056,0.282,1.963,1.572,1.955c1.132-0.008,1.468-0.787,1.484-1.783c0.081-0.882-0.069-1.832,0.751-2.489
		c2.634-0.052,5.278-0.372,7.878,0.332c0.735,0.507,0.744,1.3,0.815,2.067c0.012,0.838,0.164,1.619,1.129,1.854
		c1.038,0.252,1.646-0.335,2.072-1.191c0.086-0.199,0.186-0.391,0.284-0.583c0.65-1.513,1.829-1.517,3.185-1.167
		c3.153,0.817,3.692,0.354,3.384-2.828c-0.189-0.812-0.448-1.601-0.835-2.342c-0.18-0.358-0.36-0.716-0.579-1.053
		c-0.333-0.495-0.633-1.012-1.009-1.479C126.995,8.271,126.36,7.888,126.719,7.154z"/>
	<path fill-rule="evenodd" clip-rule="evenodd" fill="#FEE19B" d="M126.719,7.154c0.322,0.479,0.644,0.959,0.965,1.439
		c-0.161,1.279-1.222,1.117-2.014,1.125c-7.15,0.074-14.3,0.078-21.45,0c-0.794-0.008-1.853,0.146-2.008-1.133
		c0.341-0.471,0.682-0.942,1.022-1.413c0.461-0.33,0.923-0.661,1.384-0.991c6.874-0.365,13.748-0.471,20.618,0.081
		C125.731,6.56,126.225,6.857,126.719,7.154z"/>
	<path fill-rule="evenodd" clip-rule="evenodd" fill="#FEE7B0" d="M125.237,6.262c-0.343,0.416-0.819,0.422-1.299,0.422
		c-5.94,0-11.88,0-17.819,0c-0.556,0-1.121,0.024-1.5-0.504c0.859-1.096,2.069-1.579,3.359-1.923
		c4.646-0.258,9.292-0.281,13.937,0.021C123.268,4.527,124.374,5.192,125.237,6.262z"/>
	<path fill-rule="evenodd" clip-rule="evenodd" fill="#FEECC2" d="M121.915,4.279c-3.571,0.859-7.206,0.486-10.802,0.372
		c-0.994-0.031-2.239,0.738-3.135-0.392C112.626,2.192,117.272,2.023,121.915,4.279z"/>
	<path fill-rule="evenodd" clip-rule="evenodd" fill="#FED36A" d="M100.304,11.958c0.024-0.394,0.117-0.751,0.505-0.951
		c0.896-0.636,1.921-0.68,2.968-0.68c7.475,0,14.949-0.002,22.424,0.003c1.036,0.001,2.08-0.027,2.961,0.667
		c0.699,0.653,0.926,1.485,0.91,2.409c-2.154,1.347-4.611,0.343-6.867,0.893c-1.324-0.197-2.652-0.22-3.986-0.07
		c-3.026-0.247-6.06-0.029-9.088-0.152c-1.119-0.083-2.217,0.139-3.325,0.236c-1.639-0.182-3.292-0.127-4.93-0.276
		C100.654,13.924,99.668,13.527,100.304,11.958z"/>
	<path fill-rule="evenodd" clip-rule="evenodd" fill="#FDCB4D" d="M122.719,13.948c2.386-1.061,4.905-0.323,7.354-0.543
		c0.91,1.302,0.599,2.608-0.269,3.692c-0.936,1.169-2.158,0.624-3.231,0.076c-1.427-0.729-2.514-0.474-3.286,0.957
		c-0.475-0.472-0.508-1.094-0.582-1.703C122.682,15.602,122.168,14.771,122.719,13.948z"/>
	<path fill-rule="evenodd" clip-rule="evenodd" fill="#FEDB83" d="M129.163,10.996c-9.451,0.003-18.902,0.007-28.354,0.011
		c0.3-0.5,0.601-1.001,0.901-1.501c7.971,0.157,15.942,0.015,23.913,0.066c1.024,0.006,2.087-0.164,3.018,0.47
		C128.815,10.36,128.989,10.678,129.163,10.996z"/>
	<path fill-rule="evenodd" clip-rule="evenodd" fill="#FEDB83" d="M128.641,10.042c-8.083,0.001-16.166,0.014-24.249-0.013
		c-0.905-0.002-1.93,0.365-2.682-0.523c0.042-0.375,0.114-0.734,0.502-0.92c0.459,0.604,1.126,0.496,1.752,0.497
		c7.321,0.004,14.643,0.004,21.964,0c0.625,0,1.292,0.114,1.756-0.487C128.003,9.077,128.322,9.559,128.641,10.042z"/>
	<path fill-rule="evenodd" clip-rule="evenodd" fill="#FDCA4C" d="M100.304,11.958c-0.104,1.378,0.774,1.436,1.822,1.466
		c1.704,0.049,3.471-0.386,5.085,0.54c0.275,0.844,0.018,1.464-0.78,1.857c-1.497,0.52-2.984,1.07-4.493,1.549
		c-1.35,0.428-2.74-0.883-2.527-2.512C99.54,13.872,99.608,12.799,100.304,11.958z"/>
	<path fill-rule="evenodd" clip-rule="evenodd" fill="#FDCC52" d="M109.794,13.468c2.628-0.021,5.256-0.05,7.884-0.061
		c0.703-0.003,1.465-0.122,1.911,0.653c0.205,0.274,0.22,0.578,0.135,0.897c-0.173,0.39-0.342,0.785-0.838,0.86
		c-2.629-0.267-5.321,0.498-7.908-0.474C110.005,15.084,109.702,14.401,109.794,13.468z"/>
	<path fill-rule="evenodd" clip-rule="evenodd" fill="#503012" d="M124.796,25.415c0.063,0.128,0.106,0.263,0.128,0.404
		c-0.156,0.465-0.459,0.792-0.915,0.976c-6.03,0.396-12.062,0.383-18.096,0.012c-0.459-0.182-0.766-0.506-0.916-0.978
		c0.02-0.139,0.059-0.273,0.115-0.401c2.667-0.582,5.37-0.24,8.05-0.225C117.04,25.226,120.928,24.869,124.796,25.415z"/>
	<path fill-rule="evenodd" clip-rule="evenodd" fill="#663B1C" d="M109.794,13.468c0.395,0.625,0.789,1.25,1.184,1.876
		c-0.044,0.908-0.088,1.815-0.133,2.723c-0.48,0.909-1.001,1.83-2.2,1.786c-1.344-0.048-1.654-1.197-2.094-2.174
		c-0.04-0.62-0.08-1.24-0.12-1.859c0.26-0.619,0.52-1.239,0.779-1.858C107.973,13.285,108.832,13.104,109.794,13.468z"/>
	<path fill-rule="evenodd" clip-rule="evenodd" fill="#411D15" d="M104.998,25.83c0.214,0.19,0.428,0.381,0.642,0.571
		c6.214,0.345,12.429,0.358,18.643-0.01c0.214-0.19,0.428-0.381,0.642-0.572c0.603,0.543,0.46,1.054-0.066,1.549
		c-0.34,0.211-0.698,0.386-1.106,0.391c-5.863,0.07-11.727,0.073-17.589-0.001c-0.409-0.005-0.765-0.184-1.101-0.403
		C104.573,26.866,104.404,26.364,104.998,25.83z"/>
	<path fill-rule="evenodd" clip-rule="evenodd" fill="#8C7313" d="M105.062,27.355c6.599,0.004,13.197,0.008,19.796,0.013
		c-0.021,0.135-0.042,0.27-0.063,0.404c-4.026,0.605-8.077,0.19-12.114,0.23c-2.518,0.025-5.064,0.37-7.567-0.25
		C105.098,27.619,105.08,27.487,105.062,27.355z"/>
	<path fill-rule="evenodd" clip-rule="evenodd" fill="#F0E524" d="M105.113,27.751c6.561,0.007,13.121,0.014,19.681,0.021
		c-0.37,0.55-0.942,0.511-1.498,0.511c-5.566,0.001-11.133,0.001-16.699,0C106.042,28.283,105.469,28.318,105.113,27.751z"/>
	<path fill-rule="evenodd" clip-rule="evenodd" fill="#E9D923" d="M124.796,25.415c-6.561,0.004-13.122,0.009-19.683,0.013
		c0.377-0.536,0.945-0.505,1.501-0.505c5.558,0,11.115,0,16.673,0C123.842,24.923,124.412,24.886,124.796,25.415z"/>
	<path fill-rule="evenodd" clip-rule="evenodd" fill="#6A3C1D" d="M118.886,15.818c0.191-0.358,0.381-0.716,0.572-1.075
		c0.451,0.208,0.667,0.607,0.854,1.033c0.347,0.739,0.116,1.699,0.868,2.312c0.784-0.565,0.504-1.606,1.062-2.248
		c0.568-0.368,0.818,0.05,1.079,0.438c-0.011,0.617-0.023,1.234-0.035,1.852l0.021,0.018c-1.825,2.433-2.59,2.409-4.225-0.132
		C119.018,17.283,118.952,16.551,118.886,15.818z"/>
	<path fill-rule="evenodd" clip-rule="evenodd" fill="#DDD34F" d="M106.551,17.68c1.784,2.578,2.252,2.62,4.294,0.388
		c-0.09,1.459-0.933,2.129-2.323,2.027C107.083,19.99,106.508,19.057,106.551,17.68z"/>
	<path fill-rule="evenodd" clip-rule="evenodd" fill="#DBD14F" d="M119.083,18.015c1.97,2.209,2.144,2.214,4.225,0.132
		c-0.09,1.359-0.892,1.988-2.177,1.955C119.831,20.07,119.098,19.366,119.083,18.015z"/>
	<path fill-rule="evenodd" clip-rule="evenodd" fill="#593518" d="M119.977,15.797c-0.417-0.231-0.452-0.65-0.518-1.054
		c0.043-0.227,0.087-0.455,0.131-0.683c1.011-0.941,2.052-1.046,3.13-0.112c0.146,0.791,0.741,1.465,0.602,2.33
		c-0.301-0.162-0.603-0.323-0.904-0.484C121.603,15.178,120.789,15.165,119.977,15.797z"/>
	<path fill-rule="evenodd" clip-rule="evenodd" fill="#6D461A" d="M124.282,26.391c-0.399,0.533-0.985,0.446-1.534,0.447
		c-5.191,0.005-10.383,0.006-15.574,0c-0.548,0-1.136,0.097-1.535-0.438C111.854,26.397,118.068,26.395,124.282,26.391z"/>
	<path fill-rule="evenodd" clip-rule="evenodd" fill="#8E5322" d="M107.502,16.738c0.039-1.135-0.02-2.237,1.175-2.242
		c1.372-0.005,1.214,1.208,1.245,2.148c0.033,0.999-0.111,2.223-1.274,2.151C107.545,18.728,107.451,17.492,107.502,16.738z"/>
	<path fill-rule="evenodd" clip-rule="evenodd" fill="#8F5322" d="M119.977,15.797c0.083-0.681,0.339-1.277,1.099-1.342
		c0.913-0.079,1.213,0.572,1.341,1.339c-0.004,0.234-0.012,0.469-0.013,0.705c-0.001,1.034,0,2.349-1.314,2.285
		c-1.073-0.052-1.144-1.302-1.102-2.282C119.998,16.267,119.981,16.032,119.977,15.797z"/>
</g>
<g>
	<path fill-rule="evenodd" clip-rule="evenodd" fill="#FBAC27" d="M182.378,20.374c0.586,10.62-9.141,20.237-20.075,19.925
		c-11.227-0.32-19.864-8.744-19.833-19.997c0.031-11.086,8.907-19.908,20.028-19.884C173.666,0.441,182.786,9.644,182.378,20.374z"
		/>
	<path fill-rule="evenodd" clip-rule="evenodd" fill="#FEC62A" d="M173.677,7.115c3.729,1.628,5.246,5.019,6.219,8.524
		c2.796,10.069-3.158,20.251-13.593,22.399c-12.327,2.537-21.778-6.798-21.867-17.118c-0.007-0.816,0.083-1.589,0.493-2.305
		c1.051,0.123,1.896-0.163,2.795-0.828c1.805-1.335,3.878-2.117,6.201-1.971c0.714,0.233,1.37,0.027,2.016-0.274
		c4.267-1.127,8.482-0.179,12.706,0.295c3.296,0.334,6.609,0.522,9.53,2.476c0.418,0.28,0.019-0.451-0.055-0.714
		c-0.225-0.256-0.408-0.532-0.557-0.834c-0.574-1.147-0.523-2.435-0.822-3.642c-0.212-0.818-0.437-1.632-0.921-2.345
		c-0.53-0.893-1.143-1.724-1.857-2.481C173.717,7.939,173.476,7.58,173.677,7.115z"/>
	<path fill-rule="evenodd" clip-rule="evenodd" fill="#FEE3A0" d="M173.677,7.115c0.187,0.305,0.374,0.61,0.561,0.916
		c-0.149,1.263-1.222,1.187-2.011,1.198c-7.269,0.097-14.537,0.152-21.806,0.019c-0.505-0.329-0.512-0.72-0.143-1.157
		c0.496-0.642,1.086-1.161,1.867-1.43c1.577-0.653,3.22-0.791,4.914-0.769c3.59,0.047,7.182,0.049,10.772-0.001
		c1.692-0.023,3.328,0.117,4.883,0.827C173.036,6.85,173.356,6.982,173.677,7.115z"/>
	<path fill-rule="evenodd" clip-rule="evenodd" fill="#FEE8B2" d="M172.714,6.717c-6.856-0.02-13.712-0.039-20.569-0.058
		c1.203-1.228,2.61-2.085,4.319-2.401c2.395,0.038,4.752-0.444,7.15-0.537c1.701-0.066,3.131,1.138,4.792,0.565
		C170.157,4.54,171.523,5.475,172.714,6.717z"/>
	<path fill-rule="evenodd" clip-rule="evenodd" fill="#FBC433" d="M150.278,8.089c-0.062,0.309-0.123,0.617-0.185,0.926
		c-0.074,0.914-0.819,1.508-1.097,2.325c-0.836,1.518-0.408,3.334-1.15,4.874c-0.235,0.552-0.601,0.993-1.115,1.306
		c-0.422,0.211-0.845,0.422-1.325,0.165c-1.196-2.804,0.737-4.804,1.946-6.886C147.992,9.701,149.012,8.678,150.278,8.089z"/>
	<path fill-rule="evenodd" clip-rule="evenodd" fill="#FEEECA" d="M168.407,4.286c-1.553,1.256-3.262,0.046-4.796,0.002
		c-2.379-0.069-4.797,1.041-7.146-0.03C160.449,2.729,164.43,2.702,168.407,4.286z"/>
	<path fill-rule="evenodd" clip-rule="evenodd" fill="#E6CF54" d="M145.407,17.686c0.386-0.161,0.772-0.321,1.159-0.481
		c1.588,0.084,2.468-1.509,3.925-1.679c1.239-0.145,2.727-1.222,3.528,0.755c-2.465,0.178-4.825,0.689-6.628,2.534
		c-0.979,1.002-1.721,0.852-2.462-0.2C145.088,18.305,145.248,17.995,145.407,17.686z"/>
	<path fill-rule="evenodd" clip-rule="evenodd" fill="#FED46D" d="M147.327,16.343c0.823-1.708-0.143-3.892,1.438-5.396
		c0.823-0.573,1.765-0.715,2.733-0.722c7.655-0.052,15.31-0.022,22.965-0.02c0.566,0,1.096,0.198,1.648,0.27
		c0.755,0.619,0.976,1.459,0.985,2.386c-0.229,1.442-1.556,1.457-2.521,1.944c-1.387,0.11-2.764,0.464-4.166,0.167
		c-0.771-0.802-1.731-0.99-2.812-0.979c-3.404,0.031-6.81,0.042-10.214-0.006c-1.101-0.016-2.016,0.243-2.757,1.065
		C152.056,14.695,149.642,15.237,147.327,16.343z"/>
	<path fill-rule="evenodd" clip-rule="evenodd" fill="#FEDD89" d="M176.112,10.475c-0.631,0.729-1.486,0.458-2.252,0.459
		c-8.365,0.018-16.729,0.012-25.095,0.012c0.089-0.888,0.631-1.464,1.33-1.932c2.969-0.842,6.007-0.401,9.015-0.45
		c4.22-0.069,8.442-0.002,12.664-0.031c0.837-0.005,1.776,0.308,2.464-0.503C175.189,8.595,175.686,9.508,176.112,10.475z"/>
	<path fill-rule="evenodd" clip-rule="evenodd" fill="#FDCC52" d="M154.478,14.836c0.108-0.645-0.566-1.574,0.992-1.534
		c4.625,0.122,9.257,0.072,13.885,0.025c1.358-0.014,1.468,0.572,1.035,1.608c0.094,0.542-0.267,0.833-0.622,1.126
		c-0.292,0.193-0.605,0.36-0.849,0.622c-4.436-0.761-8.87-1.567-13.367-0.433C154.83,16.056,154.337,15.687,154.478,14.836z"/>
	<path fill-rule="evenodd" clip-rule="evenodd" fill="#3E2313" d="M154.478,14.836c0.358,0.471,0.716,0.942,1.075,1.414
		c-0.498,0.739-1.013,0.528-1.535,0.03c-1.479-1.245-2.921-0.542-4.359,0.093c-1.366,0.604-2.348,1.761-3.54,2.706
		c-0.456-0.912,0.353-1.286,0.445-1.874c0.254-0.288,0.508-0.576,0.762-0.862C149.365,14.201,151.753,13.722,154.478,14.836z"/>
	<path fill-rule="evenodd" clip-rule="evenodd" fill="#3E2312" d="M169.391,15.76c0.333-0.275,0.666-0.55,0.999-0.825
		c1.322-0.747,2.753-0.711,4.198-0.58c1.683,0.055,2.727,1.015,3.448,2.432c0.082,0.137,0.164,0.273,0.247,0.409
		c0.578,0.442,1.263,1.077,0.743,1.709c-0.549,0.668-1.041-0.225-1.487-0.565c-1.938-1.48-4.028-2.399-6.551-2.044
		C170.432,16.376,169.542,17.043,169.391,15.76z"/>
	<path fill-rule="evenodd" clip-rule="evenodd" fill="#814F20" d="M157.846,23.411c-1.174,1.81-2.622,1.92-3.961,0.346
		c-0.676-0.794-1.375-0.875-2.224-0.909c0.728-1.894,2.336-1.814,3.951-1.809C157.232,21.044,157.451,22.293,157.846,23.411z"/>
	<path fill-rule="evenodd" clip-rule="evenodd" fill="#643C19" d="M168.936,22.884c-0.59,0.115-1.181,0.23-1.952,0.38
		c1.41-2.073,5.329-3.337,7.168-2.461c0.739,0.353,1.343,0.887,1.456,1.75c0.135,1.029-0.369,1.649-1.377,1.866
		c-1.379-2.059-1.379-2.058-4.628-1.721C169.367,22.722,169.136,22.742,168.936,22.884z"/>
	<path fill-rule="evenodd" clip-rule="evenodd" fill="#824E20" d="M168.936,22.884c0.52-0.659,1.423-0.423,2.073-0.97
		c0.887-0.746,2.093-0.616,3.093-0.1c1.419,0.73-0.403,1.751,0.129,2.604c-1.067,0.859-2.043,0.369-2.644-0.486
		C170.868,22.913,169.97,22.845,168.936,22.884z"/>
	<path fill-rule="evenodd" clip-rule="evenodd" fill="#EECF53" d="M169.391,15.76c0.075,0.338,0.297,0.677,0.623,0.528
		c3.565-1.631,6.066,0.177,8.418,2.536c0.078,0.078,0.261,0.051,0.418,0.077c0.328-0.749-0.423-1.127-0.566-1.703
		c1.066,0.279,1.566,1.118,1.002,1.943c-0.689,1.009-1.31-0.047-1.907-0.465c-2.553-1.784-5.455-2.11-8.459-1.992
		C168.931,16.301,169,15.948,169.391,15.76z"/>
	<path fill-rule="evenodd" clip-rule="evenodd" fill="#EBDF2A" d="M156.935,33.985c-0.472-0.318-0.509-0.742-0.34-1.247
		c0.665-1.99,3.499-3.993,5.729-4.034c2.341-0.043,5.264,1.942,5.965,4.038c0.168,0.503,0.134,0.929-0.316,1.263
		c-0.097-0.057-0.192-0.114-0.291-0.169c-3.754-5.217-6.722-5.225-10.458-0.024C157.128,33.871,157.032,33.928,156.935,33.985z"/>
	<path fill-rule="evenodd" clip-rule="evenodd" fill="#F1DC2A" d="M167.973,34.006c-0.103,0.5-0.291,1.073-0.902,0.646
		c-2.81-1.967-5.721-1.396-8.654-0.435c-0.562,0.184-1.068,0.37-1.482-0.232l0.108-0.129c0.695-0.728,1.562-1.149,2.515-1.421
		c2.098-0.595,4.198-0.801,6.303-0.034c0.86,0.268,1.423,0.936,2.043,1.526L167.973,34.006z"/>
	<path fill-rule="evenodd" clip-rule="evenodd" fill="#613919" d="M157.846,23.411c-1.344-2.227-2.447-2.856-6.186-0.562
		c-1.531-0.119-1.531-0.119-1.139-0.746c0.947-1.511,5.438-2.06,6.751-0.821C157.897,21.871,158.168,22.563,157.846,23.411z"/>
	<path fill-rule="evenodd" clip-rule="evenodd" fill="#F4CB54" d="M178.037,16.788c-1.149-0.811-2.299-1.622-3.448-2.432
		c0.836-0.498,1.672-0.996,2.509-1.495C177.878,14.058,177.487,15.536,178.037,16.788z"/>
	<path fill-rule="evenodd" clip-rule="evenodd" fill="#583518" d="M159.313,32.993c-0.757,0.288-1.514,0.576-2.27,0.863
		c0.715-2.572,3.058-4.499,5.437-4.472c2.443,0.028,4.645,1.872,5.424,4.542c-0.829,0.128-1.282-0.531-1.874-0.897
		C163.707,29.907,160.687,29.89,159.313,32.993z"/>
	<path fill-rule="evenodd" clip-rule="evenodd" fill="#835020" d="M159.313,32.993c-0.2-0.238-0.623-0.583-0.567-0.697
		c0.827-1.709,2.318-2.36,4.097-2.107c1.602,0.227,3.363,0.513,3.188,2.841C163.794,32.246,161.554,32.498,159.313,32.993z"/>
</g>
</svg>
