<?xml version="1.0" encoding="utf-8"?>
<!-- Generator: Adobe Illustrator 16.0.0, SVG Export Plug-In . SVG Version: 6.00 Build 0)  -->
<!DOCTYPE svg PUBLIC "-//W3C//DTD SVG 1.1//EN" "http://www.w3.org/Graphics/SVG/1.1/DTD/svg11.dtd">
<svg version="1.1" id="Layer_1" xmlns="http://www.w3.org/2000/svg" xmlns:xlink="http://www.w3.org/1999/xlink" x="0px" y="0px"
	 width="77px" height="130px" viewBox="0 0 77 130" enable-background="new 0 0 77 130" xml:space="preserve">
<g>
	<g>
		<defs>
			<rect id="SVGID_1_" width="77" height="130"/>
		</defs>
		<clipPath id="SVGID_2_">
			<use xlink:href="#SVGID_1_"  overflow="visible"/>
		</clipPath>
		<path clip-path="url(#SVGID_2_)" d="M33.898,3.602c-1.796,2-6.398,5.296-10.097,7.5C16.5,15.398,13.699,18.5,9.5,27
			c-1.5,3-4.199,6.898-6.102,8.699C0.301,38.602,0,39.398,0,44.301C0,50.898,2.398,54.5,7.301,55.398
			c1.801,0.301,4.699,2,6.301,3.704C15.199,60.801,18,63,19.801,64.199l3.199,2L19.398,70.5c-7.097,8.699-9,18.603-5.597,29.398
			C16,106.898,18,108.301,21.5,105c1.301-1.301,2.699-2.199,2.898-1.897c0.204,0.198,0.602,2.796,0.801,5.796
			c0.301,5.402,0.301,5.5-3.801,8.301c-6.796,4.602-6.796,10.903,0.102,12.199c4.398,0.902,9.602,0,15.699-2.5
			c4.602-1.898,4.903-1.898,7.5-0.199C46.801,128.103,49.5,128.5,57,128.5h9.5l0.301-3.102c0.301-3.296-1.199-5-7.699-8.598
			c-2.902-1.602-3.102-2-3.102-7.5c0-3.198,0.5-6.5,1-7.301c0.801-1.301,1-1.301,1,0.103c0,0.897,0.898,2.397,2.102,3.5
			c2,1.796,2.098,1.796,3.598-0.103c1.102-1.602,1.402-4.199,1.102-12c-0.5-11.602-2.699-17.699-8.5-23.699
			c-2-2.102-3.5-3.902-3.199-4.102c9.098-6.898,13.797-9.898,16.098-10.398c1.602-0.301,4-1.903,5.402-3.602
			c2.098-2.5,2.398-3.801,2.199-8.5C76.602,39.5,76,37.5,75,37c-4.898-2.199-5.5-3-7.102-8.301c-2.5-8.5-5.297-12.097-13.699-18
			c-4.199-3-8.801-6.597-10.098-8.097C40.801-0.898,38-0.699,33.898,3.602L33.898,3.602z M42.199,2.699c1,0.903,1.801,2.199,1.801,3
			C44,6.398,45,7.5,46.301,8C52.602,10.801,61.699,18.398,64,22.898c1,2.102,2.301,6.204,3,9.204C67.602,35,68.199,38.199,68.398,39
			c0.203,0.801,0.703,2.301,1.102,3.301c0.398,1.097,0.301,2.301-0.398,3c-1.5,1.5-1.402,2.699,0.297,2.699
			c2,0,2.902-1.602,3.102-6.102c0.199-2.796-0.199-3.898-1.398-4.199c-1.102-0.301-0.902-0.5,0.598-0.597
			c2.801-0.102,3.602,1.296,3.602,6.5c0,5.898-2.602,9.796-6.199,9.097c-2.301-0.5-3.5,0.102-6.203,2.903
			c-6.398,6.699-11.797,9.597-19.797,10.597c-12.801,1.699-24.204-2.301-29.301-10.301c-2.102-3.398-2.602-3.597-6-3.097
			c-3.602,0.398-3.903,0.301-5.403-3.301C0,43.602,2.102,34.699,5.301,37.898C6.102,38.699,5.898,39,4.699,39
			C3.801,39,3,39.398,3,40c0,0.5,0.699,1,1.5,1c1.801,0,1.898,0.398,0.301,3.102c-1.102,1.796-1,2.296,1.097,4
			C7.699,49.5,8.602,49.801,9.398,49c0.801-0.801,0.602-1.5-0.597-2.398c-3.403-2.5,0-17.403,6-25.602
			c2.301-3.301,8.398-8.398,10.097-8.5C28.602,12.102,35,7.801,35,5.699C35,4.301,38.102,1,39.301,1
			C39.898,1,41.199,1.699,42.199,2.699L42.199,2.699z M30.602,69c2,0.801,5.5,0.699,12.296-0.102l9.5-1.199l3.301,3.801
			c4.5,5.199,7,11,7.602,17.301c0.398,4.898,0.301,5.302-1.699,5C60.398,93.603,59.5,93,59.398,92.5C59.199,87.699,55.699,79,54,79
			c-0.5,0-0.801,3.898-0.699,8.699L53.5,96.5L46,97.603c-7.5,1.097-14.301,1.097-17.898-0.103
			c-2.204-0.699-3.301-5.199-3.102-12.897c0.199-7.204,0.102-7.802-1.102-7c-1.699,1-4.097,7.397-4.796,12.897
			c-0.5,4.103-0.903,5-2.602,5s-2-0.801-2.301-5.897c-0.301-6.603,2.602-14.204,7.403-19C24.5,67.801,26.398,67.398,30.602,69
			L30.602,69z M23.5,90.301c0.102,2.802,0.5,6.699,0.898,8.398c1,4-0.597,4.5-2.199,0.801c-1.898-4.102-1.301-17,0.602-15
			C23.102,84.801,23.398,87.398,23.5,90.301L23.5,90.301z M56.699,96.199C56.5,98,56.301,96.603,56.301,93
			c0-3.602,0.199-5,0.398-3.301C56.898,91.5,56.898,94.5,56.699,96.199L56.699,96.199z M63.801,99.301c0.398,3-1.402,6.098-3,5.098
			c-0.602-0.398-0.602-1,0.098-1.699c1.5-1.5,1.402-2.699-0.297-2.699c-2.102,0-3.102-2.102-1.5-3.102
			C61.5,95.398,63.5,96.398,63.801,99.301L63.801,99.301z M21,101.898c0,1.204-0.301,1.204-1.199,0.301
			c-1.699-1.699-3.301-1.5-1.801,0.301c1.398,1.699,0.801,3.103-0.898,2c-1.5-0.897-1.403-6.199,0.199-6.801
			C18.699,97.199,21,99.699,21,101.898L21,101.898z M54.102,101c0,1.603,0,5,0,7.5c0,6.199,0.098,6.199-1.301,6.199
			c-0.699,0-2.402,0.403-3.801,0.699c-2.301,0.602-2.602,0.402-2.801-2.5C45.898,108.5,45.398,108,41.398,108
			c-3.398,0-3.796,0.5-3.5,4.603c0.204,2-0.296,2.198-4.699,2.097l-5-0.097l-1-7c-0.5-3.903-0.801-7.204-0.699-7.403
			c0.199-0.199,2.5,0.102,5.301,0.602c5.301,0.898,18-0.198,19.699-1.902C53.102,97.301,54,97.898,54.102,101L54.102,101z
			 M44,114.398c0,4.5-1.102,9.602-2,9.602c-0.699,0-1.398-2.397-2.699-9.801C38.801,111.301,39,111,41.398,111
			C43.699,111,44,111.398,44,114.398L44,114.398z M54.699,117.801c1.402-1.102,1.5-1,0.902,0.898c-0.602,2-0.402,2.102,3.199,1.602
			c3.301-0.402,4.199-0.198,5.598,1.802c2.402,3.5,2,4.597-1.898,5.198c-3.898,0.598-15.5-0.902-16.898-2.301
			c-1.703-1.699,0.398-6,3.699-7.301c2.699-1.199,3.301-1.199,3.5,0C53.102,118.898,53.398,118.898,54.699,117.801L54.699,117.801z
			 M37.801,118.199C38.5,118.898,39,120.603,39,122.103c0,2.296-0.699,2.897-4.699,4.296c-5.801,2-13.602,2.102-15.199,0.204
			c-1.602-1.903-0.301-6.403,2.199-7.704c1.097-0.598,3.398-0.898,5.199-0.598c1.699,0.302,3.801,0.098,4.602-0.402
			C33.102,116.699,36.398,116.801,37.801,118.199L37.801,118.199z M37.801,118.199"/>
	</g>
	<path d="M46.898,12.398c1.602,1.903,4.402,2.102,3.902,0.301c-0.301-0.597-1.5-1.398-2.801-1.5
		C45.898,10.898,45.801,11,46.898,12.398L46.898,12.398z M46.898,12.398"/>
	<path d="M22.801,22.102c-3.199,1.796-1.903,2.5,4.699,2.5c4.199-0.102,6.5-0.5,6.5-1.204C34,21,26.102,20.102,22.801,22.102
		L22.801,22.102z M22.801,22.102"/>
	<path d="M45.5,21.898c-1.199,0.5-2.602,1.602-3.301,2.403c-1.898,2.199,0.301,3.199,3,1.301c1.199-0.903,3.5-1.602,5.102-1.602
		c1.801,0,2.699-0.398,2.5-1.301C52.301,21.199,48.199,20.801,45.5,21.898L45.5,21.898z M45.5,21.898"/>
	<path d="M34.199,29c-2.5,2.398-2.898,5.5-0.699,6.398c1.102,0.403,1.5-0.097,1.5-1.796C35,32,35.699,31,37.102,30.699
		c1.199-0.301,1.897-1.097,1.699-1.801C38.102,26.801,36.5,26.898,34.199,29L34.199,29z M34.199,29"/>
	<path d="M50.5,28.699c-3,0.801-4.102,2.102-2.699,3.5c0.898,0.903,1.598,0.699,3.098-0.597c1.902-1.704,3.102-1.801,8.102-0.5
		c0.801,0.199,1.5-0.301,1.5-1.102C60.5,28.398,54.602,27.699,50.5,28.699L50.5,28.699z M50.5,28.699"/>
	<path d="M14.898,31L12.5,32.898l5.5-0.097c3,0,6.699,0.301,8.301,0.699c3.699,1,3.597-1-0.301-3C22,28.398,17.699,28.602,14.898,31
		L14.898,31z M14.898,31"/>
	<path d="M54.398,45.102c-7.297,8.097-25.098,8.699-31,1c-1.296-1.704-3.5-0.602-2.796,1.398C21.5,49.801,31.102,54,36,54.102
		c6.199,0.199,10.699-0.801,15.699-3.704c4.301-2.5,7-5.796,5.402-6.796C56.699,43.301,55.398,44,54.398,45.102L54.398,45.102z
		 M54.398,45.102"/>
</g>
</svg>
