<?xml version="1.0" encoding="utf-8"?>
<!-- Generator: Adobe Illustrator 16.0.0, SVG Export Plug-In . SVG Version: 6.00 Build 0)  -->
<!DOCTYPE svg PUBLIC "-//W3C//DTD SVG 1.1//EN" "http://www.w3.org/Graphics/SVG/1.1/DTD/svg11.dtd">
<svg version="1.1" id="Layer_1" xmlns="http://www.w3.org/2000/svg" xmlns:xlink="http://www.w3.org/1999/xlink" x="0px" y="0px"
	 width="81.087px" height="122px" viewBox="0 0 81.087 122" enable-background="new 0 0 81.087 122" xml:space="preserve">
<g>
	<g>
		<defs>
			<rect id="SVGID_1_" x="0.087" width="81" height="122"/>
		</defs>
		<clipPath id="SVGID_2_">
			<use xlink:href="#SVGID_1_"  overflow="visible"/>
		</clipPath>
		<path clip-path="url(#SVGID_2_)" d="M37.087,1.5c-0.699,0.801-1.801,1.398-2.398,1.301c-1.5-0.301-10,5-14.903,9.199
			c-5.097,4.5-8.199,9.301-10.199,16.5c-1.398,4.5-2.398,6.102-5,7.602c-4.898,2.898-6.102,9.796-2.5,15.597
			c2.301,3.801,5.398,5.602,8,4.801c1.5-0.5,3.301,0.602,7.102,4.199l5.097,4.903l-3,6c-1.597,3.198-4,9.198-5.199,13.296
			c-1.199,4.102-2.898,8.5-3.699,9.801c-1.403,2.102-1.403,2.602,0.097,4.801c2,3,2.602,3.103,6.801,0.603
			c2.801-1.802,3.199-2.603,3.403-6.603c0.199-5.102,1.699-7.602,3.5-5.801c0.597,0.602,1.699,5.199,2.597,10.199
			C28.388,107.603,27.888,110,24.087,110c-2.398,0-6,4.603-6,7.603c0,1.397,0.898,2.796,2.199,3.5c2.602,1.397,11,0.698,16.102-1.5
			l3.699-1.5v-7c0-7.704,0.801-9.103,3.5-6.103c1.602,1.801,2.301,8.5,1.301,13.103c-0.402,1.698,8,3.698,16,3.796
			c7,0.102,8.199-1,6.598-5.699c-0.699-1.898-2.297-3.097-5.398-4.301c-5.602-2-6.898-5.098-6.898-16.5
			c-0.102-12.199,3.699-14,5.797-2.796c0.602,3,1.801,5.5,3.102,6.597c2.602,2.102,3.898,2.199,6.398,0.301
			c2.602-2,1.703-5.699-5.297-20l-5.902-12l4.102-4.301C66.787,59.801,68.189,59,71.189,59c6.297,0,9.797-5.699,9-15
			c-0.203-2.301-2-4.398-4.203-5.199c-0.5-0.199-1.699-3.801-2.797-8c-3.301-12.801-7-18.199-15.602-22.602
			c-2.199-1.199-6-3.5-8.5-5.097C44.189-0.301,39.087-0.898,37.087,1.5L37.087,1.5z M44.087,2c1,0.602,3.398,2.398,5.199,4
			c1.801,1.699,4.199,3,5.402,3c3.699,0,10.5,6,13.598,12c2,4,3.102,7.602,3.5,12.699c0.602,7.199,0.602,7.199,3.699,7.5
			c2.801,0.301,3.102,0.699,3.402,4.199c0.598,6.5-3.699,13.301-7.402,11.903c-1.898-0.699-1.797-4.301,0-4.301
			c2.301,0,4.703-4,3.602-6c-1.102-2.102-0.398-3.102,1.801-2.301c1.598,0.5,1.598,0.5,0.098-1.097
			c-1.398-1.5-1.898-1.602-3.797-0.403C70.986,44.5,70.287,47,72.087,47s1,2-2,5c-1.602,1.602-3,3.301-3,3.699
			c0,1.903-9.199,10.199-12.699,11.403c-2.102,0.796-7.699,1.296-12.801,1.296c-7.301-0.098-9.801-0.5-13.5-2.398
			c-6.102-3.102-10.699-6.898-13.102-10.801c-2.199-3.398-3.898-4.199-3.898-1.597c0,2.898-5.199,1.199-7.699-2.5
			c-4.301-6.403-1.903-14,3.898-12.602c2.403,0.602,2.5,0.398,3.102-4.801c0.801-8.199,4.199-15.097,9.898-20.199
			C23.087,11,25.888,9,26.689,9c0.699,0,2.796-0.898,4.597-2c1.801-1.102,4.301-2,5.602-2c1.5,0,2.199-0.602,2.199-2
			C39.087,0.801,41.087,0.398,44.087,2L44.087,2z M34.189,70.603c7.296,1.397,13.796,1.097,21.597-1.204
			c1.902-0.5,2.699,0.5,7.301,9.602c4,8,4.898,10.5,3.801,11.103c-2,1.296-4.801,1.097-4.801-0.403
			c0-0.898-5.199-12.301-6.801-14.597c-0.098-0.302-0.801,0.097-1.398,0.698c-0.902,0.898-0.902,1.699,0.098,3.398
			c0.801,1.602,0.902,3.602,0.301,6.301c-1.098,5.5-4.199,6.898-15.5,6.898c-11.5-0.098-12.801-1.199-13-10.898
			c-0.097-3.699-0.597-6.801-1.199-6.801c-0.5,0-1.102,0.801-1.301,1.903c-0.301,2.097-3,11.597-4.398,15.296
			c-0.699,2-1.102,2.102-2.403,1c-1.199-1-1.398-2.296-0.898-5.5c0.801-5.296,4.898-16.098,7.102-18.5
			c1.398-1.5,1.898-1.598,4.898-0.398C29.388,69.301,32.388,70.199,34.189,70.603L34.189,70.603z M70.087,93.398
			c0,0.801,0.199,2,0.301,2.801c0.199,0.699,0.199,1,0,0.5c-0.801-1.398-2.102-0.699-2.801,1.5l-0.801,2.301l-0.398-2.301
			c-0.301-1.5-1-2.199-1.801-1.801c-2.699,1-2.5-1.296,0.199-2.796C68.388,91.699,70.087,91.603,70.087,93.398L70.087,93.398z
			 M40.485,94.699c4.403-0.199,9.102-0.801,10.204-1.199c2-0.602,2.199-0.199,2.797,6.5c0.402,4,0.602,7.301,0.402,7.5
			c-0.199,0.103-1.801,0.5-3.5,0.801c-3,0.598-3.301,0.398-4.102-2.602c-0.699-2.801-1.301-3.199-4.598-3.5l-3.704-0.301
			l0.704,3.704c0.597,3.296,0.5,3.597-1,3.097c-1-0.398-3-0.699-4.602-0.699c-2.699,0-2.898-0.301-3.5-4.801
			c-0.301-2.597-1-5.699-1.5-6.898c-1.102-2.698-0.301-3.5,2.199-2.198C31.485,94.801,35.689,95,40.485,94.699L40.485,94.699z
			 M16.485,95c3.102,1.103,3.403,3,0.602,3c-1.102,0-2,0.699-2,1.5s-0.398,1.5-1,1.5c-0.5,0-1-0.602-1-1.301
			c0-0.597-0.301-2.199-0.602-3.5C11.787,93.801,12.587,93.5,16.485,95L16.485,95z M54.087,109.801c0,0.398-0.5,1.302-1.199,2
			c-0.902,0.898-0.902,1.199,0.301,1.199c0.797,0,2-0.5,2.598-1.102c0.801-0.796,1.301-0.796,1.699,0
			C57.888,112.5,57.689,113,57.189,113c-0.602,0-1.102,0.5-1.102,1c0,0.603,1.102,0.801,2.5,0.398c1.398-0.296,3.602-0.296,5,0
			c2,0.5,2.5,1.301,2.5,3.602c0,3.5-0.301,3.5-11.5,1.898l-7.5-1.098v-3.698c0-3.103,0.398-3.903,2.801-4.802
			C53.388,108.898,54.087,108.801,54.087,109.801L54.087,109.801z M37.888,110.898c0.801,0.402,1.199,2.102,1,3.602
			c-0.403,3.5-4.699,5.301-13.102,5.398c-6.301,0.102-7.699-1.098-5.801-4.699c1.301-2.5,8.301-5.097,8.903-3.301
			c0.301,0.801,0.801,0.801,1.5,0.204c1-0.704,2.898-1.403,5.699-2C36.388,110.103,37.189,110.398,37.888,110.898L37.888,110.898z
			 M37.888,110.898"/>
	</g>
	<path d="M27.587,12.199c-4.199,2.801-6.5,6.199-7.199,10.301c-0.5,2.898-0.102,3.898,2.5,6.5c3.199,3.102,6.801,3.801,10.301,2
		c1.597-0.898,1.898-0.699,1.898,0.801c0,1,1,2.699,2.102,3.801l2.097,1.898l-0.699-4.301C37.888,29,37.888,29,40.985,29
		c1.704,0,3.102,0.398,3.102,1c0,0.5,1.801,1.5,3.898,2.102c5,1.5,9,0.097,11.402-4c2.5-4.204,2.098-7.204-1.301-12
		c-4.5-6.204-11-8-14.5-4.102c-1,1.102-2.199,2-2.602,2c-0.398,0-1.097-0.898-1.398-2C38.689,9.199,31.689,9.398,27.587,12.199
		L27.587,12.199z M37.189,13c2.699,1.5,2.5,6.699-0.602,11.301c-2.699,3.898-5.898,5.301-10,4.301
		c-5.699-1.5-3.398-11.403,3.5-14.801C34.189,11.699,34.587,11.699,37.189,13L37.189,13z M54.587,15.699
		C59.986,21.602,58.388,30,51.787,30c-4.5,0-7.5-2.398-8.699-7.199c-0.898-3-0.801-4.801,0.102-6.903c1-2.5,1.699-2.898,5-2.898
		C51.087,13,52.587,13.699,54.587,15.699L54.587,15.699z M41.689,24.5c0.199,1.801-0.301,2.5-1.704,2.5
		c-2.097,0-2.199-0.398-1.296-3.699C39.485,20.5,41.587,21.301,41.689,24.5L41.689,24.5z M41.689,24.5"/>
	<path d="M31.888,18.398c-2.301,1.704-2.301,4.204-0.199,5c1.796,0.704,5.398-1.898,5.398-3.898c0-0.699-0.699-1.602-1.602-1.898
		C33.587,16.898,33.985,16.801,31.888,18.398L31.888,18.398z M31.888,18.398"/>
	<path d="M44.689,19.699c-0.801,2.102,1.699,4.801,3.797,4c2.301-0.898,3.203-3.699,1.5-4.801
		C47.787,17.5,45.388,17.898,44.689,19.699L44.689,19.699z M44.689,19.699"/>
	<path d="M4.388,40.699c-0.699,0.301-1.301,0.903-1.301,1.5c0,0.5,0.801,0.699,1.898,0.301c1.602-0.5,1.801,0,1.704,3.199
		C6.587,49.102,6.888,49.5,8.985,49.5c1.301,0,2.602-0.602,2.903-1.301C12.087,47.5,11.388,47,10.189,47c-2.301,0-2.704-1-1-2.699
		C11.189,42.301,7.587,39.699,4.388,40.699L4.388,40.699z M4.388,40.699"/>
	<path d="M25.388,45.801c-4.699,4.699,1,13.097,10.199,15.097c5.602,1.301,7.5,1.102,13.5-1.5c6.102-2.597,9.5-10.296,6.199-13.597
		C53.486,44,27.189,44.102,25.388,45.801L25.388,45.801z M44.986,47c8.102-0.801,10,0.398,8.203,4.898
		c-0.801,1.704-2.902,4-4.801,5.204c-7.199,4.5-22.301,0-22.301-6.602c0-3.301,2.199-4.199,7.898-3.5
		C36.587,47.301,41.587,47.301,44.986,47L44.986,47z M44.986,47"/>
</g>
</svg>
