<?xml version="1.0" encoding="utf-8"?>
<!-- Generator: Adobe Illustrator 16.0.0, SVG Export Plug-In . SVG Version: 6.00 Build 0)  -->
<!DOCTYPE svg PUBLIC "-//W3C//DTD SVG 1.1//EN" "http://www.w3.org/Graphics/SVG/1.1/DTD/svg11.dtd">
<svg version="1.1" id="Layer_1" xmlns="http://www.w3.org/2000/svg" xmlns:xlink="http://www.w3.org/1999/xlink" x="0px" y="0px"
	 width="76px" height="130px" viewBox="0 0 76 130" enable-background="new 0 0 76 130" xml:space="preserve">
<g>
	<g>
		<defs>
			<rect id="SVGID_1_" width="76" height="130"/>
		</defs>
		<clipPath id="SVGID_2_">
			<use xlink:href="#SVGID_1_"  overflow="visible"/>
		</clipPath>
		<path clip-path="url(#SVGID_2_)" d="M36.801,1.102c-1,0.5-3.199,2.296-5,4c-1.801,1.699-6.403,4.796-10.102,7
			C14,16.699,10.301,21.199,7.199,29.699C6,33,3.898,36.699,2.5,38C0.398,40,0,41.199,0,46.5C0,52.699,1.801,57,4.5,57
			c0.699,0,3.898,2,7.199,4.398c3.199,2.403,7.199,5.102,9,6c1.699,0.902,3.5,2.102,3.801,2.704c0.398,0.5-2.199,4.097-5.801,7.796
			c-7.199,7.402-8.097,9.704-8.199,21c0,7.902,1.699,9.602,6.602,6.704c3.699-2.204,4.5-1.5,5.5,5.397
			c0.597,3.699,0.398,4.603-1.204,5.5c-3.097,1.699-7.398,6.301-7.398,7.898c0,0.801,0.801,2.204,1.699,3.204
			c1.403,1.397,3,1.597,9.5,1.097c11.699-0.801,14.7-3.597,11.801-11.301C35.699,114,36.602,111,38.898,111
			c3.403,0,4.403,2.603,3.801,9.5l-0.598,6.398L45.801,128c5.898,1.603,17.699,1.301,19.199-0.602c2.102-2.398,0-6.5-4.5-9.098
			c-4.602-2.602-5.301-5-5.398-19.602L55,90h3c2.199,0,4.5-1.5,9.602-6.199l6.598-6.198l-0.5-5.5c-0.801-7.403-1.598-8-7.598-5
			c-3.703,1.796-5,3.097-5.5,5.296c-0.5,2.5-0.902,2.704-3.301,2.102c-1.602-0.301-3.902-1.397-5.301-2.199l-2.398-1.602L52,69.103
			c1.301-0.903,4.699-3.302,7.398-5.403c2.801-2,5.902-3.699,6.902-3.699c3.398,0,5.898-2.102,7.898-6.699
			C76.801,47.5,76,42.898,72,40c-1.898-1.398-3.301-3.602-4-6.301C65.602,24.602,62.898,20,56.398,14.898
			c-2.098-1.699-4.797-4.597-6-6.398C48.301,5,41.898,0,39.699,0C39,0,37.699,0.5,36.801,1.102L36.801,1.102z M42,2.5
			c0.699,0.801,0.898,2.199,0.602,3.102c-0.402,1,0.5,2.597,2.398,4.398c2.398,2.301,3,2.5,3,1.102c0-1.204,2.199,0.296,7,4.796
			c7.801,7.403,10.699,12.801,11.398,21.204c0.301,3,0.5,5.5,0.602,5.699c0,0.097,0.898-0.199,1.898-0.801
			C72.301,40.199,74,41.801,74,46.801c0,6.097-4,11.699-7.699,10.699c-2-0.5-3.301,0.199-6.5,3.301
			C52.898,67.5,47.898,69.5,37.898,69.398c-7.597-0.098-9.5-0.5-15.199-3.199c-3.5-1.699-8.5-5.097-11-7.597
			c-3-2.801-4.898-4-5.5-3.403C5.5,55.898,4.5,55.5,3.102,54.102C1.5,52.5,1,50.699,1,47c0-2.801,0.5-5,1-5
			c1.699,0,2.301,2.898,1,4.398c-0.801,1.102-0.898,2,0,3.5c1.398,2.801,3.398,2.704,2.699-0.097c-0.398-1.199-0.097-2.801,0.5-3.5
			c1.403-1.801-1-6.602-2.898-5.903C2.602,40.699,2,40.5,2,40c0-0.602,0.898-1,2-1c1.301,0,2.199-0.898,2.602-2.801
			c1-4,6-14.398,8.097-16.801c2.801-3.199,8.903-7.5,9.602-6.699c0.398,0.301,1.5-0.097,2.398-0.898
			c1-0.801,2.602-1.801,3.602-2.102C31.199,9.301,32,8.398,32,7.5C32,6.699,32.602,6,33.398,6c0.704,0,2.102-1.102,3-2.5
			C38.301,0.699,40.199,0.301,42,2.5L42,2.5z M47.5,6.102C48.699,8,47,8.398,45.301,6.699C43.699,5.102,43.699,5,45.199,5
			C46.102,5,47.199,5.5,47.5,6.102L47.5,6.102z M71,66.898c0,0.5-1.102,1.602-2.5,2.5C66,71,65.102,74,67,74c0.602,0,1,0.699,1,1.5
			c0,0.898,0.699,1.801,1.5,2.103c1.199,0.5,1.301,1,0.398,2c-3,3.597-8.898-1-8.199-6.302c0.301-1.902,1-3,1.699-2.698
			c0.703,0.296,2.301-0.704,3.602-2.103C69.398,66,71,65.301,71,66.898L71,66.898z M71.801,71.199
			c-0.301,0.699-1.199,1.403-2.102,1.602c-1.199,0.199-1.5-0.102-1.098-1.198C69.301,69.699,72.398,69.398,71.801,71.199
			L71.801,71.199z M41.5,72.5c9.801,0.103,16.699,3,15.801,6.603c-0.5,1.897-0.301,2,1.199,1.198c1.398-0.801,2.398-0.5,4.102,1
			L65,83.398l-2.199,2.402c-2,2-2.902,2.302-6.5,1.699L52,86.898v5.5c0,5.301-0.102,5.5-3.199,6.5
			c-8.602,2.602-21.403,2.402-24.301-0.5c-1.5-1.598-3.102-0.199-1.898,1.704c0.398,0.698,0.097,1-0.704,0.698
			c-2-0.698-2.398-4.801-0.5-4.801C22.301,96,23,95.398,23,94.699c0-0.597,0.301-2.898,0.602-5c0.5-3,0.398-3.699-0.903-3.699
			C20.602,86,19,89,19,92.898C19,95.5,18.602,96,16.699,96c-3.5,0-4.5-1.602-3.699-6c0.898-5.102,4-9.397,10.398-14.801
			C27.602,71.699,29,71,31,71.603C32.398,72,37.102,72.398,41.5,72.5L41.5,72.5z M72.801,75.103c-0.199,0.597-0.801,1-1.301,1
			s-1.102-0.403-1.301-1C70,74.5,70.602,74,71.5,74S73,74.5,72.801,75.103L72.801,75.103z M16,98c1.102,0,2.398,0.898,3,2.103
			c1.398,2.597,0.602,3.597-1.5,1.897c-1.301-1-1.5-0.897-1.5,0.898C16,104,15.602,105,15,105c-0.5,0-1-0.699-1-1.602
			c0-1-0.602-1.398-1.5-1c-1.102,0.402-1.5-0.199-1.5-2.5c0-2.398,0.398-3,1.602-2.5C13.5,97.699,15,98,16,98L16,98z
			 M53.398,107.398c0.102,3-0.098,5.602-0.398,5.902c-0.301,0.199-2.398,0.699-4.699,1.098c-3.801,0.5-4.199,0.402-4.5-1.598
			c-0.699-5-9-5.5-9.602-0.698c-0.301,2.198-0.699,2.397-4.301,2.097c-4.398-0.5-5.398-1.597-6.199-7.898
			c-0.597-4.698,0.301-5.902,3-4.402c3.403,1.801,14.602,1.801,19.801,0.102c2.801-0.897,5.398-1.301,5.898-0.801
			C53,101.603,53.398,104.398,53.398,107.398L53.398,107.398z M34.301,117.199c0.898,0.699,1.699,2.602,1.898,4.301
			c0.301,2.603-0.097,3.103-3.199,4.199c-5.102,1.699-15.5,1.699-17-0.199c-1-1.199-0.602-2,1.898-4.602
			c2.801-2.699,3.602-3,6.903-2.398C27.699,119,29,118.699,30,117.603C31.5,115.699,32.102,115.603,34.301,117.199L34.301,117.199z
			 M52.5,118c1.199-1,1.898-1,2.699-0.199c0.902,0.898,0.902,1.199,0,1.199C54.5,119,54,119.398,54,119.898
			c0,0.602,1.602,0.704,3.602,0.402c4-0.698,6.398,1.199,6.398,4.898c0,1.602-1,1.801-8.301,1.801
			c-9.898,0-12.598-1.301-11.898-5.801c0.5-3.699,4.098-5.801,5.898-3.5C50.699,119,51.199,119.103,52.5,118L52.5,118z M52.5,118"/>
	</g>
	<path d="M26.898,13.5c-3.597,1.898-5.199,3.602-7.699,8.301C17.398,25.199,16,29.301,16,31.199C16,35.801,19.602,40,23.398,40
		c1.801,0,3.5,0.898,4.801,2.5C30.301,45.199,34,45.898,34,43.602c0-0.801-1-1.602-2.199-1.801c-1.5-0.199-2.403-1.102-2.602-2.699
		c-0.301-2.204-0.097-2.301,2.699-1.801C35,38,35.801,37.199,34,35.398C32.898,34.301,34.602,28,36,28c0.398,0,1,1.801,1.301,4
		c0.301,2.301,1.2,5.199,2.098,6.5C43,44,52.102,39.898,53.602,32.199c1-4.898-1.402-11.898-5.703-16.398
		C43.5,11.199,41.199,11.102,39,15.5l-1.5,3.102l-1.898-3.801C34.699,12.699,33.301,11,32.699,11
		C32,11.102,29.398,12.199,26.898,13.5L26.898,13.5z M33.801,17.398c1,3.5,0.097,11.102-1.801,14.5
		C30.898,34.102,25.801,38,24.102,38C22.199,38,19,34.102,19,31.699c0-4.801,2.398-10.301,6-13.898
		C29.801,12.898,32.602,12.801,33.801,17.398L33.801,17.398z M48.602,21.199C51.801,27.5,51.801,33.301,48.5,36.5
		C47.199,37.898,45.602,39,45,39c-2.301,0-6-4.898-6.102-8.199c-0.397-8.102,0.301-12.403,2.403-14.5
		C43.801,13.5,45.102,14.398,48.602,21.199L48.602,21.199z M48.602,21.199"/>
	<path d="M28.699,27.602C28.301,28,28,29.398,28,30.699c0,2.801,2.301,2.699,2.801-0.097C31.199,28.602,29.699,26.602,28.699,27.602
		L28.699,27.602z M28.699,27.602"/>
	<path d="M42,31.398c0,2.903,1.898,4.403,3.102,2.5c1.598-2.5,1-4.898-1.102-4.898C42.5,29,42,29.699,42,31.398L42,31.398z
		 M42,31.398"/>
	<path d="M68.602,44.898c-1,1.102-1.402,2.5-1,3.602c0.398,1,0.098,2-0.703,2.602c-1.098,0.699-1.199,1-0.098,2.097
		c1.098,1.102,1.598,1,2.699-0.597c0.801-1.102,1.199-2.903,0.898-4.204c-0.297-1.199-0.098-2.5,0.5-2.796
		c1.301-0.801,1.5-2.602,0.301-2.602C70.699,43,69.602,43.801,68.602,44.898L68.602,44.898z M68.602,44.898"/>
	<path d="M49.5,52.898c-3,2.903-13.5,4.801-18.801,3.403C26.102,55,25.5,55.199,26.301,57.5c0.398,0.801,1.801,1.5,3.398,1.5
		c1.5,0,4.301,0.898,6.102,2c6,3.699,10.398,2.398,15.199-4.199C54.801,51.5,53.699,48.801,49.5,52.898L49.5,52.898z M46.898,59.102
		c-0.797,0.5-3.398,0.796-5.898,0.796h-4.5l4.801-1.296c2.598-0.704,5.098-1.602,5.398-2c0.402-0.403,0.902-0.204,1.199,0.5
		C48.102,57.699,47.602,58.602,46.898,59.102L46.898,59.102z M46.898,59.102"/>
</g>
</svg>
