<?xml version="1.0" encoding="utf-8"?>
<!-- Generator: Adobe Illustrator 16.0.0, SVG Export Plug-In . SVG Version: 6.00 Build 0)  -->
<!DOCTYPE svg PUBLIC "-//W3C//DTD SVG 1.1//EN" "http://www.w3.org/Graphics/SVG/1.1/DTD/svg11.dtd">
<svg version="1.1" id="Layer_1" xmlns="http://www.w3.org/2000/svg" xmlns:xlink="http://www.w3.org/1999/xlink" x="0px" y="0px"
	 width="78px" height="128.043px" viewBox="0 0 78 128.043" enable-background="new 0 0 78 128.043" xml:space="preserve">
<g>
	<g>
		<defs>
			<rect id="SVGID_1_" width="78" height="128"/>
		</defs>
		<clipPath id="SVGID_2_">
			<use xlink:href="#SVGID_1_"  overflow="visible"/>
		</clipPath>
		<path clip-path="url(#SVGID_2_)" d="M34,4c-1.398,2.801-1.699,4-0.801,4c1.699,0.102-2.398,3.199-8.699,6.898
			C17.801,18.699,9.398,27.699,8.102,32.5c-0.602,2.102-2.301,5.102-3.801,6.699c-1.801,1.903-2.199,2.699-1,2.301
			C4.301,41.102,5,41.199,5,41.898c0,1-0.699,1.301-2.602,1C1.199,42.801,0,45.5,0,48.301c0,3.898,2.602,9.597,4.699,10.398
			c2.403,0.903,5.801,3.5,11.602,9C24.102,75.103,29,77.103,39,77.103c7.199,0.097,9.301-0.302,13.699-2.5
			c6.602-3.403,9.801-2.603,5,1.296c-7,5.5-9,7.902-8.301,9.602c0.301,0.898,1.5,1.898,2.602,2.199
			C54.898,88.5,54.801,94.5,51.898,96c-2.297,1.301-17.296,1.603-20.699,0.603C28.301,95.699,28.199,91,31,88.5
			c1.102-1,2-2.301,2-2.897c0-0.603-2.699-3.5-5.898-6.403C21.699,74.5,20.898,74.103,18.5,75c-1.398,0.5-3.699,1-5,1
			C7.898,76,3.301,87.5,7.898,90c3.102,1.603,4.903,1.199,8.301-2c3.602-3.5,4-3.602,7.301-1.397c3.699,2.397,5,7.5,3.5,14.397
			c-0.699,3.301-1,7.398-0.602,9.301C27,113.5,26.801,114,23.5,116c-5.699,3.5-6.898,10.199-2.102,11.398
			c2.704,0.704,12.903-0.898,16.903-2.5c2.5-1.098,2.801-1.598,2.301-4.296c-1.801-9.403-1.902-11.302-0.102-11.903
			c2.398-1,5.5,1,5.602,3.602c0.098,1.199,0.098,4.5-0.102,7.398c-0.199,6.5,1.102,7.301,12.602,8.102c8.098,0.5,8.297,0.398,9.5-2
			c1.598-3.602-0.203-6.5-5.602-8.801l-4.301-1.801l-0.598-7.898c-1.801-21.5-1.703-20.5-3.703-21C51,85.5,52,83,55.898,80.898
			l3.301-1.796l2.402,2.796c1.297,1.602,2.797,4,3.297,5.5c1.301,3.204,5.203,3.5,8.102,0.602c4.398-4.397,1.602-9.897-7.102-13.699
			c-3.199-1.402-5.898-3-5.898-3.602c0-0.898,7.602-8.5,15.301-15.199c2.301-2,2.699-3.102,2.699-7.699C78,42.199,76,38,73.5,38
			c-0.801,0-3-3.301-4.801-7.301c-2.598-5.699-4.801-8.5-9.598-12.801C55.699,15,52,10.602,50.898,8.301
			C48.602,3.5,43.699,0,39.199,0C36.5,0,35.699,0.602,34,4L34,4z M42.898,2.801c0.602,1,0.703,2.801,0.402,4
			C42.699,9.398,45.398,14,47.5,14c2,0,1.898-0.699-0.5-3.699c-1.102-1.403-2-3.199-2-3.903c0-2,3-1.699,3.602,0.301
			c0.297,1,1,2.602,1.5,3.602c0.598,1.097,0.797,2.097,0.5,2.5c-0.301,0.301,1.598,2,4.398,3.898
			c5.898,4,11.699,11.301,12.602,15.903c0.297,1.898,1,3.699,1.5,4C69.602,36.898,70,38,70,39.199c0,1.602,0.301,1.801,1.398,0.903
			c0.703-0.602,2.102-0.903,3-0.5c2.203,0.796,2,2.296-0.199,1.699c-2.598-0.602-5.898,3.199-4.301,5.097
			c0.703,0.801,0.902,2.602,0.5,4.301L69.801,53.5l2.301-2.301c2-1.898,2.199-2.5,1.098-4.199c-1.801-2.898-1.5-3.801,1.402-3.602
			c2.5,0.102,2.598,0.204,2,5.102c-0.801,5.801-3.602,9-7.301,8C67.699,56.102,67,56.398,67,57.398
			C67,60.5,58.801,69.199,53.699,71.5c-14.398,6.699-30.301,2.801-41.801-10.301c-1.796-2-3.796-3.801-4.296-3.801
			C7,57.301,5.898,57.199,5.301,57.102C2.602,56.898-0.898,45,1.801,45c1.801,0.102,3,1.602,2.199,2.898C3,49.602,4.898,53,6.699,53
			c1.602,0,1.699-1.199,0.199-2.699c-0.597-0.602-0.796-1.699-0.296-2.403C7,47.102,7.5,44.5,7.602,42C8,31.699,15.699,21,26.301,16
			c7.699-3.699,9.898-5.801,9.5-9.102C35.301,1.898,40.699-1.199,42.898,2.801L42.898,2.801z M63.398,76.699
			C64.301,79.103,62.5,80.603,60.5,79c-1.199-1-1.301-1.602-0.398-2.602C61.602,74.5,62.602,74.603,63.398,76.699L63.398,76.699z
			 M71.102,78.898C74.199,82,74.602,83.603,73,86c-0.699,1.103-1,0.699-1-1.801c0-4.398-1.801-4-2.199,0.5
			c-0.199,2.403-0.902,3.903-1.801,4.102c-1.301,0.199-1.602-1-1.801-6.301C65.898,75.103,66.699,74.5,71.102,78.898L71.102,78.898z
			 M13.301,79.103C13,80.199,13.301,82.199,14,83.5c1.602,2.898,0.602,5.801-1.699,5.301c-2.403-0.402-3.602-8.402-1.602-10.402
			C12.801,76.398,13.898,76.699,13.301,79.103L13.301,79.103z M26.102,81c4.199,4.301,4.699,5.5,2.5,6.301
			c-2.403,0.898-6.602-3.402-6-6.102C23,80,22.801,79,22.199,79c-0.5,0-1.199,0.898-1.5,2C19.801,84.398,15,83,15,79.398
			c0-0.598,4.102-2.296,5.898-2.296C21.602,77,24,78.801,26.102,81L26.102,81z M7.699,88.199c-0.301,0.699-0.5,0.199-0.5-1.199
			c0-1.397,0.199-1.897,0.5-1.301C7.898,86.398,7.898,87.603,7.699,88.199L7.699,88.199z M55.5,102c1,3.898,1.301,8.699,0.602,9.699
			c-0.301,0.5-2.301,1.403-4.301,2c-3.5,1-3.801,1-3.801-0.898C48,108.5,46.199,107,40.801,107h-5.102l0.602,3.398l0.5,3.402
			l-4.102-0.5c-2.301-0.301-4.398-0.801-4.699-1c-0.699-0.698-0.602-9.5,0.102-11.301c0.5-1.199,3-1.5,13.699-1.5h13.098L55.5,102z
			 M39.102,118.699C39.602,120,40,121.5,40,122c0,1.103-9,3.801-13.5,4.103c-5.801,0.397-6.5,0.097-6.5-3
			c0-3.5,2.102-5.403,6.301-5.603c1.801-0.102,3.898-0.5,4.699-0.801C36.102,114.801,37.801,115.199,39.102,118.699L39.102,118.699z
			 M56,117.5c1.602-0.301,3.102-0.199,3.5,0.398C59.801,118.5,61.199,119,62.398,119c3,0,4.801,2.199,4.402,5.199
			c-0.301,2-1,2.301-4.801,2.602c-2.5,0.098-6.699-0.402-9.5-1.102c-4.398-1.199-5-1.597-5.301-4.301
			c-0.199-2.296,0.301-3.296,2.5-4.598c2.402-1.5,2.801-1.5,3.102-0.198C53.102,117.699,53.898,118,56,117.5L56,117.5z M56,117.5"/>
	</g>
	<path d="M29.5,18.199c-5.699,3.102-9.398,8.5-9.898,14.602C19,39,21.301,42,26.801,42C29.199,42,30,42.398,30,43.801
		C30,46.5,33.699,50,36.5,50c3.5,0,3.199-2.801-0.199-3.199C33.898,46.5,33.5,46,33.5,43.5c0-2.699,0.301-3,2.801-2.801
		C38.102,40.801,39,40.398,39,39.398C39,38.602,38.102,38,37,38c-2.398,0-2.602-1.301-0.5-3c0.801-0.699,1.5-2.199,1.602-3.398
		c0-1.903,0.097-1.903,1.097,0.398c2.602,6.5,4.102,8.801,6.801,10.398c2.699,1.5,3.199,1.602,6,0.102
		c4.102-2.102,5.398-5.301,4.602-10.801c-1.203-7.801-8.102-15.597-12.5-14.199c-1.301,0.398-3.102,2.102-4.204,3.801L38,24.5
		v-2.699C38,17.699,33.699,15.801,29.5,18.199L29.5,18.199z M36.102,22.801c2.296,6-3.204,17.199-8.5,17.199
		c-9.403-0.199-6-15.898,4.398-20.102C34,19,34.898,19.699,36.102,22.801L36.102,22.801z M49.5,22.699
		C54.102,27.898,55.301,36.5,52,39.5c-4,3.602-9.5-1.398-10.602-9.602C40.699,24.301,42.199,20,45,20
		C46.199,20,48.199,21.199,49.5,22.699L49.5,22.699z M49.5,22.699"/>
	<path d="M29.699,29.699C29.301,30,29,31.398,29,32.699c0,2.602,2.102,3.102,4,0.801C34.801,31.301,31.699,27.699,29.699,29.699
		L29.699,29.699z M29.699,29.699"/>
	<path d="M44.398,31.398C43.5,33.602,44.602,36,46.5,36c1.199,0,1.5-0.801,1.301-2.699C47.5,30.301,45.301,29.102,44.398,31.398
		L44.398,31.398z M44.398,31.398"/>
	<path d="M51.301,62.5c-1.5,1.602-12.903,3-17.801,2.102C30.699,64,30,64.199,30,65.398c0,0.902,1.199,1.902,2.801,2.204
		c1.5,0.397,3.699,1.796,5,3.198c1.898,2,2.898,2.302,6,1.802c2-0.302,3.898-1.103,4.098-1.802c0.203-0.698,2.102-3,4.203-5
		c2.199-2.102,3.898-4,3.898-4.301C56,60.398,52.5,61.102,51.301,62.5L51.301,62.5z M43.801,68.103C44.398,66.398,47,66.801,47,68.5
		c0,2.398-4.102,3.5-6.699,1.801c-2.801-1.902-2-3.698,1-2.198C42.898,69,43.5,69,43.801,68.103L43.801,68.103z M43.801,68.103"/>
</g>
</svg>
