<?xml version="1.0" encoding="utf-8"?>
<!-- Generator: Adobe Illustrator 16.0.0, SVG Export Plug-In . SVG Version: 6.00 Build 0)  -->
<!DOCTYPE svg PUBLIC "-//W3C//DTD SVG 1.1//EN" "http://www.w3.org/Graphics/SVG/1.1/DTD/svg11.dtd">
<svg version="1.1" id="Layer_1" xmlns="http://www.w3.org/2000/svg" xmlns:xlink="http://www.w3.org/1999/xlink" x="0px" y="0px"
	 width="73px" height="131px" viewBox="0 0 73 131" enable-background="new 0 0 73 131" xml:space="preserve">
<g>
	<g>
		<defs>
			<rect id="SVGID_1_" width="73" height="131"/>
		</defs>
		<clipPath id="SVGID_2_">
			<use xlink:href="#SVGID_1_"  overflow="visible"/>
		</clipPath>
		<path clip-path="url(#SVGID_2_)" d="M35.602,1.5C34.699,2.398,34,3.699,34,4.398C34,6,29.801,10,28,10
			c-2.801,0-10,4.301-13.102,7.801c-1.796,2-4.5,6.597-6.199,10.199c-1.597,3.602-4.301,7.898-6,9.699
			c-2.801,3-2.898,3.602-2.398,8.403C1,51.699,4,56,7.199,56c1,0,4.102,2.102,7,4.699c2.903,2.699,6.602,5.699,8.102,6.903l2.898,2
			l-3.898,2.597c-6,4-9.403,7.903-12,13.801c-1.403,3-4,6.801-5.903,8.5L0,97.5l1.602,4.801c1.699,5,5,7.098,7.699,4.802
			c1.5-1.204,5.301-9.302,6.097-13.103c0.801-3.199,3.403-6.602,4.301-5.602c0.5,0.402,1.102,6.204,1.403,12.902
			c0.296,6.699,0.898,13,1.296,13.898c0.602,1.301-0.097,2.102-3.296,3.699c-4.403,2.301-6.102,4.602-6.102,8.5
			c0,1.902,0.699,2.704,2.602,3.204c3.796,1,15.5-0.5,18.199-2.204c2.097-1.398,2.199-2,1.597-7.796c-0.5-4.5-0.296-6.5,0.602-7.103
			c2.301-1.397,4.301,2.103,4.5,8.103c0.199,6.897,1.301,8,9.5,8.897c7.5,0.898,14-0.102,14-2.199c0-2.801-2-5.102-6.801-8.102
			l-4.801-3l-1.199-13.801c-1.5-18.398,0.102-20.098,6.402-7c1.898,4,3.398,7.801,3.398,8.402c0,1.802,4.5,1.398,6.199-0.602
			c0.902-0.898,1.801-3.597,2.102-6c0.5-3.898,0.199-4.597-2.5-7c-1.602-1.5-5.402-6.097-8.301-10.301
			c-2.898-4.098-6.5-8.296-7.898-9.199c-1.402-1-2.602-2.097-2.602-2.597C48,67.801,62.199,57,64,57c2.5,0,6.699-4.602,8-8.602
			c1.602-4.699,0.602-8.097-2.898-9.796c-2.203-1.204-3.203-2.801-4.602-7.801C63,25.5,61.801,23.5,56.199,17.699
			C52.5,14,48,8.602,46,5.699C42.102,0,38.5-1.398,35.602,1.5L35.602,1.5z M42,1.898C42,2.5,41.602,3.102,41.102,3.5
			C40,4.102,44.5,9,46.102,9c0.598,0,0.797,0.398,0.5,0.801c-0.301,0.398,2.398,3.398,6,6.597c8,7.102,11.5,13.903,11.797,22.602
			c0.102,1,1,1.398,2.703,1.199c5.398-0.5,6.098,4.5,1.699,11.602c-1.602,2.597-2.602,3.301-4.699,3.097
			c-2-0.199-3.902,0.903-8,4.903c-3,2.898-6.602,5.5-8,5.898c-1.402,0.301-3.203,1-3.902,1.602c-1.898,1.5-17.199,0.302-21-1.699
			c-1.801-0.903-5.5-4-8.199-6.801c-3.301-3.403-5.398-4.903-6.5-4.403C7.5,54.699,5.898,54,4.398,52.5C2.602,50.602,2,49,2,45.5
			c0-3.301,0.398-4.5,1.301-4.199C3.898,41.5,4.5,43.199,4.5,45c0,2,0.699,3.699,1.699,4.301c2.301,1.5,3.801-0.102,1.602-1.699
			c-1.102-0.801-1.301-1.704-0.699-2.801C8.199,42.801,7.199,40,5.398,40C4.602,40,4,39.5,4,38.898C4,38.301,4.898,38,6,38.301
			c1.398,0.398,2,0,2-1.199C8,33.898,11.301,25.5,14.199,21.5c3.102-4.301,11-9.5,14.5-9.5C30.801,12,36,6.5,36,4.398
			C36,2.801,38.301,1,40.199,1C41.199,1,42,1.398,42,1.898L42,1.898z M52.199,75.801c3.102,3.199,6.602,7.598,7.902,10
			c2.199,4.098,2.199,4.302,0.5,6c-1.703,1.598-1.902,1.598-2.902-0.198c-0.699-1.103-2.598-3.403-4.301-5
			c-1.699-1.704-3.398-4-3.797-5.103c-1.301-3.5-2.301,0.301-1.5,5.301c0.398,2.598,0.797,6.699,0.797,9.302l0.102,4.5l-4.199,0.5
			c-5.699,0.5-20.903,0.097-21.699-0.704c-1-1-0.204-12.699,1-15.699c0.699-1.5,0.898-3,0.597-3.301c-0.801-0.898-8.5,7-9.597,9.902
			c-0.903,2.302-1.204,2.5-3.5,1.398c-3.102-1.5-3.102-1.597-0.403-6.898c2.5-4.902,5.602-8.301,11.403-12.402
			c3.699-2.699,4.699-2.898,14.097-3.098l10-0.102L52.199,75.801z M68,94.5c0,1-1,1.5-3,1.5c-1.602,0-3,0.398-3,0.898
			s1.398,1.102,3,1.402c2.102,0.5,3,1.199,3,2.598c0,2.801-1.699,3.5-2.301,0.902c-0.5-1.698-0.898-1.902-2.098-0.902
			c-1.203,1-1.703,0.801-2.602-0.898c-0.699-1.199-0.898-3.301-0.602-4.602c0.5-2,1.301-2.398,4.102-2.398
			C66.898,93,68,93.5,68,94.5L68,94.5z M11.199,95.103c1.5,0.796,1.801,1.698,1.301,3.698c-0.898,3.802-3.602,6.598-4.602,5
			c-0.597-0.902-1-0.801-1.5,0.5c-0.898,2.398-2.597,2.098-2.199-0.402c0.199-1.796,1.199-2.796,4.699-4.598
			C9,99.199,8.898,98.603,8.5,98c-0.5-0.801-1.398-0.699-3,0.398c-1.602,1.102-2.602,1.204-3,0.5
			c-0.398-0.598-0.5-1.199-0.398-1.296C4.5,95.898,7.602,94,8.301,94C8.801,94,10,94.5,11.199,95.103L11.199,95.103z M50,109.801
			v6.699l-3.5,1.103c-3.199,1-3.5,0.897-3.5-0.802c0-4-1.801-5.698-6-5.5c-3.801,0.098-4,0.302-4,3.302
			c0,3.198-0.102,3.296-3.699,2.698c-2.102-0.301-4.199-0.902-4.602-1.301c-0.5-0.397-1.097-3.199-1.398-6.199l-0.5-5.5
			l11.699-0.102c6.5-0.097,12-0.398,12.301-0.699s1.098-0.5,1.898-0.5C49.602,103,50,104.801,50,109.801L50,109.801z
			 M33.699,121.603c3.199,4.296-0.398,6.897-11,8c-5.898,0.597-6.699,0.5-7.301-1.103c-0.398-1-0.097-3,0.704-4.397
			c1.296-2.204,2.199-2.603,5.699-2.5c2.5,0,4.199-0.403,4.199-1.103C26,118.699,32.199,119.603,33.699,121.603L33.699,121.603z
			 M50,119.898c0,0.5,1,0.704,2.102,0.402c1.797-0.5,2-0.301,1.5,1.5c-0.602,1.898-0.402,2,2.797,1.5
			c2.902-0.402,3.703-0.102,5.102,2.098c1,1.5,1.398,3,1.102,3.402c-1.102,1.098-14.703,0.598-17.902-0.698
			c-2.301-0.903-2.801-1.603-2.5-3.802c0.199-1.698,1.199-3.198,2.801-4C48,118.801,50,118.603,50,119.898L50,119.898z M50,119.898"
			/>
	</g>
	<path d="M25.898,15.5C18,19.801,14.102,32.301,19,37.5c2.301,2.5,7,3.5,7,1.5c0-0.602,0.699-1,1.5-1s1.5,0.898,1.5,2
		c0,1.801,2.602,4,4.898,4C34.5,44,35,43.301,35,42.5c0-0.801-0.898-1.5-1.898-1.5c-3.5,0-3.403-4.898,0.199-5
		c1.398,0,0.699-2-0.801-2c-1.801,0-1.898-1.199-0.398-2.699c0.597-0.602,1.398-4.199,1.699-7.903
		C34.199,17.699,34,16.5,32.5,15.301C30.199,13.699,29.199,13.699,25.898,15.5L25.898,15.5z M31.398,18.602
		c0.301,0.796,0.301,4-0.097,7.097C30.5,32.5,27.102,37.301,23.102,36.801c-5.704-0.699-5.102-9.903,1.199-16.602
		C27.602,16.699,30.398,16.102,31.398,18.602L31.398,18.602z M31.398,18.602"/>
	<path d="M26.699,27.699C25.602,28.699,25.898,32,27,32c1.199,0,3.102-3.5,2.301-4.398C28.5,26.801,27.5,26.801,26.699,27.699
		L26.699,27.699z M26.699,27.699"/>
	<path d="M37.5,16.301c-0.801,1.301-1.801,5.699-2.102,9.801c-0.597,7.097-0.5,7.597,2.102,10.699
		c5.102,6.097,12.5,3.301,14.102-5.403c0.699-3.898-1.402-10.699-4.703-14.796C44.199,13.199,39.602,13.102,37.5,16.301L37.5,16.301
		z M46.5,21.199c2.699,5.903,3.102,9.403,1.301,13.301c-1,2.199-1.699,2.602-4.699,2.301C40,36.5,39.398,36,38.398,33
		C37,28.602,38.102,18.199,40.102,16.898C42.801,15.199,44.102,16,46.5,21.199L46.5,21.199z M46.5,21.199"/>
	<path d="M40.699,26.699c-1.098,1-0.801,4.102,0.402,4.903c1.699,1,3.199-1.204,2.398-3.5C42.898,26,41.898,25.5,40.699,26.699
		L40.699,26.699z M40.699,26.699"/>
	<path d="M65,43.5c-0.699,0.801-0.898,2.199-0.602,3.102c0.402,0.898,0.102,2.296-0.5,3.097C62.301,51.5,63.602,52.602,65.5,51
		c0.801-0.699,1.5-2.5,1.5-4.102C67,45,67.5,44,68.5,44c0.801,0,1.5-0.5,1.5-1C70,41.5,66.398,41.801,65,43.5L65,43.5z M65,43.5"/>
	<path d="M50.699,53c-3.098,3-18.398,4.5-25.898,2.5C22.602,54.898,22,55.102,22,56.301c0,0.898,1,1.898,2.301,2.301
		c1.199,0.398,3.699,2,5.5,3.5C32.398,64.398,34,65,37.602,65c5.598,0,9-1.898,12.699-7.102C51.898,55.801,53.602,54,54.102,54
		S55,53.301,55,52.5C55,50.5,52.898,50.699,50.699,53L50.699,53z M48,58c0,1.301-7.398,5-9.898,5C35.801,63,31,61,31,60
		c0-0.301,2.5-0.699,5.5-0.801c3.102-0.097,6.301-0.597,7.301-1.097C46,56.801,48,56.699,48,58L48,58z M48,58"/>
</g>
</svg>
