<?xml version="1.0" encoding="utf-8"?>
<!-- Generator: Adobe Illustrator 16.0.0, SVG Export Plug-In . SVG Version: 6.00 Build 0)  -->
<!DOCTYPE svg PUBLIC "-//W3C//DTD SVG 1.1//EN" "http://www.w3.org/Graphics/SVG/1.1/DTD/svg11.dtd">
<svg version="1.1" id="Layer_1" xmlns="http://www.w3.org/2000/svg" xmlns:xlink="http://www.w3.org/1999/xlink" x="0px" y="0px"
	 width="74px" height="132px" viewBox="0 0 74 132" enable-background="new 0 0 74 132" xml:space="preserve">
<g>
	<g>
		<defs>
			<rect id="SVGID_1_" width="74" height="132"/>
		</defs>
		<clipPath id="SVGID_2_">
			<use xlink:href="#SVGID_1_"  overflow="visible"/>
		</clipPath>
		<path clip-path="url(#SVGID_2_)" d="M32,4.5c-2.398,2.398-6.199,5.301-8.5,6.398c-5.301,2.5-11.898,9.704-14.898,16.301
			c-1.301,2.903-3.801,7.102-5.5,9.301c-2.903,3.602-3.204,4.398-2.602,8.398C1.398,50.898,3,54,5.102,54c1,0,3.699,1.602,6.097,3.5
			c2.403,1.898,6.102,4.398,8.301,5.602c6.602,3.5,6.602,3.5,3.898,8.699c-1.898,3.802-2.5,6.802-3,16.199
			c-0.5,10.5-0.296,12.199,2,19.801C25.102,116.603,25,119,21.801,119c-3.199,0-8,5.5-7.602,8.699L14.5,130.5h9.699
			c8.801,0,9.903-0.199,12.199-2.397l2.602-2.5l2,2.097c1.898,2.199,5.102,2.801,18.301,3.602c5.598,0.398,5.699,0.302,5.699-2.402
			c0-4.5-1-5.898-6.102-8.5c-6.199-3.098-7.5-5.199-8.797-14.398C49,98,49.699,92.603,52.398,88.5c2.301-3.5,2-9.602-0.797-15.897
			l-2.402-5.403l7.402-5.597C61.699,57.699,64.898,56,67,56c3.199,0,4.801-2,6.102-7.898C74,44,72.801,40.398,69.5,37.801
			c-1.398-1.102-2.5-2.903-2.5-4.102c0-3.699-4.699-12.5-9.699-18.398C50.898,7.801,41.398,0,38.699,0C37.301,0,34.602,1.801,32,4.5
			L32,4.5z M42.102,2C43.102,2.602,44,3.699,44,4.5C44,5.301,44.398,6,44.898,6c2.203,0,15.703,14.801,17.5,19
			c1,2.5,2.203,5.301,2.703,6.199c0.5,1,0.898,3.403,0.898,5.301c0,3.102,0.301,3.5,2.699,3.5h2.699l-2.199,1.602
			c-1.398,1-2.199,2.5-2.199,4.5C67,47.699,66.5,49,65.801,49c-0.902,0-0.902,0.301,0,1.199c1.699,1.699,4.398-0.898,4-4
			c-0.199-1.398,0.301-2.699,1-2.898c2.098-0.801,1.398,6.097-0.902,9.097C67.602,55.301,66,55.801,66,53.5
			c0-2.398-1.199-1.801-7.102,3.699c-3.797,3.602-7.297,5.903-11,7.102c-5.398,1.8-17.2,2.699-18.5,1.398
			c-0.398-0.398-0.699-2-0.597-3.699c0-2-0.403-3-1.403-3C26.5,59,26,60.102,26,62v2.898l-3.699-2.097
			c-6.102-3.5-9.903-6.602-11.301-9.301c-1-1.898-2-2.398-4.398-2.199C3.699,51.5,3.5,51.199,2.301,46.5
			c-1.199-4.898-0.602-7.398,1.597-6c0.704,0.398,0.801,1.199,0.204,2.301C3,44.801,4.5,48,6.5,48c1.699,0,2-1.602,0.5-2.5
			c-0.5-0.301-0.699-1.898-0.301-3.5c0.403-2.199,0.102-3.102-1.097-3.602C3.301,37.5,3.602,35.699,6,36.5c1.398,0.5,2,0.199,2-1
			c0-4,5.301-14.301,9.699-18.699c5.5-5.602,8.699-6.5,4.801-1.403c-2.5,3.204-3.699,6.204-5.5,13.301
			c-0.699,3.102-0.602,3.301,3.602,5.403c2.5,1.097,5.097,3.296,5.898,4.898c1.398,2.699,3.301,4,6.102,4c2.296,0,1.597-2-1.204-3
			c-3-1.199-2.898-4.398,0.102-4.602c3.801-0.199,3.898-0.398,1.699-2c-2.097-1.5-2.5-1.5-4.097,0C27.102,35.199,25,35.5,25,34
			c0-0.602-1.102-1.602-2.5-2.199C18.801,30.102,19,25.5,23,23.5c3.801-1.898,10.398-2,12,0c0.699,0.801,1.5,3.5,1.699,6
			C37,32,38,34.602,39.102,35.602C40.199,36.5,41,37.898,41,38.699c0,1.903,1.398,1.602,5.602-1.199
			c2.098-1.398,4.398-2.301,5.199-2c2.199,0.801,3.5-0.5,1.801-1.801c-1.203-1-1.301-1.898-0.402-5.301
			c1.602-5.898-0.5-13.097-4.398-15.296c-1.902-1-2.699-2.204-2.402-3.301c0.203-1.102-0.297-2-1.5-2.301
			C42.301,6.602,39,7.801,39,9.602c0,1.699,0.5,1.699,3,0.199c1-0.699,2.301-0.903,2.699-0.403c0.402,0.5-0.098,1.301-1.098,2
			c-1.102,0.602-3,2.102-4.203,3.301C36.898,17.398,36,17.602,36,15.5c0-0.801-1.199-2.5-2.602-3.898l-2.699-2.403l3.199-4.097
			C37.301,0.801,38.801,0.301,42.102,2L42.102,2z M33.5,15.602c1.102,1.597,2.398,3,3,3.097c0.5,0.102,1.102,0.699,1.398,1.403
			c0.403,1.199-0.296,1.097-7.597-0.801C29.102,19,26.699,19.5,24.898,20.398C21.199,22.199,21,22.301,21,21.199
			c0-1.398,8.301-9.301,9.398-8.898C31,12.5,32.398,14,33.5,15.602L33.5,15.602z M47.5,14.602C49.199,16.301,52.301,22,51.602,22
			c-0.301,0-2.102-1-4.203-2.199c-3-1.801-4-1.903-5.598-0.903c-3.199,2-3.402,0.301-0.301-2.898
			C44.801,12.5,45.301,12.398,47.5,14.602L47.5,14.602z M47.801,23c3.598,2.199,3.801,3.5,1.801,8.398
			c-1.902,4.5-6.301,5.704-8.801,2.602c-2.5-3.102-2.5-11.699,0-12.301C43.898,20.898,44.5,21,47.801,23L47.801,23z M48.801,69.5
			c1.598,3.398,1.5,3.398-0.902,2.801c-1.199-0.301-4.098,0.598-7,2.199c-4.098,2.199-5.898,2.603-9,2.103
			c-4.398-0.704-4.5-0.403-2.398,4.698c1.102,2.699,2.301,3.898,4.699,4.5c4.5,1.098,4.5,2.699,0,4
			c-5.301,1.598-5.597,1.598-8.398-1.301c-3.403-3.397-4.403-9.5-2.199-13.801c3-5.898,3.796-6.398,10.796-6.097
			C37.898,68.801,42,68.5,43.602,68c1.598-0.397,3.199-0.897,3.5-0.897C47.398,67,48.199,68.103,48.801,69.5L48.801,69.5z
			 M50.602,76.398c2.598,2.602,1.699,3.704-2.301,3c-3.5-0.598-5.199-1.796-5.301-3.699C43,74.398,49.102,75,50.602,76.398
			L50.602,76.398z M41.801,78.801c0.199,0.699-0.199,1-1.199,0.598C39.699,79.103,39,78.301,39,77.801
			C39,76.5,41.301,77.301,41.801,78.801L41.801,78.801z M45,81.199c5.602-0.097,8,0.699,8,2.602c0,5-6.301,5.5-15,1.098
			c-7.398-3.699-7.898-5.5-1.199-4.398C39.398,80.898,43.102,81.199,45,81.199L45,81.199z M24.199,90.5
			c2.5,3.199,8.699,3.398,12.903,0.398c1.597-1.098,3.398-1.699,4.097-1.296C41.801,90,43.5,90.398,44.898,90.5
			c2.301,0.103,2.602,0.5,2.602,4.103V98.5L40,98.801c-9.301,0.398-15.5-0.5-17.5-2.402C21.102,94.898,20.301,88,21.602,88
			C21.898,88,23.102,89.103,24.199,90.5L24.199,90.5z M38.102,101.5h9.598l1,6c0.5,3.301,1.102,6.699,1.402,7.5
			c0.297,0.898-0.5,1.603-2.102,1.801c-1.398,0.199-3,0.802-3.699,1.398c-1.402,1.102-3.699-2.597-3-4.699
			c0.398-0.801-0.699-1.5-3-1.801c-4.602-0.801-5.403-0.301-4.699,3.102c0.597,2.699,0.398,2.802-3,2.398
			c-3.5-0.398-3.602-0.5-6.102-8.699c-1.398-4.602-2.5-8.5-2.5-8.801s1.5,0,3.301,0.602C27,100.898,32.801,101.5,38.102,101.5
			L38.102,101.5z M39.699,116.398c1,2.102,1.301,4.402,0.902,6C39.898,125.301,38,125,38,122c0-1-0.398-2.199-1-2.5
			c-1.301-0.801-1.301-6.5,0-6.5C37.602,113,38.801,114.5,39.699,116.398L39.699,116.398z M52.801,120.398
			c2.199-0.5,2.5-0.398,1.5,0.704c-2,2.097-1.602,2.5,2.5,2.097c4.301-0.398,7.598,1.801,7,4.699
			c-0.301,1.301-1.602,1.602-7.301,1.301c-11.898-0.398-13.5-0.898-13.5-4c0-3.5,1-4.898,4-6c1.898-0.699,2.602-0.597,2.801,0.403
			S51,120.801,52.801,120.398L52.801,120.398z M34.5,120.603c0.898,0.897,1.5,2.796,1.301,4.198
			c-0.199,2.098-1.102,2.898-4.801,3.898c-2.5,0.801-6.699,1.199-9.5,1.102c-4.602-0.301-5-0.5-5.301-3
			C15.801,123.5,19.102,121,24,120.898c1.898,0,4.398-0.398,5.5-0.898C32.398,118.801,32.699,118.801,34.5,120.603L34.5,120.603z
			 M34.5,120.603"/>
	</g>
	<path d="M27.102,25.301c-0.801,1-0.704,1.801,0.296,3.199C29,30.801,31,29.699,31,26.398C31,23.801,28.898,23.199,27.102,25.301
		L27.102,25.301z M27.102,25.301"/>
	<path d="M33.199,27.398c-1.398,3-0.898,4.704,0.903,2.903c0.597-0.602,0.898-2.102,0.699-3.403
		C34.5,24.602,34.5,24.602,33.199,27.398L33.199,27.398z M33.199,27.398"/>
	<path d="M15.301,43.199c-2.699,2.903-3,4.301-0.699,3.403c0.898-0.403,2.296-0.102,3.199,0.597c2.301,2,10.097,3.699,16.898,3.801
		C42.898,51,56,48.199,56,46.301c0-1.699-3-2.903-3.898-1.602c-1.301,2-7.703,3.301-16.704,3.301
		c-10.699,0-17.097-1.898-17.597-5.199C17.5,40.898,17.398,40.898,15.301,43.199L15.301,43.199z M15.301,43.199"/>
	<path d="M43.199,25.199C41.301,27.102,41.801,30,44,30c1.5,0,2-0.699,2-2.398C46,24.602,44.801,23.602,43.199,25.199L43.199,25.199
		z M43.199,25.199"/>
</g>
</svg>
