<?xml version="1.0" encoding="utf-8"?>
<!-- Generator: Adobe Illustrator 16.0.0, SVG Export Plug-In . SVG Version: 6.00 Build 0)  -->
<!DOCTYPE svg PUBLIC "-//W3C//DTD SVG 1.1//EN" "http://www.w3.org/Graphics/SVG/1.1/DTD/svg11.dtd">
<svg version="1.1" id="Layer_1" xmlns="http://www.w3.org/2000/svg" xmlns:xlink="http://www.w3.org/1999/xlink" x="0px" y="0px"
	 width="79px" height="130px" viewBox="0 0 79 130" enable-background="new 0 0 79 130" xml:space="preserve">
<g>
	<g>
		<defs>
			<rect id="SVGID_1_" width="79" height="130"/>
		</defs>
		<clipPath id="SVGID_2_">
			<use xlink:href="#SVGID_1_"  overflow="visible"/>
		</clipPath>
		<path clip-path="url(#SVGID_2_)" d="M32.801,5.602C28.801,8.699,23.898,12,21.898,13C15.199,16.5,6,29.102,6,34.699
			c0,1.199-1.102,3.403-2.301,5C0.801,43.199-0.199,47.801,1,52.102C2.102,55.898,5.699,60,8,60c2.199,0,13.5,9.398,13.398,11.103
			c-0.097,0.796-0.898,4.097-1.796,7.296c-2,7.5-0.903,12.102,4.199,17.801c3.597,4,3.699,4.301,3.699,11.602v7.5l-3.398,1.199
			c-5.801,1.898-9,8.199-5.903,11.301c1.5,1.5,11.903,1.598,17,0.199c4.699-1.397,7-4.397,5.801-7.602
			c-1.301-3.199-0.102-8.398,1.801-8.398c1.199,0,1.301,1,0.801,5.801c-0.602,5.302-0.402,6,1.797,8.098
			c2.703,2.5,10.902,3.902,19.402,3.301c3.898-0.301,4.199-0.5,4.199-3.301c0-3.199-2.102-5.5-8-9.296
			c-3.102-1.903-3.5-2.704-3.801-6.802c-0.398-6.5,1.5-8.198,8.5-7.402c5.102,0.602,5.301,0.5,5.902-2.098
			C72.5,96.801,67,85.898,60,77.199c-2.699-3.398-5-6.398-5-6.597c0-1.302,12.301-9.403,13.5-8.903c3.301,1.199,6.602-0.699,8.5-5
			c3.199-6.898,2.5-10.898-3-16.898c-0.801-0.903-2.602-4.801-3.898-8.699C67.5,23.398,63.801,18.5,54,9.398
			C46.801,2.699,43.102,0,41.398,0C40.699,0,36.898,2.5,32.801,5.602L32.801,5.602z M43.699,3.199c0.402,0.699,0.602,2,0.5,2.903
			C44,7.102,45,9,46.301,10.398C49,13.301,50.5,13.801,49.602,11.5c-0.301-0.898,0-1.5,0.898-1.5c0.801,0,1.5,0.699,1.5,1.5
			c0,0.801,0.699,1.5,1.5,1.5s3.602,2.199,6.301,4.898C65.398,23.5,69,31.699,69,39c0,5.301,1.102,6.801,3,4.5
			c1.102-1.398,1.5-1.398,2.898-0.102c3.801,3.5,1.402,15-3.398,16.204C70,60,68.301,59.699,67.398,58.898
			c-1.297-1-1.898-0.796-4.199,1.704c-4.199,4.597-8.5,7.199-14.898,9.199C42.102,71.699,40,71.699,40,69.5
			c0-0.699-0.699-1.897-1.602-2.602c-1.398-1.098-2-1-4,1.402C32.5,70.5,31.5,70.898,29.301,70.398
			C21.5,68.5,12.801,61,9.301,53.199C4.801,42.898,6.5,31.5,14,22c3.398-4.199,11.398-10,14-10c0.898,0,2.5-0.801,3.602-1.801
			c1-1,2.699-2.097,3.699-2.5C36.199,7.398,37,6.398,37,5.602C37,2.801,42.199,0.898,43.699,3.199L43.699,3.199z M49.398,8.102
			C48.398,9.699,47,9,47,6.898C47,5.102,47.199,5,48.5,6C49.301,6.699,49.699,7.602,49.398,8.102L49.398,8.102z M3.199,44.199
			C2.5,44.898,2,45,2,44.398C2,43,3.199,41.801,3.898,42.5C4.102,42.801,3.801,43.602,3.199,44.199L3.199,44.199z M5,48
			c0,1.199,0.898,4,2,6.199c2.398,5,1.898,6-1.5,2.801c-3-2.801-4.699-7.898-3.199-9.801C3.699,45.398,5,45.699,5,48L5,48z
			 M38,70.301c0,0.699-0.699,2.199-1.5,3.302c-1.898,2.5-1.898,3.397,0,3.397c0.801,0,1.5-0.897,1.5-2c0-1.102,0.602-2,1.398-2
			c1.204,0,1.301,0.699,0.5,3.199c-1.199,4.199-1.199,4.102,0.602,3.403c2.199-0.802,1.898,2.597-0.5,5.198
			C36.801,88.199,29,87,29,83.103c0-2.403-3.602-0.903-6,2.597l-2.5,3.699l-0.301-4.296c-0.301-4.403,2.602-14.403,3.903-13.5
			c0.398,0.198,1,2.198,1.398,4.397c0.398,2.5,1.199,4,2.102,4c1.597,0,1.796-2.301,0.398-5c-0.699-1.301-0.699-2.102,0-2.5
			c0.602-0.301,1.301,0.103,1.602,0.898c0.898,2.402,2.699,1.902,4.597-1.398C36,68.898,38,68,38,70.301L38,70.301z M56.602,76.199
			c2.199,2.403,5.398,6.602,7.199,9.5c2.898,4.5,3.199,5.403,2,7.199C65.102,94.103,64,95,63.398,95C62,95,56,88.398,56,87
			c0-0.602-0.699-1-1.5-1c-2,0-1.898,2.398,0,4c2.398,2,1.398,5.301-2,6.898C49.602,98.301,30,99.801,30,98.699
			c0-0.301,3-3.5,6.602-7.097c5.296-5.302,6.699-7.204,7.097-10.403c0.301-2.199,0-4.801-0.598-6c-1.203-2.199-1.703-2,8-3
			C52,72.103,54.5,73.898,56.602,76.199L56.602,76.199z M29.301,87.398c1.301,1.204,2.898,2.5,3.699,2.801
			C35.102,90.898,30.102,96,27.398,96c-2.699,0-7.398-5.301-5.097-5.801c0.801-0.199,1.898-1.398,2.5-2.699
			C26.199,84.398,26.301,84.398,29.301,87.398L29.301,87.398z M60.398,95.5c0.602,1.699-1.297,6.5-2.598,6.5
			c-1,0-1.102-6.397-0.102-7.301C58.699,93.603,59.699,93.898,60.398,95.5L60.398,95.5z M68.801,100.801
			c-0.402,0.199-1.602-0.198-2.699-0.698c-1.301-0.704-2.203-0.802-2.602-0.103c-0.898,1.398-2.5,1.199-2.5-0.301
			c0-0.699,1.699-2.301,3.801-3.5l3.699-2.097l0.5,3.198C69.301,99.103,69.199,100.603,68.801,100.801L68.801,100.801z
			 M55.602,100.603c-0.301,0.897-0.602,4-0.602,7c0,5.296-0.102,5.5-3.5,7c-4.801,2-5.5,1.796-5.5-1.5
			c0-2.903-1.398-4.103-5.102-4.103c-1.2,0-1.898,0.699-2,2c-0.296,4-0.5,4.5-1.898,4.103c-0.801-0.204-2.699-0.302-4.199-0.302
			c-3,0.098-3.801-1.698-3.801-9v-4.698l6.801,0.5c4.097,0.296,8.801-0.103,12.199-1C55.5,98.699,56.301,98.699,55.602,100.603
			L55.602,100.603z M37.398,118.603C38.301,119.398,39,121.199,39,122.5c0,2.699-3,4.103-11.199,5
			c-7,0.801-10.199-0.602-9.199-3.801c1.296-4.398,2.898-5.097,16.097-6.597C35.301,117.103,36.602,117.699,37.398,118.603
			L37.398,118.603z M60.898,119.5c4.703,2.301,6.102,4,6.102,7.103c0,2-14,1.897-18-0.103c-4.102-2.102-4.199-6.897-0.199-8.301
			C53.102,116.603,55.699,116.801,60.898,119.5L60.898,119.5z M60.898,119.5"/>
	</g>
	<path d="M29.102,14.801c-5.704,2.898-9.403,8.301-9.903,14.699c-0.398,4.801-0.097,5.898,1.801,8c1.301,1.398,3.398,2.5,4.602,2.5
		c1.199,0,3.597,1.301,5.199,3C34,46.199,37,46.898,37,44.602c0-0.801-1.199-1.704-2.602-2c-3.296-0.903-3-4.903,0.403-5.403
		c1.699-0.301,2-0.699,1.301-1.5c-1-1.301,0.796-8.699,2.097-8.699c0.5,0,0.801,1.801,0.801,4.102c0,3.296,0.602,4.699,3.398,7.5
		c5.301,5.296,11.5,4.296,14.203-2.102c2.898-6.898-1.801-18.699-8.5-21.5c-3.703-1.5-5.203-0.602-8.102,4.898L38.102,23.5
		L38,19.301c0-3.102-0.5-4.5-1.898-5.301C33.5,12.699,33.102,12.699,29.102,14.801L29.102,14.801z M35.5,22.5
		c0,6.398-2.398,12.801-5.102,13.898c-2.796,1.102-6.199,0.602-7.796-1c-5.102-5,3.5-20,10.898-19.097
		C35.301,16.5,35.5,17.199,35.5,22.5L35.5,22.5z M50,19c2.602,2.602,5,8.5,5,12.5c0,3.699-3.301,8.5-5.898,8.5
		c-2.902,0-6.902-4.5-7.703-8.398c-0.699-4.204,0.203-11.403,1.801-13.301C44.699,16.398,47.699,16.699,50,19L50,19z M50,19"/>
	<path d="M29.199,26.199c-1.5,1.5-1.597,4.5-0.199,5.301c1.602,1,4.102-1.602,3.801-3.801
		C32.398,25.199,30.801,24.602,29.199,26.199L29.199,26.199z M29.199,26.199"/>
	<path d="M44.602,28.699c-0.402,1,0.098,2.403,1.297,3.602c1.902,1.898,1.902,1.898,3-0.102c0.602-1.097,0.801-2.801,0.5-3.597
		C48.602,26.5,45.398,26.602,44.602,28.699L44.602,28.699z M44.602,28.699"/>
	<path d="M71.699,46.102c-1.199,0.699-1.598,1.699-1.098,3.097c0.398,1.301,0.098,2.403-0.703,2.903
		c-1,0.597-1.098,1.097-0.297,1.898c2,2,4.598-1.699,3.797-5.199C73,46.699,73.102,46,73.898,46.398
		C74.5,46.801,75,46.602,75,46.102C75,44.699,74,44.801,71.699,46.102L71.699,46.102z M71.699,46.102"/>
	<path d="M28,56.199c0,0.403,1.699,1.5,3.801,2.403C35,59.898,36.102,60,39.898,58.801c7.204-2.199,6-3.403-3.398-3.403
		C31.801,55.398,28,55.801,28,56.199L28,56.199z M28,56.199"/>
</g>
</svg>
