<?xml version="1.0" encoding="utf-8"?>
<!-- Generator: Adobe Illustrator 16.0.0, SVG Export Plug-In . SVG Version: 6.00 Build 0)  -->
<!DOCTYPE svg PUBLIC "-//W3C//DTD SVG 1.1//EN" "http://www.w3.org/Graphics/SVG/1.1/DTD/svg11.dtd">
<svg version="1.1" id="Layer_1" xmlns="http://www.w3.org/2000/svg" xmlns:xlink="http://www.w3.org/1999/xlink" x="0px" y="0px"
	 width="74px" height="129px" viewBox="0 0 74 129" enable-background="new 0 0 74 129" xml:space="preserve">
<g>
	<path d="M39.5,4c-3.301,1.602-8.398,3.699-11.398,4.602C23.898,9.801,21,11.801,14.602,17.5C10.199,21.602,5,26.301,3.199,27.898
		C0.398,30.5,0,31.5,0,35.801c0,4.699,0.398,5.398,6.801,13.097C13,56.199,19,62,19,60.602c0-0.301-2.102-2.704-4.602-5.301
		C9.102,49.801,7.602,46.699,9,44.102c1.301-2.602,0-3.403-2.199-1.5c-1.403,1.296-2.102,1.398-3.199,0.5
		c-2.403-2-3.102-9.301-1.204-13c1.801-3.301,5.204-4.204,6.204-1.602c1,2.602,2.597,1.602,2-1.301
		c-0.602-2.301,0.097-3.5,5.097-8.398C21.102,13.5,30.102,8.301,32,9.5c0.398,0.301,1.898-0.398,3.301-1.5
		c1.398-1.102,3.199-1.801,4-1.398c0.801,0.296,2.598-0.602,4-2c4.5-4.5,12.398-2.403,9.598,2.597C52.301,8.301,52.5,9.199,53.5,10
		c0.699,0.602,1.199,1.699,0.898,2.398C54.199,13,55.102,14.699,56.5,16c2.801,2.699,3.5,5.199,0.699,2.699
		c-2.398-2.199-4.398-2.097-6.301,0.102c-2.297,2.699-1.199,4.801,1.301,2.597c1.602-1.5,2.199-1.597,3.902-0.5
		c1.5,0.801,2.398,0.903,3.297,0.204c1-0.801,1.801,0,3.402,3.296c3.199,6.301,3.801,14.801,1.801,24
		c-1.801,8-3.801,11.204-3.5,5.403c0.199-2.301-0.703-4.699-2.902-7.903C55,41.102,51,38.801,51,41.699c0,0.801,0.898,1.699,2,2
		c3.602,0.903,1.898,3.801-2.301,4.102c-3.5,0.301-3.801,0.097-3.5-2c0.301-2-0.098-2.301-2.699-2C41.199,44.102,35,47,35,48.199
		c0,1.301,3.398,0.903,5.699-0.699c2-1.398,2.301-1.398,3.199,0.199c0.703,1.403,2.301,1.801,7.301,1.801
		C57.801,49.602,60,50.301,60,52.398c0,1-1.199,1.102-5.699,0.403c-8.699-1.403-16.199-0.602-21.903,2.398
		c-4.097,2.199-4.898,3-4.898,5.403c0,2.199,0.602,3.097,2.602,3.796c2,0.703,3.296,0.301,6.597-1.796
		c3.403-2.204,4.5-2.602,6.2-1.704c2.801,1.5,4.703,1.403,6.5-0.5c1.301-1.199,2.301-1.398,4.5-0.597
		c6.902,2.398,9.102,0.097,13.203-14L69.398,38l-2.199-7c-1.301-3.801-4-9.301-6.301-12.199c-2.199-2.903-4.199-6.403-4.5-7.801
		C54,0.602,54.301,1,49.699,1C47,1,43.301,2.102,39.5,4L39.5,4z M52,54.699C52,55.5,50.5,56,47.898,56c-3.598,0-4,0.199-2.898,1.5
		c0.699,0.898,1,1.898,0.602,2.301c-0.402,0.398-1.301-0.102-2-1.102C42.801,57.699,41,57,39.102,57c-4.301,0-3.903-1.801,0.699-2.5
		c2-0.398,4.398-0.801,5.199-0.898C48.301,53,52,53.602,52,54.699L52,54.699z M60,57c0,0.5-1.801,1-4.102,1
		c-2.398,0-3.797-0.398-3.398-1c0.301-0.602,2.199-1,4.102-1C58.5,56,60,56.398,60,57L60,57z M37,59.398C37,61,34.898,62,31.398,62
		c-3.097,0-3.199-2.699-0.097-3.301C35.699,57.898,37,58,37,59.398L37,59.398z M37,59.398"/>
	<path d="M37.801,13.602C35,15.102,34,17,36,17c0.602,0,2.602-0.602,4.5-1.398c2.102-0.903,3.699-1.102,4-0.5
		C45.301,16.301,49,16.301,49,15C49,12.102,42.102,11.199,37.801,13.602L37.801,13.602z M37.801,13.602"/>
	<path d="M5.5,33.199c0,6.102,2,7.5,3,2.199c0.5-2.898,0.199-4.097-1.199-5.5C5.5,28.102,5.5,28.199,5.5,33.199L5.5,33.199z
		 M5.5,33.199"/>
	<path d="M29.602,32.199C26.602,33.898,28,35,33.301,35c3.097,0,6.098,0.602,7.5,1.602C42.898,38,45,37.801,45,36.102
		C45,33.898,32.301,30.699,29.602,32.199L29.602,32.199z M29.602,32.199"/>
	<path d="M57,32.898c-4.5,0.903-6,1.801-6,3.704c0,1.796,1,1.699,3.398-0.102c1.102-0.801,3.5-1.5,5.301-1.5
		c2.5,0,3.102-0.398,2.699-1.5C62,32.699,61.5,32.102,61.102,32.102C60.801,32.199,58.898,32.5,57,32.898L57,32.898z M57,32.898"/>
	<path d="M58.801,38.301C55.801,39.5,55.102,41,57.398,41C59.801,41,64,39.102,64,38C64,36.801,62.398,36.898,58.801,38.301
		L58.801,38.301z M58.801,38.301"/>
	<g>
		<defs>
			<rect id="SVGID_1_" width="74" height="129"/>
		</defs>
		<clipPath id="SVGID_2_">
			<use xlink:href="#SVGID_1_"  overflow="visible"/>
		</clipPath>
		<path clip-path="url(#SVGID_2_)" d="M26.699,52.102c-3.801,3.199-5.699,8.296-3.801,10.199C23.699,63.102,24,62.699,24,60.898
			C24,58.199,29.102,52,31.301,52c0.801,0,1.699-0.699,2.097-1.5C34.398,47.898,30.602,48.801,26.699,52.102L26.699,52.102z
			 M26.699,52.102"/>
		<path clip-path="url(#SVGID_2_)" d="M53,65c-5.602,4-20.398,4.103-27.699,0.199c-3.301-1.801-17,4.699-17.903,8.403
			c-0.898,3.5,2.301,7.597,7.204,9.198c2.097,0.699,4,1.398,4.199,1.598C19,84.603,19.699,89.301,20.5,94.801
			c1.699,12.098,1,15.302-4.5,20.699c-3,3-4,4.699-4,7.103c0,4.698,2.199,6.397,8.398,6.397c7,0,10-2.301,12-9.301
			c0.801-2.801,2.301-6.301,3.204-7.597c2.296-3.204,3.398-1.204,3.398,6.097c0,7.699,1.699,9.403,10.199,10.301
			c3.402,0.398,7.902,0.5,9.801,0.301c3-0.301,3.5-0.698,3.801-3.198c0.398-3.403-2.301-6.603-7.902-9.103l-4-1.801l0.301-12.097
			l0.301-12l4.301-0.802c9.398-1.602,22.898-17.801,16.301-19.5C71,70,69.898,69.199,69.602,68.398c-0.301-0.796-2-1.398-4-1.398
			c-3.102,0-3.5,0.301-3.301,2.5c0.301,3.301,1.898,3.603,3.199,0.699c1.301-3,2.699-2.801,2.5,0.5
			c-0.301,4.403-0.102,4.699,2,2.801c3-2.699,3.5-1.102,1,2.699C67.898,80.603,66.102,82,63.301,82C60.102,82,56,79.199,56,77
			c0-1-0.602-2.199-1.301-2.801c-1.898-1.597-1.898-6.301,0-8.398C57,63.301,56,62.801,53,65L53,65z M26.199,68.103
			c4.403,2.198,18.102,3.198,22.602,1.597c2.098-0.801,2.301-0.597,1.801,1.102c-0.402,1.098,0,2.398,0.898,3.199
			c0.801,0.699,1.5,2.199,1.5,3.398C53,79.801,57.801,84,60.5,84c2.5,0,1.699,1.801-1.5,3.5c-3.801,2-6.699,1.898-7.801-0.102
			c-1.598-2.796-3.5-0.598-2.801,3.102l0.703,3.301l-6.5,0.699c-3.5,0.398-9.704,0.301-13.801-0.102L21.5,93.5v-3.897
			c0-3.704,0.199-4,3.102-4.302c2.296-0.301,4,0.302,6.296,2.199c3.903,3.301,6.704,3,6.403-0.801C37.102,84.301,37.5,84,40,84
			c3.5,0,3.801-0.397,3.301-5.602C42.699,73.301,40.5,72,32.199,72c-3.097,0-7.301-0.397-9.301-0.897
			c-4.199-1-6.796-0.103-4.699,1.698C19.602,73.898,19.898,74,23,74c1.699,0,1.898,0.603,1.602,4.699
			c-0.301,5.903-1.403,6.102-11.301,1.801c-3.801-1.699-5.403-5.801-3.199-8.102c1.097-1,10.296-6.098,11.699-6.296
			C21.898,66,23.898,66.898,26.199,68.103L26.199,68.103z M39.898,76.603c-1,1.296-1,1.698,0.203,2.5
			C41.199,79.801,41.199,80,39.801,80c-1,0-2.699,0.898-3.903,2.103c-1.597,1.597-1.796,2.296-0.796,3.5
			c2.199,2.698,0,2.698-3.102,0C30.301,84.199,28.398,83,27.898,83c-1,0-1.199-4-0.296-6.397c0.5-1.204,2.097-1.603,7.097-1.603
			C40.5,75,41.102,75.199,39.898,76.603L39.898,76.603z M38,97.699c3.602-0.301,7.398-0.699,8.5-0.898
			c1.801-0.301,2,0.302,2.301,7.898c0.301,8.903,0.801,8-6,9.903C41.398,115,41,114.5,41,112c0-2.397-0.602-3.301-2.602-4
			c-3.2-1.301-4.098-0.699-4.898,3c-0.398,1.603-1,3.199-1.398,3.398c-0.403,0.301-3-0.296-5.801-1.199
			c-5.102-1.699-5.102-1.699-3.699-4.398c1-1.902,1.097-3.801,0.5-7.198c-0.403-2.5-0.602-4.704-0.403-5
			c0.199-0.204,2.301,0.097,4.602,0.597C29.602,97.699,34.398,97.898,38,97.699L38,97.699z M30.199,118.5
			c-0.699,5.301-1.301,6.301-4.898,7.801c-5.102,2.199-10.699,1.098-11.102-2.198c-0.199-1.302-0.097-3.403,0.301-4.802
			c0.5-2.198,1-2.402,3.801-2.102c1.801,0.301,4,0.801,5,1.301C24.5,119,25,118.801,25,117.5c0-1.199,0.699-1.602,2.801-1.301
			C29.801,116.398,30.398,117,30.199,118.5L30.199,118.5z M47,117c0,0.603,1.102,0.801,2.5,0.398c1.898-0.5,2.5-0.199,2.5,1
			C52,119.5,52.898,120,55.301,120c3.898,0,5.699,1.5,5.699,4.699c0,2.199-0.398,2.301-6.898,2.301c-6.902,0-12-1.199-13.203-3.102
			c-1-1.699,0.301-6.796,2-7.199C45.801,115.898,47,116,47,117L47,117z M47,117"/>
	</g>
	<path d="M58.199,70.301C56,72.603,56.199,74,58.602,74c1,0,2.699-5,2-5.699C60.398,68.103,59.398,69.103,58.199,70.301
		L58.199,70.301z M58.199,70.301"/>
</g>
</svg>
