<?xml version="1.0" encoding="utf-8"?>
<!-- Generator: Adobe Illustrator 16.0.0, SVG Export Plug-In . SVG Version: 6.00 Build 0)  -->
<!DOCTYPE svg PUBLIC "-//W3C//DTD SVG 1.1//EN" "http://www.w3.org/Graphics/SVG/1.1/DTD/svg11.dtd">
<svg version="1.1" id="Layer_1" xmlns="http://www.w3.org/2000/svg" xmlns:xlink="http://www.w3.org/1999/xlink" x="0px" y="0px"
	 width="68px" height="133.002px" viewBox="0 0 68 133.002" enable-background="new 0 0 68 133.002" xml:space="preserve">
<g>
	<g>
		<defs>
			<rect id="SVGID_1_" width="68" height="133"/>
		</defs>
		<clipPath id="SVGID_2_">
			<use xlink:href="#SVGID_1_"  overflow="visible"/>
		</clipPath>
		<path clip-path="url(#SVGID_2_)" d="M26.301,2.199C25.199,3.5,23.398,5.801,22.398,7.5c-1,1.602-4.5,6.102-7.597,9.898
			C8.199,25.301,5,32.801,5,40.398c0,3.704-0.602,6.102-1.898,7.704c-2.903,3.699-3.403,8.097-1.5,12.796
			c2,4.903,3.796,6.102,9.597,6.102C15.398,67,20,69.103,20,71c0,0.5-2.199,2.103-4.898,3.5C7,78.603,2.602,86.199,5,92.103
			C5.699,93.699,6.602,95,7.102,95c1,0,4,5.603,8.398,16.199L18.801,119l-2.102,1.103c-6.898,3.597-9.801,9.698-5.5,12
			c4.403,2.397,21-1,22.403-4.5c0.5-1.302-0.403-5.802-2.102-9.903c-1.301-3,1.199-1.801,3.199,1.602
			c1.5,2.398,1.801,3.898,1.102,5.699c-1.3,3.5,1.598,5.801,8.699,7c9.102,1.5,15.5,1.301,16.102-0.5
			c1.199-3.102-1.703-7.5-6.5-9.801c-3.801-1.898-5.203-3.5-8-8.801c-3-5.796-3.301-6.898-2.703-12.598
			c0.301-4.102,1.5-8,3.602-11.902C50,82.801,51.102,75,49,75c-2.699,0-0.398-3.301,5.102-7.602c7.5-5.796,11.398-11,12.898-17.597
			c1.699-7,0.699-16.903-2.5-23.403c-3-6.097-12.199-15.199-16.301-16c-1.598-0.296-5.398-2.796-8.598-5.5
			C33.102-0.602,29.602-1.301,26.301,2.199L26.301,2.199z M35.699,4.5C37.199,6.398,39,8,39.602,8C40.301,8,41,8.699,41.398,9.5
			c0.301,0.801,1.203,1.5,2.102,1.5c0.801,0,1.5,0.699,1.5,1.5c0,1.102,0.699,1.301,2.898,0.898c2.5-0.5,3.602,0.102,8,4.301
			c6,5.801,6.5,7.699,1.801,6.801c-2.5-0.5-3.898-0.102-5.699,1.301c-3.199,2.597-2,3.801,2,2.199c2.199-0.898,3.398-1,4.102-0.301
			C59.5,29.102,57.699,32.5,55,34c-2.398,1.301-2.602,3-0.301,3C57.398,37,61,32.898,61,29.801c0-4.102,2.5-3.5,3.801,1.097
			c1.699,5.403,1.5,17.5-0.301,21.801C62.301,57.801,56.602,63.898,50.102,68c-5.203,3.199-6.203,3.398-13.602,3.5
			c-9,0-14.102-1.5-18.602-5.199c-2.296-1.903-3.296-2.301-4.199-1.403C12,66.602,7.398,66.199,5.398,64.301
			C4.5,63.398,3.199,61.199,2.5,59.602c-1.199-2.704-1.102-3.204,0.699-4.801C5.801,52.602,8.5,54.102,7,57c-1.102,2,1.5,5,4.301,5
			c2.699,0,2.801-1.699,0.199-2.398c-2.102-0.5-2.398-1-1.602-2.5c0.801-1.403,0.5-2.301-1.5-4.204c-2.199-2-2.796-2.199-4.597-1
			c-1.699,1-1.903,1-1.602-0.097C2.5,51.102,4.199,50.301,6,50c2.898-0.398,3.102-0.699,1.699-1.801
			c-1.301-1.097-1.5-2.699-1.199-7.898c0.602-8.699,3.801-15.403,11.102-22.801c3.199-3.301,5.699-6.5,5.597-7.199
			C23,9.602,23.898,8.602,25,8c1.102-0.602,1.801-1.5,1.602-1.898C25.699,4.801,29,1,31,1C32.102,1,34.199,2.602,35.699,4.5
			L35.699,4.5z M40.398,74.199c6.5-0.301,7.602,0.403,7.602,5.199c0,6.704-7.102,16.102-14.102,18.5
			c-2.296,0.801-3.699,0.5-7.796-1.699c-2.801-1.398-5.102-3-5.102-3.597c0.102-1.802,4.898-4.802,6.801-4.204
			c2.301,0.704,3.597-0.199,6.597-4.699c3-4.398,3.301-6.199,1-5.301c-0.898,0.402-2.296,0.102-3-0.5
			C31.5,77.199,29.301,77,26.801,77.301c-3.199,0.398-4.5,0.199-5.5-1.102c-2.301-3.097-1.403-3.5,6-2.597
			C31.199,74.103,37.199,74.301,40.398,74.199L40.398,74.199z M19.398,76.898c1.602,1.801,1.5,1.902-3,2.602
			c-2.898,0.398-5,0.301-5.699-0.397c-0.801-0.802-0.5-1.103,1-1.103c1.102,0,2.602-0.699,3.301-1.5
			C16.602,74.5,17.301,74.603,19.398,76.898L19.398,76.898z M32,79.801c0,3-2.801,6.098-5.898,6.598C22.199,87,21,86.5,21,84.398
			C21,81.801,24.801,79,28.5,79C30.398,79,32,79.398,32,79.801L32,79.801z M14.602,82.5c4.296-2.199,5.5-1.897,4.796,1
			c-0.296,1.398-0.097,3.103,0.403,3.801c1.398,1.598,0.699,2.5-4.602,6.098L11,96.301L8.5,94
			c-2.898-2.699-3.199-5.801-0.898-10.199c1.5-2.902,1.796-3,2.898-1.5C11.602,83.898,12,83.898,14.602,82.5L14.602,82.5z
			 M20.199,94.699c0.801,1.903,7.403,5.602,10.699,6C33.699,101,35.301,100.603,38,98.5c3.898-2.801,4.5-2.301,3.199,2.603
			c-0.699,3.097-1.301,3.5-6.301,4.698c-4.199,1-6.898,1-12.097,0.199c-7.199-1.199-9.301-2.397-10.199-5.602
			c-0.5-1.699,0-2.598,2.597-4.199C18.898,93.898,19.699,93.699,20.199,94.699L20.199,94.699z M29.301,109c4.898,0,8-0.5,9.301-1.5
			c2.598-1.897,3.398-1.897,3.398,0.398c0,1,1.102,3.902,2.5,6.5c2.398,4.5,3.602,8.902,1.602,5.704
			c-0.801-1.204-1.602-1.302-4.5-0.403c-3.402,1-3.602,1-5.5-2.199c-1.5-2.602-2.704-3.397-5.704-3.699
			c-4.296-0.602-6.796,0.598-3.597,1.598c1.097,0.402,2.199,1.602,2.5,2.704c0.398,1.5,0.199,1.897-1,1.5
			C27.5,119.301,25.398,119,23.602,119c-3.102,0-3.5-0.301-5.5-5.897c-2.704-7.403-2.704-7.403,0.898-5.603
			C20.801,108.398,24.602,109,29.301,109L29.301,109z M31,124.103c1.898,3.397,0.5,4.597-7.301,6.397
			C14.898,132.603,11,132,11,128.603c0-3.5,2.898-5.403,9-5.903c3-0.199,6.5-0.398,7.699-0.5
			C29.102,122.103,30.398,122.801,31,124.103L31,124.103z M45.301,123.398c0.398,1,1.898,1.204,5.5,0.801
			c4.301-0.398,5.098-0.097,6.598,1.903c0.902,1.296,1.602,3.198,1.602,4.296c0,1.704-0.5,1.801-6.699,1.204
			c-3.801-0.302-8.5-1.103-10.5-1.603C38.5,129.103,38,128.5,38,126c0-1.897,0.602-3,1.801-3.301
			C43.102,121.801,44.801,122,45.301,123.398L45.301,123.398z M45.301,123.398"/>
	</g>
	<path d="M26.602,14.398c-3.301,3-4.602,5.602-3,5.602c0.398,0,2.199-1.398,4.199-3.102c3.199-2.796,4-3.097,8.398-2.597
		c4.902,0.597,6.301-0.403,2.902-2.301C35.102,9.898,30.301,10.801,26.602,14.398L26.602,14.398z M26.602,14.398"/>
	<path d="M40.699,26.699c-1.5,0.801-4.5,1.5-6.699,1.5c-4.301,0-5.898,1.301-4.102,3.102C30.602,32,32.602,32,36.699,31.102
		c6.402-1.5,9.301-3,9.301-4.801C46,24.699,44.301,24.801,40.699,26.699L40.699,26.699z M40.699,26.699"/>
	<path d="M44.301,61.199C43,61.801,42,62.898,42,63.699c0,1.602,2.602,1.699,3.602,0.199C46,63.199,47.699,63,49.699,63.301
		c2.801,0.5,3.402,0.301,3.102-1.102C52.398,60.102,47.5,59.602,44.301,61.199L44.301,61.199z M44.301,61.199"/>
</g>
</svg>
