<?xml version="1.0" encoding="utf-8"?>
<!-- Generator: Adobe Illustrator 16.0.0, SVG Export Plug-In . SVG Version: 6.00 Build 0)  -->
<!DOCTYPE svg PUBLIC "-//W3C//DTD SVG 1.1//EN" "http://www.w3.org/Graphics/SVG/1.1/DTD/svg11.dtd">
<svg version="1.1" id="Layer_1" xmlns="http://www.w3.org/2000/svg" xmlns:xlink="http://www.w3.org/1999/xlink" x="0px" y="0px"
	 width="79px" height="137px" viewBox="0 0 79 137" enable-background="new 0 0 79 137" xml:space="preserve">
<g>
	<g>
		<defs>
			<rect id="SVGID_1_" width="79" height="137"/>
		</defs>
		<clipPath id="SVGID_2_">
			<use xlink:href="#SVGID_1_"  overflow="visible"/>
		</clipPath>
		<path clip-path="url(#SVGID_2_)" d="M33.5,4.102c-2.199,2.199-6.699,6.199-10,8.699C16.602,18.199,16,18.699,12,25.699
			c-2.102,3.699-4.102,5.699-6.398,6.699C1.102,34.301,0,36.602,0,44.5c0,5.801,0.301,6.801,2.5,8.801
			c1.398,1.199,4.301,3.898,6.301,6.097c2,2.102,5.801,6,8.5,8.602C19.898,70.603,22,73,22,73.398c0,0.301-3.102,1.402-6.898,2.602
			C7.5,78.199,4,81.398,4,85.898c0,1.402-0.199,4-0.602,5.801c-0.5,2.602-0.199,3.403,1.903,4.801c2.398,1.603,2.801,1.5,7-0.301
			c5.597-2.5,6.097-3.301,4-7.097c-2.102-3.5-1-5.302,3.199-5.302c3.801-0.102,5.5,2.802,4.898,8.199
			c-0.296,2.5-0.097,6.301,0.403,8.5c0.597,2.199,1.398,8.103,1.801,13.103l0.597,9l-3.301,1c-2.398,0.698-3.898,2-5.199,4.397
			c-1.699,3.398-1.699,3.5,0.403,5.301c3.097,2.5,15.199,1.802,18.199-1.198c0.5-0.5,0.898-4,0.801-7.603
			c-0.102-5.199,0.199-6.699,1.398-7.199c2.801-1,3.898,1.398,4.5,9.398l0.5,7.699l4,1.204c6,1.796,15,1.698,16.898-0.204
			c3.301-3.296,0.402-8.598-5.398-9.898c-5.602-1.199-6.398-3.897-6.801-23C52.699,83.699,53,82.898,58.5,85
			c2.898,1.103,3.102,2.199,1,4c-3.398,2.801-0.398,5.301,7.602,6.603c3,0.5,4.398,0.198,5.898-1.103
			c2.398-2.199,2.602-5.801,0.398-7.602C72.5,86.199,71.102,84,70.199,82.103c-1.301-2.704-3.199-4.302-7.5-6.5l-5.898-2.903
			l3.398-3.097c1.801-1.704,5.102-5.301,7.199-7.903C69.602,59,72.602,56.199,74,55.5c3.699-1.898,5.199-6,4.801-13.102
			c-0.301-5.898-0.301-5.898-4.699-8c-3.402-1.597-5-3.296-7.402-7.898C62.602,18.801,55.801,11.5,51,9.398c-2.301-1-4-2.5-4-3.398
			c0-3.199-3-6-6.398-6C38.199,0,36.5,1,33.5,4.102L33.5,4.102z M44.398,2.898C45.602,4.199,45.801,5,45,5.5
			c-1.5,1,3.699,6.5,5.5,5.898c0.699-0.296,3.801,1.903,6.801,5C63.102,22.199,68,30.5,68,34.602c0,2.699,1.102,3,4,1.199
			c5.602-3.602,8.602,9.898,3.5,16c-1.699,2-3.199,2.801-4.398,2.5c-1.402-0.301-2,0.199-2.5,2.199
			c-0.402,1.5-3.301,5.301-6.402,8.5C55.301,72,51.5,73.398,38,73.398c-7.898,0.102-10.199-0.296-13.5-2.098
			c-5.602-3-9.699-7-13-12.602c-1.699-3-3.301-4.597-4.102-4.301c-0.699,0.301-2.296-0.296-3.5-1.296
			C2.102,51.602,1.5,50,1.199,44.801C0.801,39.102,1.102,38,3.301,35.5C5.398,32.898,6,32.699,7.398,33.898
			c0.903,0.801,1.801,1.204,1.903,1c0.097-0.199,1.597-3.296,3.199-6.796C15.699,21.199,22.199,14,25.199,14
			c1,0,1.801-0.398,1.801-0.898s0.898-1.301,2-1.602c1.102-0.301,2-1.301,2-2.102c0-1.097,0.602-1.296,2-0.898
			c1.602,0.5,2,0.199,2-1.602C35,1.801,41-0.801,44.398,2.898L44.398,2.898z M60.602,76.103c5.598,2.5,8.398,4.597,8.398,6.5
			c0,1.097-0.5,1.097-2.5,0.198c-1.801-0.801-2.801-0.801-3.801,0c-0.898,0.802-2.398,0.898-4.301,0.302
			c-1.598-0.403-3.898-0.403-5.199,0C51.102,83.898,51,84.5,51,92.898v9l-11.699,0.301c-6.5,0.199-12,0.199-12.199,0.102
			c-0.204-0.198-0.801-4.602-1.204-9.902C25.5,87.199,25,82.603,24.699,82.301C23.5,81.103,17,81.699,15.301,83.199
			c-1,0.801-2.403,1.301-3,1.102c-0.699-0.301-2,0.302-2.903,1.199c-1.699,1.699-3.5,1.603-4.097-0.199
			C5.102,84.699,5.898,83,7.199,81.603C10.102,78.199,22.801,74.5,28,75.5c7,1.301,13.602,1.301,19.5,0.103
			C55.699,73.801,55.199,73.801,60.602,76.103L60.602,76.103z M66,86c0,2.398,1.5,2.603,2.398,0.301c0.5-1.102,1-1.301,1.703-0.602
			C70.898,86.5,70.801,87.398,70,89c-1.398,2.699-0.301,4.103,1.398,1.699C72.102,89.801,73,89,73.398,89c1.301,0,0.5,2.103-1.398,4
			c-1.5,1.5-2.5,1.801-3.801,1.199c-0.898-0.5-3.398-1.199-5.398-1.597C59.199,91.898,57.398,90,60.398,90
			c0.801,0,1.902-1.397,2.5-3C64,83.603,66,83,66,86L66,86z M14.602,89.5L17,92l-4.602,2.199c-3.398,1.699-4.898,2-6.199,1.199
			C3.602,93.801,3.398,91,5.898,91.699c1.602,0.403,1.903,0.102,1.403-1.597c-0.699-2.603,0.5-2.704,2.301-0.403
			c1.199,1.699,1.296,1.602,1.398-0.5C11,86.398,11.699,86.398,14.602,89.5L14.602,89.5z M51.801,113.398
			c0.699,4.902,1.098,9,1,9.102c-0.199,0.103-2,0.5-4,0.801c-3.602,0.5-3.801,0.398-3.801-2c0-1.5-0.699-3.5-1.699-4.5
			c-3.102-3.5-7.301-1.602-7.301,3.302c0,2.397-0.398,2.698-2.5,2.5c-4-0.403-4.801-1.903-5.301-10l-0.5-7.5l3.903-0.403
			c2.199-0.199,7.296-0.398,11.398-0.301l7.5,0.102L51.801,113.398z M37,127.398c0,2.902-0.398,3.602-3.102,4.5
			C32.102,132.5,28.301,133,25.301,133c-6.102,0-7.5-1.5-4.903-5.5c1.403-2.102,2.5-2.5,8.301-2.801
			c3.801-0.199,7.102-0.398,7.602-0.5C36.699,124.103,37,125.5,37,127.398L37,127.398z M54,126.199c0,0.5,1.699,0.801,3.801,0.801
			c4.699,0.103,7.5,2.103,7,5.103c-0.402,2.796-5.5,4.198-10.801,2.897c-1.898-0.397-4.699-1.102-6.199-1.397
			c-2.199-0.5-2.801-1.204-2.801-3.403c0-1.5,0.5-3.301,1.102-3.898C47.301,125.103,54,125,54,126.199L54,126.199z M54,126.199"/>
	</g>
	<path d="M26.301,17.801c-6.5,5.5-10.102,17-7.102,22.5c2.903,5.5,6.301,5.898,11.403,1.5c4.796-4.199,7.398-10,7.398-16.602
		c0-4.301-0.5-5.699-2.5-7.699C32.398,14.301,30.199,14.398,26.301,17.801L26.301,17.801z M33.801,18.801
		c2.097,1.398,2.699,10.398,0.898,13.898C31.898,38,28,42,25.398,42c-6.199,0-5.699-13.102,0.801-20.5
		C29.199,18,31.301,17.301,33.801,18.801L33.801,18.801z M33.801,18.801"/>
	<path d="M29.699,30.398C29,32,29.801,33,31.699,33C32.398,33,33,32.102,33,31C33,28.699,30.5,28.301,29.699,30.398L29.699,30.398z
		 M29.699,30.398"/>
	<path d="M43.801,17.898C40.602,20.801,40.5,21,40.5,29.301c0,7.699,0.301,8.801,2.398,11.097c2.602,2.704,5.902,3.301,9.203,1.602
		C54.5,40.699,57,34.801,57.199,30.102c0.102-4.801-3.5-11.704-7.199-13.602C47.199,15,46.898,15.102,43.801,17.898L43.801,17.898z
		 M51.102,20.898C53.699,23.5,54,24.602,54,29.801c0,10.699-6.5,15-10.398,6.699c-2.102-4.602-1.801-12,0.797-15.898
		C46.5,17.301,47.5,17.301,51.102,20.898L51.102,20.898z M51.102,20.898"/>
	<path d="M44.301,30.602c-0.801,2.097,1.301,4.199,2.801,2.699C48.398,32,47.602,29,46,29C45.398,29,44.699,29.699,44.301,30.602
		L44.301,30.602z M44.301,30.602"/>
	<path d="M4.398,38.602c0.301,0.796,0.102,2.398-0.5,3.5c-0.796,1.597-0.699,2.597,0.602,4.5C6.199,49.301,8,49.801,8,47.5
		C8,46.699,7.602,46,7,46c-1.5,0-1.199-3.102,0.602-5.102C9.5,38.801,8.699,37,5.801,37C4.398,37,4,37.5,4.398,38.602L4.398,38.602z
		 M4.398,38.602"/>
	<path d="M70.898,39.602C69.801,41,69.801,41.398,71.301,42.5c1.301,0.898,1.598,2,1.098,4c-0.598,2.5-0.5,2.602,1.5,1.301
		c2.5-1.602,2.602-2.602,0.402-5c-1.5-1.699-1.5-1.801,0.098-1.801c2.102,0,1.602-2.398-0.598-2.801
		C73,38,71.699,38.699,70.898,39.602L70.898,39.602z M70.898,39.602"/>
	<path d="M34.699,40.801c-2.199,2.5-2.097,5.5,0.199,7.597c2.301,2.102,5.403,1.801,5.903-0.699c0.301-1.301-0.199-1.597-2-1.5
		c-1.699,0.199-2.403-0.301-2.602-2C36,43,36.301,42,36.898,42C37.5,42,38,41.301,38,40.5C38,38.5,36.699,38.602,34.699,40.801
		L34.699,40.801z M34.699,40.801"/>
	<path d="M30.5,59.801c-4.102,2.5-5.699,4.597-4.898,6.5c0.898,2.301,3.699,3,8.097,1.801c4.801-1.301,11.2-1.602,13.903-0.704
		c3.098,1,7.297-2.597,5.797-5.097C50.801,58,36.102,56.398,30.5,59.801L30.5,59.801z M49.398,61.602
		C50.301,61.898,51,62.898,51,63.699c0,1.199-0.898,1.403-4.801,0.801C43.5,64.199,38.5,64.398,35.102,65
		c-7.204,1.301-8.704,0.699-5.204-2.102C31.699,61.398,33.801,61,40,61C44.301,61,48.5,61.301,49.398,61.602L49.398,61.602z
		 M49.398,61.602"/>
</g>
</svg>
