<?xml version="1.0" encoding="utf-8"?>
<!-- Generator: Adobe Illustrator 16.0.0, SVG Export Plug-In . SVG Version: 6.00 Build 0)  -->
<!DOCTYPE svg PUBLIC "-//W3C//DTD SVG 1.1//EN" "http://www.w3.org/Graphics/SVG/1.1/DTD/svg11.dtd">
<svg version="1.1" id="Layer_1" xmlns="http://www.w3.org/2000/svg" xmlns:xlink="http://www.w3.org/1999/xlink" x="0px" y="0px"
	 width="83px" height="129px" viewBox="0 0 83 129" enable-background="new 0 0 83 129" xml:space="preserve">
<g>
	<g>
		<defs>
			<rect id="SVGID_1_" width="83" height="129"/>
		</defs>
		<clipPath id="SVGID_2_">
			<use xlink:href="#SVGID_1_"  overflow="visible"/>
		</clipPath>
		<path clip-path="url(#SVGID_2_)" d="M35.398,0.801c-0.597,0.398-2.5,2.801-4.296,5.398C29.398,8.801,27,11.5,25.801,12.102
			C20.898,14.699,13.602,22.801,10.898,28.5C9.301,31.801,8,35,8,35.699s-1.602,2.903-3.602,4.903C1,43.898,0.801,44.5,1.199,49.199
			c0.699,7.199,3.403,10.301,9,10.301c3.5,0,5.199,0.602,7.903,3C20,64.102,22.699,66.301,24,67.301
			c1.699,1.199,2.102,1.898,1.199,2.302C24.5,69.898,22.602,72.801,21,76c-1.602,3.301-4.699,7.699-6.898,10
			c-3.301,3.5-4.5,4.103-7.301,3.801c-2.801-0.198-3.199,0-3,1.598C4,92.398,3.199,94.301,2,95.5c-2.5,2.699-2,4.301,3.102,9
			l3.296,3l-2.097-3.602c-1.5-2.699-1.801-4-1-4.796c0.597-0.603,0.801-1.403,0.398-1.802c-0.398-0.402-1.301-0.102-1.898,0.5
			C2.398,99.199,1,99.398,1,98.199c0-0.5,1.199-1.398,2.602-2.097C5.5,95.301,6.102,94.398,5.699,93c-0.898-3.397,4.5-2.602,7.199,1
			l2.204,3.103l-2.301,2c-3.903,3.5,0.398,0.698,5.301-3.302c2.5-2.102,5-3.801,5.699-3.801c1.597,0,3,6.199,3.398,14.801
			l0.301,7.302l-3.801,2.198c-4,2.302-5.699,5.898-4,8.598c1.199,2,14.5,2.704,18.801,1.102c2.602-1,2.699-1.301,2.102-5.801
			c-1.204-8-1.204-8.398,0.699-9.597c2.898-1.802,4.699,1.698,4.699,9.097v6.199L49.898,127c6.602,1.699,15.902,1.603,17.801-0.301
			c2.699-2.699,0.699-6.597-4.898-9.398c-5.102-2.602-5.199-2.801-6.402-15.102c-0.5-5.801-0.297-7.699,1-9.699L59,90l8.301,5.603
			c4.5,3,8.801,6.296,9.5,7.198c1.199,1.598,1.5,1.398,3.898-1.198c2-2.403,2.402-3.603,1.801-6.5c-0.301-2-0.699-4.603-0.801-5.903
			c-0.199-2.199-0.5-2.301-4.5-1.699c-5.801,0.898-9.699-1.801-16.301-11.199c-2.699-4-5.398-7.5-5.898-7.801
			C53.5,67.603,67,56,70.301,55.301c3.699-0.801,5.598-3.801,6.398-10C77.301,39.699,75.898,36,73.102,36
			c-2.301,0-3.301-1.301-5.5-7.199c-2.5-6.699-6.703-12.102-13.301-16.903c-3.199-2.296-7.5-5.898-9.5-8
			C41.199,0.199,37.898-0.898,35.398,0.801L35.398,0.801z M42.5,3.699C43,5,43.801,6,44.301,6c0.398,0,2,1.301,3.5,2.898
			c1.5,1.602,3.699,3.204,4.898,3.5c2.801,0.903,9.602,8.403,12.102,13.301c1,2.102,2.5,5.903,3.301,8.5
			C68.801,36.898,70,39,70.699,39S72,38.5,72,38c0-0.602,0.699-1,1.5-1s1.5,0.699,1.5,1.5c0,0.801-0.602,1.5-1.398,1.5
			c-1.703,0-2.801,2.398-2,4.5c0.398,0.801,0.098,2.199-0.602,3c-1.5,1.801-0.699,3,1.5,2.199c0.898-0.398,1.5-1.898,1.5-4.097
			c0-1.903,0.5-3.801,1-4.102c1.301-0.801,1.301,3-0.102,7.801c-1.098,3.898-3.598,5.898-4.797,3.801
			c-0.5-0.801-3.402,1.398-8.602,6.296c-6,5.703-9.199,8-13.801,9.602c-4.801,1.801-6.398,2-8.398,1.103
			C38,69.5,35.898,69,34.801,69c-4.403,0-18.5-8.5-21.102-12.699c-1.199-1.903-2.398-1.602-3,0.801c-1.398,5.398-8-2.102-8-9.204
			c0-4.699,1.903-7.199,4.801-6.5c2,0.5,2.301,0.102,2.801-4.898c0.5-5.398,3-10.699,7.097-15.398c3.102-3.5,9.704-8.102,10.704-7.5
			c0.5,0.296,1.898-0.204,3.097-1c1.5-1.102,2.602-1.204,4-0.5C36.602,12.801,37,12.699,37,11.5c0-1-1-1.5-3.199-1.5h-3.102
			l2.102-2.301C34,6.398,35,4.898,35,4.398C35,0.699,40.898,0.199,42.5,3.699L42.5,3.699z M42.398,73c2.102,0,5.301-0.897,7.102-2
			c4-2.5,5-1.801,10.801,7c2.301,3.5,5.598,7.398,7.398,8.5c3.602,2.199,3.902,3.199,1.801,5.898C68.199,94.199,68,94.199,64.602,92
			c-2-1.199-4.5-3.301-5.602-4.699c-1.102-1.402-2.301-2.402-2.602-2.102C56.199,85.5,55.699,88.398,55.5,91.5
			c-0.199,3.199-0.801,6.103-1.199,6.603c-1.199,1-18.301,2.796-22.102,2.198c-4.301-0.698-5.597-3.801-4.898-11.602
			C27.699,84.5,27.5,83,26.5,83c-0.699,0-1.5,1.301-1.801,2.898C24,89.103,19.398,94,17.102,94c-0.704,0-1.903-0.801-2.602-1.699
			c-1.102-1.5-0.801-2.301,2.199-5.602c1.903-2.097,4.301-6,5.403-8.5c1.097-2.597,2.898-5.699,4-6.801c2-2.199,2-2.199,7.199-0.296
			C36.102,72.199,40.199,73,42.398,73L42.398,73z M79.102,91.898c-1.5,2.704-1.402,3.301,0.699,2.704
			c1.301-0.403,1.699,0,1.801,1.897c0.098,1.5-0.301,2.5-1.203,2.5C79.602,99,79,99.801,79,100.699c0,1.403-0.301,1.403-2.199-0.398
			c-1.301-1.102-3.301-2.602-4.5-3.198c-2.199-1.103-2.199-1.302-0.602-3.704c1.699-2.598,7.602-5.699,8.102-4.296
			C80,89.5,79.699,90.801,79.102,91.898L79.102,91.898z M55.398,103.199c0.301,1.301,0.602,4.199,0.602,6.5
			c0,3.403-0.398,4.301-1.699,4.301c-1,0-2.801,0.301-4,0.603c-1.699,0.5-2.301,0.198-2.301-1c0-3.903-1.699-5.302-5.699-4.704
			c-2.903,0.5-3.903,1.102-4.102,2.902c-0.301,1.802-1,2.199-4.301,2.199c-3.398,0-4.097-0.397-5-2.699
			c-0.597-1.5-0.796-4.198-0.398-6c0.602-3.198,0.602-3.198,5.301-2.698c2.597,0.296,7.597,0.097,11.199-0.403
			C54.699,100.801,54.699,100.801,55.398,103.199L55.398,103.199z M39.398,119.801c1.204,4.398,0.301,5.098-7.597,5.898
			c-10.903,1-14-0.801-10-5.699c1.301-1.699,2.898-2.199,6.5-2.199c2.597-0.102,5-0.5,5.301-1
			C34.898,114.699,38.5,116.603,39.398,119.801L39.398,119.801z M54,117.103c0,0.698,1,0.897,2.602,0.5
			c2.199-0.603,2.5-0.403,1.898,1.397c-0.398,1.103-0.199,2,0.398,2C59.5,121,60,120.5,60,120c0-0.602,1.102-1,2.5-1
			c3.301,0,6.301,4.301,4.5,6.5c-1.5,1.801-9.699,1.898-15.5,0.103c-3.199-0.903-4.102-1.704-4.301-3.802
			c-0.301-2.102,0.301-3,2.5-4.198C53.102,115.801,54,115.699,54,117.103L54,117.103z M54,117.103"/>
	</g>
	<path d="M39.5,10c-0.602,1-0.5,1.102,3.398,1.301c1.301,0.097,2.602,0.801,2.902,1.5c0.199,0.699-0.199,1.301-0.902,1.097
		c-3-0.398-4,0.204-5,2.801L38.801,19.5l-1-2.898c-0.903-2.5-1.403-2.801-4.403-2.301c-8.5,1.398-16.199,12.801-13.5,19.898
		c1,2.5,1.5,2.801,6,2.801C30,37,31,37.398,31.5,39c0.699,2.398,4.102,4.398,5.602,3.398c0.699-0.398,0.097-1.5-1.704-2.898
		c-3.5-2.801-2.796-5.898,1.102-4.898C38,35,39,34.801,39,34.102C39,33.5,38.301,33,37.5,33c-1.602,0-1.801-1.199-0.898-4.801
		C37.398,25.301,39,25.398,39,28.398c0,1.301,0.898,3.5,2.102,5C42.699,35.5,44,36,47.398,36c5.5,0,7.602-2.199,7.602-8
		c0-4.301-4-13-6-13c-0.602,0-1-0.602-1-1.398C48,10.102,41.199,7.301,39.5,10L39.5,10z M50.398,20.301
		C52.801,23.5,53.199,31.602,51,33c-2.102,1.398-5.301,1.199-7.5-0.398c-2.602-1.903-3.301-11.704-1.102-15.204
		C44,15.102,44.301,15,46.301,16.301C47.5,17.102,49.301,18.898,50.398,20.301L50.398,20.301z M35.398,22.301
		C35.301,28.5,34.5,30.398,33,28c-0.801-1.301-1.102-1.301-2.602,0.199C28.602,30,29.301,32,31.699,32
		c1.199,0,1.301,0.301,0.403,1.398c-1.301,1.602-7.602,1.5-9.301-0.199c-2.199-2.199,0.097-8.5,4.898-13
		C33.801,14.398,35.5,14.801,35.398,22.301L35.398,22.301z M35.398,22.301"/>
	<path d="M44.398,27.5C43.5,29.602,44.699,32,46.5,32c2,0,2-4.602,0-5.398C45.602,26.301,44.699,26.699,44.398,27.5L44.398,27.5z
		 M44.398,27.5"/>
	<path d="M5,43.801c0,0.5,0.301,1.199,0.801,1.597C6.199,45.801,6.5,47.602,6.5,49.199C6.5,51,7.102,52.5,7.898,52.801
		c1,0.301,1.204-0.199,0.704-2.102C8.301,49.301,8.398,47.801,9,47.5c1.398-0.898-0.602-4.5-2.5-4.5C5.699,43,5,43.398,5,43.801
		L5,43.801z M5,43.801"/>
	<path d="M37.801,59.602C36.199,60.398,35,61.5,35,62.102c0,1.5,2.898,2.199,4.398,1c0.704-0.602,2.704-0.801,4.301-0.5
		c3.801,0.699,5.5-1.301,2.801-3.301C44.102,57.602,41.199,57.699,37.801,59.602L37.801,59.602z M37.801,59.602"/>
</g>
</svg>
