<?xml version="1.0" encoding="utf-8"?>
<!-- Generator: Adobe Illustrator 16.0.0, SVG Export Plug-In . SVG Version: 6.00 Build 0)  -->
<!DOCTYPE svg PUBLIC "-//W3C//DTD SVG 1.1//EN" "http://www.w3.org/Graphics/SVG/1.1/DTD/svg11.dtd">
<svg version="1.1" id="Layer_1" xmlns="http://www.w3.org/2000/svg" xmlns:xlink="http://www.w3.org/1999/xlink" x="0px" y="0px"
	 width="68px" height="132px" viewBox="0 0 68 132" enable-background="new 0 0 68 132" xml:space="preserve">
<g>
	<g>
		<defs>
			<rect id="SVGID_1_" width="68" height="132"/>
		</defs>
		<clipPath id="SVGID_2_">
			<use xlink:href="#SVGID_1_"  overflow="visible"/>
		</clipPath>
		<path clip-path="url(#SVGID_2_)" d="M28.398,6c-2.796,3.5-7.296,7.699-11.097,10.102c-5.801,3.796-6.699,4.796-10.199,12.296
			c-2.102,4.5-4.602,8.801-5.5,9.5C0.398,38.898,0,41.102,0,46.699c0,6.5,0.301,7.699,2.5,9.801C4,58,6.102,59,7.898,59
			c1.602,0,4.204,1,5.801,2.398c1.5,1.301,5.199,3.801,8.102,5.602C24.602,68.699,27,70.5,27,70.898c0,0.402-1.301,1.704-3,2.902
			C20.398,76.5,17.699,81.5,15.602,89.5c-1.301,4.898-1.403,7.103-0.5,12c1.597,8.603,1.5,8.301,5.398,10.603
			c1.898,1.198,3.5,2.698,3.5,3.397c0,0.801-1.898,2.603-4.199,4.199c-2.301,1.602-4.903,4.102-5.801,5.5
			c-1.301,2.5-1.301,2.903,0.301,4.5c1.398,1.403,3.301,1.801,9.097,1.699c6.102-0.098,8.204-0.598,12-2.796l4.703-2.704L43,128.301
			c3.301,2.802,11.699,4.302,18.102,3.199c3.797-0.699,4-0.897,3.699-3.801c-0.301-2.801-1.102-3.597-5.801-6
			c-6.199-3.097-7.199-4.801-6-10.199c0.5-2.102,0.602-4.5,0.301-5.397c-0.402-1.403-0.301-1.403,0.598-0.103
			c0.801,1.199,1.301,0.801,2.602-2.199c3.199-7.801,0.5-23.102-5.199-29l-2.801-3l2.5-1.602c4.699-3,11.602-10.699,13.898-15.699
			c6.301-13.398-0.398-34.602-12.699-40.398c-3.898-1.801-6.098-3.801-9.199-8.301C39.602,1,38.398,0,35.898,0
			C33.5,0,32.199,1.102,28.398,6L28.398,6z M38.398,2.602C39.301,3.398,40,4.699,40,5.5c0,0.699,0.398,1.5,0.801,1.699
			c0.398,0.102,1.801,1.801,3.098,3.5C45.102,12.5,46.699,14,47.398,14c0.801,0,1.902,0.602,2.602,1.398
			c0.602,0.801,1.699,1.301,2.5,1C54,15.801,59,19.699,59,21.5c0,2.301-4.301,1.301-7.102-1.602
			c-3.699-3.796-7.699-5.898-9.598-5.199C39.102,15.898,36.5,25.898,39,27.5c0.5,0.301,0.699,1.102,0.398,1.801
			c-0.598,1.597,3.301,5.199,6.5,6C47.699,35.699,49,35.102,51.199,33c1.602-1.699,2.699-3.398,2.301-3.898
			c-0.301-0.5-1.602,0.097-3,1.5C49.199,31.898,47.602,33,47,33c-1.699,0-5-2-5-3c0-1.5,4.301-3.398,7.398-3.199
			c1.602,0.199,3.301-0.301,3.703-1c0.598-0.903,1.297-0.102,2.398,2.5C56.801,31.5,57.301,31.898,59,31c1-0.5,2.301-1,2.898-1
			c1.902,0,1.203,2.898-0.898,4.199c-1.102,0.699-2,1.801-2,2.5c0,2,2.801,1.5,4.199-0.699c2.199-3.398,2.801-2.199,2.699,5.199
			c0,11.602-4.5,20.102-13.699,25.903C48.102,69.699,46.801,70,39.301,70c-7,0-9.199-0.397-13.602-2.602
			C18.5,63.699,13,59.199,13,56.898c0-2.296-0.801-2.398-3.199-0.199C6.102,60,0.898,55,1.102,48.199c0-1.5,0.296-2.097,0.597-1.5
			C2.602,49.102,4,48,3.398,45.398c-0.597-2.296-0.398-2.5,1.704-2.199C7.199,43.5,7.5,43.898,7.199,47.301
			C6.898,50,7.301,51.199,8.5,51.602c2,0.796,3.199-0.301,1.801-1.704c-0.801-0.796-0.801-1.796,0-3.597
			c1-2.199,0.801-2.699-1.301-4.403C5.699,39.5,4.398,39.5,2.602,42.199L1,44.398v-2.097C1,39.699,4.898,36.5,6.398,38
			c0.602,0.602,1.704,1,2.5,1c1.204,0,1.102-0.301-0.199-1.801C6.5,34.801,6.602,33.5,9.398,27.301C11.801,22.301,18.5,16,21.5,16
			c0.699,0,1.801-0.699,2.5-1.5c0.699-0.801,2-1.398,2.898-1.301c1.102,0.199,1.5-0.301,1.301-1.801C28,9.898,28.602,9.102,30,8.699
			c1.301-0.301,1.801-1.097,1.398-2C30.801,5.199,34.199,1,35.898,1C36.398,1,37.602,1.699,38.398,2.602L38.398,2.602z
			 M47.699,19.199C49.5,21,51,22.699,51,23.102c0,0.398-1.5,0.898-3.199,1.199C46,24.602,43.5,25.102,42.301,25.5
			C40.5,26.102,40,25.801,40,24.5c0-2,2.898-8.5,3.801-8.5C44.102,16,45.898,17.398,47.699,19.199L47.699,19.199z M59.5,25.199
			C62.398,26.5,62.898,29,60.199,29c-2.098,0-5.598-3.301-4.5-4.301C56.5,23.801,56.5,23.801,59.5,25.199L59.5,25.199z M32.301,74
			c2,2.301,5.398,2.5,8.098,0.5c4.402-3.397,9.402-1,12.801,6C57.398,89,58,103,54.102,103c-1.703,0-1.801-0.699-1.402-6.397
			C53.398,88.5,52.398,83,50.301,83c-1.102,0-1.402,0.603-0.902,2.199c1,3.199,1.5,10.903,0.902,13.102
			c-0.402,1.5-1.602,1.699-10.602,1.598C34,99.801,28.5,100,27.301,100.398c-1.903,0.602-2.199,0.204-2.699-3.598
			c-0.301-2.402-0.5-6.102-0.301-8.198C24.398,86.5,24,84.5,23.398,84.301c-1.5-0.5-2.597,7.898-1.796,13.898
			c0.398,2.602,0.398,5.403,0.097,6.199c-1,2.5-3.5,0.801-4.801-3.098c-2.5-7.602,1.903-21.198,8.403-26.102
			C30.102,71.398,30.102,71.398,32.301,74L32.301,74z M37.5,73c0.301,0.5-0.102,1-0.898,1C35.699,74,35,73.5,35,73
			c0-0.602,0.398-1,0.898-1C36.5,72,37.199,72.398,37.5,73L37.5,73z M49.699,103.5c0.699,0.301,1.102,2.898,1,7.699
			c-0.199,6.903-0.301,7.301-2.398,7C47.102,118,45.898,118.398,45.5,119c-1.398,2.199-2.5,0.801-2.5-3.301v-4.398h-9.102
			l0.602,3.802l0.602,3.698l-4.301-0.5c-2.403-0.301-4.699-0.902-5.102-1.301c-0.699-0.602-1.097-8.102-0.801-12.699
			c0.102-0.602,1.602-1.301,3.403-1.5C31.898,102.398,47.801,103,49.699,103.5L49.699,103.5z M22.801,108.801
			c0.5,1.598-2.699,2.699-4,1.398c-0.602-0.597-0.699-1.5-0.403-2C19.199,106.898,22.301,107.301,22.801,108.801L22.801,108.801z
			 M40.398,118.5c0.902,5.603-0.098,7.603-2,4c-2.098-4.102-1.699-8.5,0.703-8.5C39.398,114,40.102,116,40.398,118.5L40.398,118.5z
			 M35.898,122.398c3.301,3.902-3,7.602-12.898,7.602c-8,0-9.398-1.199-6.5-5.602c1.398-2.098,2.301-2.5,5.5-2.296
			c2.199,0.198,4.199,0,4.602-0.403C27.898,120.5,34.699,121,35.898,122.398L35.898,122.398z M54.699,122.699
			c0.301,0.699,1.602,1.301,3,1.301c3.5,0,6.301,1.801,6.301,4c0,1.603-0.699,2-3.699,2.199c-13.902,0.602-19-1.699-16.699-7.597
			C44.398,120.603,54,120.699,54.699,122.699L54.699,122.699z M54.699,122.699"/>
	</g>
	<path d="M37.602,13.199C36.699,14.398,36,16,36,16.699c0,2.199,2,1.403,3-1.199c0.5-1.398,1.398-2.5,2-2.5c0.5,0,1-0.5,1-1
		C42,10.199,39.102,11,37.602,13.199L37.602,13.199z M37.602,13.199"/>
	<path d="M55.199,56c-4.398,1-10.398,5.199-9.199,6.398c0.602,0.602,2.398,0.204,4.699-1.097c2.102-1.102,5.301-2.403,7.102-2.801
		c1.801-0.398,3.098-1.199,2.898-1.801C60.199,55.199,59.102,55.102,55.199,56L55.199,56z M55.199,56"/>
	<path d="M51.93,26.895c0,0.91-0.832,1.644-1.855,1.644c-1.027,0-1.855-0.734-1.855-1.644c0-0.907,0.828-1.641,1.855-1.641
		C51.098,25.254,51.93,25.988,51.93,26.895L51.93,26.895z M51.93,26.895"/>
	<path fill="none" stroke="#000000" stroke-width="0.8434" d="M51.93,26.895c0,0.91-0.832,1.644-1.855,1.644
		c-1.027,0-1.855-0.734-1.855-1.644c0-0.907,0.828-1.641,1.855-1.641C51.098,25.254,51.93,25.988,51.93,26.895L51.93,26.895z
		 M51.93,26.895"/>
	<path d="M62.07,24.781c0,0.91-0.828,1.645-1.855,1.645c-1.023,0-1.852-0.735-1.852-1.645c0-0.906,0.828-1.64,1.852-1.64
		C61.242,23.141,62.07,23.875,62.07,24.781L62.07,24.781z M62.07,24.781"/>
	<path fill="none" stroke="#000000" stroke-width="0.8434" d="M62.07,24.781c0,0.91-0.828,1.645-1.855,1.645
		c-1.023,0-1.852-0.735-1.852-1.645c0-0.906,0.828-1.64,1.852-1.64C61.242,23.141,62.07,23.875,62.07,24.781L62.07,24.781z
		 M62.07,24.781"/>
</g>
</svg>
