<?xml version="1.0" encoding="utf-8"?>
<!-- Generator: Adobe Illustrator 16.0.0, SVG Export Plug-In . SVG Version: 6.00 Build 0)  -->
<!DOCTYPE svg PUBLIC "-//W3C//DTD SVG 1.1//EN" "http://www.w3.org/Graphics/SVG/1.1/DTD/svg11.dtd">
<svg version="1.1" id="Layer_1" xmlns="http://www.w3.org/2000/svg" xmlns:xlink="http://www.w3.org/1999/xlink" x="0px" y="0px"
	 width="41.103px" height="41.054px" viewBox="-0.583 -0.583 41.103 41.054" enable-background="new -0.583 -0.583 41.103 41.054"
	 xml:space="preserve">
<g>
	<path fill="#FBAC27" d="M39.909,19.957c0.586,10.619-9.141,20.236-20.075,19.924C8.606,39.561-0.03,31.138,0,19.885
		C0.03,8.799,8.907-0.023,20.028,0C31.196,0.023,40.316,9.227,39.909,19.957z"/>
	<g>
		<path fill="#FEC62A" d="M31.123,6.299c1.71,0.225,2.507,1.612,3.391,2.792c7.387,9.872,2.891,25.234-10.8,28.132
			C11.768,39.75,2.2,30.875,1.901,20.232C1.758,15.164,3.278,10.85,6.906,7.294C7.42,6.79,7.895,6.224,8.724,6.297
			C8.91,7.032,8.357,7.451,8.021,7.963c-0.544,0.743-1.054,1.511-1.478,2.331c-0.347,0.645-0.664,1.299-0.897,1.993
			c-0.551,3.494-0.307,3.737,3.45,3.411c2.357,1.079,4.459,2.644,6.968,3.786c-0.619-1.332-1.796-1.711-2.768-2.357
			c-0.66-0.44-1.75-0.687-1.214-1.92c0.714-0.773,1.661-0.914,2.63-0.958c3.356-0.152,6.703-0.021,10.025,0.506
			c0.836,0.135,1.867,0.136,1.716,1.462c-0.264,1.084-1.248,1.534-1.978,2.208c-0.708,0.653-1.404,1.303-0.688,2.367
			c0.218,0.79-0.175,1.576-0.021,2.362c0.175,0.896,0.506,1.804,1.529,1.871c1.18,0.078,1.299-0.951,1.421-1.82
			c0.078-0.55,0.048-1.108-0.234-1.616c-0.405-0.862-1.433-0.754-2.042-1.296c-0.112-0.199-0.141-0.409-0.097-0.633
			c0.535-0.94,1.591-1.188,2.379-1.792c1.299-0.803,2.918-0.997,4.048-2.127c1.042,0.058,2.192,0.989,3.098-0.112
			c1.133-1.378,0.327-2.847-0.078-4.264c-0.213-0.691-0.443-1.375-0.931-1.938c-0.371-0.501-0.732-1.01-1.215-1.417
			C31.185,7.527,30.664,7.061,31.123,6.299z"/>
		<path fill="#FEE9B6" d="M9.592,5.774c6.037-4.768,13.975-4.719,20.589,0.123c-0.348,1.131-1.282,0.684-1.983,0.676
			c-5.494-0.059-10.986-0.06-16.479-0.001C10.964,6.58,9.885,7.126,9.592,5.774z"/>
		<path fill="#FEE3A0" d="M9.592,5.774c4.296,0.007,8.591,0.003,12.886,0.023c2.567,0.014,5.136,0.064,7.703,0.1
			c0.313,0.134,0.63,0.268,0.943,0.4c0.067,0.667,0.426,1.145,0.979,1.494c-0.108,0.988-0.906,0.739-1.46,0.731
			C23.541,8.42,16.44,8.421,9.339,8.527C8.697,8.536,7.839,8.8,7.693,7.719C8.036,7.246,8.38,6.772,8.725,6.298
			C9.014,6.124,9.303,5.949,9.592,5.774z"/>
		<path fill="#FECD54" d="M9.193,15.924c-1.472,0.265-3.229,2.003-4.215-0.494c-0.396-1.005-0.577-2.338,0.317-3.39
			c1.275-0.88,2.741-0.721,4.167-0.745c8.213-0.136,16.432,0.271,24.641-0.237c0.619,0.591,0.771,1.419,0.868,2.174
			c0.147,1.162,0.388,2.482-0.883,3.252c-1.262,0.764-2.426,0.361-3.476-0.531c-1.357,0.758-2.917,0.617-4.362,0.988
			c-0.101-0.061-0.201-0.121-0.302-0.184c-0.086-0.509,0.592-1.282-0.62-1.377c-3.731-0.288-7.46-0.628-11.21-0.461
			c-0.83,0.037-1.561,0.293-2.113,0.946C11.084,16.62,10.143,16.456,9.193,15.924z"/>
		<path fill="#FEDD8A" d="M7.692,7.719c5.808-0.001,11.616-0.01,17.424,0c2.329,0.004,4.658,0.048,6.986,0.073
			c0.653,0.193,0.754,0.84,1.067,1.312c0.44,1.522-0.769,1.541-1.646,1.676c-1.574,0.242-3.175,0.112-4.765,0.114
			c-5.725,0.007-11.448,0.021-17.174-0.011c-1.171-0.007-2.414,0.166-3.387-0.771C6.371,9.112,7.039,8.421,7.692,7.719z"/>
		<path fill="#FED671" d="M6.199,10.113c8.218,0,16.436,0.011,24.652-0.017c0.865-0.004,2.022,0.442,2.317-0.992
			c0.771,0.432,0.957,1.142,0.935,1.952c-0.302,1.454-1.477,0.954-2.326,0.959c-7.181,0.034-14.36,0.02-21.541,0.021
			c-1.646,0-3.293,0.003-4.939,0.004C5.361,11.288,5.619,10.625,6.199,10.113z"/>
		<path fill="#A05C27" d="M24.524,19.762c-0.016,0.164-0.028,0.328-0.043,0.492c0.693,0.646,1.687,0.438,2.459,0.858
			c0.896,1.556,0.699,3.028-0.44,4.35c-0.613,0.712-1.441,0.681-2.125,0.102c-1.388-1.177-1.534-2.668-0.927-4.309
			c0.107-0.292,0.117-0.618,0.173-0.93C23.737,19.841,23.934,19.487,24.524,19.762z"/>
		<path fill="#975124" d="M15.949,21.094c1.273,1.655,0.732,3.137-0.535,4.445c-0.648,0.67-1.551,0.581-2.135-0.093
			c-1.259-1.452-1.64-3.044-0.287-4.696C13.998,20.692,14.974,20.895,15.949,21.094z"/>
		<path fill="#834F20" d="M23.081,32.099c-2.103-0.643-4.202-0.467-6.299,0.031c-1.405-0.292-1.181-1.088-0.472-1.839
			c1.677-1.774,3.699-1.933,5.884-1.074c0.224,0.1,0.43,0.229,0.621,0.382C23.272,30.391,25.307,31.02,23.081,32.099z"/>
		<path fill="#5F3216" d="M9.193,15.924c0.938-0.02,1.876-0.038,2.812-0.059c2.239,0.987,4.431,2.028,5.526,5.187
			c-2.484-1.376-4.637-2.313-6.439-3.705C10.49,16.88,8.83,17.596,9.193,15.924z"/>
		<path fill="#E9DF2A" d="M14.587,33.079c-0.467-0.117-1.098-0.266-0.771-0.879c1.165-2.19,2.838-3.873,5.382-4.292
			c2.372-0.392,4.071,0.949,5.556,2.581c0.177,0.193,0.114,0.603,0.163,0.912c-1.062-0.149-1.481-1.201-2.331-1.651l0.019,0.02
			c-3.153-1.609-5.504-0.916-7.222,2.153C15.15,32.338,14.851,32.692,14.587,33.079z"/>
		<path fill="#553117" d="M14.587,33.079c0.077-2.338,1.805-3.386,3.579-4.138c1.514-0.643,3.215-0.808,4.438,0.827
			c-2.018-0.49-4.014-0.977-5.777,0.729c-0.617,0.596-0.866,1.064-0.043,1.634C16.051,32.446,15.318,32.763,14.587,33.079z"/>
		<path fill="#633617" d="M24.524,19.762c-0.302,0.188-0.604,0.379-0.904,0.564c-0.267,0.104-0.623,0.371-0.786,0.282
			c-0.582-0.314-0.28-0.824-0.028-1.167c0.836-1.133,1.823-2.11,3.146-2.687l-0.02,0.153c0.857,0.086,1.248,0.507,0.992,1.388
			C26.124,18.786,25.324,19.274,24.524,19.762z"/>
		<path fill="#421C0F" d="M26.924,18.298c-0.331-0.462-0.661-0.925-0.992-1.388c1.398-1.111,3.021-1.136,4.683-0.959
			c0.496,0.942-0.266,1.026-0.845,1.246C28.818,17.559,27.872,17.931,26.924,18.298z"/>
		<path fill="#5B3B18" d="M22.585,29.75c1.15,0.022,1.516,1.155,2.331,1.65c-0.011,0.533,0.809,1.154,0.226,1.501
			c-0.812,0.481-1.34-0.579-2.061-0.803C24.527,30.976,22.53,30.579,22.585,29.75z"/>
		<path fill="#4D1711" d="M26.94,21.113c-0.909-0.028-2.146,0.874-2.459-0.858C25.501,19.969,26.415,19.984,26.94,21.113z"/>
		<path fill="#330B0B" d="M15.949,21.094c-1.001,0.013-2.088,0.77-2.957-0.344C14.137,19.499,15.035,20.361,15.949,21.094z"/>
	</g>
</g>
</svg>
