<?xml version="1.0" encoding="utf-8"?>
<!-- Generator: Adobe Illustrator 16.0.0, SVG Export Plug-In . SVG Version: 6.00 Build 0)  -->
<!DOCTYPE svg PUBLIC "-//W3C//DTD SVG 1.1//EN" "http://www.w3.org/Graphics/SVG/1.1/DTD/svg11.dtd">
<svg version="1.1" id="Layer_1" xmlns="http://www.w3.org/2000/svg" xmlns:xlink="http://www.w3.org/1999/xlink" x="0px" y="0px"
	 width="41.102px" height="41.054px" viewBox="-0.584 -0.583 41.102 41.054" enable-background="new -0.584 -0.583 41.102 41.054"
	 xml:space="preserve">
<g>
	<path fill="#FBAC27" d="M39.909,19.957c0.586,10.619-9.141,20.236-20.075,19.924C8.607,39.561-0.031,31.138,0,19.885
		C0.031,8.799,8.907-0.023,20.028,0C31.196,0.023,40.316,9.227,39.909,19.957z"/>
	<g>
		<path fill="#FEC72A" d="M31.623,6.373c4.224,2.193,6.028,6.08,6.605,10.43c0.872,6.561-1.066,12.328-6.208,16.726
			c-6.763,5.782-17.214,6.276-24.164-0.145c-3.781-3.491-6.177-7.66-6.338-12.658C1.336,15.08,3.12,9.92,7.725,6.149
			c0.213-0.175,0.604-0.133,0.913-0.191C8.74,7.04,7.767,7.574,7.393,8.413C6.91,9.08,6.429,9.747,6.034,10.472
			c-0.252,0.463-0.388,0.968-0.521,1.474c-0.174,0.541-0.201,1.101-0.198,1.659c0.013,2.289,0.542,2.621,2.78,1.939
			c1.528-0.465,3.138-1.553,4.583,0.219c0.27,0.38,0.464,0.813,0.806,1.141c1.203,1.146,1.975,0.999,2.562-0.538
			c0.246-0.645,0.261-1.398,1.021-1.736c2.229-0.164,4.581-1.125,6.458,0.985c0.759,0.842,1.032,2.444,2.762,1.762
			c0.136-0.148,0.272-0.295,0.398-0.451c0.612-0.561,0.346-1.68,1.285-2.03c0.988,0.259,1.99,0.474,2.977,0.738
			c3.553,0.957,4.068,0.543,3.684-3.079c-0.124-0.403-0.278-0.795-0.461-1.174c-0.101-0.184-0.187-0.374-0.271-0.563
			c-0.336-0.753-0.674-1.505-1.163-2.177c-0.415-0.6-1.031-1.043-1.33-1.73C31.362,6.683,31.435,6.505,31.623,6.373z"/>
		<path fill="#FEE097" d="M7.036,8.256C7.13,7.184,8.227,6.811,8.637,5.957c0.125-0.019,0.25-0.039,0.375-0.061
			c6.69-0.533,13.39-0.206,20.086-0.185c1.017,0.003,1.74,0.743,2.605,1.13c0.597,0.348,1.044,0.829,1.319,1.467
			c-0.24,1.343-1.38,1.191-2.25,1.204C23.605,9.606,16.437,9.617,9.269,9.508C8.387,9.495,7.259,9.592,7.036,8.256z"/>
		<path fill="#FEE6AD" d="M31.705,6.843c-5.525-0.97-11.101-0.166-16.643-0.476c-2.017-0.112-4.106,0.59-6.049-0.471
			c0.989-1.27,2.32-1.988,3.851-2.387c4.785-0.412,9.568-0.335,14.348,0.085c1.802,0.4,3.002,1.755,4.41,2.777
			C31.626,6.534,31.653,6.69,31.705,6.843z"/>
		<path fill="#FEEDC4" d="M27.212,3.596c-4.787,0.589-9.57,0.77-14.349-0.086c4.462-1.916,8.929-2.444,13.422-0.083
			C26.551,3.567,26.901,3.544,27.212,3.596z"/>
		<path fill="#BB782A" d="M31.096,27.983c0.17,1.147-0.383,2.029-1.135,2.772c-7.934,7.862-18.304,4.729-22.772-3.72
			c-0.136-0.258-0.073-0.622-0.104-0.937c0.635-0.402,1.157-0.02,1.701,0.232c0.326,0.19,0.63,0.411,0.918,0.656
			c2.065,1.4,4.482,1.608,6.825,1.729c4.189,0.216,8.405,0.28,12.478-1.068c0.459-0.152,0.932-0.182,1.409-0.081
			C30.678,27.65,30.904,27.789,31.096,27.983z"/>
		<path fill="#FED97D" d="M7.036,8.256c0.452,0.603,1.111,0.533,1.745,0.533c7.573,0.001,15.146,0.001,22.72,0
			c0.558,0,1.129,0.04,1.522-0.479c0.77,0.622,0.993,1.565,1.417,2.394c-0.624,0.605-1.416,0.667-2.218,0.673
			c-8.098,0.067-16.194,0.073-24.291-0.011c-0.889-0.009-1.991,0.217-2.258-1.126C6.023,9.506,6.285,8.713,7.036,8.256z"/>
		<path fill="#431E0D" d="M8.553,26.65c-0.489-0.184-0.979-0.367-1.468-0.55c-0.161-0.534-0.36-1.062-0.475-1.604
			c-0.327-1.557,0.092-2.273,1.865-1.829c7.491,1.883,14.999,1.915,22.509,0.058c0.667-0.165,1.594-0.519,1.999,0.199
			c0.599,1.061,0.052,2.147-0.47,3.148c-0.517,0.416-0.946,0.135-1.375-0.164c-2.824-1.004-5.604,0.027-8.402,0.188
			c-1.349,0.231-2.695,0.23-4.041-0.006c-1.906-0.626-3.902-0.11-5.827-0.442C11.289,25.365,9.554,24.415,8.553,26.65z"/>
		<path fill="#FDD264" d="M5.674,10.238c0.626,0.729,1.479,0.461,2.241,0.463c8.842,0.014,17.685,0.004,26.526,0.001
			c0.037,0.146,0.057,0.294,0.06,0.444c-0.191,1.399-1.337,1.107-2.195,1.152c-1.898,0.101-3.81-0.093-5.636,0.718
			c-0.824,0.365-1.717,0.045-2.571-0.188c-2.661-0.722-5.325-0.819-7.979,0.056c-0.38,0.126-0.796,0.347-1.156,0.236
			c-3.157-0.961-6.404-0.66-9.626-0.733c-0.279-0.19-0.333-0.432-0.159-0.723C5.196,11.14,5.109,10.576,5.674,10.238z"/>
		<path fill="#FDCB4F" d="M34.942,12.149c0.729,1.429,0.937,2.929-0.188,4.17c-1.153,1.277-2.487,0.493-3.705-0.104
			c-1.013-0.497-2.494,0.281-3.15-1.166c-0.9-0.231-1.038-0.839-0.805-1.63c0.573-1.039,1.52-1.276,2.617-1.267
			C31.456,12.17,33.199,12.151,34.942,12.149z"/>
		<path fill="#FDD263" d="M34.942,12.149c-1.378,0.968-2.936,0.396-4.401,0.441c-1.244,0.038-2.36,0.199-3.325,1.02
			c-1.162,0.271-2.341,0.203-3.52,0.169c-2.438-0.771-4.867-0.775-7.284,0.1c-1.331-0.177-2.628,0.042-3.921,0.335
			c-1.496-0.937-3.164-0.894-4.842-0.953c-0.905-0.03-2.16,0.396-2.455-1.108c3.07-0.438,6.054-0.727,9.172,0.289
			c1.679,0.546,3.546-1.186,5.537-0.793c0.77,0.149,1.702-0.222,2.372,0.074c3.767,1.658,7.465-0.772,11.2-0.094
			c0.302,0.057,0.681-0.312,1.023-0.481C34.647,11.48,34.794,11.815,34.942,12.149z"/>
		<path fill="#FECB4E" d="M5.194,12.151c1.455,0.966,3.081,0.406,4.616,0.437c1.306,0.024,2.326,0.268,2.956,1.479
			c0.49,0.787,0.186,1.393-0.438,1.926c-1.112-1.188-2.311-0.409-3.477-0.14c-1.157,0.269-2.359,1.688-3.458,0.462
			c-1.19-1.328-0.99-3.055-0.217-4.647C5.183,11.828,5.188,11.989,5.194,12.151z"/>
		<path fill="#FDCD53" d="M16.184,13.609c1.917-1.486,6.26-1.399,7.797,0.156c0.397,1.023,0.141,1.912-0.562,2.709
			c-0.535-1.064-1.269-1.633-2.586-1.481c-1.329,0.152-2.688,0.039-4.033,0.041C16.194,14.732,15.968,14.267,16.184,13.609z"/>
		<path fill="#6F3D1A" d="M16.184,13.609c0.205,0.476,0.411,0.95,0.615,1.425c-0.029,0.396-0.053,0.791-0.093,1.185
			c-0.119,1.147-0.69,2.022-1.857,2.138c-1.628,0.16-2.081-1.144-2.521-2.364c0.146-0.642,0.292-1.284,0.438-1.926
			C13.757,12.805,14.901,12.69,16.184,13.609z"/>
		<path fill="#6C3B19" d="M23.418,16.475c-0.045-0.951,0.171-1.85,0.562-2.71c1.035-0.959,2.115-0.984,3.234-0.154
			c0.229,0.479,0.456,0.958,0.684,1.438c-0.155,0.905,0.002,1.949-1.087,2.438c-0.738-0.56-0.44-1.651-1.129-2.287
			c-0.332,1.146-0.332,1.146,1.152,2.265C25.371,18.896,25.026,18.797,23.418,16.475z"/>
		<path fill="#613E27" d="M31.582,25.59c0.204,0.367,0.547,0.466,0.933,0.482c0.149,1.1-0.878,1.324-1.418,1.911
			c-0.165-0.023-0.33-0.046-0.494-0.069c-0.321-0.305-0.65-0.604-0.647-1.101C30.219,26.037,30.531,25.321,31.582,25.59z"/>
		<path fill="#412518" d="M30.093,26.968c0.401,0.191,0.511,0.539,0.51,0.946c-5.729,1.832-11.565,2.013-17.447,1.021
			c-1.515-0.256-3.204-0.352-4.206-1.866c0.673-0.688,1.439-0.409,2.198-0.217c0.872,0.259,1.75,0.491,2.644,0.67
			c4.183,0.385,8.358,0.479,12.528-0.096C27.6,27.477,28.745,26.372,30.093,26.968z"/>
		<path fill="#C5C6C5" d="M10.97,27.425c-0.674-0.118-1.347-0.236-2.021-0.355c-0.132-0.14-0.264-0.279-0.396-0.418
			c-0.834-1.639-0.567-2.481,1.479-2.071c0.829,0.167,1.666,0.294,2.499,0.439c0.078,0.493-2.011-0.047-0.531,1.273
			C12.61,26.836,11.518,27.193,10.97,27.425z"/>
		<path fill="#F3F3F3" d="M26.76,27.944c-4.469,0.877-8.938,0.977-13.413,0.038c-0.265-0.767,1.198-0.99,0.537-2.027
			c-0.356-0.561,0.507-0.592,0.915-0.581c1.323,0.034,2.657-0.188,3.969,0.146c1.352,0,2.703,0.001,4.055,0.001
			c0.604-0.253,1.247-0.185,1.868-0.149c0.811,0.044,2.189-0.42,1.28,1.37C25.746,27.181,26.985,27.196,26.76,27.944z"/>
		<path fill="#D1D3D2" d="M26.76,27.944c-0.479-0.711-1.306-0.305-1.921-0.55c-0.3-0.929,0.916-0.93,0.952-1.651
			c-1.003-0.075-1.985-0.149-2.969-0.224c2.495-0.309,4.991-0.613,7.485-0.923c0.762-0.096,1.489-0.159,1.273,0.992
			c-0.497,0.459-0.993,0.919-1.49,1.378C28.972,27.259,28,28.06,26.76,27.944z"/>
		<path fill="#D9DADA" d="M18.768,25.519c-1.415,0-2.83,0-4.471,0c0.278,0.811,1.659,0.837,1.141,1.683
			c-0.417,0.678-1.589-0.051-2.091,0.781c-0.868,0.138-1.614-0.248-2.377-0.559c0.946-0.734,1.185-1.462-0.584-2.136
			c1.084-0.137,1.615-0.203,2.146-0.271C14.611,25.186,16.689,25.352,18.768,25.519z"/>
		<path fill="#955723" d="M15.747,15.705c-0.022,0.913-0.232,1.704-1.301,1.635c-0.899-0.059-1.1-0.788-1.091-1.562
			c0.009-0.87,0.228-1.662,1.295-1.596C15.557,14.237,15.723,14.98,15.747,15.705z"/>
		<path fill="#8F5422" d="M26.835,17.462c-1.09-0.062-2.367,0.164-2.438-1.521c-0.036-0.849,0.082-1.69,1.128-1.771
			c0.899-0.067,1.216,0.604,1.252,1.405c0.029,0.635,0.023,1.271,0.035,1.908L26.835,17.462z"/>
	</g>
</g>
</svg>
