<?xml version="1.0" encoding="utf-8"?>
<!-- Generator: Adobe Illustrator 16.0.0, SVG Export Plug-In . SVG Version: 6.00 Build 0)  -->
<!DOCTYPE svg PUBLIC "-//W3C//DTD SVG 1.1//EN" "http://www.w3.org/Graphics/SVG/1.1/DTD/svg11.dtd">
<svg version="1.1" id="Layer_1" xmlns="http://www.w3.org/2000/svg" xmlns:xlink="http://www.w3.org/1999/xlink" x="0px" y="0px"
	 width="41.151px" height="41.102px" viewBox="-0.159 -0.189 41.151 41.102" enable-background="new -0.159 -0.189 41.151 41.102"
	 xml:space="preserve">
<g>
	<path fill="#FBAB27" d="M40.833,20.476c-0.021,11.309-9.121,20.283-20.531,20.248C9.153,40.689,0.017,31.557,0,20.43
		C-0.017,9.275,9.285-0.012,20.464,0C31.73,0.012,40.854,9.184,40.833,20.476z"/>
	<path fill="#FEC62A" d="M32.188,7.154c2.617,1.07,4.165,3.245,5.137,5.672c4.721,11.808-1.732,23.468-14.226,25.924
		c-8.891,1.747-18.96-5.449-20.668-14.715c-1.094-5.933,0.182-11.18,4.308-15.654c0.532-0.575,1.039-1.25,1.966-1.209
		C8.964,7.88,8.398,8.26,8.088,8.743c-0.23,0.312-0.43,0.643-0.612,0.984c-0.28,0.519-0.582,1.022-0.897,1.521
		c-0.208,0.354-0.376,0.724-0.508,1.112c-0.17,0.523-0.31,1.057-0.399,1.595c-0.388,2.332,0.46,3.059,2.709,2.4
		c1.24-0.362,2.443-1.122,3.82-0.506c0.357,0.485,0.394,1.057,0.433,1.627c0.023,1.056,0.282,1.963,1.572,1.955
		c1.132-0.009,1.468-0.787,1.484-1.783c0.081-0.882-0.069-1.832,0.751-2.489c2.634-0.052,5.278-0.372,7.878,0.332
		c0.735,0.507,0.744,1.3,0.814,2.067c0.013,0.838,0.164,1.618,1.13,1.854c1.038,0.252,1.646-0.335,2.071-1.19
		c0.086-0.199,0.187-0.392,0.285-0.583c0.649-1.514,1.828-1.518,3.185-1.167c3.153,0.816,3.692,0.354,3.384-2.828
		c-0.189-0.812-0.447-1.602-0.835-2.343c-0.181-0.357-0.36-0.716-0.579-1.053c-0.333-0.495-0.633-1.012-1.009-1.479
		C32.463,8.271,31.831,7.888,32.188,7.154z"/>
	<path fill="#FEE19B" d="M32.188,7.154c0.322,0.479,0.645,0.959,0.965,1.438c-0.16,1.279-1.222,1.117-2.014,1.125
		c-7.15,0.074-14.3,0.078-21.45,0C8.896,9.709,7.836,9.864,7.682,8.585c0.341-0.471,0.682-0.941,1.022-1.413
		c0.461-0.33,0.923-0.661,1.384-0.99c6.874-0.365,13.749-0.472,20.618,0.081C31.2,6.56,31.694,6.857,32.188,7.154z"/>
	<path fill="#FEE7B0" d="M30.706,6.262c-0.343,0.415-0.818,0.422-1.299,0.422c-5.939,0-11.88,0-17.819,0
		c-0.556,0-1.121,0.023-1.5-0.504c0.859-1.097,2.069-1.579,3.359-1.924C18.093,4,22.739,3.977,27.383,4.279
		C28.737,4.527,29.842,5.192,30.706,6.262z"/>
	<path fill="#FEECC2" d="M27.383,4.279c-3.57,0.859-7.205,0.486-10.801,0.372c-0.994-0.031-2.239,0.738-3.135-0.393
		C18.096,2.192,22.743,2.023,27.383,4.279z"/>
	<path fill="#FED36A" d="M5.773,11.958c0.024-0.394,0.117-0.751,0.505-0.951c0.896-0.636,1.921-0.68,2.968-0.68
		c7.475,0,14.949-0.002,22.424,0.003c1.035,0.001,2.08-0.027,2.961,0.667c0.699,0.653,0.926,1.485,0.91,2.409
		c-2.154,1.347-4.611,0.343-6.867,0.893c-1.324-0.196-2.652-0.22-3.986-0.069c-3.025-0.247-6.06-0.029-9.088-0.152
		c-1.119-0.083-2.217,0.139-3.325,0.236c-1.639-0.183-3.292-0.127-4.93-0.276C6.124,13.924,5.137,13.527,5.773,11.958z"/>
	<path fill="#FDCB4D" d="M28.188,13.948c2.387-1.061,4.904-0.323,7.354-0.543c0.91,1.302,0.6,2.608-0.269,3.692
		c-0.937,1.169-2.157,0.624-3.231,0.075c-1.426-0.729-2.514-0.474-3.285,0.957c-0.476-0.472-0.508-1.094-0.582-1.703
		C28.151,15.602,27.637,14.771,28.188,13.948z"/>
	<path fill="#FEDB83" d="M34.631,10.996c-9.45,0.003-18.901,0.007-28.354,0.011c0.3-0.5,0.601-1.001,0.901-1.501
		c7.971,0.157,15.942,0.016,23.913,0.066c1.023,0.006,2.087-0.164,3.018,0.47C34.284,10.36,34.458,10.677,34.631,10.996z"/>
	<path fill="#FEDB83" d="M34.11,10.042c-8.083,0.001-16.166,0.015-24.249-0.013c-0.905-0.002-1.93,0.365-2.682-0.523
		c0.042-0.375,0.114-0.733,0.502-0.92C8.14,9.19,8.807,9.082,9.433,9.083c7.321,0.004,14.644,0.004,21.964,0
		c0.625,0,1.292,0.114,1.756-0.486C33.473,9.077,33.792,9.559,34.11,10.042z"/>
	<path fill="#FDCA4C" d="M5.773,11.958c-0.104,1.378,0.774,1.437,1.822,1.466c1.704,0.05,3.471-0.386,5.085,0.54
		c0.275,0.845,0.018,1.464-0.78,1.857c-1.497,0.52-2.984,1.07-4.493,1.549c-1.35,0.428-2.74-0.883-2.527-2.512
		C5.009,13.872,5.077,12.799,5.773,11.958z"/>
	<path fill="#FDCC52" d="M15.264,13.468c2.628-0.021,5.256-0.05,7.884-0.061c0.703-0.003,1.465-0.122,1.911,0.653
		c0.205,0.273,0.22,0.578,0.135,0.896c-0.173,0.391-0.342,0.785-0.838,0.86c-2.629-0.268-5.321,0.498-7.908-0.475
		C15.474,15.084,15.171,14.401,15.264,13.468z"/>
	<path fill="#503012" d="M30.265,25.415c0.063,0.128,0.106,0.263,0.128,0.404c-0.156,0.465-0.459,0.792-0.915,0.976
		c-6.03,0.396-12.062,0.383-18.096,0.013c-0.459-0.183-0.766-0.507-0.916-0.979c0.02-0.139,0.059-0.272,0.115-0.401
		c2.667-0.581,5.37-0.239,8.05-0.225C22.508,25.226,26.397,24.869,30.265,25.415z"/>
	<path fill="#663B1C" d="M15.264,13.468c0.395,0.625,0.789,1.25,1.184,1.876c-0.044,0.908-0.088,1.815-0.133,2.724
		c-0.48,0.909-1.001,1.83-2.2,1.786c-1.344-0.048-1.654-1.197-2.094-2.174c-0.04-0.62-0.08-1.24-0.12-1.859
		c0.26-0.619,0.52-1.239,0.779-1.858C13.442,13.285,14.301,13.104,15.264,13.468z"/>
	<path fill="#411D15" d="M10.467,25.83c0.214,0.19,0.428,0.381,0.642,0.571c6.214,0.345,12.429,0.357,18.644-0.01
		c0.213-0.19,0.428-0.382,0.642-0.572c0.603,0.543,0.46,1.054-0.065,1.549c-0.341,0.211-0.699,0.386-1.106,0.391
		c-5.863,0.07-11.727,0.073-17.589-0.001c-0.409-0.005-0.765-0.184-1.101-0.402C10.042,26.866,9.874,26.364,10.467,25.83z"/>
	<path fill="#8C7313" d="M10.531,27.355c6.599,0.004,13.197,0.008,19.796,0.013c-0.021,0.135-0.041,0.271-0.062,0.404
		c-4.026,0.604-8.077,0.189-12.114,0.229c-2.518,0.025-5.064,0.37-7.567-0.25C10.567,27.619,10.549,27.487,10.531,27.355z"/>
	<path fill="#F0E524" d="M10.583,27.751c6.561,0.007,13.121,0.015,19.681,0.021c-0.37,0.55-0.942,0.511-1.498,0.511
		c-5.566,0.001-11.133,0.001-16.699,0C11.511,28.283,10.938,28.318,10.583,27.751z"/>
	<path fill="#E9D923" d="M30.265,25.415c-6.562,0.004-13.122,0.009-19.683,0.013c0.377-0.535,0.945-0.505,1.501-0.505
		c5.558,0,11.115,0,16.673,0C29.312,24.923,29.881,24.885,30.265,25.415z"/>
	<path fill="#6A3C1D" d="M24.355,15.818c0.19-0.358,0.381-0.716,0.571-1.075c0.451,0.208,0.668,0.607,0.854,1.033
		c0.347,0.739,0.116,1.699,0.868,2.312c0.784-0.564,0.504-1.605,1.062-2.248c0.567-0.367,0.817,0.051,1.078,0.438
		c-0.011,0.617-0.022,1.234-0.035,1.852l0.021,0.019c-1.824,2.433-2.59,2.409-4.225-0.132C24.487,17.283,24.42,16.551,24.355,15.818
		z"/>
	<path fill="#DDD34F" d="M12.02,17.68c1.784,2.577,2.252,2.619,4.294,0.388c-0.09,1.459-0.933,2.129-2.323,2.026
		C12.553,19.99,11.978,19.057,12.02,17.68z"/>
	<path fill="#DBD14F" d="M24.553,18.015c1.97,2.209,2.144,2.214,4.225,0.132c-0.09,1.358-0.892,1.987-2.177,1.955
		C25.299,20.07,24.567,19.366,24.553,18.015z"/>
	<path fill="#593518" d="M25.446,15.797c-0.417-0.23-0.451-0.649-0.518-1.054c0.043-0.227,0.087-0.455,0.131-0.683
		c1.011-0.941,2.052-1.046,3.13-0.112c0.146,0.791,0.741,1.465,0.603,2.33c-0.301-0.162-0.604-0.323-0.904-0.484
		C27.072,15.177,26.258,15.165,25.446,15.797z"/>
	<path fill="#6D461A" d="M29.75,26.391c-0.398,0.532-0.984,0.445-1.533,0.446c-5.191,0.005-10.383,0.006-15.574,0
		c-0.548,0-1.136,0.098-1.535-0.438C17.323,26.397,23.538,26.395,29.75,26.391z"/>
	<path fill="#8E5322" d="M12.972,16.738c0.039-1.135-0.02-2.237,1.175-2.242c1.372-0.005,1.214,1.208,1.245,2.148
		c0.033,0.999-0.111,2.223-1.274,2.15C13.014,18.728,12.92,17.492,12.972,16.738z"/>
	<path fill="#8F5322" d="M25.446,15.797c0.083-0.681,0.34-1.276,1.1-1.342c0.912-0.079,1.213,0.572,1.341,1.339
		c-0.005,0.234-0.013,0.47-0.013,0.705c-0.002,1.034,0,2.35-1.314,2.285c-1.073-0.052-1.145-1.302-1.102-2.282
		C25.467,16.267,25.45,16.032,25.446,15.797z"/>
</g>
</svg>
