<?xml version="1.0" encoding="utf-8"?>
<!-- Generator: Adobe Illustrator 16.0.0, SVG Export Plug-In . SVG Version: 6.00 Build 0)  -->
<!DOCTYPE svg PUBLIC "-//W3C//DTD SVG 1.1//EN" "http://www.w3.org/Graphics/SVG/1.1/DTD/svg11.dtd">
<svg version="1.1" id="Layer_1" xmlns="http://www.w3.org/2000/svg" xmlns:xlink="http://www.w3.org/1999/xlink" x="0px" y="0px"
	 width="41.15px" height="41.102px" viewBox="-0.608 -0.607 41.15 41.102" enable-background="new -0.608 -0.607 41.15 41.102"
	 xml:space="preserve">
<g>
	<path fill="#FBAC27" d="M39.909,19.957c0.586,10.62-9.142,20.236-20.075,19.925C8.607,39.561-0.031,31.138,0,19.884
		C0.031,8.798,8.907-0.023,20.028,0C31.196,0.023,40.316,9.227,39.909,19.957z"/>
	<path fill="#FEC62A" d="M31.208,6.698c3.729,1.628,5.246,5.019,6.219,8.523c2.796,10.069-3.158,20.251-13.593,22.399
		C11.506,40.157,2.056,30.823,1.966,20.502c-0.007-0.816,0.083-1.589,0.493-2.305c1.051,0.122,1.896-0.163,2.795-0.828
		c1.805-1.335,3.878-2.117,6.201-1.972c0.714,0.233,1.37,0.027,2.016-0.273c4.267-1.127,8.482-0.18,12.706,0.295
		c3.296,0.334,6.609,0.521,9.53,2.476c0.418,0.28,0.019-0.451-0.056-0.714c-0.225-0.256-0.407-0.532-0.557-0.834
		c-0.574-1.146-0.523-2.435-0.822-3.642c-0.212-0.818-0.437-1.632-0.921-2.346c-0.53-0.893-1.143-1.724-1.856-2.48
		C31.248,7.522,31.006,7.162,31.208,6.698z"/>
	<path fill="#FEE3A0" d="M31.208,6.698c0.187,0.305,0.374,0.609,0.561,0.915C31.62,8.876,30.547,8.8,29.758,8.811
		C22.489,8.907,15.22,8.962,7.951,8.829C7.446,8.5,7.439,8.109,7.809,7.672c0.496-0.642,1.086-1.161,1.867-1.43
		c1.577-0.653,3.22-0.791,4.914-0.77c3.59,0.047,7.182,0.049,10.771-0.001c1.692-0.022,3.328,0.117,4.884,0.827
		C30.566,6.432,30.886,6.564,31.208,6.698z"/>
	<path fill="#FEE8B2" d="M30.245,6.3c-6.857-0.02-13.713-0.039-20.569-0.058c1.203-1.229,2.61-2.085,4.319-2.401
		c2.395,0.038,4.752-0.444,7.149-0.537c1.701-0.066,3.131,1.138,4.792,0.565C27.687,4.123,29.053,5.057,30.245,6.3z"/>
	<path fill="#FBC433" d="M7.809,7.672C7.747,7.98,7.686,8.289,7.624,8.598c-0.074,0.914-0.819,1.508-1.098,2.325
		c-0.836,1.518-0.407,3.334-1.149,4.874c-0.235,0.552-0.602,0.993-1.115,1.306c-0.422,0.211-0.845,0.422-1.325,0.165
		c-1.195-2.804,0.737-4.804,1.946-6.886C5.522,9.283,6.542,8.261,7.809,7.672z"/>
	<path fill="#FEEECA" d="M25.937,3.869c-1.553,1.256-3.262,0.046-4.796,0.002c-2.379-0.069-4.797,1.041-7.146-0.03
		C17.979,2.312,21.96,2.284,25.937,3.869z"/>
	<path fill="#E6CF54" d="M2.937,17.268c0.387-0.161,0.772-0.32,1.159-0.48c1.588,0.084,2.468-1.51,3.925-1.68
		c1.239-0.145,2.728-1.222,3.528,0.755c-2.465,0.179-4.825,0.689-6.628,2.534c-0.979,1.002-1.721,0.853-2.462-0.199
		C2.618,17.887,2.778,17.578,2.937,17.268z"/>
	<path fill="#FED46D" d="M4.857,15.926c0.823-1.708-0.143-3.892,1.438-5.396C7.118,9.957,8.06,9.815,9.028,9.808
		c7.655-0.052,15.311-0.021,22.966-0.02c0.565,0,1.096,0.197,1.647,0.27c0.755,0.619,0.977,1.459,0.985,2.386
		c-0.229,1.442-1.557,1.457-2.521,1.944c-1.387,0.11-2.764,0.464-4.166,0.167c-0.771-0.802-1.73-0.99-2.812-0.979
		c-3.404,0.03-6.811,0.042-10.214-0.007c-1.102-0.016-2.017,0.243-2.758,1.065C9.586,14.277,7.172,14.82,4.857,15.926z"/>
	<path fill="#FEDD89" d="M33.642,10.058c-0.631,0.729-1.486,0.458-2.252,0.459c-8.365,0.019-16.729,0.012-25.095,0.012
		c0.089-0.888,0.631-1.464,1.33-1.932c2.969-0.842,6.007-0.401,9.015-0.45c4.22-0.068,8.442-0.002,12.664-0.03
		c0.837-0.006,1.776,0.308,2.464-0.504C32.719,8.178,33.216,9.09,33.642,10.058z"/>
	<path fill="#FDCC52" d="M12.008,14.418c0.108-0.646-0.566-1.574,0.992-1.534c4.625,0.122,9.257,0.072,13.885,0.025
		c1.358-0.015,1.468,0.571,1.035,1.607c0.094,0.542-0.268,0.833-0.622,1.126c-0.292,0.193-0.605,0.36-0.849,0.622
		c-4.437-0.761-8.87-1.566-13.367-0.433C12.36,15.638,11.867,15.27,12.008,14.418z"/>
	<path fill="#3E2313" d="M12.008,14.418c0.358,0.471,0.716,0.941,1.075,1.414c-0.498,0.738-1.014,0.527-1.535,0.029
		c-1.479-1.244-2.921-0.542-4.359,0.094c-1.365,0.604-2.348,1.761-3.54,2.706c-0.456-0.912,0.354-1.286,0.445-1.874
		c0.254-0.288,0.508-0.576,0.762-0.862C6.895,13.784,9.284,13.304,12.008,14.418z"/>
	<path fill="#3E2312" d="M26.921,15.342c0.333-0.275,0.666-0.55,0.999-0.825c1.322-0.747,2.753-0.711,4.198-0.58
		c1.683,0.056,2.727,1.016,3.447,2.433c0.082,0.137,0.164,0.272,0.247,0.408c0.578,0.442,1.264,1.077,0.743,1.709
		c-0.549,0.669-1.041-0.225-1.487-0.564c-1.938-1.48-4.027-2.399-6.551-2.044C27.962,15.958,27.073,16.626,26.921,15.342z"/>
	<path fill="#814F20" d="M15.376,22.993c-1.174,1.81-2.622,1.92-3.961,0.346c-0.677-0.794-1.375-0.875-2.225-0.909
		c0.729-1.894,2.336-1.813,3.951-1.809C14.763,20.627,14.981,21.875,15.376,22.993z"/>
	<path fill="#643C19" d="M26.466,22.467c-0.59,0.115-1.181,0.23-1.952,0.38c1.41-2.073,5.329-3.337,7.168-2.461
		c0.739,0.354,1.343,0.887,1.456,1.75c0.135,1.029-0.369,1.649-1.377,1.866c-1.379-2.06-1.379-2.059-4.628-1.721
		C26.897,22.305,26.667,22.324,26.466,22.467z"/>
	<path fill="#824E20" d="M26.466,22.467c0.52-0.659,1.423-0.423,2.073-0.97c0.887-0.746,2.093-0.616,3.093-0.101
		c1.419,0.73-0.403,1.751,0.129,2.604c-1.067,0.858-2.043,0.369-2.644-0.486C28.398,22.495,27.5,22.428,26.466,22.467z"/>
	<path fill="#EECF53" d="M26.921,15.342c0.075,0.338,0.297,0.677,0.623,0.528c3.564-1.631,6.065,0.177,8.418,2.536
		c0.078,0.077,0.261,0.051,0.418,0.076c0.328-0.749-0.423-1.127-0.566-1.702c1.066,0.278,1.566,1.117,1.002,1.942
		c-0.688,1.009-1.31-0.047-1.906-0.465c-2.554-1.784-5.455-2.11-8.459-1.992C26.461,15.884,26.531,15.531,26.921,15.342z"/>
	<path fill="#EBDF2A" d="M14.465,33.567c-0.472-0.317-0.509-0.741-0.34-1.247c0.665-1.989,3.499-3.992,5.729-4.033
		c2.341-0.043,5.265,1.941,5.965,4.038c0.168,0.503,0.135,0.929-0.315,1.263c-0.098-0.057-0.192-0.114-0.291-0.169
		c-3.754-5.217-6.722-5.226-10.458-0.024C14.659,33.454,14.562,33.51,14.465,33.567z"/>
	<path fill="#F1DC2A" d="M25.503,33.588c-0.104,0.5-0.291,1.073-0.902,0.646c-2.81-1.967-5.721-1.396-8.654-0.435
		c-0.562,0.184-1.067,0.37-1.481-0.232l0.108-0.129c0.694-0.728,1.562-1.148,2.515-1.421c2.098-0.595,4.198-0.801,6.303-0.034
		c0.86,0.269,1.423,0.937,2.043,1.526L25.503,33.588z"/>
	<path fill="#613919" d="M15.376,22.993c-1.344-2.228-2.447-2.856-6.187-0.562c-1.53-0.119-1.53-0.119-1.139-0.746
		c0.947-1.511,5.438-2.06,6.751-0.82C15.427,21.454,15.698,22.146,15.376,22.993z"/>
	<path fill="#F4CB54" d="M35.567,16.37c-1.148-0.812-2.299-1.622-3.447-2.433c0.836-0.498,1.672-0.996,2.509-1.495
		C35.409,13.641,35.017,15.118,35.567,16.37z"/>
	<path fill="#583518" d="M16.843,32.576c-0.757,0.288-1.514,0.575-2.27,0.862c0.715-2.571,3.058-4.499,5.437-4.472
		c2.443,0.028,4.645,1.872,5.424,4.542c-0.829,0.128-1.282-0.531-1.874-0.897C21.237,29.49,18.217,29.473,16.843,32.576z"/>
	<path fill="#835020" d="M16.843,32.576c-0.2-0.238-0.623-0.583-0.567-0.697c0.827-1.709,2.318-2.36,4.098-2.107
		c1.602,0.228,3.362,0.514,3.188,2.841C21.325,31.828,19.084,32.081,16.843,32.576z"/>
</g>
</svg>
