<?xml version="1.0" encoding="utf-8"?>
<!-- Generator: Adobe Illustrator 16.0.0, SVG Export Plug-In . SVG Version: 6.00 Build 0)  -->
<!DOCTYPE svg PUBLIC "-//W3C//DTD SVG 1.1//EN" "http://www.w3.org/Graphics/SVG/1.1/DTD/svg11.dtd">
<svg version="1.1" id="Layer_1" xmlns="http://www.w3.org/2000/svg" xmlns:xlink="http://www.w3.org/1999/xlink" x="0px" y="0px"
	 width="41.15px" height="41.102px" viewBox="-0.165 -0.19 41.15 41.102" enable-background="new -0.165 -0.19 41.15 41.102"
	 xml:space="preserve">
<g>
	<path fill="#FAAB27" d="M40.821,20.339c0.014,11.429-8.933,20.382-20.364,20.384C9.188,40.725-0.031,31.534,0,20.331
		C0.031,9.282,9.258,0.062,20.345,0C31.688-0.063,40.809,8.998,40.821,20.339z"/>
	<path fill="#FEC62A" d="M32.177,7.147c4.115,2.168,5.975,5.976,6.595,10.223c0.929,6.354-0.974,11.918-5.695,16.497
		c-6.022,5.841-16.613,6.493-23.373,1.554c-4.737-3.461-7.198-8.207-7.653-13.735C1.621,16.482,3.26,11.616,7.23,7.837
		c0.424-0.403,0.873-0.694,1.482-0.645c0.1,0.181,0.118,0.368,0.058,0.563c-0.122,0.27-0.29,0.512-0.458,0.753
		C8.043,8.918,7.79,9.338,7.519,9.747c-0.211,0.337-0.412,0.681-0.618,1.021c-0.401,0.599-0.667,1.253-0.832,1.953
		c-0.154,0.537-0.196,1.086-0.198,1.639c-0.009,2.28,0.441,2.587,2.693,1.896c1.118-0.343,2.214-0.865,3.441-0.562
		c0.523,0.479,0.541,1.188,0.813,1.78c0.812,1.589,1.688,1.814,2.659,0.133c0.393-1.088-0.117-2.409,0.866-3.341
		c2.528,1.389,5.288,0.672,7.946,0.876c0.847,0.505,0.681,1.465,0.997,2.208c1.091,1.955,1.203,1.972,2.638,0.374
		c0.432-0.909,0.044-2.026,0.729-2.87c1.32,0.368,2.194,1.526,3.614,1.838c2.334,0.513,3.289-0.215,2.961-2.638
		c-0.096-0.703-0.27-1.396-0.527-2.06c-0.238-0.558-0.539-1.085-0.817-1.622c-0.173-0.334-0.327-0.681-0.538-0.995
		c-0.172-0.217-0.354-0.427-0.544-0.629c-0.323-0.349-0.681-0.671-0.854-1.132C31.918,7.408,31.995,7.252,32.177,7.147z"/>
	<path fill="#FEE6AE" d="M27.36,4.252c1.279,0.362,2.499,0.832,3.39,1.893c-0.122,1.28-1.17,1.148-1.971,1.17
		c-6.094,0.159-12.19-0.099-18.286,0.144c-0.48,0.02-0.96-0.134-0.929-0.797c0.564-0.954,1.505-1.393,2.47-1.799
		C17.094,3.459,22.238,4.128,27.36,4.252z"/>
	<path fill="#FEECC1" d="M27.36,4.252c-0.34,0.168-0.677,0.478-1.02,0.481c-4.77,0.067-9.539,0.094-14.31,0.128
		C17.047,2.264,22.146,1.824,27.36,4.252z"/>
	<path fill="#FEE29E" d="M9.564,6.662c5.524,0.008,11.05,0.067,16.573-0.011c1.532-0.021,3.179,0.568,4.611-0.506
		c0.476,0.334,0.952,0.668,1.428,1.002c0.004,0.14,0.013,0.277,0.025,0.415c-0.078,1.017-0.892,0.74-1.439,0.742
		C23.812,8.325,16.861,8.319,9.91,8.309c-0.483,0-1.195,0.25-1.272-0.643c0.016-0.159,0.04-0.316,0.075-0.474
		C8.997,7.017,9.281,6.839,9.564,6.662z"/>
	<path fill="#FED670" d="M5.713,12.434c-0.005-0.803,0.17-1.521,0.931-1.962c7.012-0.404,14.03-0.085,21.045-0.172
		c2.147-0.026,4.295,0.033,6.427-0.31c0.304,0.496,0.606,0.993,0.91,1.49c0.645,1.43-0.189,1.929-1.385,2.037
		c-1.585,0.146-3.174,0.264-4.757,0.402c-1.396-0.403-2.796-0.7-4.231-0.154c-2.9-0.389-5.819-0.013-8.726-0.203
		c-1.345-0.694-2.611,0.11-3.917,0.215c-1.431-0.137-2.87-0.098-4.297-0.217C6.935,13.496,5.848,13.738,5.713,12.434z"/>
	<path fill="#FEDB84" d="M34.114,9.99c-0.659,0.819-1.557,1.018-2.554,1.017C23.836,11,16.111,11.003,8.388,11.002
		c-0.633,0-1.292,0.074-1.744-0.53c0.171-0.315,0.342-0.631,0.514-0.947c0.852-0.17,1.617-0.626,2.531-0.617
		c7.963,0.078,15.929-0.233,23.89,0.188C33.756,9.394,33.936,9.691,34.114,9.99z"/>
	<path fill="#FECB4F" d="M28.23,13.423c1.711-0.334,3.425-0.648,5.183-0.497c1.06,0.091,1.706-0.258,1.612-1.445
		c0.691,0.919,0.834,2.035,0.92,3.104c0.213,2.635-1.229,3.692-3.652,2.704c-1.316-0.538-3.245-0.293-3.435-2.443
		C28.138,14.598,27.856,14.156,28.23,13.423z"/>
	<path fill="#FECC53" d="M5.713,12.434c1.173,0.96,2.549,0.356,3.826,0.469c1.005,0.089,2.029-0.046,2.953,0.499
		c0.537,0.98,0.197,1.741-0.597,2.391c-1.35,0.457-2.748,0.806-4.037,1.395c-1.726,0.789-2.455,0.011-2.552-1.538
		C5.241,14.589,4.864,13.409,5.713,12.434z"/>
	<path fill="#FEDC88" d="M33.577,9.095c-0.066,0.683-0.465,0.561-1.002,0.555C24.997,9.592,17.417,9.621,9.839,9.518
		c-0.895-0.012-1.802,0.901-2.684,0.007C7.488,9.067,7.821,8.61,8.153,8.152c6.989-0.039,13.979-0.015,20.969-0.03
		c1.357-0.003,2.7,0.064,4.015,0.438C33.283,8.738,33.43,8.917,33.577,9.095z"/>
	<path fill="#67401C" d="M12.123,26.944c5.509,3.678,10.955,3.518,16.522-0.175c-0.61,2.165-2.516,3.584-5.234,3.938
		C19.098,31.268,14.973,31.089,12.123,26.944z"/>
	<path fill="#FEE19A" d="M33.136,8.56C25.828,8.575,18.519,8.66,11.213,8.521c-0.96-0.018-2.276,1.375-3.061-0.369
		C8.314,7.99,8.475,7.828,8.637,7.666C16.491,7.632,24.346,7.597,32.2,7.562C32.514,7.895,32.825,8.228,33.136,8.56z"/>
	<path fill="#FECD52" d="M15.744,12.944c2.179-0.006,4.356,0.001,6.535-0.026c0.952-0.012,1.883,0.021,2.736,0.503
		c0.438,0.858,0.102,1.453-0.653,1.903c-2.14,0.968-4.396,0.273-6.59,0.458c-1.012,0.085-0.869-1.001-1.397-1.409
		C15.659,14.121,15.38,13.675,15.744,12.944z"/>
	<path fill="#966125" d="M15.744,12.944c0.21,0.477,0.42,0.952,0.631,1.43c-0.162,1.295,0.437,2.689-0.508,3.882
		c-1.334,1.175-2.395,0.404-3.438-0.483c-0.601-0.547-0.37-1.315-0.531-1.98c0.197-0.796,0.396-1.593,0.596-2.391
		C13.46,12.422,14.5,11.958,15.744,12.944z"/>
	<path fill="#966225" d="M24.363,15.324c0.219-0.635,0.437-1.27,0.653-1.902c1.072-1.056,2.145-1.194,3.215,0.001
		c0.208,0.475,0.418,0.949,0.627,1.424c-0.173,1.141,0.365,2.387-0.506,3.424c-1.314,0.947-2.506,0.889-3.541-0.438
		C24.169,17.085,24.572,16.149,24.363,15.324z"/>
	<path fill="#744A1E" d="M12.429,17.772c0.13-0.202,0.261-0.843,0.396-0.524c0.677,1.579,1.921,1.028,3.042,1.008
		C14.259,20.073,13.761,20.003,12.429,17.772z"/>
	<path fill="#6A401D" d="M24.812,17.833c1.096,0.839,2.361,0.285,3.541,0.438C26.687,20.271,26.131,20.202,24.812,17.833z"/>
</g>
</svg>
